<svg width="658" height="508" viewBox="0 0 658 508" fill="none" xmlns="http://www.w3.org/2000/svg">
<g clip-path="url(#clip0_1753_4583)">
<path opacity="0.2" d="M274.254 508.001C265.516 507.996 256.786 507.493 248.106 506.492C238.218 504.234 228.241 501.617 218.591 499.084L216.146 498.443C211.281 499.637 206.282 500.201 201.272 500.122C192.197 499.938 183.153 499.005 174.231 497.335C162.515 495.265 149.311 492.537 135.323 489.658C129.239 488.401 122.951 487.103 116.414 485.782C112.866 483.551 108.969 481.929 104.886 480.984C103.375 480.559 101.814 480.024 100.161 479.47C98.8307 479.019 97.4593 478.554 96.0495 478.122C94.9783 477.762 93.8567 477.417 92.7735 477.083C90.66 476.433 88.484 475.764 86.3729 474.907C73.562 470.661 60.8256 463.872 57.9843 459.772C56.1178 458.772 54.412 457.497 52.9239 455.992C52.0007 455.129 51.2551 454.095 50.7287 452.947C50.4654 452.262 50.3654 451.525 50.4367 450.795C50.508 450.065 50.7486 449.361 51.1394 448.74C40.6926 441.179 31.7991 431.682 24.9436 420.766C18.5285 410.279 14.0039 398.749 11.5755 386.701C10.5842 389.227 10.0397 391.905 9.96633 394.617C9.88657 398.298 10.1091 401.979 10.6316 405.624C11.3129 410.023 12.4353 414.343 13.982 418.518L13.2615 416.973L12.1495 414.574C11.8013 413.778 11.5082 412.967 11.2224 412.175C11.0327 411.652 10.8574 411.165 10.6652 410.681C10.1032 409.145 9.49799 407.677 8.9648 406.384C8.61415 405.535 8.28751 404.741 8.0041 404.002C8.28511 405.309 8.77987 406.842 9.35388 408.62C9.59406 409.34 9.83423 410.083 10.0744 410.858C10.2257 411.3 10.3674 411.748 10.5163 412.223C10.8141 413.171 11.1216 414.142 11.5275 415.102C12.1519 416.541 12.8004 418.057 13.4488 419.595C13.689 420.14 13.9292 420.703 14.1694 421.25C14.5945 422.248 15.0316 423.282 15.536 424.271L17.246 427.416L18.005 428.809C18.3052 429.347 18.5982 429.899 18.884 430.429C19.3884 431.371 19.9071 432.348 20.4499 433.235L22.9405 437.04L22.9669 437.081L23.0438 437.201C24.4608 439.549 25.8731 441.598 27.0067 443.246C28.0902 444.63 29.0045 446.139 29.7302 447.739C29.8455 448.082 29.8551 448.322 29.7615 448.459C29.726 448.502 29.6805 448.536 29.629 448.557C29.5775 448.578 29.5216 448.587 29.4661 448.581C27.0676 447.638 24.8805 446.228 23.0318 444.434L21.8525 442.961L21.8117 442.91C18.8499 439.471 16.2052 435.771 13.91 431.856C12.5506 429.529 11.5803 427.804 10.7589 426.262C9.94471 424.388 9.22659 422.663 8.56851 421.006L8.50367 420.84C7.87441 419.235 7.28118 417.722 6.79363 416.249L6.40935 414.737L6.38293 414.634C6.13475 413.659 5.89458 412.705 5.66241 411.775C5.56634 411.354 5.47027 410.938 5.3742 410.527L5.35739 410.455C4.77232 408.196 4.34379 405.9 4.07486 403.582L3.69778 400.704L3.0349 395.63C2.81875 392.545 2.55455 389.796 2.21591 386.979C1.85325 383.153 1.44495 378.895 0.964602 373.862L0.928576 373.478L0.00390625 363.82C0.10371 363.951 0.228563 364.061 0.371218 364.143C0.513873 364.225 0.671486 364.279 0.834908 364.3C2.45849 364.3 2.80434 357.624 3.20302 349.892C3.37355 346.574 3.55128 343.146 3.84189 339.924C4.00054 335.573 4.65073 331.254 5.78009 327.049C5.97223 326.661 6.15236 326.471 6.33009 326.471C6.92812 326.471 7.54777 328.63 8.47484 333.884C8.95519 324.749 9.81261 314.882 11.1023 303.722C11.1768 299.884 11.148 296.333 11.0759 291.842C9.63489 298.739 8.91436 301.553 8.65978 301.553C8.65384 301.553 8.64797 301.552 8.64258 301.55C8.63718 301.547 8.6324 301.543 8.62856 301.539C8.49061 300.759 8.46071 299.964 8.53969 299.176C8.53969 298.936 8.53969 298.667 8.5517 298.408C8.67478 297.369 8.58323 296.316 8.28271 295.314C8.26929 295.299 8.253 295.287 8.23483 295.279C8.21666 295.271 8.19699 295.266 8.17703 295.266C7.8624 295.266 7.35083 296.35 6.60869 298.579C8.03198 278.867 10.8093 259.277 14.9211 239.946C19.0334 220.842 24.8769 202.151 32.3794 184.104C47.1263 148.615 69.5306 116.812 97.9949 90.9632C108.563 82.79 119.459 75.0151 131.276 67.1946C143.095 59.6403 154.126 53.0577 165.001 47.0747L173.599 42.5408L177.901 40.2618L182.267 38.1315L191.012 33.835L199.658 29.92L199.898 29.812C202.499 28.5838 205.358 27.3435 208.893 25.9018L212.395 24.4408L218.01 22.0971C221.092 20.928 224.187 19.7517 227.295 18.5682L231.974 16.793L236.719 15.1665C240.637 14.3941 243.944 13.8255 246.555 13.4873C248.058 13.3029 249.57 13.2036 251.084 13.1898C251.507 13.1898 251.91 13.1898 252.285 13.221C253.726 13.3122 254.526 13.5833 254.735 14.0558C254.872 14.3653 254.752 14.7491 254.367 15.2337C252.82 16.751 251.078 18.0562 249.187 19.1152C247.025 20.5114 244.564 22.0947 242.962 23.3301C247.65 22.0923 252.468 21.0727 257.132 20.0892L257.201 20.0748C259.029 19.6885 260.919 19.2879 262.774 18.8753C268.821 17.7142 275.849 16.3828 282.739 15.2769C275.738 17.1193 268.826 19.1368 262.99 20.8712L261.858 21.231L261.81 21.2454L261.755 21.2622L260.646 21.6149C277.547 18.0669 295.231 15.2433 313.179 13.2186C324.98 11.8728 336.847 11.1888 348.725 11.1699C361.175 11.1569 373.612 11.9784 385.952 13.6288C386.261 13.6024 386.578 13.5785 386.927 13.5545C388.733 13.4393 390.988 13.3674 393.157 13.3146C394.43 13.3314 395.746 13.3889 397.021 13.4441C398.054 13.4897 399.111 13.5353 400.127 13.5593C401.637 13.6048 402.903 13.6264 403.996 13.6264C408.197 13.6264 410.209 13.2978 410.336 12.5877C410.481 11.7745 408.091 10.479 403.033 8.62467L395.804 7.18531C394.23 6.88064 392.619 6.69113 391.06 6.50641C390.212 6.40565 389.355 6.3049 388.512 6.18735C386.831 5.99304 385.149 5.77474 383.499 5.56123C380.346 5.15341 377.101 4.736 373.892 4.47212L359.225 3.69966L355.555 3.51015C355.281 3.51015 355.008 3.51015 354.734 3.51015C354.225 3.51015 353.708 3.51015 353.209 3.53174C352.767 3.53174 352.33 3.55093 351.893 3.55333L344.565 3.67567C341.38 3.3782 339.761 3.01357 339.749 2.59136C339.737 2.16914 341.471 1.67017 344.762 1.18078C347.344 0.828141 351.66 0.240403 356.497 0.0436905C357.472 0.0436905 358.478 0.0292969 359.494 0.0292969C363.522 0.0292969 367.684 0.0988659 371.865 0.235605C374.793 0.545067 377.445 1.08962 379.791 1.57181C380.569 1.73254 381.302 1.88127 382.022 2.02041L389.722 3.51494L392.698 4.0523L395.652 4.58727C397.333 4.97829 398.907 5.30694 400.439 5.59482C403.172 6.10099 405.737 6.45843 409.289 6.82787C409.931 6.90223 410.589 6.96461 411.288 7.02698C412.354 7.12533 413.449 7.22609 414.626 7.38682L419.307 8.16647L421.341 8.50472C422.583 9.60835 424.062 10.4112 425.664 10.8509C426.716 11.2491 427.972 11.6857 429.507 12.1799L431.119 12.6861L431.248 12.7268L431.71 12.8708C432.456 13.1522 433.219 13.4417 434.001 13.7392C437.138 14.8931 440.522 16.1381 443.781 17.3376C445.407 17.9445 446.999 18.537 448.51 19.1152C449.831 19.6957 451.039 20.2979 452.204 20.8808L452.614 21.0847C455.881 22.2674 458.859 23.2581 461.501 24.1362C463.108 24.6711 464.623 25.1773 466.098 25.6859L467.133 26.0985C470.575 27.4707 473.817 28.7637 477.247 30.2462C477.77 30.4861 478.296 30.714 478.851 30.9659C480.306 31.5643 481.725 32.2484 483.1 33.0146C485.199 34.1829 487.303 35.4135 489.529 36.7545C491.64 38.0428 494.268 39.6476 497.078 41.5308C499.756 43.5267 502.602 45.7025 505.743 48.183C503.79 47.2695 501.703 46.6735 499.561 46.4174C498.956 46.4174 498.586 46.5782 498.456 46.8972C497.858 48.3726 502.429 53.0793 506.978 57.4909L509.247 59.873L509.281 59.909C517.447 68.4684 528.637 80.1896 533.901 88.9361L532.825 87.9309C529.919 85.1288 526.868 82.4808 523.684 79.9977C522.243 78.8798 520.802 77.7091 519.279 76.4712C518.095 75.5117 516.878 74.5113 515.614 73.5181C531.775 88.0697 546.28 104.356 558.867 122.082L558.851 122.046L558.836 122.013L567.614 132.496L575.951 143.382C558.865 114.434 544.402 93.8851 529.052 76.7567C541.45 89.471 551.46 100.041 560.035 110.198C568.126 119.374 575.79 128.909 584.885 141.101C602.629 165.822 613.358 187.491 620.76 213.561C622.626 218.742 624.442 223.252 626.044 227.234C626.952 229.492 627.812 231.624 628.597 233.673L629.949 236.964L629.995 237.077C630.651 238.67 631.285 240.217 631.916 241.741L633.42 245.677L633.554 246.028L634.868 249.468C639.927 262.943 643.22 277.015 644.667 291.334C644.799 292.138 644.728 292.962 644.463 293.733C644.45 293.747 644.434 293.759 644.416 293.768C644.399 293.776 644.379 293.78 644.36 293.781C644.038 293.781 643.514 292.581 643.051 291.54L643.015 291.456C642.534 290.346 642.054 289.297 641.787 289.297C641.771 289.297 641.755 289.301 641.74 289.308C641.725 289.315 641.712 289.325 641.701 289.338C641.43 290.813 641.444 292.326 641.742 293.795C642.043 298.231 642.777 302.627 643.935 306.92C644.304 308.119 644.686 309.218 645.056 310.278C645.613 311.862 646.135 313.354 646.601 315.17L647.463 310.108C647.071 312.495 646.836 316.074 646.586 319.864C646.295 324.247 645.998 328.779 645.424 332.509C645.204 334.533 644.735 336.523 644.028 338.432C644.463 341.711 644.876 344.703 645.229 347.344V347.371C646.209 354.481 646.982 360.099 647.494 365.969C647.854 370.866 647.76 375.786 647.213 380.665C646.376 387.847 644.695 394.906 642.203 401.694C642.419 401.136 642.55 400.548 642.59 399.95C642.51 399.95 642.294 400.375 641.869 401.363L640.286 404.599L638.331 408.594C637.519 410.385 636.445 412.045 635.144 413.521C635.122 413.535 635.096 413.543 635.07 413.545C635.059 413.546 635.049 413.543 635.04 413.539C635.031 413.534 635.023 413.527 635.017 413.519C634.942 413.415 635.017 413 635.257 412.283C635.377 411.897 635.555 411.429 635.778 410.844C636.151 409.858 636.607 408.644 637.104 407.042C636.465 408.265 635.773 409.632 635.043 411.079C631.165 419.154 626.615 426.891 621.442 434.207C614.783 443.517 606.632 451.665 597.317 458.323C596.38 458.06 596.596 456.966 596.81 455.908C596.983 455.042 597.144 454.228 596.695 453.881C596.521 453.743 596.302 453.674 596.08 453.689C594.838 453.689 592.148 455.013 585.644 458.211C583.483 459.276 580.8 460.593 577.659 462.114C576.676 462.594 575.761 463.073 574.875 463.532H574.856C573.626 464.172 572.454 464.777 571.366 465.261C569.394 466.158 567.799 466.909 566.488 467.552C563.976 468.795 562.182 469.79 560.87 470.515L560.464 470.74C557.863 472.28 557.609 473.182 557.556 474.123C557.556 474.185 557.556 474.248 557.556 474.312C557.515 475.164 557.474 476.044 555.51 477.532C553.307 479.297 548.511 481.399 539.958 484.347C542.725 483.555 545.528 482.668 548.237 481.799C549.637 481.353 551.069 480.897 552.491 480.456C555.236 479.511 558.015 478.472 560.693 477.465C562.002 476.985 563.483 476.416 564.912 475.893C562.17 477.611 558.733 479.506 554.698 481.531C550.894 483.275 546.551 485.062 541.426 486.995C530.665 490.716 519.674 493.734 508.522 496.032C485.583 500.945 460.898 503.728 439.138 506.175L436.643 506.456C423.219 506.326 410.507 505.357 397.05 504.333C381.408 503.133 365.241 501.907 346.602 501.907C341.558 501.907 336.488 502.001 331.497 502.183C331.936 502.104 332.679 502.001 333.536 501.881H333.572C336.793 501.432 342.182 500.681 342.41 499.722C342.446 499.571 342.355 499.417 342.137 499.268C338.232 498.727 334.291 498.486 330.349 498.549C324.277 498.549 317.939 498.889 312.54 499.223C306.757 499.969 303.918 500.696 303.858 501.444C303.805 502.114 305.923 502.732 307.969 503.332C309.92 503.903 311.937 504.491 311.932 505.105C311.932 505.422 311.409 505.722 310.338 506.021C308.01 506.189 305.654 506.372 303.373 506.549H303.305C294.2 507.269 284.785 508.001 274.254 508.001ZM160.892 488.471C164.098 488.471 168.179 488.651 172.42 488.85L173.141 488.869H173.484C165.558 487.794 157.89 486.592 150.667 485.307C150.579 485.964 151.542 487.075 156.672 488.62C157.772 488.524 159.148 488.471 160.892 488.471ZM593.904 182.739C605.901 208.818 615.401 235.971 622.278 263.837C628.243 287.464 632.145 311.563 633.941 335.863C634.845 347.783 634.709 359.759 633.533 371.655C632.481 382.492 629.99 393.14 626.126 403.321L626.606 402.361C627.978 399.787 629.151 397.112 630.113 394.358C630.312 393.778 630.53 393.178 630.742 392.6C631.277 391.221 631.733 389.813 632.108 388.383C632.69 386.176 633.218 384.045 633.684 382.052C634.049 380.284 634.304 378.487 634.549 376.748V376.69C634.597 376.348 634.645 376.007 634.693 375.668C634.825 374.817 634.933 373.91 635.026 372.811C634.962 374.759 635.087 375.32 635.353 375.723C635.396 375.798 635.444 375.87 635.49 375.939C635.821 376.443 636.196 377.012 636.115 379.917C636.977 371.873 637.476 365.283 637.88 359.97C638.125 354.968 638.66 349.984 639.482 345.044C639.786 342.78 640.39 340.568 641.278 338.463C640.713 337.518 640.24 336.52 639.866 335.484C638.696 311.3 633.47 294.169 627.754 277.319C627.147 275.56 626.543 273.822 625.941 272.106C620.656 258.01 616.468 243.527 613.416 228.787L615.774 220.978L613.613 215.64L611.288 210.363C610.747 209.163 610.212 207.937 609.693 206.764L609.679 206.731C608.691 204.471 607.673 202.139 606.571 199.887C606.545 199.566 606.564 199.243 606.626 198.927C606.784 197.927 606.965 196.794 604.402 191.49C602.798 188.698 601.846 187.34 601.496 187.34C601.478 187.34 601.459 187.345 601.443 187.353C601.427 187.361 601.413 187.373 601.402 187.388C601.534 189.544 601.997 191.666 602.776 193.681C602.908 194.148 603.045 194.623 603.177 195.098C604.111 198.426 605.065 202.034 604.532 202.737C604.504 202.775 604.468 202.806 604.426 202.827C604.385 202.848 604.338 202.859 604.291 202.859H604.236C600.701 195.605 597.317 189.036 593.904 182.739ZM574.536 146.004C578.302 152.289 581.982 158.896 585.495 165.63C585.808 165.968 586 166.124 586.093 166.124C586.102 166.125 586.111 166.123 586.119 166.12C586.126 166.117 586.133 166.111 586.139 166.105C586.166 166.074 586.168 166.009 586.139 165.908C584.439 161.416 582.231 157.134 579.556 153.143C578.514 151.524 577.356 149.826 575.91 147.796C575.521 147.268 575.117 146.753 574.726 146.256L574.536 146.004ZM232.048 26.7774C209.486 32.6031 187.61 40.8163 166.793 51.2777C165.352 52.0669 163.867 52.849 162.438 53.607C158.857 55.5046 155.168 57.4597 151.7 59.6355L148.578 61.5235L144.361 64.0736L141.373 66.0719L141.33 66.1007L137.263 68.8186L133.742 71.1984L130.337 73.734C128.076 75.4229 125.822 77.1093 123.576 78.7934L123.04 79.2372C121.056 80.8797 119.079 82.5189 117.108 84.155L113.897 86.8274L110.83 89.6486L110.388 90.0564C122.834 79.5494 136.196 70.1754 150.314 62.0465C165.279 53.4591 180.907 46.079 197.048 39.9763C208.364 34.7046 220.062 30.2901 232.041 26.7702L232.048 26.7774ZM453.025 29.4858C452.388 29.4291 451.747 29.5321 451.16 29.7855C450.572 30.039 450.058 30.4348 449.663 30.9371L449.521 31.0859C461.629 36.2994 473.281 42.5117 484.356 49.6584L483.988 49.3729C483.176 48.7252 482.259 47.9911 481.38 47.2547H481.406C481.62 47.2547 481.759 47.1947 481.803 47.0819C481.916 46.7965 481.464 46.1631 480.465 45.1964L480.136 44.8989C478.341 43.2008 476.39 41.6748 474.309 40.3409L472.789 39.3622C467.753 35.9425 462.507 32.8426 457.082 30.0807C455.755 29.7268 454.392 29.5256 453.02 29.481L453.025 29.4858Z" fill="#1E4397"/>
<path d="M489.344 293.234V247.299L529.172 270.266L489.344 293.231V293.234ZM491.782 251.516V289.016L524.296 270.266L491.782 251.516Z" fill="#1E4397"/>
<path d="M240.496 117.665V76.9844L275.773 97.3249L240.496 117.661V117.665ZM242.934 81.2017V113.448L270.897 97.3249L242.934 81.2017Z" fill="#1E4397"/>
<path d="M323.851 184.363C320.199 184.363 316.629 183.281 313.593 181.254C310.556 179.227 308.189 176.346 306.792 172.976C305.395 169.605 305.029 165.897 305.742 162.319C306.454 158.741 308.213 155.455 310.796 152.875C313.378 150.296 316.668 148.539 320.25 147.827C323.832 147.115 327.545 147.48 330.92 148.876C334.294 150.272 337.178 152.636 339.207 155.669C341.237 158.702 342.32 162.268 342.321 165.916C342.314 170.806 340.366 175.495 336.904 178.953C333.442 182.411 328.748 184.357 323.851 184.363ZM323.851 149.905C320.68 149.905 317.581 150.844 314.944 152.604C312.308 154.364 310.253 156.865 309.04 159.791C307.826 162.717 307.509 165.937 308.128 169.043C308.747 172.149 310.274 175.002 312.516 177.242C314.758 179.481 317.615 181.006 320.725 181.624C323.835 182.241 327.059 181.924 329.988 180.711C332.917 179.499 335.421 177.446 337.182 174.813C338.944 172.179 339.883 169.083 339.883 165.916C339.877 161.671 338.186 157.601 335.181 154.6C332.176 151.599 328.101 149.91 323.851 149.905Z" fill="#1E4397"/>
<path d="M216.501 127.269C215.021 127.269 213.575 126.83 212.345 126.009C211.114 125.188 210.155 124.021 209.589 122.656C209.023 121.29 208.875 119.788 209.163 118.338C209.452 116.889 210.164 115.557 211.211 114.512C212.257 113.467 213.59 112.755 215.041 112.467C216.493 112.178 217.997 112.326 219.364 112.892C220.731 113.458 221.899 114.415 222.722 115.644C223.544 116.873 223.982 118.318 223.982 119.796C223.98 121.777 223.191 123.676 221.788 125.077C220.386 126.478 218.484 127.266 216.501 127.269ZM216.501 114.758C215.503 114.758 214.528 115.054 213.699 115.607C212.869 116.161 212.223 116.948 211.841 117.868C211.459 118.789 211.36 119.802 211.554 120.779C211.749 121.756 212.229 122.654 212.935 123.358C213.64 124.063 214.539 124.542 215.517 124.737C216.495 124.931 217.509 124.831 218.431 124.45C219.353 124.069 220.14 123.423 220.695 122.595C221.249 121.766 221.545 120.792 221.545 119.796C221.545 118.46 221.013 117.178 220.067 116.234C219.121 115.289 217.839 114.758 216.501 114.758Z" fill="#1E4397"/>
<path d="M304.571 76.9151C303.092 76.9151 301.645 76.4768 300.415 75.6557C299.185 74.8346 298.226 73.6675 297.659 72.3021C297.093 70.9366 296.945 69.4341 297.234 67.9846C297.522 66.535 298.235 65.2035 299.281 64.1584C300.327 63.1134 301.66 62.4016 303.112 62.1133C304.563 61.825 306.067 61.973 307.434 62.5386C308.801 63.1041 309.97 64.0619 310.792 65.2908C311.614 66.5197 312.053 67.9644 312.053 69.4424C312.05 71.4235 311.261 73.3227 309.859 74.7236C308.456 76.1244 306.555 76.9125 304.571 76.9151ZM304.571 64.4046C303.574 64.4046 302.599 64.7001 301.769 65.2537C300.94 65.8072 300.293 66.594 299.912 67.5145C299.53 68.4351 299.43 69.448 299.625 70.4252C299.819 71.4024 300.299 72.3001 301.005 73.0046C301.71 73.7092 302.609 74.189 303.587 74.3834C304.566 74.5777 305.58 74.478 306.501 74.0967C307.423 73.7154 308.211 73.0697 308.765 72.2412C309.319 71.4128 309.615 70.4388 309.615 69.4424C309.615 68.1063 309.084 66.8249 308.138 65.8802C307.192 64.9354 305.909 64.4046 304.571 64.4046Z" fill="#1E4397"/>
<path d="M122.168 252.587C118.9 252.586 115.706 251.618 112.989 249.804C110.273 247.991 108.155 245.413 106.905 242.398C105.655 239.382 105.328 236.064 105.966 232.863C106.604 229.662 108.178 226.722 110.488 224.415C112.799 222.107 115.743 220.535 118.948 219.899C122.153 219.262 125.474 219.589 128.493 220.838C131.512 222.088 134.092 224.203 135.907 226.916C137.723 229.63 138.692 232.821 138.692 236.084C138.687 240.46 136.944 244.655 133.846 247.748C130.748 250.842 126.548 252.582 122.168 252.587ZM122.168 222.017C119.382 222.017 116.659 222.842 114.343 224.388C112.027 225.933 110.222 228.13 109.156 230.701C108.09 233.271 107.811 236.1 108.354 238.829C108.898 241.557 110.239 244.064 112.209 246.031C114.179 247.999 116.688 249.339 119.42 249.881C122.152 250.424 124.984 250.146 127.557 249.081C130.131 248.016 132.33 246.213 133.878 243.9C135.425 241.586 136.251 238.867 136.251 236.084C136.247 232.355 134.762 228.779 132.121 226.142C129.481 223.505 125.902 222.021 122.168 222.017Z" fill="#1E4397"/>
<path d="M636.235 69.9121H397.793C392.316 69.9077 387.063 72.0757 383.186 75.9395C379.31 79.8033 377.128 85.0466 377.121 90.5165V189.808C377.128 195.278 379.31 200.522 383.186 204.385C387.063 208.249 392.316 210.417 397.793 210.413H425.876C428.896 216.236 430.784 222.578 431.441 229.103C432.433 236.249 432.95 247.98 432.95 247.98C451.782 238.199 468.957 225.522 483.847 210.413H636.242C641.719 210.417 646.973 208.249 650.849 204.385C654.726 200.522 656.907 195.278 656.914 189.808V90.5165C656.907 85.0453 654.725 79.8009 650.847 75.9369C646.969 72.0729 641.713 69.9058 636.235 69.9121Z" fill="white"/>
<path d="M514.824 138.278C514.824 168.079 491.246 192.237 462.161 192.237C433.075 192.237 409.5 168.079 409.5 138.278C409.5 108.476 433.078 84.3184 462.161 84.3184C491.243 84.3184 514.824 108.476 514.824 138.278Z" fill="white"/>
<path d="M476.95 90.51C475.15 90.65 473.43 91.312 472 92.4147C471.373 86.508 469.303 80.8455 465.972 75.9245C460.518 68.1111 439.901 68.7061 433.731 78.2202C433.731 78.2202 432.316 95.0751 434.281 106.048C435.926 115.236 441.323 118.959 445.483 120.202C445.379 121.624 445.243 123.044 445.113 124.32C444.803 125.94 444.133 127.47 443.153 128.797C443.153 128.797 441.493 138.779 459.898 139.345C474.635 139.798 475.646 130.272 475.646 130.272C475.646 130.272 475.615 124.558 475.238 118.717C475.053 115.867 474.904 110.397 474.801 105.542C476.385 105.536 477.94 105.121 479.316 104.336C480.691 103.552 481.84 102.425 482.65 101.065C483.248 100.023 483.57 98.8454 483.585 97.6441C483.6 96.4428 483.308 95.2576 482.736 94.2005C482.165 93.1435 481.332 92.2498 480.318 91.6039C479.304 90.9581 478.141 90.5816 476.941 90.51" fill="white"/>
<path d="M410.859 163.331C408.121 151.367 402.212 148.911 402.212 148.911C402.212 148.911 399.378 149.347 395.869 140.755C392.658 132.893 387.583 121.323 386.743 119.438C388.079 118.043 389.121 116.393 389.805 114.587C390.879 111.454 391.541 103.382 392.687 100.673C393.833 97.9648 397.174 92.5984 395.271 91.2814C393.369 89.9643 390.972 92.8479 388.412 96.6382C386.541 99.4065 385.03 101.544 384.348 102.504C383.599 100.584 383.205 100.736 383.205 100.736C383.205 100.736 382.9 89.0312 382.559 84.6843C382.218 80.3374 379.379 81.6856 379.12 83.3337C378.86 84.9818 378.577 100.04 378.577 100.04C378.577 100.04 375.894 82.7627 375.531 82.0479C374.448 79.9104 372.003 80.2031 372.198 84.1014C372.34 86.8793 373.963 101.518 373.963 101.518H373.091C373.091 101.518 366.551 84.1349 363.847 85.9605C361.861 87.3015 369.371 102.907 369.371 102.907L368.386 103.43C368.386 103.43 360.446 95.2612 359.051 96.8253C357.655 98.3894 365.418 107.253 365.418 107.253C365.418 107.253 365.679 108.124 367.339 112.382C368.37 115.001 369.708 117.487 371.326 119.79C371.326 119.79 373.247 127.419 375.471 138.54C377.695 149.662 382.799 172.548 391.09 181.448C399.381 190.348 410.222 184.943 410.222 184.943C410.222 184.943 414.099 177.506 410.859 163.331Z" fill="white"/>
<path d="M269.529 247.152C270.358 259.931 274.573 275.38 286.757 272.053C297.983 268.982 305.01 259.96 305.01 247.152C305.01 234.344 298.165 224.95 286.216 222.241C275.98 219.924 268.11 225.31 269.529 247.152Z" fill="white"/>
<path d="M259.949 247.147C259.949 261.591 268.905 273.296 279.956 273.296C291.006 273.296 299.962 261.587 299.962 247.147C299.962 232.708 291.006 220.999 279.956 220.999C268.905 220.999 259.949 232.711 259.949 247.147Z" fill="white"/>
<path d="M77.5156 421.027C77.5156 421.027 105.971 370.59 144.618 338.876C184.299 306.315 223.008 306.893 223.008 306.893L269.415 310.029C269.415 310.029 295.06 306.533 344.325 355.047C348.487 359.147 332.674 484.493 332.674 484.493C332.674 484.493 168.614 486.391 168.919 484.493L169.529 450.318C169.529 450.318 104.602 457.546 77.5156 421.027Z" fill="#FFCB57"/>
<mask id="mask0_1753_4583" style="mask-type:luminance" maskUnits="userSpaceOnUse" x="77" y="306" width="269" height="180">
<path d="M77.5156 421.027C77.5156 421.027 105.971 370.59 144.618 338.876C184.299 306.315 223.008 306.893 223.008 306.893L269.415 310.029C269.415 310.029 295.06 306.533 344.325 355.047C348.487 359.147 332.674 484.493 332.674 484.493C332.674 484.493 168.614 486.391 168.919 484.493L169.529 450.318C169.529 450.318 104.602 457.546 77.5156 421.027Z" fill="white"/>
</mask>
<g mask="url(#mask0_1753_4583)">
<path d="M568.8 -145.672H102.346C-3.7693 -145.672 -89.793 -59.7488 -89.793 46.2426V510.261C-89.793 616.252 -3.7693 702.175 102.346 702.175H568.8C674.916 702.175 760.94 616.252 760.94 510.261V46.2426C760.94 -59.7488 674.916 -145.672 568.8 -145.672Z" fill="#1E4397"/>
</g>
<path d="M291.133 209.655C288.346 205.508 285.239 201.584 281.84 197.92C281.84 197.92 263.517 211.625 245.769 225.963C226.576 241.468 219.289 232.56 219.289 232.56C216.248 232.976 213.173 233.097 210.108 232.923C207.688 232.996 205.331 233.705 203.272 234.976C201.213 236.248 199.525 238.038 198.378 240.167C197.231 242.296 196.665 244.689 196.736 247.105C196.808 249.522 197.515 251.877 198.786 253.935C203.515 262.487 213.103 263.113 217.906 262.837C218.201 271.219 218.689 286.688 218.499 292.946C218.156 304.221 213.936 311.061 213.436 311.265C213.66 313.184 216.318 329.216 242.834 331.341C271.033 333.599 274.126 315.875 274.126 315.875C270.374 312.086 267.857 307.253 266.904 302.01C266.472 298.018 266.382 293.997 266.635 289.991C277.407 288.173 289.072 278.524 292.814 257.5C296.698 235.67 291.133 209.655 291.133 209.655Z" fill="white"/>
<path d="M237.34 437.029C237.34 437.029 255.471 446.287 260.877 448.441C261.691 448.767 258.192 454.901 251.114 453.532L241.209 451.612L237.34 437.029Z" fill="white"/>
<path d="M226.7 252.492C226.7 266.95 217.737 278.671 206.68 278.671C195.622 278.671 186.656 266.95 186.656 252.492C186.656 238.033 195.62 226.314 206.68 226.314C217.74 226.314 226.7 238.033 226.7 252.492Z" fill="white"/>
<path d="M219.547 252.491C219.547 265.311 211.602 275.701 201.796 275.701C191.989 275.701 184.047 265.308 184.047 252.491C184.047 239.673 191.992 229.281 201.796 229.281C211.6 229.281 219.547 239.671 219.547 252.491Z" fill="white"/>
<path d="M279.848 183.534C279.848 183.534 253.097 163.066 227.439 181.176C207.387 195.336 211.158 226.837 211.158 226.837C210.133 227.529 208.981 228.012 207.769 228.259C206.556 228.506 205.307 228.512 204.092 228.276C201.923 227.668 199.689 227.322 197.437 227.247C197.437 227.247 196.174 195.291 214.314 178.51C241.069 153.763 276.519 172.163 279.848 183.534Z" fill="white"/>
<path d="M207.422 415.999C206.858 414.66 206.801 413.16 207.262 411.781C207.724 410.403 208.672 409.239 209.93 408.508C211.057 407.697 212.411 407.262 213.8 407.262C215.189 407.262 216.543 407.697 217.671 408.508L262.204 466.581L269.695 483.88L251.36 473.854L207.422 415.999Z" fill="white"/>
<path d="M85.1417 430.434C80.3299 438.539 77.2708 447.56 76.1616 456.918C74.6173 471.791 78.7362 479.492 84.9087 482.056C88.3276 483.554 91.9888 484.423 95.7166 484.623H253.191C254.072 483.925 254.797 483.051 255.319 482.056C255.842 481.062 256.15 479.969 256.225 478.849C256.122 475.512 255.211 475.011 255.211 475.011C256.259 474.935 257.267 474.575 258.125 473.969C258.983 473.363 259.659 472.535 260.08 471.573C260.386 470.548 260.406 469.459 260.138 468.424C259.871 467.389 259.325 466.446 258.559 465.698C259.54 465.651 260.478 465.283 261.228 464.651C261.979 464.019 262.5 463.158 262.712 462.2C263.699 458.859 260.233 456.356 251.863 452.449C244.841 449.336 237.465 447.088 229.899 445.753C229.899 445.753 226.109 440.044 225.137 440.236C213.534 442.551 195.266 451.376 195.266 451.376C195.266 451.376 178.147 451.376 158.299 450.988C138.451 450.599 123.649 448.92 110.24 444.012C101.234 440.781 92.7714 436.202 85.1417 430.434Z" fill="white"/>
<path d="M399.226 347.031L404.306 330.55C408.902 324.963 412.293 318.488 414.268 311.531C417.453 300.122 417.126 297.886 417.126 297.886C417.126 297.886 426.567 279.215 428.474 274.137C430.381 269.058 427.626 266.108 424.449 270.538C421.271 274.969 410.413 290.368 410.413 290.368L408.389 288.746C408.389 288.746 412.39 265.702 414.083 258.52C415.776 251.337 413.214 247.297 410.247 249.2C406.205 251.791 399.151 285.184 399.151 285.184L397.47 284.798C397.47 284.798 402.953 253.436 403.254 249.411C403.676 243.704 397.273 243.721 395.964 249.185C395.03 253.084 388.843 286.107 388.843 286.107C388.843 286.107 388.843 258.918 387.568 253.847C386.292 248.775 382.056 250.466 381.422 255.526C380.788 260.585 379.515 285.105 379.515 285.105L376.969 298.419C374.785 292.712 372.006 287.25 368.676 282.125C364.65 276.857 361.074 279.625 361.074 279.625C361.074 279.625 362.311 285.498 363.807 291.287C365.169 296.55 367.65 301.602 367.65 307.94C367.65 314.278 373.803 325.268 373.803 325.268L371.685 345.55L399.226 347.031Z" fill="white"/>
<path d="M499.776 475.558H328.176C326.644 475.559 325.13 475.222 323.743 474.57C322.357 473.918 321.132 472.968 320.156 471.788C319.18 470.608 318.478 469.226 318.099 467.743C317.721 466.26 317.675 464.711 317.967 463.208L340.757 346.14C341.219 343.775 342.49 341.644 344.353 340.112C346.216 338.58 348.554 337.743 350.967 337.744H522.566C524.098 337.743 525.612 338.079 526.998 338.731C528.385 339.382 529.61 340.332 530.586 341.512C531.561 342.692 532.264 344.072 532.643 345.555C533.021 347.038 533.067 348.586 532.776 350.089L509.988 467.157C509.525 469.522 508.253 471.653 506.39 473.185C504.527 474.717 502.189 475.554 499.776 475.553" fill="white"/>
<path d="M504.409 485.826H282.087C281.16 485.826 280.272 485.46 279.616 484.806C278.96 484.152 278.591 483.265 278.59 482.34V479.174C278.59 478.715 278.681 478.261 278.857 477.838C279.033 477.415 279.29 477.03 279.615 476.706C279.94 476.382 280.325 476.125 280.749 475.95C281.173 475.775 281.628 475.685 282.087 475.686H504.409C504.868 475.685 505.322 475.775 505.746 475.95C506.17 476.125 506.556 476.382 506.88 476.706C507.205 477.03 507.463 477.415 507.639 477.838C507.815 478.261 507.905 478.715 507.906 479.174V482.34C507.905 482.798 507.815 483.252 507.639 483.675C507.463 484.099 507.205 484.483 506.88 484.807C506.555 485.13 506.17 485.387 505.746 485.562C505.322 485.737 504.867 485.826 504.409 485.826Z" fill="white"/>
<path d="M439.058 415.554C434.975 421.791 427.289 423.981 421.902 420.467C416.515 416.952 415.473 409.05 419.565 402.825C423.658 396.6 431.341 394.398 436.721 397.917C442.101 401.436 443.148 409.329 439.055 415.559" fill="white"/>
<path d="M50.6321 506.348H606.027C608.205 506.35 610.363 505.923 612.376 505.092C614.389 504.262 616.218 503.043 617.76 501.506C619.301 499.969 620.525 498.144 621.36 496.134C622.195 494.125 622.626 491.971 622.628 489.795V484.858H34.0312V489.798C34.0331 491.973 34.464 494.127 35.2993 496.137C36.1346 498.146 37.358 499.971 38.8995 501.508C40.441 503.045 42.2706 504.264 44.2836 505.095C46.2967 505.926 48.4539 506.35 50.6321 506.348Z" fill="white"/>
<path d="M505.279 140.662C490.424 128.454 479.912 125.412 474.99 124.673C475.082 127.633 475.094 129.751 475.094 129.751C475.094 129.751 474.092 139.278 459.324 138.827C440.883 138.26 442.548 128.293 442.548 128.293C443.339 127.2 443.944 125.984 444.337 124.694C436.745 125.427 429.464 128.072 423.175 132.383C416.803 136.49 403.351 143.97 399.878 146.503C399.912 146.895 399.912 147.289 399.878 147.681C400.327 148.117 400.92 148.373 401.545 148.401C401.545 148.401 407.454 150.848 410.206 162.816C413.451 176.97 409.567 184.425 409.567 184.425C405.919 186.042 401.843 186.427 397.957 185.522C399.72 187.05 401.868 188.069 404.168 188.468C406.469 188.867 408.834 188.632 411.01 187.786C414.921 186.587 426.502 178.061 427.438 178.874C436.886 187.149 449.023 191.711 461.589 191.711C473.871 191.6 485.735 187.24 495.16 179.374C504.585 171.507 510.988 160.619 513.279 148.566C510.843 145.709 508.165 143.064 505.279 140.662Z" fill="#FFCB57"/>
<mask id="mask1_1753_4583" style="mask-type:luminance" maskUnits="userSpaceOnUse" x="397" y="124" width="117" height="68">
<path d="M505.279 140.662C490.424 128.454 479.912 125.412 474.99 124.673C475.082 127.633 475.094 129.751 475.094 129.751C475.094 129.751 474.092 139.278 459.324 138.827C440.883 138.26 442.548 128.293 442.548 128.293C443.339 127.2 443.944 125.984 444.337 124.694C436.745 125.427 429.464 128.072 423.175 132.383C416.803 136.49 403.351 143.97 399.878 146.503C399.912 146.895 399.912 147.289 399.878 147.681C400.327 148.117 400.92 148.373 401.545 148.401C401.545 148.401 407.454 150.848 410.206 162.816C413.451 176.97 409.567 184.425 409.567 184.425C405.919 186.042 401.843 186.427 397.957 185.522C399.72 187.05 401.868 188.069 404.168 188.468C406.469 188.867 408.834 188.632 411.01 187.786C414.921 186.587 426.502 178.061 427.438 178.874C436.886 187.149 449.023 191.711 461.589 191.711C473.871 191.6 485.735 187.24 495.16 179.374C504.585 171.507 510.988 160.619 513.279 148.566C510.843 145.709 508.165 143.064 505.279 140.662Z" fill="white"/>
</mask>
<g mask="url(#mask1_1753_4583)">
<path d="M852.177 -107.152H276.76C170.645 -107.152 84.6211 -21.2293 84.6211 84.7621V659.505C84.6211 765.497 170.645 851.42 276.76 851.42H852.177C958.292 851.42 1044.32 765.497 1044.32 659.505V84.7621C1044.32 -21.2293 958.292 -107.152 852.177 -107.152Z" fill="#1E4397"/>
</g>
<path d="M600.428 507.312H55.5383C49.5096 507.308 43.7287 504.915 39.4639 500.659C35.1991 496.403 32.7986 490.631 32.7891 484.609C32.7897 484.287 32.9182 483.978 33.1464 483.75C33.3746 483.522 33.684 483.393 34.0067 483.393H85.5889L85.2911 483.282C84.9909 483.172 84.6811 483.059 84.3616 482.927C79.9881 481.106 72.9414 475.251 74.8796 456.539C75.9547 447.199 78.9603 438.184 83.706 430.064C80.9011 427.561 78.3538 424.783 76.1021 421.774L75.6217 421.143L76.0204 420.452C77.2069 418.372 105.538 369.153 143.384 338.104C141.888 336.274 140.537 334.33 139.342 332.291C136.976 328.472 135.468 324.185 134.921 319.727C134.375 315.269 134.803 310.746 136.177 306.469C137.939 301.565 140.703 297.08 144.293 293.3C147.883 289.52 152.221 286.526 157.031 284.509C170.507 278.682 179.127 270.3 183.407 258.879C182.913 256.691 182.659 254.456 182.65 252.212C182.595 246.457 184.277 240.818 187.478 236.032C187.591 234.897 187.706 233.937 187.824 233.103C188.134 230.924 188.35 228.403 188.578 225.731C189.004 217.153 190.538 208.667 193.141 200.482C196.671 190.197 203.324 181.267 212.175 174.938C216.63 171.654 221.743 169.372 227.164 168.248C232.711 165.902 238.676 164.704 244.699 164.726C249.164 164.732 253.607 165.34 257.909 166.532C269.087 169.617 278.891 176.661 280.726 182.915L281.206 184.546C282.075 185.222 282.772 185.784 283.459 186.364C292.761 194.218 297.341 206.844 298.313 227.302C300.965 229.902 303.041 233.029 304.406 236.481C305.771 239.933 306.396 243.632 306.239 247.34C306.405 251.497 305.58 255.633 303.831 259.408C302.082 263.183 299.46 266.489 296.181 269.053C296.077 277.816 298.184 283.528 303.227 288.153C313.795 297.814 315.544 307.148 310.193 325.14C320.279 332.077 329.809 339.788 338.696 348.203L339.196 345.644C339.714 343.004 341.133 340.625 343.212 338.915C345.29 337.205 347.899 336.268 350.592 336.266H370.99L372.138 325.25C371.12 323.372 366.035 313.683 366.035 307.673C365.872 303.667 365.061 299.712 363.634 295.964C363.096 294.311 362.618 292.822 362.231 291.325C360.74 285.543 359.498 279.642 359.491 279.606C359.444 279.384 359.461 279.154 359.539 278.942C359.618 278.73 359.755 278.544 359.935 278.406C360.848 277.763 361.94 277.42 363.057 277.425C363.303 277.425 363.548 277.441 363.792 277.473C364.9 277.689 365.953 278.125 366.889 278.756C367.824 279.387 368.623 280.2 369.237 281.146C371.979 285.157 374.286 289.447 376.12 293.944L377.895 284.629C377.936 283.65 379.166 260.119 379.79 255.122C380.203 251.833 382.048 249.444 384.274 249.31C384.329 249.31 384.394 249.31 384.469 249.31C385.326 249.31 387.418 249.698 388.311 253.294C389.193 259.974 389.59 266.709 389.5 273.445C392.313 258.572 393.896 250.468 394.33 248.648C394.532 247.316 395.183 246.094 396.176 245.183C397.169 244.272 398.444 243.728 399.789 243.641C399.998 243.641 400.206 243.656 400.411 243.687C401.016 243.81 401.59 244.053 402.1 244.4C402.61 244.748 403.045 245.193 403.38 245.711C403.716 246.228 403.945 246.807 404.053 247.414C404.162 248.021 404.149 248.643 404.014 249.245C403.839 251.598 401.98 262.842 400.45 271.86C402.907 261.899 406.416 249.662 409.127 247.923C409.746 247.502 410.475 247.27 411.224 247.256C411.895 247.257 412.549 247.468 413.093 247.861C415.326 249.437 415.975 253.529 414.798 258.541C413.28 264.97 409.906 284.209 409.245 287.993L409.704 288.36C416.489 278.733 421.206 272.064 422.981 269.578C424.563 267.371 425.997 266.908 426.919 266.908C427.343 266.904 427.76 267.005 428.135 267.201C429.967 268.175 430.371 271.039 429.139 274.304C427.395 278.968 419.469 294.748 417.911 297.867C417.449 302.53 416.474 307.129 415.004 311.579C413.017 318.629 409.602 325.196 404.97 330.873L403.31 336.254H449.028C449.192 336.247 449.356 336.273 449.51 336.331C449.664 336.389 449.804 336.477 449.923 336.59C450.042 336.704 450.137 336.84 450.201 336.991C450.266 337.142 450.299 337.305 450.299 337.469C450.299 337.634 450.266 337.796 450.201 337.947C450.137 338.098 450.042 338.235 449.923 338.348C449.804 338.462 449.664 338.55 449.51 338.608C449.356 338.666 449.192 338.692 449.028 338.684H350.597C348.47 338.686 346.409 339.426 344.767 340.777C343.125 342.128 342.004 344.007 341.595 346.092L336.761 370.943C336.707 371.221 336.557 371.472 336.338 371.651C336.119 371.831 335.843 371.928 335.56 371.926C335.479 371.927 335.399 371.92 335.319 371.907C335.004 371.844 334.726 371.659 334.546 371.392C334.366 371.125 334.299 370.798 334.359 370.482L338.151 350.986C322.408 336.165 307.548 325.214 294.022 318.452C287.18 314.693 279.678 312.285 271.926 311.358C272.741 312.555 273.658 313.679 274.668 314.717L275.149 315.165L275.041 315.813C274.238 318.971 272.624 321.865 270.36 324.209C266.846 327.98 259.999 332.478 247.327 332.478C245.78 332.478 244.149 332.411 242.487 332.279C227.503 331.08 220.017 325.397 216.376 320.846C214.2 318.189 212.724 315.03 212.081 311.658L211.76 311.353L212.048 310.394L212.497 309.12C187.645 313.131 164.337 323.763 145.027 339.896C109.241 369.216 81.5684 415.752 78.5302 420.96C82.3171 425.828 86.8575 430.061 91.98 433.5C97.8333 437.177 104.056 440.232 110.545 442.616C112.815 443.446 115.058 444.165 117.405 444.815L117.585 444.866L117.746 444.911C118.387 445.089 119.076 445.269 119.907 445.478L120.388 445.593C132.797 448.278 145.463 449.595 158.16 449.52L159.411 449.544H159.611H159.769L161.21 449.57C164.544 449.469 166.974 449.292 168.115 449.193C168.783 443.829 172.378 415.88 177.242 392.819C177.301 392.549 177.45 392.306 177.664 392.132C177.879 391.958 178.147 391.861 178.423 391.859C178.512 391.859 178.599 391.87 178.685 391.89C179.001 391.957 179.278 392.145 179.454 392.415C179.631 392.685 179.693 393.014 179.627 393.33C174.778 416.376 171.185 444.355 170.512 449.728C184.296 449.913 194.7 449.916 194.803 449.916C203.991 445.452 213.564 441.827 223.406 439.087L206.257 416.482C206.199 416.402 206.149 416.317 206.108 416.227C205.409 414.62 205.329 412.811 205.882 411.148C206.435 409.484 207.583 408.083 209.106 407.212C210.499 406.332 212.107 405.85 213.755 405.818C215.383 405.807 216.968 406.341 218.256 407.335C218.322 407.388 218.38 407.45 218.432 407.517L241.5 437.635C247.188 440.514 257.294 445.552 261.07 447.054C261.44 447.219 261.731 447.523 261.877 447.901C262.023 448.28 262.014 448.7 261.85 449.071C260.956 451.119 259.329 452.759 257.287 453.67C261.055 455.747 264.754 458.403 263.604 462.292C263.346 463.204 262.891 464.05 262.271 464.767L262.897 465.588C262.958 465.667 263.008 465.753 263.046 465.844L270.53 483.143C270.546 483.189 270.552 483.237 270.547 483.285C270.543 483.32 270.543 483.355 270.547 483.39H277.61C277.261 482.657 277.076 481.856 277.07 481.044V479.945C277.074 478.421 277.683 476.96 278.763 475.884C279.844 474.807 281.308 474.202 282.834 474.202H320.895C320.148 473.65 319.47 473.01 318.875 472.298C317.783 470.981 316.998 469.438 316.576 467.781C316.154 466.124 316.106 464.394 316.435 462.716L320.945 439.528C320.821 439.415 320.721 439.277 320.654 439.122C320.587 438.968 320.552 438.802 320.554 438.633C321.079 412.516 316.813 386.523 307.966 361.94C304.635 352.433 300.156 343.368 294.629 334.944C294.535 334.816 294.467 334.669 294.429 334.514C294.391 334.359 294.384 334.198 294.409 334.04C294.433 333.883 294.489 333.731 294.572 333.595C294.655 333.459 294.764 333.34 294.893 333.246C295.101 333.09 295.354 333.006 295.614 333.006C295.805 333.007 295.994 333.052 296.165 333.138C296.336 333.225 296.484 333.349 296.599 333.503C296.839 333.839 321.277 367.908 322.9 429.46L329.462 395.743C329.516 395.465 329.666 395.215 329.885 395.036C330.104 394.856 330.379 394.758 330.663 394.759C330.842 394.758 331.019 394.796 331.181 394.871C331.344 394.947 331.487 395.057 331.601 395.195C331.715 395.333 331.797 395.495 331.84 395.669C331.883 395.842 331.887 396.023 331.851 396.199L318.836 463.191C318.578 464.517 318.617 465.883 318.95 467.192C319.283 468.501 319.902 469.72 320.763 470.762C321.623 471.804 322.704 472.642 323.927 473.218C325.15 473.793 326.486 474.091 327.838 474.09H499.25C501.379 474.088 503.441 473.347 505.083 471.995C506.726 470.643 507.848 468.763 508.257 466.677L531.021 349.592C531.278 348.267 531.238 346.901 530.905 345.592C530.571 344.284 529.952 343.065 529.092 342.023C528.232 340.982 527.151 340.143 525.929 339.568C524.706 338.992 523.371 338.694 522.019 338.694H486.197C486.033 338.701 485.868 338.675 485.715 338.617C485.561 338.56 485.42 338.471 485.301 338.358C485.182 338.244 485.088 338.108 485.023 337.957C484.958 337.806 484.925 337.643 484.925 337.479C484.925 337.315 484.958 337.152 485.023 337.001C485.088 336.85 485.182 336.714 485.301 336.6C485.42 336.486 485.561 336.398 485.715 336.34C485.868 336.283 486.033 336.257 486.197 336.264H522.009C523.72 336.263 525.411 336.64 526.959 337.369C528.507 338.097 529.874 339.158 530.964 340.477C532.053 341.795 532.837 343.338 533.259 344.994C533.681 346.65 533.731 348.38 533.405 350.058L510.642 467.142C510.328 468.718 509.69 470.211 508.77 471.528C507.849 472.845 506.665 473.957 505.293 474.795C506.272 475.26 507.1 475.991 507.682 476.904C508.265 477.818 508.577 478.877 508.583 479.96V481.049C508.577 481.861 508.391 482.662 508.041 483.395H621.96C622.283 483.396 622.592 483.524 622.82 483.752C623.047 483.98 623.175 484.289 623.175 484.611C623.166 490.632 620.766 496.404 616.501 500.66C612.237 504.915 606.457 507.308 600.428 507.312ZM35.2629 485.823C35.5784 490.981 37.8516 495.824 41.6192 499.366C45.3867 502.907 50.3647 504.88 55.5383 504.882H600.428C605.602 504.88 610.58 502.907 614.348 499.366C618.115 495.824 620.388 490.981 620.704 485.823H35.2629ZM282.834 476.647C281.955 476.647 281.112 476.995 280.49 477.615C279.868 478.236 279.517 479.077 279.515 479.955V481.044C279.514 481.481 279.601 481.913 279.769 482.316C279.937 482.718 280.184 483.084 280.495 483.39H505.161C505.472 483.084 505.72 482.719 505.888 482.316C506.056 481.913 506.142 481.481 506.141 481.044V479.945C506.139 479.067 505.788 478.226 505.166 477.606C504.544 476.986 503.701 476.637 502.822 476.637L282.834 476.647ZM257.155 478.302C257.155 478.348 257.155 478.386 257.155 478.427C257.155 478.468 257.155 478.508 257.155 478.556C257.162 480.312 256.569 482.017 255.474 483.39H266.421L257.155 478.302ZM85.404 431.979C81.0985 439.637 78.345 448.067 77.3005 456.789C75.9844 469.503 78.8232 477.985 85.2983 480.679C88.566 482.111 92.0634 482.948 95.6258 483.15H252.459C253.12 482.586 253.661 481.895 254.05 481.118C254.44 480.342 254.67 479.495 254.727 478.628C254.766 477.661 254.598 476.697 254.232 475.8C246.081 473.339 237.673 471.821 229.175 471.278H229.05C228.935 471.317 228.815 471.337 228.694 471.338C228.492 471.326 228.295 471.263 228.124 471.154C227.953 471.045 227.812 470.894 227.716 470.716C227.62 470.538 227.571 470.337 227.574 470.135C227.577 469.932 227.632 469.733 227.734 469.558C227.901 469.26 228.173 469.034 228.497 468.925C228.762 468.87 229.032 468.849 229.302 468.862C238.05 469.353 246.705 470.915 255.073 473.514C255.851 473.43 256.593 473.142 257.224 472.679C257.854 472.215 258.35 471.593 258.661 470.875C258.891 470.106 258.911 469.289 258.717 468.509C258.524 467.73 258.124 467.017 257.561 466.444C248.141 461.886 229.376 459.727 227.268 459.502H227.232C227.073 459.486 226.918 459.439 226.778 459.363C226.637 459.288 226.513 459.185 226.412 459.061C226.311 458.938 226.236 458.795 226.19 458.642C226.144 458.489 226.129 458.329 226.146 458.17C226.182 457.875 226.323 457.602 226.543 457.401C226.764 457.201 227.049 457.086 227.347 457.079C227.388 457.076 227.43 457.076 227.472 457.079C228.312 457.165 248.194 459.267 258.497 464.201C259.171 464.104 259.798 463.802 260.292 463.335C260.786 462.868 261.123 462.26 261.257 461.594C261.857 459.554 259.761 457.592 253.776 454.591C252.981 454.169 251.806 453.632 251.242 453.363L251.069 453.284C244.155 450.226 236.898 448.011 229.453 446.689C229.287 446.661 229.129 446.601 228.987 446.51C228.845 446.419 228.724 446.3 228.629 446.161C227.514 444.395 226.227 442.744 224.787 441.231C213.498 443.587 195.75 452.125 195.577 452.209C195.412 452.288 195.231 452.329 195.048 452.331C194.878 452.331 177.83 452.331 158.095 451.94C136.225 451.508 122.201 449.465 109.695 444.885C101.026 441.74 92.8425 437.391 85.3872 431.967L85.404 431.979ZM260.515 466.478C260.974 467.278 261.25 468.17 261.322 469.09C261.393 470.009 261.259 470.933 260.93 471.795C260.6 472.656 260.082 473.434 259.414 474.071C258.746 474.708 257.945 475.189 257.068 475.479L266.896 480.857L260.878 466.943L260.515 466.478ZM244.88 442.057L251.636 450.875L251.845 450.969L252.116 451.091C252.837 451.429 253.557 451.765 254.232 452.094C255.302 451.916 256.325 451.523 257.239 450.938C258.035 450.409 258.714 449.723 259.235 448.922C256.547 447.781 251.72 445.466 244.88 442.057ZM213.751 408.256C212.54 408.283 211.36 408.641 210.338 409.29C209.344 409.851 208.588 410.753 208.21 411.828C207.832 412.904 207.857 414.08 208.282 415.138L227.866 440.953C228.329 441.51 228.877 442.232 229.492 443.1L230.484 444.405C236.156 445.457 241.727 446.996 247.135 449.004L216.577 409.11C215.745 408.544 214.758 408.244 213.751 408.256ZM363.057 279.836C362.725 279.835 362.394 279.891 362.08 279.999C362.202 280.556 363.281 285.618 364.602 290.711C364.981 292.186 365.466 293.678 365.935 295.12L365.963 295.209C367.475 299.197 368.324 303.406 368.476 307.669C368.476 313.318 373.836 323.262 374.446 324.382L374.458 324.406C374.581 324.625 374.633 324.876 374.605 325.126L373.445 336.266H400.767L402.72 329.923C402.773 329.758 402.859 329.605 402.974 329.475C407.437 324.022 410.734 317.713 412.663 310.938C415.612 300.333 415.485 297.835 415.478 297.744C415.458 297.513 415.5 297.28 415.6 297.07L415.694 296.883C417.906 292.483 425.248 277.792 426.879 273.445C427.811 270.97 427.359 269.528 427.016 269.343C426.99 269.333 426.963 269.328 426.936 269.329C426.653 269.329 425.925 269.679 424.988 270.987C422.001 275.163 412.11 289.194 410.991 290.78L410.972 290.806C410.945 290.844 410.913 290.877 410.876 290.905L410.813 290.96C410.861 290.996 410.909 291.027 410.958 291.058C411.006 291.09 411.066 291.128 411.116 291.169C411.374 291.363 411.544 291.652 411.589 291.972C411.634 292.291 411.55 292.615 411.355 292.873C411.16 293.131 410.871 293.301 410.551 293.346C410.231 293.39 409.907 293.306 409.649 293.112C404.863 289.34 398.959 287.261 392.863 287.203C389.708 287.165 386.579 287.769 383.667 288.978C383.505 289.057 383.328 289.098 383.148 289.098C382.872 289.098 382.605 289.003 382.39 288.831C382.175 288.659 382.025 288.419 381.964 288.15C381.903 287.882 381.935 287.601 382.055 287.353C382.175 287.105 382.376 286.905 382.624 286.786C384.096 286.145 385.633 285.667 387.209 285.361C387.209 275.477 386.938 257.718 385.977 253.882C385.648 252.577 385.081 251.735 384.536 251.735C384.506 251.733 384.477 251.733 384.447 251.735C383.727 251.776 382.54 252.975 382.233 255.42C381.661 259.978 380.551 280.683 380.338 284.79V284.92L377.919 297.627C381.35 300.696 384.121 304.43 386.063 308.602C387.696 312.352 388.703 316.344 389.044 320.419C389.071 320.741 388.969 321.06 388.761 321.307C388.553 321.554 388.256 321.709 387.934 321.738H387.826C387.522 321.739 387.229 321.625 387.006 321.418C386.784 321.211 386.647 320.928 386.625 320.625C386.308 316.871 385.393 313.191 383.914 309.724C379.557 301.424 376.005 299.222 375.971 299.2L375.952 299.184C375.76 299.057 375.609 298.877 375.517 298.665C375.51 298.652 375.501 298.641 375.489 298.632C375.474 298.622 375.462 298.608 375.455 298.591C373.311 292.993 370.59 287.633 367.335 282.597C366.891 281.832 366.271 281.183 365.527 280.703C364.783 280.224 363.936 279.927 363.055 279.839L363.057 279.836ZM223.427 235.823C226.268 240.818 227.736 246.475 227.681 252.22C227.781 256.228 227.089 260.216 225.645 263.956C224.2 267.697 222.031 271.116 219.263 274.019C219.517 283.089 219.592 289.372 219.491 292.718C219.515 299.262 217.789 305.694 214.49 311.349C215.204 315.045 217.04 318.433 219.748 321.052C224.746 326.09 232.46 329.043 242.682 329.863C244.279 329.991 245.843 330.055 247.334 330.055C255.781 330.055 262.422 328.033 267.074 324.044C269.611 321.93 271.488 319.133 272.483 315.986C268.809 312.093 266.355 307.212 265.422 301.945C265.005 298.362 264.892 294.751 265.085 291.15C264.169 291.252 263.248 291.304 262.326 291.305C254.477 290.97 246.887 288.397 240.456 283.89C235.173 280.351 230.725 275.706 227.419 270.279C227.329 270.143 227.267 269.99 227.237 269.83C227.207 269.67 227.209 269.505 227.244 269.346C227.279 269.187 227.345 269.036 227.44 268.903C227.534 268.77 227.654 268.658 227.793 268.572C227.932 268.486 228.087 268.429 228.248 268.404C228.409 268.379 228.574 268.387 228.732 268.427C228.89 268.467 229.039 268.538 229.169 268.637C229.299 268.735 229.408 268.859 229.489 269C232.612 274.146 236.83 278.542 241.846 281.875C247.86 286.099 254.957 288.52 262.302 288.854C263.191 288.855 264.079 288.806 264.963 288.707C275.18 287.549 287.465 278.613 291.305 257.013C294.908 236.73 290.227 212.539 289.682 209.847C287.176 206.129 284.404 202.595 281.388 199.275C278.295 201.607 262.045 213.878 246.28 226.623C238.546 232.877 231.73 236.051 226.016 236.051C225.148 236.058 224.281 235.982 223.427 235.823ZM411.243 249.677C410.964 249.693 410.696 249.787 410.468 249.948C408.208 251.402 403.327 268.998 399.917 285.174C399.882 285.337 399.814 285.491 399.717 285.627C402.17 286.247 404.534 287.174 406.754 288.386C406.757 288.368 406.757 288.351 406.754 288.333C406.749 288.311 406.749 288.288 406.754 288.266C406.79 288.05 410.732 265.279 412.461 257.968C413.587 253.17 412.636 250.476 411.721 249.83C411.585 249.725 411.416 249.672 411.243 249.677ZM399.775 246.05C398.668 246.05 397.239 247.033 396.72 249.195C395.963 252.364 391.65 275.24 389.832 284.939C390.851 284.829 391.876 284.773 392.901 284.773C393.907 284.773 394.913 284.828 395.913 284.936C395.84 284.746 395.817 284.54 395.848 284.339C395.903 284.032 401.317 252.947 401.612 249.06C401.737 247.369 401.161 246.256 400.07 246.083C399.973 246.064 399.874 246.053 399.775 246.05ZM210.912 228C209.948 228.538 208.914 228.937 207.84 229.188C215.439 232.62 220.543 241.878 220.543 252.217C220.543 265.301 212.593 276.007 202.443 276.588C203.749 276.976 205.104 277.175 206.466 277.181C216.822 277.181 225.248 265.982 225.248 252.215C225.248 240.7 219.354 230.732 210.912 227.986V228ZM201.591 230.224C192.486 230.224 185.079 240.091 185.079 252.22C185.079 264.349 192.486 274.215 201.591 274.215C210.696 274.215 218.105 264.349 218.105 252.22C218.105 240.091 210.696 230.217 201.591 230.217V230.224ZM298.45 231.095C298.477 232.095 298.506 233.11 298.518 234.132C300.293 238.308 301.204 242.8 301.193 247.338C301.262 253.435 299.591 259.426 296.375 264.61C296.358 264.85 296.344 265.071 296.33 265.301C296.33 265.476 296.308 265.639 296.298 265.802C298.799 263.442 300.762 260.573 302.056 257.389C303.349 254.205 303.943 250.781 303.797 247.347C303.978 241.471 302.086 235.718 298.45 231.095ZM298.422 242.763C298.201 247.561 297.687 252.078 297.187 256.437L297.05 257.636C298.184 254.32 298.758 250.839 298.751 247.335C298.746 245.806 298.636 244.278 298.422 242.763ZM244.654 167.144C233.561 167.121 222.895 171.417 214.92 179.119C199.227 193.652 198.432 220.566 198.432 225.815C200.369 225.999 202.289 226.337 204.172 226.825C204.661 226.943 205.161 227.003 205.664 227.002C207.06 226.969 208.427 226.598 209.648 225.92C209.168 220.571 207.698 193.194 226.501 179.904C233.39 174.923 241.679 172.245 250.183 172.254C259.23 172.484 268.076 174.977 275.91 179.503C270.779 174.333 264.334 170.659 257.268 168.876C253.16 167.734 248.917 167.151 244.654 167.144Z" fill="#393F49"/>
<path d="M471.411 338.693C471.576 338.7 471.74 338.674 471.894 338.617C472.048 338.559 472.188 338.47 472.307 338.357C472.426 338.243 472.521 338.107 472.585 337.956C472.65 337.805 472.683 337.642 472.683 337.478C472.683 337.314 472.65 337.151 472.585 337C472.521 336.849 472.426 336.713 472.307 336.599C472.188 336.486 472.048 336.397 471.894 336.339C471.74 336.282 471.576 336.256 471.411 336.263H463.198C463.033 336.256 462.869 336.282 462.715 336.339C462.561 336.397 462.421 336.486 462.302 336.599C462.183 336.713 462.088 336.849 462.024 337C461.959 337.151 461.926 337.314 461.926 337.478C461.926 337.642 461.959 337.805 462.024 337.956C462.088 338.107 462.183 338.243 462.302 338.357C462.421 338.47 462.561 338.559 462.715 338.617C462.869 338.674 463.033 338.7 463.198 338.693H471.411Z" fill="#393F49"/>
<path d="M427.164 423.085C424.899 423.099 422.679 422.451 420.778 421.221C419.337 420.254 418.123 418.987 417.22 417.506C416.317 416.026 415.746 414.367 415.547 412.645C415.068 408.872 415.974 405.053 418.097 401.895C419.429 399.781 421.26 398.025 423.43 396.782C425.599 395.539 428.041 394.846 430.541 394.766C432.805 394.753 435.023 395.401 436.922 396.632C438.378 397.606 439.602 398.886 440.51 400.382C441.418 401.879 441.987 403.555 442.177 405.295C442.625 409.043 441.711 412.827 439.6 415.958C438.27 418.073 436.441 419.828 434.272 421.071C432.104 422.314 429.663 423.006 427.164 423.085ZM430.526 397.191C428.432 397.273 426.389 397.866 424.577 398.919C422.766 399.972 421.24 401.453 420.134 403.232C418.366 405.851 417.585 409.011 417.929 412.151C418.065 413.559 418.51 414.921 419.234 416.137C419.957 417.353 420.942 418.395 422.116 419.187C423.621 420.167 425.381 420.684 427.178 420.674C429.274 420.591 431.317 419.996 433.128 418.941C434.94 417.886 436.464 416.403 437.568 414.622C439.356 411.976 440.134 408.779 439.761 405.609C439.616 404.215 439.166 402.87 438.444 401.668C437.722 400.466 436.745 399.436 435.582 398.652C434.076 397.682 432.318 397.174 430.526 397.191Z" fill="#393F49"/>
<path d="M261.922 243.909C262.457 243.024 262.708 241.996 262.642 240.965C262.577 239.933 262.197 238.945 261.554 238.135C261.247 237.825 260.867 237.597 260.448 237.47C260.03 237.343 259.587 237.321 259.159 237.407C258.731 237.493 258.33 237.684 257.994 237.963C257.657 238.241 257.395 238.599 257.231 239.003C256.701 239.887 256.452 240.911 256.518 241.94C256.584 242.968 256.962 243.952 257.601 244.761C257.908 245.071 258.288 245.3 258.705 245.427C259.123 245.555 259.566 245.577 259.994 245.492C260.422 245.407 260.823 245.217 261.16 244.94C261.496 244.662 261.759 244.306 261.924 243.902" fill="#393F49"/>
<path d="M281.829 236.84C281.364 237.755 281.173 238.785 281.278 239.806C281.383 240.827 281.78 241.796 282.422 242.597C283.693 243.883 285.482 243.396 286.423 241.508C286.889 240.594 287.081 239.564 286.976 238.544C286.87 237.523 286.473 236.554 285.83 235.753C284.562 234.465 282.77 234.952 281.829 236.84Z" fill="#393F49"/>
<path d="M272.892 261.018C272.961 261.018 273.03 261.013 273.098 261.001L277.65 260.227C278.138 260.166 278.603 259.981 278.999 259.689C279.395 259.397 279.709 259.008 279.91 258.56C280.112 258.111 280.194 257.618 280.15 257.129C280.105 256.639 279.935 256.169 279.655 255.765L277.4 251.631C276.05 248.553 275.261 245.259 275.068 241.904C275.063 241.584 274.932 241.279 274.704 241.055C274.477 240.831 274.17 240.705 273.85 240.704H273.836C273.676 240.706 273.518 240.74 273.371 240.803C273.224 240.866 273.091 240.958 272.979 241.072C272.868 241.187 272.78 241.322 272.721 241.47C272.662 241.619 272.633 241.777 272.635 241.937C272.831 245.651 273.705 249.299 275.214 252.699L277.599 257.055C277.655 257.127 277.692 257.212 277.707 257.301C277.722 257.391 277.715 257.483 277.686 257.569C277.664 257.617 277.602 257.765 277.256 257.808L272.692 258.586C272.369 258.612 272.07 258.766 271.861 259.012C271.651 259.259 271.548 259.579 271.574 259.902C271.601 260.224 271.754 260.523 272.002 260.732C272.249 260.942 272.569 261.045 272.892 261.018Z" fill="#393F49"/>
<path d="M253.526 262.698C253.385 262.407 253.134 262.185 252.829 262.079C252.523 261.973 252.188 261.993 251.898 262.134C251.607 262.275 251.384 262.525 251.278 262.83C251.172 263.135 251.192 263.47 251.333 263.76C252.843 266.461 255.051 268.707 257.726 270.265C260.402 271.823 263.447 272.635 266.543 272.617C268.017 272.612 269.486 272.46 270.929 272.164C271.242 272.097 271.516 271.909 271.692 271.642C271.868 271.374 271.931 271.048 271.868 270.735C271.804 270.421 271.62 270.145 271.355 269.966C271.089 269.787 270.763 269.72 270.449 269.779C267.241 270.659 263.831 270.44 260.763 269.156C257.696 267.873 255.147 265.598 253.526 262.698Z" fill="#393F49"/>
<path d="M250.415 228.966C250.614 228.966 250.81 228.917 250.986 228.824C251.162 228.731 251.312 228.596 251.424 228.431C252.747 226.668 254.649 225.425 256.796 224.922C258.944 224.418 261.201 224.686 263.171 225.677C263.319 225.737 263.478 225.768 263.638 225.767C263.798 225.766 263.956 225.733 264.104 225.671C264.251 225.609 264.385 225.518 264.497 225.405C264.609 225.291 264.698 225.156 264.758 225.008C264.819 224.86 264.849 224.701 264.848 224.542C264.847 224.382 264.814 224.224 264.752 224.077C264.69 223.929 264.599 223.796 264.485 223.683C264.372 223.571 264.237 223.482 264.088 223.422C261.593 222.256 258.773 221.983 256.1 222.647C253.427 223.311 251.064 224.873 249.407 227.071C249.283 227.254 249.212 227.467 249.201 227.687C249.189 227.907 249.238 228.126 249.342 228.321C249.445 228.516 249.6 228.678 249.789 228.792C249.978 228.906 250.195 228.966 250.415 228.966Z" fill="#393F49"/>
<path d="M281.5 225.658C282.526 224.938 283.759 224.575 285.012 224.624C286.264 224.672 287.465 225.13 288.432 225.926C288.649 226.098 288.919 226.191 289.196 226.19C289.447 226.189 289.692 226.111 289.896 225.966C290.101 225.82 290.256 225.615 290.339 225.378C290.422 225.142 290.43 224.885 290.361 224.644C290.292 224.403 290.15 224.188 289.955 224.031C288.568 222.894 286.845 222.245 285.052 222.186C283.259 222.127 281.496 222.661 280.038 223.705C279.779 223.898 279.607 224.185 279.56 224.505C279.513 224.824 279.595 225.149 279.788 225.408C279.981 225.667 280.269 225.839 280.589 225.886C280.909 225.932 281.234 225.85 281.493 225.658" fill="#393F49"/>
<path d="M431.773 250.079L431.689 248.23C431.689 248.129 431.158 236.437 430.193 229.446C429.551 223.304 427.825 217.325 425.094 211.785H397.776C391.978 211.781 386.419 209.48 382.317 205.388C378.214 201.296 375.904 195.746 375.892 189.955V146.489C375.294 143.85 374.76 141.357 374.263 138.86C372.13 128.23 370.262 120.681 370.18 120.364C368.567 118.027 367.228 115.513 366.191 112.87C364.935 109.646 364.483 108.382 364.327 107.914C356.053 98.4045 357.619 96.6388 358.133 96.0511C358.307 95.8608 358.518 95.7084 358.754 95.6035C358.989 95.4987 359.244 95.4436 359.502 95.4418H359.601C360.962 95.4418 363.345 97.0131 366.681 100.115C360.588 86.7145 362.449 85.4526 363.15 84.98C363.479 84.7562 363.867 84.6367 364.265 84.637C364.489 84.6382 364.712 84.6738 364.925 84.7425C367.185 85.4622 370.077 91.2053 372.104 95.9L372.056 95.5042C371.729 92.4143 371.052 85.9828 370.968 84.1836C370.778 80.5324 372.625 79.76 373.194 79.6088C373.395 79.5547 373.602 79.5273 373.809 79.5273C374.412 79.5709 374.992 79.7799 375.484 80.1312C375.976 80.4825 376.361 80.9625 376.598 81.5184C376.808 82.1771 376.969 82.8507 377.078 83.5335C378.546 79.2127 381.332 75.4593 385.044 72.7997C388.756 70.14 393.208 68.7076 397.776 68.7033H422.85C422.111 66.8849 423.191 66.2468 425.151 65.0881C425.836 64.6827 426.612 64.2245 427.457 63.632C428.863 62.4627 430.043 61.0464 430.939 59.453C432.677 56.0622 435.639 53.4565 439.225 52.1627C440.365 51.8193 441.549 51.6447 442.739 51.6445C445.491 51.6801 448.167 52.5538 450.408 54.149H450.422C453.5 52.5838 456.79 51.4751 460.188 50.8577C461.67 50.6078 463.169 50.4738 464.672 50.457C471.517 50.457 476.832 53.9403 480.917 61.1083C482.217 63.4626 483.066 66.0383 483.42 68.7033H636.118C641.916 68.7077 647.475 71.0082 651.577 75.1004C655.68 79.1926 657.99 84.7425 658.002 90.5336V189.936C657.99 195.727 655.68 201.277 651.577 205.369C647.475 209.461 641.916 211.761 636.118 211.766H484.304C469.38 226.795 452.228 239.44 433.452 249.256L431.77 250.077L431.773 250.079ZM378.322 156.164V189.936C378.327 195.086 380.379 200.023 384.027 203.663C387.675 207.303 392.62 209.348 397.776 209.348H426.568L426.912 209.998C429.983 215.96 431.913 222.441 432.604 229.11C433.324 234.345 433.805 242.079 434.031 246.222C452.069 236.588 468.545 224.283 482.896 209.724L483.259 209.348H636.115C641.272 209.348 646.217 207.303 649.865 203.663C653.512 200.023 655.564 195.086 655.569 189.936V90.5456C655.564 85.3954 653.512 80.4579 649.865 76.8179C646.217 73.178 641.272 71.1334 636.115 71.1334H483.674C483.879 76.4753 483.158 81.8124 481.542 86.9088C491.604 90.9356 500.227 97.8818 506.299 106.851C512.631 116.136 516.003 127.117 515.973 138.351C515.967 141.862 515.635 145.364 514.981 148.813L514.996 148.828L514.88 149.408C514.882 149.416 514.882 149.424 514.88 149.432C514.64 150.708 514.306 152.035 513.862 153.609L513.797 153.849V153.882C513.749 154.062 513.701 154.24 513.646 154.417C513.314 155.552 512.906 156.761 512.399 158.114C512.258 158.502 512.123 158.848 511.991 159.172C511.511 160.405 511.013 161.525 510.497 162.593C510.353 162.905 510.192 163.214 510.038 163.516L509.99 163.61C509.371 164.84 508.789 165.903 508.232 166.86L508.011 167.218L507.79 167.575C507.18 168.568 506.522 169.566 505.838 170.545L505.677 170.785C505.576 170.931 505.487 171.063 505.391 171.193C504.658 172.205 503.83 173.261 502.929 174.333L502.482 174.863C501.563 175.931 500.607 176.957 499.644 177.915L499.536 178.02L499.423 178.131C491.849 185.659 482.181 190.733 471.678 192.692L471.51 192.714L471.332 192.745C469.838 193.006 468.45 193.198 467.059 193.328L466.689 193.357L466.516 193.369C464.917 193.503 463.481 193.568 462.121 193.568C460.553 193.568 458.925 193.491 457.277 193.328C456.797 193.285 456.335 193.215 455.879 193.145L455.178 193.042L454.541 192.958C453.878 192.874 453.194 192.786 452.526 192.661C451.959 192.555 451.39 192.421 450.845 192.287L450.213 192.135L449.683 192.013C449.075 191.874 448.46 191.735 447.862 191.565C447.315 191.411 446.774 191.229 446.251 191.054L445.77 190.89L445.405 190.77C444.701 190.531 443.964 190.305 443.272 190.032C442.891 189.885 442.509 189.72 442.139 189.552L441.613 189.326C440.7 188.943 439.732 188.527 438.796 188.062C438.555 187.94 438.315 187.81 438.075 187.683L437.66 187.46C436.437 186.822 435.431 186.26 434.492 185.682C434.364 185.603 434.237 185.519 434.11 185.442L433.858 185.277C432.597 184.48 431.482 183.715 430.45 182.938C430.389 182.895 430.329 182.849 430.272 182.804L430.164 182.72L429.729 182.391C429.03 181.863 428.312 181.319 427.635 180.738C425.458 181.85 423.345 183.081 421.306 184.428C418.376 186.443 415.26 188.174 411.999 189.595C410.265 190.148 408.459 190.441 406.639 190.463C403.475 190.495 400.41 189.359 398.033 187.273C395.007 186.417 392.282 184.728 390.172 182.398C385.856 177.759 381.872 168.933 378.322 156.164ZM437.004 146.285C437.089 146.285 437.175 146.294 437.258 146.311C437.417 146.341 437.567 146.403 437.702 146.492C437.836 146.581 437.951 146.696 438.041 146.83C438.13 146.964 438.192 147.114 438.222 147.272C438.253 147.43 438.252 147.593 438.219 147.75C438.202 147.849 435.933 159.167 429.727 179.081C429.714 179.114 429.693 179.145 429.667 179.169C429.647 179.189 429.63 179.21 429.616 179.234C438.711 186.9 450.217 191.122 462.116 191.162C473.061 191.141 483.699 187.543 492.405 180.918C492.401 180.912 492.396 180.906 492.39 180.901C492.385 180.897 492.38 180.891 492.376 180.884C491.156 177.226 489.619 172.459 488.264 168.254L488.024 167.479C486.722 163.432 485.601 159.939 485.197 158.802C485.091 158.498 485.109 158.165 485.247 157.874C485.386 157.584 485.634 157.359 485.937 157.25C486.066 157.204 486.203 157.181 486.34 157.181C486.592 157.18 486.838 157.258 487.044 157.403C487.25 157.547 487.406 157.752 487.491 157.989C487.921 159.201 489.189 163.14 490.347 166.736C491.679 170.879 493.205 175.612 494.451 179.361C503.62 171.713 509.939 161.2 512.387 149.521C510.11 146.883 507.62 144.436 504.942 142.204C492.073 131.596 482.49 127.942 476.717 126.743L476.873 133.254C476.88 133.577 476.76 133.889 476.537 134.123C476.314 134.357 476.007 134.493 475.684 134.501H475.653C475.335 134.499 475.031 134.374 474.804 134.152C474.577 133.931 474.445 133.63 474.435 133.314L473.801 106.832C472.966 106.832 472.133 106.763 471.31 106.626C471.012 106.569 470.745 106.402 470.563 106.159C470.381 105.915 470.297 105.613 470.327 105.31C470.357 105.008 470.499 104.728 470.726 104.525C470.952 104.322 471.246 104.212 471.55 104.215C471.631 104.215 471.712 104.223 471.791 104.239C472.484 104.359 473.186 104.416 473.89 104.411C475.401 104.528 476.916 104.226 478.266 103.538C479.617 102.85 480.751 101.803 481.544 100.513C482.095 99.6383 482.389 98.6264 482.393 97.5928C482.396 96.5592 482.109 95.5454 481.563 94.6669C481.077 93.8515 480.406 93.1621 479.603 92.6548C478.8 92.1475 477.888 91.8366 476.942 91.7474C475.412 91.8821 473.952 92.4469 472.73 93.3763L471.068 94.7197C470.96 94.9284 470.89 95.0508 470.861 95.0508C469.846 88.7392 467.134 82.8215 463.015 77.9296C460.521 75.5371 457.606 73.6266 454.416 72.2945C454.316 72.2945 454.251 72.3233 454.222 72.3761C454.167 72.4816 454.241 72.6855 454.445 72.9854C454.699 73.2773 454.878 73.6261 454.967 74.002C455.057 74.3779 455.054 74.7698 454.959 75.1444C454.824 75.426 454.63 75.676 454.392 75.8784C454.154 76.0809 453.876 76.2313 453.576 76.3199C450.902 74.9704 448.014 74.0954 445.04 73.7339C444.723 73.7312 444.407 73.7593 444.096 73.8178C442.856 74.147 441.672 74.6605 440.585 75.3411C439.135 76.211 437.58 76.8922 435.957 77.3682C435.572 77.7648 435.218 78.1899 434.898 78.6397C434.818 79.6472 434.657 82.2093 434.537 85.4047C434.572 85.1529 434.688 84.919 434.866 84.7378C435.374 84.2135 435.981 83.796 436.653 83.5096C437.324 83.2233 438.046 83.074 438.776 83.0705C439.977 83.0803 441.148 83.4479 442.139 84.126C442.401 84.3144 442.578 84.5991 442.63 84.9176C442.682 85.2361 442.606 85.5623 442.417 85.8245C442.229 86.0866 441.944 86.2632 441.625 86.3154C441.306 86.3676 440.979 86.2911 440.717 86.1027C440.148 85.722 439.481 85.5129 438.796 85.5006C438.378 85.5057 437.965 85.5946 437.582 85.7619C437.199 85.9292 436.854 86.1715 436.567 86.4746C436.452 86.5863 436.317 86.6744 436.169 86.7338C436.02 86.7933 435.862 86.823 435.702 86.8212C435.542 86.8195 435.384 86.7862 435.237 86.7235C435.09 86.6607 434.956 86.5696 434.845 86.4554C434.657 86.26 434.543 86.0056 434.523 85.7357C434.196 92.4669 434.506 99.2139 435.45 105.887C437.578 117.773 446.15 119.357 447.848 119.561C448.665 119.656 449.487 119.705 450.31 119.707C454.077 119.698 457.739 118.462 460.74 116.188C463.458 114.21 465.777 111.738 467.578 108.902C467.688 108.725 467.841 108.58 468.023 108.479C468.205 108.378 468.41 108.326 468.618 108.326C468.835 108.327 469.047 108.385 469.234 108.494C469.421 108.604 469.575 108.761 469.68 108.95C469.785 109.139 469.839 109.353 469.834 109.569C469.829 109.786 469.767 109.997 469.653 110.181C467.684 113.294 465.141 116.005 462.157 118.169C458.755 120.738 454.608 122.13 450.343 122.132C449.41 122.13 448.478 122.073 447.552 121.962C441.771 121.295 434.922 116.831 433.041 106.307C432.457 102.758 432.125 99.1718 432.047 95.5761C425.407 100.562 420.021 107.022 416.314 114.446C412.607 121.871 410.681 130.055 410.688 138.351C410.688 138.567 410.688 138.783 410.702 138.999C410.702 139.148 410.702 139.289 410.714 139.431L410.861 139.345L411.466 138.978C415.525 136.579 420.112 133.885 423.117 131.946C429.637 127.448 437.214 124.715 445.107 124.015C445.107 124.073 445.095 124.133 445.088 124.195C445.081 124.258 445.076 124.327 445.069 124.385C444.971 125.132 444.759 125.86 444.442 126.544C437.266 127.365 430.398 129.923 424.436 133.995C421.438 135.936 416.803 138.668 412.713 141.077C408.402 143.617 403.956 146.237 401.826 147.686C401.922 147.732 402.023 147.766 402.128 147.786C402.175 147.783 402.221 147.783 402.267 147.786C402.402 147.792 402.534 147.827 402.654 147.89C402.918 147.998 409.158 150.684 412.021 163.173C415.316 177.586 411.447 185.318 411.281 185.639C411.161 185.867 410.972 186.051 410.741 186.165C408.725 187.054 406.578 187.607 404.383 187.803C405.145 187.962 405.921 188.042 406.699 188.043C408.257 188.022 409.804 187.771 411.288 187.297C414.326 185.92 417.236 184.281 419.988 182.398C422.288 180.738 424.78 179.359 427.409 178.291C433.221 159.637 435.575 148.511 435.815 147.304V147.275C435.864 146.996 436.01 146.743 436.228 146.562C436.445 146.38 436.72 146.283 437.004 146.285ZM360.309 98.1742C361.975 101.177 363.99 103.972 366.313 106.501C366.424 106.63 366.506 106.781 366.554 106.945V106.966C366.674 107.331 367.099 108.552 368.434 112.004C369.431 114.516 370.719 116.902 372.272 119.114C372.371 119.246 372.444 119.395 372.486 119.553L372.503 119.621C372.983 121.561 374.691 128.65 376.641 138.38C381.029 160.282 386.183 174.535 391.957 180.738C393.294 182.249 394.939 183.455 396.782 184.277C398.626 185.098 400.624 185.515 402.642 185.5C404.916 185.487 407.166 185.029 409.264 184.152C410.025 182.309 412.309 175.384 409.641 163.703C407.371 153.76 402.793 150.723 401.898 150.217C401.688 150.197 401.481 150.156 401.28 150.094C402.414 153.273 403.538 156.938 404.628 160.985C404.71 161.297 404.665 161.629 404.504 161.908C404.343 162.188 404.077 162.392 403.766 162.478C403.663 162.504 403.558 162.518 403.452 162.518C403.183 162.518 402.923 162.429 402.71 162.266C402.497 162.103 402.344 161.875 402.275 161.616C400.978 156.301 399.232 151.104 397.056 146.083C397.044 146.061 397.035 146.036 397.032 146.011C397.033 145.996 397.033 145.981 397.032 145.966C396.143 144.476 395.375 142.918 394.733 141.307C391.952 134.494 387.838 125.033 385.633 119.997C385.536 119.781 385.505 119.54 385.545 119.306C385.585 119.072 385.693 118.855 385.856 118.683C387.072 117.406 388.022 115.901 388.65 114.254C389.222 112.14 389.652 109.99 389.937 107.818C390.236 105.243 390.783 102.704 391.573 100.235C391.813 99.6423 392.173 98.9274 392.533 98.1862C393.162 96.9051 395.074 93.0117 394.553 92.3064C394.468 92.2386 394.362 92.2007 394.253 92.1984C394.213 92.1986 394.172 92.2026 394.133 92.2104C392.692 92.4839 390.216 96.1447 389.404 97.3465C387.442 100.252 385.9 102.439 385.321 103.246C385.304 103.246 385.297 103.26 385.294 103.265C385.191 103.408 385.056 103.526 384.901 103.61C383.778 104.359 382.832 105.343 382.127 106.492C381.423 107.642 380.976 108.931 380.818 110.27C380.772 110.553 380.625 110.811 380.405 110.996C380.184 111.181 379.905 111.281 379.617 111.277C379.545 111.277 379.474 111.271 379.403 111.26C379.085 111.204 378.803 111.023 378.617 110.759C378.432 110.494 378.36 110.167 378.416 109.85C378.86 106.815 380.427 104.057 382.809 102.12V102.099C382.758 102.008 382.705 101.914 382.676 101.859C382.621 101.833 382.568 101.803 382.518 101.768C382.358 101.659 382.225 101.514 382.132 101.344C382.039 101.174 381.988 100.985 381.982 100.791V100.727C381.93 98.7499 381.656 88.6936 381.346 84.7905C381.238 83.4495 380.882 83.0201 380.794 82.9793C380.674 83.024 380.567 83.0978 380.483 83.1942C380.399 83.2906 380.341 83.4064 380.313 83.5311C380.121 84.7306 379.89 94.6717 379.797 99.7551C380.02 99.8804 380.198 100.074 380.303 100.307C380.409 100.541 380.437 100.802 380.383 101.052C380.33 101.303 380.197 101.529 380.005 101.699C379.813 101.869 379.572 101.973 379.316 101.996C375.749 102.331 372.407 103.887 369.856 106.4C369.638 106.639 369.335 106.782 369.012 106.797C368.689 106.812 368.373 106.699 368.134 106.482C367.895 106.264 367.752 105.961 367.736 105.639C367.721 105.316 367.835 105.001 368.052 104.762L368.081 104.73L368.151 104.658C367.901 104.616 367.67 104.496 367.493 104.315C365.344 101.997 362.934 99.9365 360.309 98.1742ZM480.768 89.2094C480.768 89.2285 480.737 89.2861 480.737 89.2861C480.652 89.6299 480.54 89.9667 480.403 90.2937C481.716 91.0533 482.822 92.1244 483.622 93.4123C484.39 94.6558 484.801 96.0871 484.808 97.5486C484.814 99.0101 484.417 100.445 483.66 101.696C482.9 103.049 481.832 104.204 480.542 105.067C479.251 105.931 477.776 106.479 476.234 106.666L476.654 124.217C481.607 125.133 492.076 128.453 506.489 140.34C508.755 142.226 510.889 144.265 512.875 146.443C513.299 143.77 513.521 141.069 513.538 138.363C513.643 127.832 510.575 117.513 504.731 108.746C498.887 99.9802 490.537 93.1729 480.768 89.2094ZM394.241 89.7707C394.849 89.773 395.441 89.9614 395.939 90.3105C398.302 91.9537 396.398 95.828 394.716 99.2537L394.555 99.5847C394.27 100.168 394.003 100.719 393.804 101.185C393.109 103.476 392.616 105.823 392.331 108.199C392.033 110.509 391.57 112.795 390.946 115.039C390.31 116.759 389.366 118.349 388.16 119.731C390.295 124.608 394.279 133.784 396.972 140.383C397.73 142.378 398.743 144.267 399.986 146.002C401.6 144.85 404.957 142.833 408.346 140.827C408.346 140.614 408.325 140.398 408.315 140.184C408.284 139.585 408.253 138.966 408.253 138.349C408.228 129.384 410.374 120.546 414.506 112.587C418.638 104.629 424.634 97.7851 431.984 92.6398C431.915 85.8245 432.34 79.8439 432.465 78.1719V78.1263L432.491 77.824L432.508 77.7928H432.436H432.356C428.785 77.7281 426.126 74.1945 424.21 71.1166H397.776C394.422 71.1142 391.125 71.9859 388.211 73.6456C385.297 75.3053 382.867 77.6956 381.161 80.5804C382.021 80.7099 383.505 81.4104 383.762 84.5938C384.089 88.672 384.363 98.9634 384.394 100.122C384.423 100.151 384.45 100.181 384.475 100.213C385.402 98.8866 386.382 97.4617 387.384 95.9743C389.702 92.5463 391.659 90.1833 393.688 89.8043C393.871 89.7765 394.056 89.7653 394.241 89.7707ZM364.726 87.4485C366.084 92.6307 368.002 97.65 370.447 102.418C370.481 102.494 370.504 102.575 370.514 102.658V102.72C370.913 102.442 371.347 102.173 371.876 101.869C370.168 96.7562 367.762 91.9037 364.726 87.4485ZM373.809 81.9598C373.708 82.0126 373.329 82.5499 373.396 84.0613C373.514 86.3714 374.688 97.1858 375.046 100.444C375.782 100.199 376.534 100.005 377.297 99.8606C376.336 93.657 374.688 83.4543 374.381 82.5139C374.328 82.3881 374.25 82.2741 374.152 82.1785C374.055 82.083 373.939 82.0078 373.812 81.9574L373.809 81.9598Z" fill="#393F49"/>
<path d="M625.05 102.521H544.467C544.303 102.513 544.139 102.539 543.985 102.597C543.831 102.655 543.69 102.743 543.571 102.857C543.452 102.97 543.358 103.107 543.293 103.258C543.229 103.409 543.195 103.572 543.195 103.736C543.195 103.9 543.229 104.063 543.293 104.214C543.358 104.365 543.452 104.501 543.571 104.615C543.69 104.728 543.831 104.817 543.985 104.874C544.139 104.932 544.303 104.958 544.467 104.951H625.05C625.364 104.937 625.659 104.803 625.876 104.577C626.093 104.35 626.214 104.049 626.214 103.736C626.214 103.423 626.093 103.121 625.876 102.895C625.659 102.669 625.364 102.535 625.05 102.521Z" fill="#393F49"/>
<path d="M625.05 127.376H544.467C544.303 127.369 544.139 127.395 543.985 127.453C543.831 127.51 543.69 127.599 543.571 127.712C543.452 127.826 543.358 127.962 543.293 128.113C543.229 128.264 543.195 128.427 543.195 128.591C543.195 128.756 543.229 128.918 543.293 129.069C543.358 129.22 543.452 129.357 543.571 129.47C543.69 129.584 543.831 129.672 543.985 129.73C544.139 129.788 544.303 129.814 544.467 129.806H625.05C625.364 129.792 625.659 129.658 625.876 129.432C626.093 129.206 626.214 128.904 626.214 128.591C626.214 128.278 626.093 127.977 625.876 127.751C625.659 127.524 625.364 127.39 625.05 127.376Z" fill="#393F49"/>
<path d="M597.044 153.268H544.463C544.299 153.261 544.135 153.287 543.981 153.344C543.827 153.402 543.686 153.49 543.567 153.604C543.449 153.717 543.354 153.854 543.289 154.005C543.225 154.156 543.191 154.319 543.191 154.483C543.191 154.647 543.225 154.81 543.289 154.961C543.354 155.112 543.449 155.248 543.567 155.362C543.686 155.475 543.827 155.564 543.981 155.621C544.135 155.679 544.299 155.705 544.463 155.698H597.044C597.209 155.705 597.373 155.679 597.527 155.621C597.681 155.564 597.821 155.475 597.94 155.362C598.059 155.248 598.154 155.112 598.218 154.961C598.283 154.81 598.316 154.647 598.316 154.483C598.316 154.319 598.283 154.156 598.218 154.005C598.154 153.854 598.059 153.717 597.94 153.604C597.821 153.49 597.681 153.402 597.527 153.344C597.373 153.287 597.209 153.261 597.044 153.268Z" fill="#393F49"/>
<path d="M454.688 95.6171C454.745 95.1062 454.603 94.5928 454.289 94.1852C453.975 93.7775 453.515 93.5073 453.006 93.4316C452.497 93.5073 452.037 93.7775 451.724 94.1852C451.41 94.5928 451.267 95.1062 451.325 95.6171C451.267 96.1282 451.41 96.6419 451.724 97.0499C452.037 97.458 452.497 97.7286 453.006 97.8049C453.516 97.7286 453.976 97.458 454.289 97.0499C454.603 96.6419 454.746 96.1282 454.688 95.6171Z" fill="#393F49"/>
<path d="M438.235 92.719C437.395 92.6998 436.691 93.6594 436.657 94.8781C436.624 96.0967 437.284 97.0803 438.123 97.1019C438.961 97.1235 439.669 96.1639 439.696 94.9428C439.722 93.7218 439.074 92.7406 438.235 92.719Z" fill="#393F49"/>
<path d="M446.318 104.846L443.195 104.99L443.676 103.133C444.293 100.601 444.611 98.0049 444.624 95.3987C444.596 95.0851 444.457 94.7918 444.232 94.5719C444.006 94.3519 443.709 94.2197 443.395 94.1992C443.073 94.2036 442.766 94.3351 442.541 94.5647C442.316 94.7944 442.191 95.1037 442.194 95.4251C442.181 97.8117 441.896 100.189 441.346 102.512L440.426 105.968C440.379 106.148 440.374 106.337 440.411 106.519C440.449 106.701 440.527 106.873 440.641 107.02C440.755 107.167 440.901 107.287 441.068 107.369C441.235 107.451 441.419 107.494 441.605 107.494H441.661L446.435 107.273C446.749 107.246 447.039 107.098 447.246 106.861C447.452 106.624 447.559 106.317 447.544 106.003C447.529 105.689 447.393 105.394 447.164 105.178C446.935 104.962 446.632 104.843 446.318 104.846Z" fill="#393F49"/>
<path d="M457.813 104.25C457.494 104.202 457.17 104.281 456.91 104.471C456.65 104.662 456.476 104.947 456.427 105.265C456.103 106.768 455.286 108.119 454.106 109.106C452.927 110.092 451.451 110.658 449.914 110.713C449.604 110.747 449.32 110.898 449.118 111.134C448.917 111.371 448.814 111.676 448.83 111.986C448.846 112.296 448.981 112.588 449.206 112.803C449.431 113.017 449.73 113.137 450.041 113.138C450.086 113.141 450.131 113.141 450.175 113.138C452.249 113.022 454.225 112.22 455.793 110.86C457.36 109.499 458.431 107.657 458.836 105.623C458.881 105.305 458.799 104.983 458.608 104.726C458.416 104.469 458.13 104.298 457.813 104.25Z" fill="#393F49"/>
<path d="M451.338 84.3136C451.183 84.3778 451.042 84.4735 450.926 84.5945C450.809 84.7156 450.719 84.8594 450.661 85.017C450.603 85.1746 450.578 85.3425 450.588 85.5101C450.598 85.6777 450.643 85.8415 450.719 85.991C450.796 86.1405 450.903 86.2726 451.033 86.3789C451.163 86.4852 451.314 86.5635 451.476 86.6087C451.637 86.654 451.807 86.6653 451.973 86.6418C452.14 86.6184 452.3 86.5608 452.443 86.4726C453.267 85.9596 454.246 85.7518 455.208 85.8855C456.17 86.0192 457.055 86.4859 457.707 87.2043C457.917 87.4294 458.204 87.5669 458.511 87.589C458.818 87.6111 459.122 87.5162 459.362 87.3235C459.602 87.1307 459.76 86.8544 459.804 86.5501C459.848 86.2458 459.775 85.9362 459.6 85.6834C458.593 84.5371 457.22 83.7744 455.714 83.5247C454.208 83.275 452.662 83.5537 451.338 84.3136Z" fill="#393F49"/>
<path d="M473.389 101.772C474.208 102.118 475.11 102.213 475.983 102.046C476.855 101.879 477.659 101.457 478.291 100.833C478.924 100.21 479.357 99.4136 479.536 98.5443C479.715 97.6751 479.632 96.7723 479.297 95.9502C479.237 95.8025 479.148 95.668 479.036 95.5546C478.923 95.4412 478.79 95.351 478.642 95.2892C478.345 95.1644 478.01 95.1627 477.711 95.2845C477.563 95.3448 477.429 95.4337 477.315 95.546C477.201 95.6582 477.111 95.7918 477.049 95.9389C476.924 96.236 476.923 96.5706 477.045 96.869C477.247 97.3737 477.241 97.9378 477.029 98.4384C476.816 98.9389 476.415 99.3354 475.911 99.5414C475.662 99.646 475.394 99.6999 475.124 99.6999C474.854 99.6999 474.587 99.646 474.338 99.5414C474.19 99.4792 474.032 99.4466 473.872 99.4455C473.712 99.4443 473.553 99.4747 473.405 99.5349C473.257 99.595 473.122 99.6838 473.008 99.796C472.894 99.9083 472.803 100.042 472.741 100.189C472.615 100.487 472.612 100.822 472.734 101.121C472.856 101.42 473.091 101.659 473.389 101.784" fill="#393F49"/>
<path d="M468.541 136.643C446.762 141.532 444.297 131.855 444.194 131.43C444.11 131.134 443.917 130.88 443.653 130.721C443.389 130.561 443.074 130.508 442.772 130.571C442.47 130.634 442.204 130.81 442.026 131.062C441.849 131.314 441.774 131.624 441.816 131.929C442.524 134.343 444.128 136.396 446.3 137.667C449.747 139.667 453.697 140.631 457.677 140.445C461.517 140.382 465.339 139.899 469.074 139.006C469.233 138.975 469.385 138.912 469.52 138.821C469.655 138.73 469.771 138.613 469.86 138.477C469.949 138.341 470.009 138.189 470.038 138.029C470.067 137.869 470.064 137.704 470.028 137.546C469.993 137.387 469.925 137.237 469.831 137.105C469.736 136.973 469.616 136.861 469.477 136.776C469.339 136.691 469.184 136.634 469.023 136.61C468.862 136.585 468.698 136.593 468.541 136.633" fill="#393F49"/>
</g>
<defs>
<clipPath id="clip0_1753_4583">
<rect width="658" height="508" fill="white"/>
</clipPath>
</defs>
</svg>
