<svg width="759" height="951" viewBox="0 0 759 951" fill="none" xmlns="http://www.w3.org/2000/svg">
    <g clip-path="url(#clip0_2584_4639)">
        <mask id="mask0_2584_4639" style="mask-type:luminance" maskUnits="userSpaceOnUse" x="0" y="0" width="759" height="951">
            <path d="M727 0.078125H32C14.3269 0.078125 0 14.405 0 32.0781V918.078C0 935.751 14.3269 950.078 32 950.078H727C744.673 950.078 759 935.751 759 918.078V32.0781C759 14.405 744.673 0.078125 727 0.078125Z" fill="white"/>
        </mask>
        <g mask="url(#mask0_2584_4639)">
            <path d="M727 0.078125H32C14.3269 0.078125 0 14.405 0 32.0781V918.078C0 935.751 14.3269 950.078 32 950.078H727C744.673 950.078 759 935.751 759 918.078V32.0781C759 14.405 744.673 0.078125 727 0.078125Z" fill="#138944"/>
            <g style="mix-blend-mode:color-burn">
                <path d="M444.091 643.204L-164.425 67.2824C-214.19 20.1835 -294.875 20.1835 -344.639 67.2825L-685.218 389.618C-734.983 436.717 -734.983 513.08 -685.217 560.18L-76.7018 1136.1C-26.9364 1183.2 53.7473 1183.2 103.513 1136.1L444.091 813.767C493.857 766.667 493.857 690.304 444.091 643.204Z" fill="#C5C5C5"/>
            </g>
            <g style="mix-blend-mode:multiply">
                <path d="M830.608 -2.90985L780.011 45.5178L619.536 -106.361C596.775 -127.903 558.317 -127.903 535.556 -106.361L349.226 69.9887C339.446 79.245 333.965 91.2571 333.792 103.812C333.62 116.314 338.708 128.384 349.226 138.87L509.7 290.749C532.461 312.291 570.92 312.291 593.681 290.749L780.011 114.399C789.788 105.145 795.269 93.1365 795.442 80.5851C795.614 68.0774 790.523 56.0018 781.106 46.583L830.608 -2.90985ZM830.619 -2.89953C877.87 44.3609 877.045 118.942 828.128 165.239L641.798 341.589C592.033 388.689 511.348 388.689 461.583 341.589L301.109 189.71C251.342 142.609 251.344 66.2479 301.109 19.1485L487.439 -157.201C537.204 -204.301 617.889 -204.301 667.654 -157.201L828.128 -5.32249C828.975 -4.52044 829.8 -3.71827 830.619 -2.89953Z" fill="#B7DAC5"/>
            </g>
            <path d="M1171.31 783.184L562.79 207.262C513.025 160.163 432.34 160.163 382.575 207.262L41.9968 529.598C-7.76798 576.697 -7.76802 653.06 41.9974 700.16L650.513 1276.08C700.278 1323.18 780.962 1323.18 830.728 1276.08L1171.31 953.747C1221.07 906.647 1221.07 830.284 1171.31 783.184Z" fill="#1D7742"/>
            <g opacity="0.154">
                <path d="M1104.49 522.953L1047.02 578.644L906.06 445.238C887.025 427.223 854.863 427.223 835.828 445.238L651.858 619.354C641.858 628.818 639.645 639.096 639.549 646.052C639.454 652.97 641.348 663.224 651.858 673.709L792.814 807.115C811.849 825.13 844.011 825.13 863.047 807.115L1047.02 632.999C1057.01 623.538 1059.23 613.263 1059.32 606.31C1059.42 599.388 1057.52 589.12 1047.91 579.516L1104.49 522.953ZM1104.5 522.964C1151.75 570.224 1150.92 644.805 1102.01 691.102L918.037 865.218C868.273 912.317 787.588 912.317 737.823 865.218L596.867 731.813C547.102 684.713 547.102 608.35 596.867 561.251L780.837 387.135C830.601 340.036 911.286 340.036 961.051 387.135L1102.01 520.541C1102.85 521.343 1103.68 522.145 1104.5 522.964Z" fill="#B7DAC5"/>
            </g>
            <mask id="mask1_2584_4639" style="mask-type:luminance" maskUnits="userSpaceOnUse" x="4" y="171" width="1205" height="1141">
                <path d="M1171.31 783.184L562.79 207.262C513.025 160.163 432.34 160.163 382.575 207.262L41.9968 529.598C-7.76798 576.697 -7.76802 653.06 41.9974 700.16L650.513 1276.08C700.278 1323.18 780.962 1323.18 830.728 1276.08L1171.31 953.747C1221.07 906.647 1221.07 830.284 1171.31 783.184Z" fill="white"/>
            </mask>
            <g mask="url(#mask1_2584_4639)">
                <g style="mix-blend-mode:overlay" opacity="0.42">
                    <path d="M444.095 643.204L-164.421 67.2824C-214.186 20.1835 -294.871 20.1835 -344.636 67.2825L-685.214 389.618C-734.979 436.717 -734.979 513.08 -685.214 560.18L-76.6979 1136.1C-26.9325 1183.2 53.7512 1183.2 103.517 1136.1L444.095 813.767C493.861 766.667 493.861 690.304 444.095 643.204Z" fill="#B7DAC5"/>
                </g>
                <mask id="mask2_2584_4639" style="mask-type:luminance" maskUnits="userSpaceOnUse" x="-723" y="31" width="1205" height="1141">
                    <path d="M444.095 643.204L-164.421 67.2824C-214.186 20.1835 -294.871 20.1835 -344.636 67.2825L-685.214 389.618C-734.979 436.717 -734.979 513.08 -685.214 560.18L-76.6979 1136.1C-26.9325 1183.2 53.7512 1183.2 103.517 1136.1L444.095 813.767C493.861 766.667 493.861 690.304 444.095 643.204Z" fill="white"/>
                </mask>
                <g mask="url(#mask2_2584_4639)">
                    <g style="mix-blend-mode:multiply">
                        <path d="M-503.472 197.731C-1026.69 301.321 -918.622 489.963 -748.46 440.32C-578.298 390.677 -369.868 287.32 -152.002 471.793C65.8652 656.266 22.0574 1012.95 -73.8971 1056.83C-169.852 1100.71 -1.61903 1096.69 -115.901 802.117C-199.464 586.729 -210.193 452.469 -279.704 430.951C-305.256 423.04 -316.668 464.624 -374.084 474.112C-412.999 480.543 -820.911 653.026 -829.231 655.707C-866.575 667.74 -225.438 461.933 -261.321 496.665C-305.197 539.132 -642.625 872.147 -552.387 855.145C-462.15 838.144 -329.564 600.11 -207.281 707.387C-151.949 755.928 -230.454 1020.15 -187.956 1108.99C-136.533 1216.48 30.929 1135.68 35.857 991.652C44.8582 728.598 115.941 352.081 -19.9096 217.01C-155.76 81.9382 37.8736 376.202 1.35269 454.91C-35.1682 533.619 -167.114 388.248 -213.322 321.778C-259.53 255.308 215.919 -50.6752 157.106 267.708C98.2927 586.091 116.527 839.108 152.379 909.642C188.231 980.177 447.371 932.582 447.371 932.582C447.371 932.582 165.742 819.31 194.808 586.229C223.875 353.147 280.385 460.953 280.385 460.953C280.385 460.953 234.462 729.018 481.902 758.945" stroke="#138944" stroke-width="2.40028" stroke-miterlimit="10"/>
                    </g>
                </g>
            </g>
            <mask id="mask3_2584_4639" style="mask-type:luminance" maskUnits="userSpaceOnUse" x="4" y="171" width="1205" height="1141">
                <path d="M1171.31 783.184L562.79 207.262C513.025 160.163 432.34 160.163 382.575 207.262L41.9968 529.598C-7.76798 576.697 -7.76802 653.06 41.9974 700.16L650.513 1276.08C700.278 1323.18 780.962 1323.18 830.728 1276.08L1171.31 953.747C1221.07 906.647 1221.07 830.284 1171.31 783.184Z" fill="white"/>
            </mask>
            <g mask="url(#mask3_2584_4639)">
                <g style="mix-blend-mode:color-burn">
                    <path d="M830.612 -2.90936L780.015 45.5183L619.54 -106.361C596.779 -127.902 558.321 -127.902 535.56 -106.36L349.23 69.9892C339.45 79.2455 333.968 91.2576 333.796 103.813C333.624 116.315 338.712 128.385 349.23 138.871L509.704 290.749C532.465 312.291 570.923 312.291 593.685 290.749L780.015 114.4C789.792 105.146 795.272 93.137 795.446 80.5856C795.618 68.0778 790.527 56.0023 781.11 46.5835L830.612 -2.90936ZM830.623 -2.89904C877.874 44.3613 877.049 118.942 828.132 165.24L641.802 341.59C592.037 388.689 511.352 388.689 461.587 341.59L301.113 189.711C251.346 142.61 251.348 66.2484 301.113 19.149L487.443 -157.201C537.208 -204.3 617.893 -204.3 667.657 -157.201L828.132 -5.322C828.979 -4.51995 829.804 -3.71778 830.623 -2.89904Z" fill="#B7DAC5"/>
                </g>
            </g>
        </g>
    </g>
    <defs>
        <clipPath id="clip0_2584_4639">
            <rect width="759" height="950" fill="white" transform="translate(0 0.078125)"/>
        </clipPath>
    </defs>
</svg>
