<svg width="211" height="55" viewBox="0 0 211 55" fill="none" xmlns="http://www.w3.org/2000/svg">
<path d="M23.7311 32.3575L16.718 36.3096L24.8161 50L24.852 49.9797L26.1535 44.3569L31.7932 46.0682L31.8292 46.0479L23.7311 32.3575Z" fill="#138944"/>
<path d="M15.6332 36.3096L8.62012 32.3575L0.52208 46.0479L0.558046 46.0682L6.19775 44.3569L7.49922 49.9797L7.53519 50L15.6332 36.3096Z" fill="#138944"/>
<path d="M32.1922 20.8084C32.1922 29.4241 25.0351 36.4167 16.1961 36.4167C7.35709 36.4167 0.2 29.4241 0.2 20.8084C0.2 12.1926 7.35709 5.2 16.1961 5.2C25.0351 5.2 32.1922 12.1926 32.1922 20.8084Z" fill="white" stroke="#138944" stroke-width="0.4"/>
<ellipse cx="16.1961" cy="20.8084" rx="12.9569" ry="12.6467" fill="#138944"/>
<ellipse cx="16.1962" cy="20.8084" rx="9.71765" ry="9.48501" fill="white"/>
<ellipse cx="16.1959" cy="20.8083" rx="8.09804" ry="7.90418" fill="#138944"/>
<path d="M16.1962 16.0659L17.2871 19.3428H20.8172L17.9613 21.3681L19.0522 24.6451L16.1962 22.6198L13.3403 24.6451L14.4312 21.3681L11.5752 19.3428H15.1054L16.1962 16.0659Z" fill="white"/>
<line x1="43.3921" y1="3.5" x2="43.3921" y2="51.5" stroke="#138944" stroke-width="2"/>
<path d="M69.7201 15.804C69.6081 17.596 68.9921 19.14 67.8721 20.436C66.4481 22.1 64.4161 22.932 61.7761 22.932C58.9601 22.932 56.7761 21.956 55.2241 20.004C53.8961 18.356 53.2321 16.316 53.2321 13.884C53.2321 11.372 53.9921 9.26 55.5121 7.548C57.0961 5.772 59.2321 4.884 61.9201 4.884C64.1601 4.884 66.0241 5.58 67.5121 6.972C68.7921 8.172 69.4881 9.644 69.6001 11.388H65.2321C65.0561 10.604 64.7841 10.012 64.4161 9.612C63.7921 8.924 62.9361 8.58 61.8481 8.58C60.5041 8.58 59.4641 9.116 58.7281 10.188C58.1041 11.132 57.7921 12.372 57.7921 13.908C57.7921 15.684 58.1921 17.044 58.9921 17.988C59.6961 18.82 60.6321 19.236 61.8001 19.236C63.0001 19.236 63.9121 18.796 64.5361 17.916C64.8721 17.436 65.1041 16.732 65.2321 15.804H69.7201ZM84.0263 18.684C83.8343 19.42 83.4663 20.1 82.9223 20.724C81.6903 22.132 79.9863 22.836 77.8103 22.836C75.8423 22.836 74.2503 22.292 73.0343 21.204C71.6743 19.988 70.9943 18.38 70.9943 16.38C70.9943 14.284 71.6983 12.604 73.1063 11.34C74.3223 10.252 75.8343 9.708 77.6423 9.708C79.8343 9.708 81.5223 10.428 82.7063 11.868C83.7463 13.132 84.2663 14.788 84.2663 16.836C84.2663 16.98 84.2663 17.108 84.2663 17.22H75.0023C75.0343 18.116 75.2983 18.82 75.7943 19.332C76.2903 19.828 76.9623 20.076 77.8103 20.076C78.8503 20.076 79.6423 19.612 80.1863 18.684H84.0263ZM80.2583 14.892C80.0503 13.276 79.1943 12.468 77.6903 12.468C76.1703 12.468 75.2903 13.276 75.0503 14.892H80.2583ZM95.2668 9.972L95.2428 13.332C94.6508 13.156 94.0908 13.068 93.5628 13.068C91.4828 13.068 90.4428 14.404 90.4428 17.076V22.5H86.3628V10.044H90.2988V12.18C90.7788 10.532 92.1148 9.708 94.3068 9.708C94.5628 9.708 94.8828 9.796 95.2668 9.972ZM104.422 10.044V12.732H101.47V17.868C101.47 19.02 101.99 19.596 103.03 19.596C103.638 19.596 104.118 19.476 104.47 19.236L105.19 22.164C104.406 22.5 103.262 22.668 101.758 22.668C99.9017 22.668 98.6617 22.268 98.0377 21.468C97.7657 21.116 97.5897 20.732 97.5097 20.316C97.4297 19.9 97.3897 19.212 97.3897 18.252V12.732H95.3017V10.044H97.3897V7.404L101.47 5.268V10.044H104.422ZM110.013 10.044V22.5H105.933V10.044H110.013ZM107.973 4.86C108.485 4.86 108.925 5.044 109.293 5.412C109.661 5.764 109.845 6.204 109.845 6.732C109.845 7.244 109.661 7.684 109.293 8.052C108.925 8.42 108.485 8.604 107.973 8.604C107.445 8.604 106.997 8.42 106.629 8.052C106.277 7.684 106.101 7.244 106.101 6.732C106.101 6.204 106.277 5.764 106.629 5.412C106.997 5.044 107.445 4.86 107.973 4.86ZM120.048 5.364V8.244C119.648 8.212 119.296 8.196 118.992 8.196C118.352 8.196 117.936 8.268 117.744 8.412C117.552 8.556 117.456 8.852 117.456 9.3V10.044H119.88V12.732H117.456V22.5H113.352V12.732H111.384V10.044H113.352V9.468C113.352 7.98 113.72 6.916 114.456 6.276C115.208 5.62 116.432 5.292 118.128 5.292C118.576 5.292 119.216 5.316 120.048 5.364ZM125.716 10.044V22.5H121.636V10.044H125.716ZM123.676 4.86C124.188 4.86 124.628 5.044 124.996 5.412C125.364 5.764 125.548 6.204 125.548 6.732C125.548 7.244 125.364 7.684 124.996 8.052C124.628 8.42 124.188 8.604 123.676 8.604C123.148 8.604 122.7 8.42 122.332 8.052C121.98 7.684 121.804 7.244 121.804 6.732C121.804 6.204 121.98 5.764 122.332 5.412C122.7 5.044 123.148 4.86 123.676 4.86ZM140.623 17.604C140.383 19.38 139.647 20.724 138.415 21.636C137.343 22.436 135.999 22.836 134.383 22.836C132.271 22.836 130.607 22.164 129.391 20.82C128.335 19.652 127.807 18.172 127.807 16.38C127.807 14.22 128.487 12.532 129.847 11.316C131.047 10.244 132.567 9.708 134.407 9.708C136.279 9.708 137.775 10.204 138.895 11.196C139.887 12.076 140.431 13.196 140.527 14.556H136.567C136.359 13.308 135.663 12.684 134.479 12.684C132.799 12.684 131.959 13.908 131.959 16.356C131.959 18.644 132.775 19.788 134.407 19.788C135.703 19.788 136.463 19.06 136.687 17.604H140.623ZM154.636 22.5H150.484C150.356 22.1 150.284 21.708 150.268 21.324C149.5 22.332 148.14 22.836 146.188 22.836C144.732 22.836 143.612 22.452 142.828 21.684C142.14 21.012 141.796 20.124 141.796 19.02C141.796 17.5 142.468 16.428 143.812 15.804C144.388 15.548 145.572 15.252 147.364 14.916L150.196 14.388V13.644C150.164 12.732 149.532 12.276 148.3 12.276C147.628 12.276 147.132 12.396 146.812 12.636C146.508 12.86 146.308 13.268 146.212 13.86H142.348C142.492 11.092 144.492 9.708 148.348 9.708C150.396 9.708 151.932 10.076 152.956 10.812C153.436 11.18 153.764 11.596 153.94 12.06C154.116 12.508 154.204 13.196 154.204 14.124C154.204 14.284 154.196 14.78 154.18 15.612V15.876L154.156 17.94C154.156 18.5 154.156 18.876 154.156 19.068C154.156 19.26 154.148 19.564 154.132 19.98C154.132 20.204 154.132 20.38 154.132 20.508C154.132 21.404 154.3 22.068 154.636 22.5ZM150.244 16.812L148.372 17.22C147.396 17.444 146.748 17.668 146.428 17.892C146.108 18.116 145.948 18.452 145.948 18.9C145.948 19.876 146.5 20.364 147.604 20.364C148.532 20.364 149.252 20.036 149.764 19.38C150.052 19.028 150.204 18.468 150.22 17.7L150.244 16.812ZM164.234 10.044V12.732H161.282V17.868C161.282 19.02 161.802 19.596 162.842 19.596C163.45 19.596 163.93 19.476 164.282 19.236L165.002 22.164C164.218 22.5 163.074 22.668 161.57 22.668C159.714 22.668 158.474 22.268 157.85 21.468C157.578 21.116 157.402 20.732 157.322 20.316C157.242 19.9 157.202 19.212 157.202 18.252V12.732H155.114V10.044H157.202V7.404L161.282 5.268V10.044H164.234ZM178.058 18.684C177.866 19.42 177.498 20.1 176.954 20.724C175.722 22.132 174.018 22.836 171.842 22.836C169.874 22.836 168.282 22.292 167.066 21.204C165.706 19.988 165.026 18.38 165.026 16.38C165.026 14.284 165.73 12.604 167.138 11.34C168.354 10.252 169.866 9.708 171.674 9.708C173.866 9.708 175.554 10.428 176.738 11.868C177.778 13.132 178.298 14.788 178.298 16.836C178.298 16.98 178.298 17.108 178.298 17.22H169.034C169.066 18.116 169.33 18.82 169.826 19.332C170.322 19.828 170.994 20.076 171.842 20.076C172.882 20.076 173.674 19.612 174.218 18.684H178.058ZM174.29 14.892C174.082 13.276 173.226 12.468 171.722 12.468C170.202 12.468 169.322 13.276 169.082 14.892H174.29ZM190.68 22.836C188.584 22.836 186.92 22.148 185.688 20.772C184.616 19.572 184.08 18.068 184.08 16.26C184.08 14.18 184.768 12.524 186.144 11.292C187.344 10.236 188.848 9.708 190.656 9.708C192.768 9.708 194.44 10.388 195.672 11.748C196.728 12.916 197.256 14.412 197.256 16.236C197.256 18.332 196.568 19.996 195.192 21.228C193.992 22.3 192.488 22.836 190.68 22.836ZM190.632 12.684C189.864 12.684 189.272 12.996 188.856 13.62C188.44 14.244 188.232 15.124 188.232 16.26C188.232 18.66 189.048 19.86 190.68 19.86C192.312 19.86 193.128 18.652 193.128 16.236C193.128 13.868 192.296 12.684 190.632 12.684ZM206.602 5.364V8.244C206.202 8.212 205.85 8.196 205.546 8.196C204.906 8.196 204.49 8.268 204.298 8.412C204.106 8.556 204.01 8.852 204.01 9.3V10.044H206.434V12.732H204.01V22.5H199.906V12.732H197.938V10.044H199.906V9.468C199.906 7.98 200.274 6.916 201.01 6.276C201.762 5.62 202.986 5.292 204.682 5.292C205.13 5.292 205.77 5.316 206.602 5.364ZM70.2143 49.5H66.0623C65.9343 49.1 65.8623 48.708 65.8463 48.324C65.0783 49.332 63.7183 49.836 61.7663 49.836C60.3103 49.836 59.1903 49.452 58.4063 48.684C57.7183 48.012 57.3743 47.124 57.3743 46.02C57.3743 44.5 58.0463 43.428 59.3903 42.804C59.9663 42.548 61.1503 42.252 62.9423 41.916L65.7743 41.388V40.644C65.7423 39.732 65.1103 39.276 63.8783 39.276C63.2063 39.276 62.7103 39.396 62.3903 39.636C62.0863 39.86 61.8863 40.268 61.7903 40.86H57.9263C58.0703 38.092 60.0703 36.708 63.9263 36.708C65.9743 36.708 67.5103 37.076 68.5343 37.812C69.0143 38.18 69.3423 38.596 69.5183 39.06C69.6943 39.508 69.7823 40.196 69.7823 41.124C69.7823 41.284 69.7743 41.78 69.7583 42.612V42.876L69.7343 44.94C69.7343 45.5 69.7343 45.876 69.7343 46.068C69.7343 46.26 69.7263 46.564 69.7103 46.98C69.7103 47.204 69.7103 47.38 69.7103 47.508C69.7103 48.404 69.8783 49.068 70.2143 49.5ZM65.8223 43.812L63.9503 44.22C62.9743 44.444 62.3263 44.668 62.0063 44.892C61.6863 45.116 61.5263 45.452 61.5263 45.9C61.5263 46.876 62.0783 47.364 63.1823 47.364C64.1103 47.364 64.8303 47.036 65.3423 46.38C65.6303 46.028 65.7823 45.468 65.7983 44.7L65.8223 43.812ZM84.3963 44.604C84.1563 46.38 83.4203 47.724 82.1883 48.636C81.1163 49.436 79.7723 49.836 78.1563 49.836C76.0443 49.836 74.3803 49.164 73.1643 47.82C72.1083 46.652 71.5803 45.172 71.5803 43.38C71.5803 41.22 72.2603 39.532 73.6203 38.316C74.8203 37.244 76.3403 36.708 78.1803 36.708C80.0523 36.708 81.5483 37.204 82.6683 38.196C83.6603 39.076 84.2043 40.196 84.3003 41.556H80.3403C80.1323 40.308 79.4363 39.684 78.2523 39.684C76.5723 39.684 75.7323 40.908 75.7323 43.356C75.7323 45.644 76.5483 46.788 78.1803 46.788C79.4763 46.788 80.2363 46.06 80.4603 44.604H84.3963ZM90.4897 32.316V38.676C91.4657 37.364 92.7777 36.708 94.4257 36.708C96.1057 36.708 97.3377 37.268 98.1217 38.388C98.6177 39.124 98.8657 40.212 98.8657 41.652V49.5H94.7857V42.396C94.7857 41.58 94.6577 41.012 94.4017 40.692C94.0497 40.26 93.5217 40.044 92.8177 40.044C91.9057 40.044 91.2417 40.412 90.8257 41.148C90.6017 41.532 90.4897 42.236 90.4897 43.26V49.5H86.4097V32.316H90.4897ZM105.654 37.044V49.5H101.574V37.044H105.654ZM103.614 31.86C104.126 31.86 104.566 32.044 104.934 32.412C105.302 32.764 105.486 33.204 105.486 33.732C105.486 34.244 105.302 34.684 104.934 35.052C104.566 35.42 104.126 35.604 103.614 35.604C103.086 35.604 102.638 35.42 102.27 35.052C101.918 34.684 101.742 34.244 101.742 33.732C101.742 33.204 101.918 32.764 102.27 32.412C102.638 32.044 103.086 31.86 103.614 31.86ZM120.776 45.684C120.584 46.42 120.216 47.1 119.672 47.724C118.44 49.132 116.736 49.836 114.56 49.836C112.592 49.836 111 49.292 109.784 48.204C108.424 46.988 107.744 45.38 107.744 43.38C107.744 41.284 108.448 39.604 109.856 38.34C111.072 37.252 112.584 36.708 114.392 36.708C116.584 36.708 118.272 37.428 119.456 38.868C120.496 40.132 121.016 41.788 121.016 43.836C121.016 43.98 121.016 44.108 121.016 44.22H111.752C111.784 45.116 112.048 45.82 112.544 46.332C113.04 46.828 113.712 47.076 114.56 47.076C115.6 47.076 116.392 46.612 116.936 45.684H120.776ZM117.008 41.892C116.8 40.276 115.944 39.468 114.44 39.468C112.92 39.468 112.04 40.276 111.8 41.892H117.008ZM134.609 37.044L130.481 49.5H125.729L121.505 37.044H125.825L127.097 41.364C127.577 42.932 127.921 44.428 128.129 45.852C128.305 44.716 128.641 43.284 129.137 41.556L130.481 37.044H134.609ZM148.151 45.684C147.959 46.42 147.591 47.1 147.047 47.724C145.815 49.132 144.111 49.836 141.935 49.836C139.967 49.836 138.375 49.292 137.159 48.204C135.799 46.988 135.119 45.38 135.119 43.38C135.119 41.284 135.823 39.604 137.231 38.34C138.447 37.252 139.959 36.708 141.767 36.708C143.959 36.708 145.647 37.428 146.831 38.868C147.871 40.132 148.391 41.788 148.391 43.836C148.391 43.98 148.391 44.108 148.391 44.22H139.127C139.159 45.116 139.423 45.82 139.919 46.332C140.415 46.828 141.087 47.076 141.935 47.076C142.975 47.076 143.767 46.612 144.311 45.684H148.151ZM144.383 41.892C144.175 40.276 143.319 39.468 141.815 39.468C140.295 39.468 139.415 40.276 139.175 41.892H144.383ZM154.424 37.044V38.7C155.352 37.372 156.632 36.708 158.264 36.708C159.912 36.708 161.08 37.372 161.768 38.7C162.776 37.372 164.096 36.708 165.728 36.708C167.168 36.708 168.28 37.156 169.064 38.052C169.736 38.852 170.072 39.908 170.072 41.22V49.5H165.992V42.276C165.992 40.788 165.416 40.044 164.264 40.044C163.48 40.044 162.92 40.364 162.584 41.004C162.408 41.34 162.32 41.892 162.32 42.66V49.5H158.24V42.108C158.24 40.732 157.688 40.044 156.584 40.044C155.24 40.044 154.568 40.916 154.568 42.66V49.5H150.488V37.044H154.424ZM185.089 45.684C184.897 46.42 184.529 47.1 183.985 47.724C182.753 49.132 181.049 49.836 178.873 49.836C176.905 49.836 175.313 49.292 174.097 48.204C172.737 46.988 172.057 45.38 172.057 43.38C172.057 41.284 172.761 39.604 174.169 38.34C175.385 37.252 176.897 36.708 178.705 36.708C180.897 36.708 182.585 37.428 183.769 38.868C184.809 40.132 185.329 41.788 185.329 43.836C185.329 43.98 185.329 44.108 185.329 44.22H176.065C176.097 45.116 176.361 45.82 176.857 46.332C177.353 46.828 178.025 47.076 178.873 47.076C179.913 47.076 180.705 46.612 181.249 45.684H185.089ZM181.321 41.892C181.113 40.276 180.257 39.468 178.753 39.468C177.233 39.468 176.353 40.276 176.113 41.892H181.321ZM191.361 37.044V38.7C192.353 37.372 193.713 36.708 195.441 36.708C197.105 36.708 198.321 37.26 199.089 38.364C199.585 39.1 199.833 40.236 199.833 41.772V49.5H195.729V42.444C195.729 41.788 195.665 41.3 195.537 40.98C195.281 40.356 194.713 40.044 193.833 40.044C192.873 40.044 192.201 40.412 191.817 41.148C191.609 41.532 191.505 42.1 191.505 42.852V49.5H187.425V37.044H191.361ZM210.054 37.044V39.732H207.102V44.868C207.102 46.02 207.622 46.596 208.662 46.596C209.27 46.596 209.75 46.476 210.102 46.236L210.822 49.164C210.038 49.5 208.894 49.668 207.39 49.668C205.534 49.668 204.294 49.268 203.67 48.468C203.398 48.116 203.222 47.732 203.142 47.316C203.062 46.9 203.022 46.212 203.022 45.252V39.732H200.934V37.044H203.022V34.404L207.102 32.268V37.044H210.054Z" fill="#138944"/>
</svg>
