<svg width="263" height="66" viewBox="0 0 263 66" fill="none" xmlns="http://www.w3.org/2000/svg">
<path d="M32.5226 39.6569L22.9114 45.0731L34.0094 63.8353L34.0587 63.8075L35.8423 56.1016L43.5713 58.4469L43.6206 58.4191L32.5226 39.6569Z" fill="#138944"/>
<path d="M21.4247 45.0729L11.8135 39.6567L0.71544 58.4189L0.76473 58.4467L8.49372 56.1014L10.2773 63.8073L10.3266 63.8351L21.4247 45.0729Z" fill="#138944"/>
<path d="M44.1922 23.8293C44.1922 35.6794 34.3488 45.294 22.1961 45.294C10.0434 45.294 0.2 35.6794 0.2 23.8293C0.2 11.9792 10.0434 2.36455 22.1961 2.36455C34.3488 2.36455 44.1922 11.9792 44.1922 23.8293Z" fill="white" stroke="#138944" stroke-width="0.4"/>
<ellipse cx="22.1961" cy="23.8292" rx="17.7569" ry="17.3318" fill="#138944"/>
<ellipse cx="22.1963" cy="23.8293" rx="13.3176" ry="12.9988" fill="white"/>
<ellipse cx="22.1959" cy="23.8293" rx="11.098" ry="10.8324" fill="#138944"/>
<path d="M22.1962 17.3297L23.6912 21.8207H28.5291L24.6151 24.5963L26.1101 29.0873L22.1962 26.3117L18.2822 29.0873L19.7772 24.5963L15.8633 21.8207H20.7012L22.1962 17.3297Z" fill="white"/>
<line x1="55.3921" y1="3.5" x2="55.3921" y2="62.5" stroke="#138944" stroke-width="2"/>
<path d="M86.0521 18.63C85.9121 20.87 85.1421 22.8 83.7421 24.42C81.9621 26.5 79.4221 27.54 76.1221 27.54C72.6021 27.54 69.8721 26.32 67.9321 23.88C66.2721 21.82 65.4421 19.27 65.4421 16.23C65.4421 13.09 66.3921 10.45 68.2921 8.31C70.2721 6.09 72.9421 4.98 76.3021 4.98C79.1021 4.98 81.4321 5.85 83.2921 7.59C84.8921 9.09 85.7621 10.93 85.9021 13.11H80.4421C80.2221 12.13 79.8821 11.39 79.4221 10.89C78.6421 10.03 77.5721 9.6 76.2121 9.6C74.5321 9.6 73.2321 10.27 72.3121 11.61C71.5321 12.79 71.1421 14.34 71.1421 16.26C71.1421 18.48 71.6421 20.18 72.6421 21.36C73.5221 22.4 74.6921 22.92 76.1521 22.92C77.6521 22.92 78.7921 22.37 79.5721 21.27C79.9921 20.67 80.2821 19.79 80.4421 18.63H86.0521ZM103.935 22.23C103.695 23.15 103.235 24 102.555 24.78C101.015 26.54 98.8849 27.42 96.1649 27.42C93.7049 27.42 91.7149 26.74 90.1949 25.38C88.4949 23.86 87.6449 21.85 87.6449 19.35C87.6449 16.73 88.5249 14.63 90.2849 13.05C91.8049 11.69 93.6949 11.01 95.9549 11.01C98.6949 11.01 100.805 11.91 102.285 13.71C103.585 15.29 104.235 17.36 104.235 19.92C104.235 20.1 104.235 20.26 104.235 20.4H92.6549C92.6949 21.52 93.0249 22.4 93.6449 23.04C94.2649 23.66 95.1049 23.97 96.1649 23.97C97.4649 23.97 98.4549 23.39 99.1349 22.23H103.935ZM99.2249 17.49C98.9649 15.47 97.8949 14.46 96.0149 14.46C94.1149 14.46 93.0149 15.47 92.7149 17.49H99.2249ZM117.985 11.34L117.955 15.54C117.215 15.32 116.515 15.21 115.855 15.21C113.255 15.21 111.955 16.88 111.955 20.22V27H106.855V11.43H111.775V14.1C112.375 12.04 114.045 11.01 116.785 11.01C117.105 11.01 117.505 11.12 117.985 11.34ZM129.429 11.43V14.79H125.739V21.21C125.739 22.65 126.389 23.37 127.689 23.37C128.449 23.37 129.049 23.22 129.489 22.92L130.389 26.58C129.409 27 127.979 27.21 126.099 27.21C123.779 27.21 122.229 26.71 121.449 25.71C121.109 25.27 120.889 24.79 120.789 24.27C120.689 23.75 120.639 22.89 120.639 21.69V14.79H118.029V11.43H120.639V8.13L125.739 5.46V11.43H129.429ZM136.418 11.43V27H131.318V11.43H136.418ZM133.868 4.95C134.508 4.95 135.058 5.18 135.518 5.64C135.978 6.08 136.208 6.63 136.208 7.29C136.208 7.93 135.978 8.48 135.518 8.94C135.058 9.4 134.508 9.63 133.868 9.63C133.208 9.63 132.648 9.4 132.188 8.94C131.748 8.48 131.528 7.93 131.528 7.29C131.528 6.63 131.748 6.08 132.188 5.64C132.648 5.18 133.208 4.95 133.868 4.95ZM148.962 5.58V9.18C148.462 9.14 148.022 9.12 147.642 9.12C146.842 9.12 146.322 9.21 146.082 9.39C145.842 9.57 145.722 9.94 145.722 10.5V11.43H148.752V14.79H145.722V27H140.592V14.79H138.132V11.43H140.592V10.71C140.592 8.85 141.052 7.52 141.972 6.72C142.912 5.9 144.442 5.49 146.562 5.49C147.122 5.49 147.922 5.52 148.962 5.58ZM156.047 11.43V27H150.947V11.43H156.047ZM153.497 4.95C154.137 4.95 154.687 5.18 155.147 5.64C155.607 6.08 155.837 6.63 155.837 7.29C155.837 7.93 155.607 8.48 155.147 8.94C154.687 9.4 154.137 9.63 153.497 9.63C152.837 9.63 152.277 9.4 151.817 8.94C151.377 8.48 151.157 7.93 151.157 7.29C151.157 6.63 151.377 6.08 151.817 5.64C152.277 5.18 152.837 4.95 153.497 4.95ZM174.681 20.88C174.381 23.1 173.461 24.78 171.921 25.92C170.581 26.92 168.901 27.42 166.881 27.42C164.241 27.42 162.161 26.58 160.641 24.9C159.321 23.44 158.661 21.59 158.661 19.35C158.661 16.65 159.511 14.54 161.211 13.02C162.711 11.68 164.611 11.01 166.911 11.01C169.251 11.01 171.121 11.63 172.521 12.87C173.761 13.97 174.441 15.37 174.561 17.07H169.611C169.351 15.51 168.481 14.73 167.001 14.73C164.901 14.73 163.851 16.26 163.851 19.32C163.851 22.18 164.871 23.61 166.911 23.61C168.531 23.61 169.481 22.7 169.761 20.88H174.681ZM192.197 27H187.007C186.847 26.5 186.757 26.01 186.737 25.53C185.777 26.79 184.077 27.42 181.637 27.42C179.817 27.42 178.417 26.94 177.437 25.98C176.577 25.14 176.147 24.03 176.147 22.65C176.147 20.75 176.987 19.41 178.667 18.63C179.387 18.31 180.867 17.94 183.107 17.52L186.647 16.86V15.93C186.607 14.79 185.817 14.22 184.277 14.22C183.437 14.22 182.817 14.37 182.417 14.67C182.037 14.95 181.787 15.46 181.667 16.2H176.837C177.017 12.74 179.517 11.01 184.337 11.01C186.897 11.01 188.817 11.47 190.097 12.39C190.697 12.85 191.107 13.37 191.327 13.95C191.547 14.51 191.657 15.37 191.657 16.53C191.657 16.73 191.647 17.35 191.627 18.39V18.72L191.597 21.3C191.597 22 191.597 22.47 191.597 22.71C191.597 22.95 191.587 23.33 191.567 23.85C191.567 24.13 191.567 24.35 191.567 24.51C191.567 25.63 191.777 26.46 192.197 27ZM186.707 19.89L184.367 20.4C183.147 20.68 182.337 20.96 181.937 21.24C181.537 21.52 181.337 21.94 181.337 22.5C181.337 23.72 182.027 24.33 183.407 24.33C184.567 24.33 185.467 23.92 186.107 23.1C186.467 22.66 186.657 21.96 186.677 21L186.707 19.89ZM204.195 11.43V14.79H200.505V21.21C200.505 22.65 201.155 23.37 202.455 23.37C203.215 23.37 203.815 23.22 204.255 22.92L205.155 26.58C204.175 27 202.745 27.21 200.865 27.21C198.545 27.21 196.995 26.71 196.215 25.71C195.875 25.27 195.655 24.79 195.555 24.27C195.455 23.75 195.405 22.89 195.405 21.69V14.79H192.795V11.43H195.405V8.13L200.505 5.46V11.43H204.195ZM221.474 22.23C221.234 23.15 220.774 24 220.094 24.78C218.554 26.54 216.424 27.42 213.704 27.42C211.244 27.42 209.254 26.74 207.734 25.38C206.034 23.86 205.184 21.85 205.184 19.35C205.184 16.73 206.064 14.63 207.824 13.05C209.344 11.69 211.234 11.01 213.494 11.01C216.234 11.01 218.344 11.91 219.824 13.71C221.124 15.29 221.774 17.36 221.774 19.92C221.774 20.1 221.774 20.26 221.774 20.4H210.194C210.234 21.52 210.564 22.4 211.184 23.04C211.804 23.66 212.644 23.97 213.704 23.97C215.004 23.97 215.994 23.39 216.674 22.23H221.474ZM216.764 17.49C216.504 15.47 215.434 14.46 213.554 14.46C211.654 14.46 210.554 15.47 210.254 17.49H216.764ZM237.252 27.42C234.632 27.42 232.552 26.56 231.012 24.84C229.672 23.34 229.002 21.46 229.002 19.2C229.002 16.6 229.862 14.53 231.582 12.99C233.082 11.67 234.962 11.01 237.222 11.01C239.862 11.01 241.952 11.86 243.492 13.56C244.812 15.02 245.472 16.89 245.472 19.17C245.472 21.79 244.612 23.87 242.892 25.41C241.392 26.75 239.512 27.42 237.252 27.42ZM237.192 14.73C236.232 14.73 235.492 15.12 234.972 15.9C234.452 16.68 234.192 17.78 234.192 19.2C234.192 22.2 235.212 23.7 237.252 23.7C239.292 23.7 240.312 22.19 240.312 19.17C240.312 16.21 239.272 14.73 237.192 14.73ZM257.155 5.58V9.18C256.655 9.14 256.215 9.12 255.835 9.12C255.035 9.12 254.515 9.21 254.275 9.39C254.035 9.57 253.915 9.94 253.915 10.5V11.43H256.945V14.79H253.915V27H248.785V14.79H246.325V11.43H248.785V10.71C248.785 8.85 249.245 7.52 250.165 6.72C251.105 5.9 252.635 5.49 254.755 5.49C255.315 5.49 256.115 5.52 257.155 5.58ZM86.6699 60H81.4799C81.3199 59.5 81.2299 59.01 81.2099 58.53C80.2499 59.79 78.5499 60.42 76.1099 60.42C74.2899 60.42 72.8899 59.94 71.9099 58.98C71.0499 58.14 70.6199 57.03 70.6199 55.65C70.6199 53.75 71.4599 52.41 73.1399 51.63C73.8599 51.31 75.3399 50.94 77.5799 50.52L81.1199 49.86V48.93C81.0799 47.79 80.2899 47.22 78.7499 47.22C77.9099 47.22 77.2899 47.37 76.8899 47.67C76.5099 47.95 76.2599 48.46 76.1399 49.2H71.3099C71.4899 45.74 73.9899 44.01 78.8099 44.01C81.3699 44.01 83.2899 44.47 84.5699 45.39C85.1699 45.85 85.5799 46.37 85.7999 46.95C86.0199 47.51 86.1299 48.37 86.1299 49.53C86.1299 49.73 86.1199 50.35 86.0999 51.39V51.72L86.0699 54.3C86.0699 55 86.0699 55.47 86.0699 55.71C86.0699 55.95 86.0599 56.33 86.0399 56.85C86.0399 57.13 86.0399 57.35 86.0399 57.51C86.0399 58.63 86.2499 59.46 86.6699 60ZM81.1799 52.89L78.8399 53.4C77.6199 53.68 76.8099 53.96 76.4099 54.24C76.0099 54.52 75.8099 54.94 75.8099 55.5C75.8099 56.72 76.4999 57.33 77.8799 57.33C79.0399 57.33 79.9399 56.92 80.5799 56.1C80.9399 55.66 81.1299 54.96 81.1499 54L81.1799 52.89ZM104.397 53.88C104.097 56.1 103.177 57.78 101.637 58.92C100.297 59.92 98.6173 60.42 96.5973 60.42C93.9573 60.42 91.8773 59.58 90.3573 57.9C89.0373 56.44 88.3773 54.59 88.3773 52.35C88.3773 49.65 89.2273 47.54 90.9273 46.02C92.4273 44.68 94.3273 44.01 96.6273 44.01C98.9673 44.01 100.837 44.63 102.237 45.87C103.477 46.97 104.157 48.37 104.277 50.07H99.3273C99.0673 48.51 98.1973 47.73 96.7173 47.73C94.6173 47.73 93.5673 49.26 93.5673 52.32C93.5673 55.18 94.5873 56.61 96.6273 56.61C98.2473 56.61 99.1973 55.7 99.4773 53.88H104.397ZM112.014 38.52V46.47C113.234 44.83 114.874 44.01 116.934 44.01C119.034 44.01 120.574 44.71 121.554 46.11C122.174 47.03 122.484 48.39 122.484 50.19V60H117.384V51.12C117.384 50.1 117.224 49.39 116.904 48.99C116.464 48.45 115.804 48.18 114.924 48.18C113.784 48.18 112.954 48.64 112.434 49.56C112.154 50.04 112.014 50.92 112.014 52.2V60H106.914V38.52H112.014ZM130.969 44.43V60H125.869V44.43H130.969ZM128.419 37.95C129.059 37.95 129.609 38.18 130.069 38.64C130.529 39.08 130.759 39.63 130.759 40.29C130.759 40.93 130.529 41.48 130.069 41.94C129.609 42.4 129.059 42.63 128.419 42.63C127.759 42.63 127.199 42.4 126.739 41.94C126.299 41.48 126.079 40.93 126.079 40.29C126.079 39.63 126.299 39.08 126.739 38.64C127.199 38.18 127.759 37.95 128.419 37.95ZM149.872 55.23C149.632 56.15 149.172 57 148.492 57.78C146.952 59.54 144.822 60.42 142.102 60.42C139.642 60.42 137.652 59.74 136.132 58.38C134.432 56.86 133.582 54.85 133.582 52.35C133.582 49.73 134.462 47.63 136.222 46.05C137.742 44.69 139.632 44.01 141.892 44.01C144.632 44.01 146.742 44.91 148.222 46.71C149.522 48.29 150.172 50.36 150.172 52.92C150.172 53.1 150.172 53.26 150.172 53.4H138.592C138.632 54.52 138.962 55.4 139.582 56.04C140.202 56.66 141.042 56.97 142.102 56.97C143.402 56.97 144.392 56.39 145.072 55.23H149.872ZM145.162 50.49C144.902 48.47 143.832 47.46 141.952 47.46C140.052 47.46 138.952 48.47 138.652 50.49H145.162ZM167.163 44.43L162.003 60H156.063L150.783 44.43H156.183L157.773 49.83C158.373 51.79 158.803 53.66 159.063 55.44C159.283 54.02 159.703 52.23 160.323 50.07L162.003 44.43H167.163ZM184.091 55.23C183.851 56.15 183.391 57 182.711 57.78C181.171 59.54 179.041 60.42 176.321 60.42C173.861 60.42 171.871 59.74 170.351 58.38C168.651 56.86 167.801 54.85 167.801 52.35C167.801 49.73 168.681 47.63 170.441 46.05C171.961 44.69 173.851 44.01 176.111 44.01C178.851 44.01 180.961 44.91 182.441 46.71C183.741 48.29 184.391 50.36 184.391 52.92C184.391 53.1 184.391 53.26 184.391 53.4H172.811C172.851 54.52 173.181 55.4 173.801 56.04C174.421 56.66 175.261 56.97 176.321 56.97C177.621 56.97 178.611 56.39 179.291 55.23H184.091ZM179.381 50.49C179.121 48.47 178.051 47.46 176.171 47.46C174.271 47.46 173.171 48.47 172.871 50.49H179.381ZM191.932 44.43V46.5C193.092 44.84 194.692 44.01 196.732 44.01C198.792 44.01 200.252 44.84 201.112 46.5C202.372 44.84 204.022 44.01 206.062 44.01C207.862 44.01 209.252 44.57 210.232 45.69C211.072 46.69 211.492 48.01 211.492 49.65V60H206.392V50.97C206.392 49.11 205.672 48.18 204.232 48.18C203.252 48.18 202.552 48.58 202.132 49.38C201.912 49.8 201.802 50.49 201.802 51.45V60H196.702V50.76C196.702 49.04 196.012 48.18 194.632 48.18C192.952 48.18 192.112 49.27 192.112 51.45V60H187.012V44.43H191.932ZM230.263 55.23C230.023 56.15 229.563 57 228.883 57.78C227.343 59.54 225.213 60.42 222.493 60.42C220.033 60.42 218.043 59.74 216.523 58.38C214.823 56.86 213.973 54.85 213.973 52.35C213.973 49.73 214.853 47.63 216.613 46.05C218.133 44.69 220.023 44.01 222.283 44.01C225.023 44.01 227.133 44.91 228.613 46.71C229.913 48.29 230.563 50.36 230.563 52.92C230.563 53.1 230.563 53.26 230.563 53.4H218.983C219.023 54.52 219.353 55.4 219.973 56.04C220.593 56.66 221.433 56.97 222.493 56.97C223.793 56.97 224.783 56.39 225.463 55.23H230.263ZM225.553 50.49C225.293 48.47 224.223 47.46 222.343 47.46C220.443 47.46 219.343 48.47 219.043 50.49H225.553ZM238.104 44.43V46.5C239.344 44.84 241.044 44.01 243.204 44.01C245.284 44.01 246.804 44.7 247.764 46.08C248.384 47 248.694 48.42 248.694 50.34V60H243.564V51.18C243.564 50.36 243.484 49.75 243.324 49.35C243.004 48.57 242.294 48.18 241.194 48.18C239.994 48.18 239.154 48.64 238.674 49.56C238.414 50.04 238.284 50.75 238.284 51.69V60H233.184V44.43H238.104ZM261.47 44.43V47.79H257.78V54.21C257.78 55.65 258.43 56.37 259.73 56.37C260.49 56.37 261.09 56.22 261.53 55.92L262.43 59.58C261.45 60 260.02 60.21 258.14 60.21C255.82 60.21 254.27 59.71 253.49 58.71C253.15 58.27 252.93 57.79 252.83 57.27C252.73 56.75 252.68 55.89 252.68 54.69V47.79H250.07V44.43H252.68V41.13L257.78 38.46V44.43H261.47Z" fill="#138944"/>
</svg>
