<svg width="281" height="50" viewBox="0 0 281 50" fill="none" xmlns="http://www.w3.org/2000/svg">
<path d="M12.0403 10.3C12.8936 10.3 13.627 10.6067 14.2403 11.22C14.8536 11.8067 15.1603 12.54 15.1603 13.42C15.1603 14.2733 14.8536 15.0067 14.2403 15.62C13.627 16.2333 12.8936 16.54 12.0403 16.54C11.1603 16.54 10.4136 16.2333 9.8003 15.62C9.18697 15.0067 8.8803 14.2733 8.8803 13.42C8.8803 12.5667 9.18697 11.8333 9.8003 11.22C10.4136 10.6067 11.1603 10.3 12.0403 10.3ZM15.1203 19.1V35.98C15.1203 39.5267 13.987 42.2733 11.7203 44.22C10.387 45.3667 8.8003 46.18 6.9603 46.66C6.0003 46.9 4.89364 47.02 3.6403 47.02L2.6003 46.94L0.0803027 43.78V41.66C0.160303 41.6867 0.306969 41.7133 0.520303 41.74C1.21364 41.8733 1.82697 41.94 2.3603 41.94C4.57364 41.8867 6.21364 41.3267 7.2803 40.26C8.37364 39.1667 8.9203 37.5 8.9203 35.26V19.1H15.1203ZM26.8241 8.86V31.78C26.8241 31.8333 26.8374 31.9133 26.8641 32.02L26.9041 32.06C26.9841 32.2467 27.1441 32.34 27.3841 32.34H28.8641V37.5H25.6241C24.3174 37.5 23.1707 37.0333 22.1841 36.1C21.1707 35.1133 20.6641 33.9267 20.6641 32.54V8.86H26.8241ZM35.9253 32.34V37.5H28.5253V32.34H35.9253ZM40.9547 19.78C43.488 19.0067 45.8213 18.62 47.9547 18.62C51.128 18.62 53.808 19.62 55.9947 21.62C58.0213 23.4867 59.0347 25.7667 59.0347 28.46V31.98C59.0347 32.0867 59.048 32.2067 59.0747 32.34H60.3147V37.5H59.5147L58.0347 35.66H57.9147C56.928 36.8867 55.6347 37.5 54.0347 37.5H35.6347V32.34H52.2747C52.648 32.34 52.8347 32.1533 52.8347 31.78V29.14C52.8347 27.62 52.2213 26.3667 50.9947 25.38C49.7947 24.3667 48.288 23.86 46.4747 23.86C44.9813 23.86 43.1413 24.14 40.9547 24.7V19.78ZM47.3547 39.34C48.208 39.34 48.9413 39.6467 49.5547 40.26C50.168 40.8733 50.4747 41.62 50.4747 42.5C50.4747 43.3533 50.168 44.0867 49.5547 44.7C48.9413 45.3133 48.208 45.62 47.3547 45.62C46.4747 45.62 45.728 45.3133 45.1147 44.7C44.528 44.0867 44.2347 43.3533 44.2347 42.5C44.2347 41.62 44.528 40.8733 45.1147 40.26C45.728 39.6467 46.4747 39.34 47.3547 39.34ZM70.2497 10.3C71.1297 10.3 71.863 10.6067 72.4497 11.22C73.063 11.8067 73.3697 12.54 73.3697 13.42C73.3697 14.2733 73.063 15.0067 72.4497 15.62C71.863 16.2333 71.1297 16.54 70.2497 16.54C69.3963 16.54 68.663 16.2333 68.0497 15.62C67.4363 15.0067 67.1297 14.2733 67.1297 13.42C67.1297 12.5667 67.4363 11.8333 68.0497 11.22C68.663 10.6067 69.3963 10.3 70.2497 10.3ZM73.3697 19.1V32.54C73.3697 33.7133 72.983 34.7667 72.2097 35.7C71.1963 36.9 69.9163 37.5 68.3697 37.5H60.0097V32.34H66.6097C66.7697 32.34 66.903 32.3 67.0097 32.22C67.143 32.1133 67.2097 31.9667 67.2097 31.78V19.1H73.3697ZM85.1062 8.86V35.98L81.9862 38.5H78.9062V8.86H85.1062ZM78.6662 46.98C78.3196 46.18 78.1462 45.4867 78.1462 44.9C78.1462 43.7267 78.4929 42.7667 79.1862 42.02C79.8796 41.2733 80.7729 40.9 81.8662 40.9C82.6662 40.9 83.4929 41.02 84.3462 41.26V43.78C83.6796 43.5933 83.1862 43.5 82.8662 43.5C81.8529 43.5 81.3462 44.0733 81.3462 45.22C81.3462 45.7267 81.4396 46.1133 81.6262 46.38C81.8929 46.78 82.3062 46.98 82.8662 46.98H85.6662V48.18L84.5862 49.54H77.2262V46.98H78.6662ZM103.796 10.3C104.649 10.3 105.383 10.6067 105.996 11.22C106.609 11.8333 106.916 12.5667 106.916 13.42C106.916 14.2733 106.609 15.0067 105.996 15.62C105.383 16.2333 104.649 16.54 103.796 16.54C102.916 16.54 102.169 16.2333 101.556 15.62C100.969 15.0067 100.676 14.2733 100.676 13.42C100.676 12.54 100.969 11.8067 101.556 11.22C102.169 10.6067 102.916 10.3 103.796 10.3ZM110.956 10.3C111.809 10.3 112.543 10.6067 113.156 11.22C113.769 11.8333 114.076 12.5667 114.076 13.42C114.076 14.2733 113.769 15.0067 113.156 15.62C112.543 16.2333 111.809 16.54 110.956 16.54C110.076 16.54 109.329 16.2333 108.716 15.62C108.129 15.0067 107.836 14.2733 107.836 13.42C107.836 12.54 108.129 11.8067 108.716 11.22C109.329 10.6067 110.076 10.3 110.956 10.3ZM114.076 18.02V30.38C114.076 32.8333 113.143 34.7533 111.276 36.14C109.756 37.2867 107.783 37.86 105.356 37.86C102.156 37.86 99.6893 36.7 97.9559 34.38C96.8359 32.7 96.2759 30.7533 96.2759 28.54C96.2759 25.5533 97.2759 23.0733 99.2759 21.1C101.063 19.34 103.223 18.46 105.756 18.46C107.063 18.46 108.263 18.7533 109.356 19.34L111.036 18.02H114.076ZM107.916 24.06C107.169 23.8467 106.556 23.74 106.076 23.74C104.956 23.74 104.049 24.1667 103.356 25.02C102.663 25.8733 102.316 27.02 102.316 28.46C102.316 29.7667 102.596 30.8067 103.156 31.58C103.716 32.3267 104.449 32.7 105.356 32.7C106.129 32.7 106.769 32.4467 107.276 31.94C107.703 31.4867 107.916 30.9533 107.916 30.34V24.06ZM121.902 18.86C122.596 18.7 123.556 18.62 124.782 18.62C128.062 18.62 130.702 19.6467 132.702 21.7C134.489 23.54 135.382 25.8733 135.382 28.7V32.54C135.382 34.0067 134.849 35.22 133.782 36.18C132.822 37.06 131.702 37.5 130.422 37.5H117.862V32.34H128.662C129.036 32.34 129.222 32.1533 129.222 31.78V29.18C129.222 27.5533 128.716 26.22 127.702 25.18C126.716 24.14 125.422 23.62 123.822 23.62C122.996 23.62 122.356 23.6733 121.902 23.78V18.86ZM146.707 8.86V31.78C146.707 31.8333 146.72 31.9133 146.747 32.02L146.787 32.06C146.867 32.2467 147.027 32.34 147.267 32.34H148.747V37.5H145.507C144.2 37.5 143.054 37.0333 142.067 36.1C141.054 35.1133 140.547 33.9267 140.547 32.54V8.86H146.707ZM158.128 19.54C161.061 18.2333 163.981 17.58 166.888 17.58C170.515 17.58 173.395 18.7 175.528 20.94C177.448 22.94 178.408 25.5267 178.408 28.7V31.06C178.408 31.3267 178.421 31.7533 178.448 32.34H179.728V37.5H178.928L177.448 35.66H177.328C176.955 36.0867 176.555 36.4333 176.128 36.7C175.328 37.2333 174.461 37.5 173.528 37.5H163.208C162.408 37.5 161.715 37.3133 161.128 36.94H160.928C160.315 37.3133 159.395 37.5 158.168 37.5H148.408V32.34H155.088C154.768 31.7267 154.555 31.1667 154.448 30.66C154.288 30.0733 154.208 29.42 154.208 28.7C154.208 27.2067 154.648 25.8867 155.528 24.74C156.168 23.8867 157.035 23.22 158.128 22.74V19.54ZM172.248 29.38C172.248 24.58 169.915 22.18 165.248 22.18C164.581 22.18 163.821 22.22 162.968 22.3C164.355 22.7267 165.515 23.5133 166.448 24.66C167.408 25.8067 167.888 27.1533 167.888 28.7C167.888 29.42 167.795 30.1 167.608 30.74C167.395 31.4333 167.195 31.9667 167.008 32.34H171.688C171.848 32.34 171.981 32.3 172.088 32.22C172.195 32.1133 172.248 31.9667 172.248 31.78V29.38ZM161.008 31.62C162.261 31.38 162.888 30.4733 162.888 28.9C162.888 28.1267 162.701 27.4867 162.328 26.98C161.955 26.5 161.501 26.26 160.968 26.26C160.435 26.26 159.981 26.5267 159.608 27.06C159.261 27.5667 159.088 28.2067 159.088 28.98C159.088 30.4733 159.728 31.3533 161.008 31.62ZM208.024 4.66C208.824 4.66 209.49 4.94 210.024 5.5C210.584 6.03333 210.864 6.7 210.864 7.5C210.864 8.27333 210.584 8.94 210.024 9.5C209.49 10.0333 208.824 10.3 208.024 10.3C207.25 10.3 206.584 10.0333 206.024 9.5C205.49 8.94 205.224 8.27333 205.224 7.5C205.224 6.7 205.49 6.03333 206.024 5.5C206.584 4.94 207.25 4.66 208.024 4.66ZM204.504 10.3C205.357 10.3 206.077 10.6067 206.664 11.22C207.277 11.8067 207.584 12.54 207.584 13.42C207.584 14.3 207.277 15.0467 206.664 15.66C206.077 16.2467 205.357 16.54 204.504 16.54C203.624 16.54 202.877 16.2333 202.264 15.62C201.65 15.0067 201.344 14.2733 201.344 13.42C201.344 12.5667 201.65 11.8333 202.264 11.22C202.877 10.6067 203.624 10.3 204.504 10.3ZM211.584 10.3C212.464 10.3 213.197 10.6067 213.784 11.22C214.397 11.8333 214.704 12.5667 214.704 13.42C214.704 14.2733 214.397 15.0067 213.784 15.62C213.197 16.2333 212.464 16.54 211.584 16.54C210.73 16.54 209.997 16.2333 209.384 15.62C208.77 15.0067 208.464 14.2733 208.464 13.42C208.464 12.54 208.77 11.8067 209.384 11.22C209.997 10.6067 210.73 10.3 211.584 10.3ZM225.744 19.1V32.54C225.744 33.9 225.25 35.0733 224.264 36.06C223.304 37.02 222.144 37.5 220.784 37.5H211.784L210.104 35.62H209.984C208.997 36.8733 207.704 37.5 206.104 37.5H197.104L195.424 35.62H195.304C194.317 36.8733 193.024 37.5 191.424 37.5H179.424V32.34H189.664C190.037 32.34 190.224 32.1533 190.224 31.78V23.7H196.384V29.98C196.384 30.38 196.397 31.0067 196.424 31.86V32.34H204.344C204.717 32.34 204.904 32.1533 204.904 31.78V21.38H211.064V30.66C211.064 31.1133 211.077 31.6733 211.104 32.34H219.024C219.397 32.34 219.584 32.1533 219.584 31.78V19.1H225.744Z" fill="#138944"/>
<line x1="239.56" y1="-4.37114e-08" x2="239.56" y2="48" stroke="#138944" stroke-width="2"/>
<path d="M272.292 28.8574L265.278 32.8094L273.376 46.4999L273.412 46.4796L274.714 40.8568L280.354 42.5681L280.39 42.5478L272.292 28.8574Z" fill="#138944"/>
<path d="M264.193 32.8097L257.18 28.8576L249.082 42.548L249.118 42.5683L254.758 40.857L256.059 46.4799L256.095 46.5001L264.193 32.8097Z" fill="#138944"/>
<path d="M280.752 17.3084C280.752 25.9241 273.595 32.9167 264.756 32.9167C255.917 32.9167 248.76 25.9241 248.76 17.3084C248.76 8.69264 255.917 1.7 264.756 1.7C273.595 1.7 280.752 8.69264 280.752 17.3084Z" fill="white" stroke="#138944" stroke-width="0.4"/>
<ellipse cx="264.756" cy="17.3083" rx="12.9569" ry="12.6467" fill="#138944"/>
<ellipse cx="264.756" cy="17.3083" rx="9.71765" ry="9.48501" fill="white"/>
<ellipse cx="264.756" cy="17.3084" rx="8.09804" ry="7.90418" fill="#138944"/>
<path d="M264.756 12.5659L265.847 15.8428H269.377L266.522 17.8681L267.612 21.1451L264.756 19.1198L261.901 21.1451L262.991 17.8681L260.135 15.8428H263.666L264.756 12.5659Z" fill="white"/>
</svg>
