<svg width="228" height="58" viewBox="0 0 228 58" fill="none" xmlns="http://www.w3.org/2000/svg">
<path d="M26.087 34.3398L18.3777 38.6842L27.2796 53.7337L27.3192 53.7115L28.7499 47.5304L34.9494 49.4116L34.989 49.3893L26.087 34.3398Z" fill="#138944"/>
<path d="M17.1852 38.684L9.47583 34.3396L0.573868 49.3891L0.613405 49.4114L6.81299 47.5302L8.24366 53.7113L8.28319 53.7336L17.1852 38.684Z" fill="#138944"/>
<path d="M35.4078 21.6441C35.4078 31.1265 27.5309 38.8218 17.8039 38.8218C8.07695 38.8218 0.2 31.1265 0.2 21.6441C0.2 12.1616 8.07695 4.46636 17.8039 4.46636C27.5309 4.46636 35.4078 12.1616 35.4078 21.6441Z" fill="white" stroke="#138944" stroke-width="0.4"/>
<ellipse cx="17.8039" cy="21.644" rx="14.2431" ry="13.9022" fill="#138944"/>
<ellipse cx="17.8042" cy="21.644" rx="10.6824" ry="10.4266" fill="white"/>
<ellipse cx="17.8038" cy="21.6441" rx="8.90196" ry="8.68886" fill="#138944"/>
<path d="M17.8041 16.4307L19.0032 20.033H22.8838L19.7444 22.2593L20.9435 25.8616L17.8041 23.6353L14.6646 25.8616L15.8638 22.2593L12.7243 20.033H16.6049L17.8041 16.4307Z" fill="white"/>
<line x1="46.6079" y1="5" x2="46.6079" y2="53" stroke="#138944" stroke-width="2"/>
<path d="M74.3799 16.746C74.2586 18.6873 73.5912 20.36 72.3779 21.764C70.8352 23.5667 68.6339 24.468 65.7739 24.468C62.7232 24.468 60.3572 23.4107 58.6759 21.296C57.2372 19.5107 56.5179 17.3007 56.5179 14.666C56.5179 11.9447 57.3412 9.65667 58.9879 7.802C60.7039 5.878 63.0179 4.916 65.9299 4.916C68.3566 4.916 70.3759 5.67 71.9879 7.178C73.3746 8.478 74.1286 10.0727 74.2499 11.962H69.5179C69.3272 11.1127 69.0326 10.4713 68.6339 10.038C67.9579 9.29267 67.0306 8.92 65.8519 8.92C64.3959 8.92 63.2692 9.50067 62.4719 10.662C61.7959 11.6847 61.4579 13.028 61.4579 14.692C61.4579 16.616 61.8912 18.0893 62.7579 19.112C63.5206 20.0133 64.5346 20.464 65.7999 20.464C67.0999 20.464 68.0879 19.9873 68.7639 19.034C69.1279 18.514 69.3792 17.7513 69.5179 16.746H74.3799ZM89.8783 19.866C89.6703 20.6633 89.2717 21.4 88.6823 22.076C87.3477 23.6013 85.5017 24.364 83.1443 24.364C81.0123 24.364 79.2877 23.7747 77.9703 22.596C76.497 21.2787 75.7603 19.5367 75.7603 17.37C75.7603 15.0993 76.523 13.2793 78.0483 11.91C79.3657 10.7313 81.0037 10.142 82.9623 10.142C85.337 10.142 87.1657 10.922 88.4483 12.482C89.575 13.8513 90.1383 15.6453 90.1383 17.864C90.1383 18.02 90.1383 18.1587 90.1383 18.28H80.1023C80.137 19.2507 80.423 20.0133 80.9603 20.568C81.4977 21.1053 82.2257 21.374 83.1443 21.374C84.271 21.374 85.129 20.8713 85.7183 19.866H89.8783ZM85.7963 15.758C85.571 14.0073 84.6437 13.132 83.0143 13.132C81.3677 13.132 80.4143 14.0073 80.1543 15.758H85.7963ZM102.055 10.428L102.029 14.068C101.388 13.8773 100.781 13.782 100.209 13.782C97.9562 13.782 96.8295 15.2293 96.8295 18.124V24H92.4095V10.506H96.6735V12.82C97.1935 11.0347 98.6408 10.142 101.015 10.142C101.293 10.142 101.639 10.2373 102.055 10.428ZM111.973 10.506V13.418H108.775V18.982C108.775 20.23 109.339 20.854 110.465 20.854C111.124 20.854 111.644 20.724 112.025 20.464L112.805 23.636C111.956 24 110.717 24.182 109.087 24.182C107.077 24.182 105.733 23.7487 105.057 22.882C104.763 22.5007 104.572 22.0847 104.485 21.634C104.399 21.1833 104.355 20.438 104.355 19.398V13.418H102.093V10.506H104.355V7.646L108.775 5.332V10.506H111.973ZM118.031 10.506V24H113.611V10.506H118.031ZM115.821 4.89C116.375 4.89 116.852 5.08933 117.251 5.488C117.649 5.86933 117.849 6.346 117.849 6.918C117.849 7.47267 117.649 7.94933 117.251 8.348C116.852 8.74667 116.375 8.946 115.821 8.946C115.249 8.946 114.763 8.74667 114.365 8.348C113.983 7.94933 113.793 7.47267 113.793 6.918C113.793 6.346 113.983 5.86933 114.365 5.488C114.763 5.08933 115.249 4.89 115.821 4.89ZM128.902 5.436V8.556C128.468 8.52133 128.087 8.504 127.758 8.504C127.064 8.504 126.614 8.582 126.406 8.738C126.198 8.894 126.094 9.21467 126.094 9.7V10.506H128.72V13.418H126.094V24H121.648V13.418H119.516V10.506H121.648V9.882C121.648 8.27 122.046 7.11733 122.844 6.424C123.658 5.71333 124.984 5.358 126.822 5.358C127.307 5.358 128 5.384 128.902 5.436ZM135.042 10.506V24H130.622V10.506H135.042ZM132.832 4.89C133.387 4.89 133.864 5.08933 134.262 5.488C134.661 5.86933 134.86 6.346 134.86 6.918C134.86 7.47267 134.661 7.94933 134.262 8.348C133.864 8.74667 133.387 8.946 132.832 8.946C132.26 8.946 131.775 8.74667 131.376 8.348C130.995 7.94933 130.804 7.47267 130.804 6.918C130.804 6.346 130.995 5.86933 131.376 5.488C131.775 5.08933 132.26 4.89 132.832 4.89ZM151.191 18.696C150.931 20.62 150.134 22.076 148.799 23.064C147.638 23.9307 146.182 24.364 144.431 24.364C142.143 24.364 140.341 23.636 139.023 22.18C137.879 20.9147 137.307 19.3113 137.307 17.37C137.307 15.03 138.044 13.2013 139.517 11.884C140.817 10.7227 142.464 10.142 144.457 10.142C146.485 10.142 148.106 10.6793 149.319 11.754C150.394 12.7073 150.983 13.9207 151.087 15.394H146.797C146.572 14.042 145.818 13.366 144.535 13.366C142.715 13.366 141.805 14.692 141.805 17.344C141.805 19.8227 142.689 21.062 144.457 21.062C145.861 21.062 146.685 20.2733 146.927 18.696H151.191ZM166.372 24H161.874C161.736 23.5667 161.658 23.142 161.64 22.726C160.808 23.818 159.335 24.364 157.22 24.364C155.643 24.364 154.43 23.948 153.58 23.116C152.835 22.388 152.462 21.426 152.462 20.23C152.462 18.5833 153.19 17.422 154.646 16.746C155.27 16.4687 156.553 16.148 158.494 15.784L161.562 15.212V14.406C161.528 13.418 160.843 12.924 159.508 12.924C158.78 12.924 158.243 13.054 157.896 13.314C157.567 13.5567 157.35 13.9987 157.246 14.64H153.06C153.216 11.6413 155.383 10.142 159.56 10.142C161.779 10.142 163.443 10.5407 164.552 11.338C165.072 11.7367 165.428 12.1873 165.618 12.69C165.809 13.1753 165.904 13.9207 165.904 14.926C165.904 15.0993 165.896 15.6367 165.878 16.538V16.824L165.852 19.06C165.852 19.6667 165.852 20.074 165.852 20.282C165.852 20.49 165.844 20.8193 165.826 21.27C165.826 21.5127 165.826 21.7033 165.826 21.842C165.826 22.8127 166.008 23.532 166.372 24ZM161.614 17.838L159.586 18.28C158.529 18.5227 157.827 18.7653 157.48 19.008C157.134 19.2507 156.96 19.6147 156.96 20.1C156.96 21.1573 157.558 21.686 158.754 21.686C159.76 21.686 160.54 21.3307 161.094 20.62C161.406 20.2387 161.571 19.632 161.588 18.8L161.614 17.838ZM176.77 10.506V13.418H173.572V18.982C173.572 20.23 174.135 20.854 175.262 20.854C175.921 20.854 176.441 20.724 176.822 20.464L177.602 23.636C176.753 24 175.513 24.182 173.884 24.182C171.873 24.182 170.53 23.7487 169.854 22.882C169.559 22.5007 169.369 22.0847 169.282 21.634C169.195 21.1833 169.152 20.438 169.152 19.398V13.418H166.89V10.506H169.152V7.646L173.572 5.332V10.506H176.77ZM191.746 19.866C191.538 20.6633 191.139 21.4 190.55 22.076C189.215 23.6013 187.369 24.364 185.012 24.364C182.88 24.364 181.155 23.7747 179.838 22.596C178.364 21.2787 177.628 19.5367 177.628 17.37C177.628 15.0993 178.39 13.2793 179.916 11.91C181.233 10.7313 182.871 10.142 184.83 10.142C187.204 10.142 189.033 10.922 190.316 12.482C191.442 13.8513 192.006 15.6453 192.006 17.864C192.006 18.02 192.006 18.1587 192.006 18.28H181.97C182.004 19.2507 182.29 20.0133 182.828 20.568C183.365 21.1053 184.093 21.374 185.012 21.374C186.138 21.374 186.996 20.8713 187.586 19.866H191.746ZM187.664 15.758C187.438 14.0073 186.511 13.132 184.882 13.132C183.235 13.132 182.282 14.0073 182.022 15.758H187.664ZM205.42 24.364C203.149 24.364 201.347 23.6187 200.012 22.128C198.851 20.828 198.27 19.1987 198.27 17.24C198.27 14.9867 199.015 13.1927 200.506 11.858C201.806 10.714 203.435 10.142 205.394 10.142C207.682 10.142 209.493 10.8787 210.828 12.352C211.972 13.6173 212.544 15.238 212.544 17.214C212.544 19.4847 211.799 21.2873 210.308 22.622C209.008 23.7833 207.379 24.364 205.42 24.364ZM205.368 13.366C204.536 13.366 203.895 13.704 203.444 14.38C202.993 15.056 202.768 16.0093 202.768 17.24C202.768 19.84 203.652 21.14 205.42 21.14C207.188 21.14 208.072 19.8313 208.072 17.214C208.072 14.6487 207.171 13.366 205.368 13.366ZM222.669 5.436V8.556C222.236 8.52133 221.854 8.504 221.525 8.504C220.832 8.504 220.381 8.582 220.173 8.738C219.965 8.894 219.861 9.21467 219.861 9.7V10.506H222.487V13.418H219.861V24H215.415V13.418H213.283V10.506H215.415V9.882C215.415 8.27 215.814 7.11733 216.611 6.424C217.426 5.71333 218.752 5.358 220.589 5.358C221.074 5.358 221.768 5.384 222.669 5.436ZM74.9153 53H70.4173C70.2787 52.5667 70.2007 52.142 70.1833 51.726C69.3513 52.818 67.878 53.364 65.7633 53.364C64.186 53.364 62.9727 52.948 62.1233 52.116C61.378 51.388 61.0053 50.426 61.0053 49.23C61.0053 47.5833 61.7333 46.422 63.1893 45.746C63.8133 45.4687 65.096 45.148 67.0373 44.784L70.1053 44.212V43.406C70.0707 42.418 69.386 41.924 68.0513 41.924C67.3233 41.924 66.786 42.054 66.4393 42.314C66.11 42.5567 65.8933 42.9987 65.7893 43.64H61.6033C61.7593 40.6413 63.926 39.142 68.1033 39.142C70.322 39.142 71.986 39.5407 73.0953 40.338C73.6153 40.7367 73.9707 41.1873 74.1613 41.69C74.352 42.1753 74.4473 42.9207 74.4473 43.926C74.4473 44.0993 74.4387 44.6367 74.4213 45.538V45.824L74.3953 48.06C74.3953 48.6667 74.3953 49.074 74.3953 49.282C74.3953 49.49 74.3867 49.8193 74.3693 50.27C74.3693 50.5127 74.3693 50.7033 74.3693 50.842C74.3693 51.8127 74.5513 52.532 74.9153 53ZM70.1573 46.838L68.1293 47.28C67.072 47.5227 66.37 47.7653 66.0233 48.008C65.6767 48.2507 65.5033 48.6147 65.5033 49.1C65.5033 50.1573 66.1013 50.686 67.2973 50.686C68.3027 50.686 69.0827 50.3307 69.6373 49.62C69.9493 49.2387 70.114 48.632 70.1313 47.8L70.1573 46.838ZM90.2791 47.696C90.0191 49.62 89.2218 51.076 87.8871 52.064C86.7258 52.9307 85.2698 53.364 83.5191 53.364C81.2311 53.364 79.4284 52.636 78.1111 51.18C76.9671 49.9147 76.3951 48.3113 76.3951 46.37C76.3951 44.03 77.1318 42.2013 78.6051 40.884C79.9051 39.7227 81.5518 39.142 83.5451 39.142C85.5731 39.142 87.1938 39.6793 88.4071 40.754C89.4818 41.7073 90.0711 42.9207 90.1751 44.394H85.8851C85.6598 43.042 84.9058 42.366 83.6231 42.366C81.8031 42.366 80.8931 43.692 80.8931 46.344C80.8931 48.8227 81.7771 50.062 83.5451 50.062C84.9491 50.062 85.7724 49.2733 86.0151 47.696H90.2791ZM96.8803 34.384V41.274C97.9376 39.8527 99.3589 39.142 101.144 39.142C102.964 39.142 104.299 39.7487 105.148 40.962C105.686 41.7593 105.954 42.938 105.954 44.498V53H101.534V45.304C101.534 44.42 101.396 43.8047 101.118 43.458C100.737 42.99 100.165 42.756 99.4023 42.756C98.4143 42.756 97.6949 43.1547 97.2443 43.952C97.0016 44.368 96.8803 45.1307 96.8803 46.24V53H92.4603V34.384H96.8803ZM113.308 39.506V53H108.888V39.506H113.308ZM111.098 33.89C111.653 33.89 112.129 34.0893 112.528 34.488C112.927 34.8693 113.126 35.346 113.126 35.918C113.126 36.4727 112.927 36.9493 112.528 37.348C112.129 37.7467 111.653 37.946 111.098 37.946C110.526 37.946 110.041 37.7467 109.642 37.348C109.261 36.9493 109.07 36.4727 109.07 35.918C109.07 35.346 109.261 34.8693 109.642 34.488C110.041 34.0893 110.526 33.89 111.098 33.89ZM129.691 48.866C129.483 49.6633 129.084 50.4 128.495 51.076C127.16 52.6013 125.314 53.364 122.957 53.364C120.825 53.364 119.1 52.7747 117.783 51.596C116.31 50.2787 115.573 48.5367 115.573 46.37C115.573 44.0993 116.336 42.2793 117.861 40.91C119.178 39.7313 120.816 39.142 122.775 39.142C125.15 39.142 126.978 39.922 128.261 41.482C129.388 42.8513 129.951 44.6453 129.951 46.864C129.951 47.02 129.951 47.1587 129.951 47.28H119.915C119.95 48.2507 120.236 49.0133 120.773 49.568C121.31 50.1053 122.038 50.374 122.957 50.374C124.084 50.374 124.942 49.8713 125.531 48.866H129.691ZM125.609 44.758C125.384 43.0073 124.456 42.132 122.827 42.132C121.18 42.132 120.227 43.0073 119.967 44.758H125.609ZM144.676 39.506L140.204 53H135.056L130.48 39.506H135.16L136.538 44.186C137.058 45.8847 137.431 47.5053 137.656 49.048C137.847 47.8173 138.211 46.266 138.748 44.394L140.204 39.506H144.676ZM159.347 48.866C159.139 49.6633 158.74 50.4 158.151 51.076C156.816 52.6013 154.97 53.364 152.613 53.364C150.481 53.364 148.756 52.7747 147.439 51.596C145.966 50.2787 145.229 48.5367 145.229 46.37C145.229 44.0993 145.992 42.2793 147.517 40.91C148.834 39.7313 150.472 39.142 152.431 39.142C154.806 39.142 156.634 39.922 157.917 41.482C159.044 42.8513 159.607 44.6453 159.607 46.864C159.607 47.02 159.607 47.1587 159.607 47.28H149.571C149.606 48.2507 149.892 49.0133 150.429 49.568C150.966 50.1053 151.694 50.374 152.613 50.374C153.74 50.374 154.598 49.8713 155.187 48.866H159.347ZM155.265 44.758C155.04 43.0073 154.112 42.132 152.483 42.132C150.836 42.132 149.883 43.0073 149.623 44.758H155.265ZM166.142 39.506V41.3C167.148 39.8613 168.534 39.142 170.302 39.142C172.088 39.142 173.353 39.8613 174.098 41.3C175.19 39.8613 176.62 39.142 178.388 39.142C179.948 39.142 181.153 39.6273 182.002 40.598C182.73 41.4647 183.094 42.6087 183.094 44.03V53H178.674V45.174C178.674 43.562 178.05 42.756 176.802 42.756C175.953 42.756 175.346 43.1027 174.982 43.796C174.792 44.16 174.696 44.758 174.696 45.59V53H170.276V44.992C170.276 43.5013 169.678 42.756 168.482 42.756C167.026 42.756 166.298 43.7007 166.298 45.59V53H161.878V39.506H166.142ZM199.363 48.866C199.155 49.6633 198.756 50.4 198.167 51.076C196.832 52.6013 194.986 53.364 192.629 53.364C190.497 53.364 188.772 52.7747 187.455 51.596C185.981 50.2787 185.245 48.5367 185.245 46.37C185.245 44.0993 186.007 42.2793 187.533 40.91C188.85 39.7313 190.488 39.142 192.447 39.142C194.821 39.142 196.65 39.922 197.933 41.482C199.059 42.8513 199.623 44.6453 199.623 46.864C199.623 47.02 199.623 47.1587 199.623 47.28H189.587C189.621 48.2507 189.907 49.0133 190.445 49.568C190.982 50.1053 191.71 50.374 192.629 50.374C193.755 50.374 194.613 49.8713 195.203 48.866H199.363ZM195.281 44.758C195.055 43.0073 194.128 42.132 192.499 42.132C190.852 42.132 189.899 43.0073 189.639 44.758H195.281ZM206.158 39.506V41.3C207.233 39.8613 208.706 39.142 210.578 39.142C212.381 39.142 213.698 39.74 214.53 40.936C215.067 41.7333 215.336 42.964 215.336 44.628V53H210.89V45.356C210.89 44.6453 210.821 44.1167 210.682 43.77C210.405 43.094 209.789 42.756 208.836 42.756C207.796 42.756 207.068 43.1547 206.652 43.952C206.427 44.368 206.314 44.9833 206.314 45.798V53H201.894V39.506H206.158ZM226.409 39.506V42.418H223.211V47.982C223.211 49.23 223.774 49.854 224.901 49.854C225.559 49.854 226.079 49.724 226.461 49.464L227.241 52.636C226.391 53 225.152 53.182 223.523 53.182C221.512 53.182 220.169 52.7487 219.493 51.882C219.198 51.5007 219.007 51.0847 218.921 50.634C218.834 50.1833 218.791 49.438 218.791 48.398V42.418H216.529V39.506H218.791V36.646L223.211 34.332V39.506H226.409Z" fill="#138944"/>
</svg>
