<svg width="1080" height="1080" viewBox="0 0 1080 1080" fill="none" xmlns="http://www.w3.org/2000/svg">
<path d="M106.25 669.7L171.91 649.76L175.48 661.54L143 696.77L189.6 707.87L193.18 719.65L127.52 739.58L124 728.25L170.42 714.16L129.42 704.31L127.48 697.92L156.13 667L109.72 681.09L106.25 669.7Z" fill="#231F20"/>
<path d="M116.68 762.36L127 760.69C127.145 762.784 127.716 764.826 128.68 766.69C130.96 771.15 136.353 772.817 144.86 771.69L180.55 730.69L186 741.5L160.73 769.35L198.03 765.13L203.4 775.68L148.76 782.3C140.72 783.234 134.41 782.9 129.83 781.3C127.563 780.504 125.476 779.267 123.69 777.661C121.903 776.054 120.452 774.11 119.42 771.94C117.893 768.955 116.962 765.701 116.68 762.36Z" fill="#231F20"/>
<path d="M186.83 842.12L179.76 832.5L235.09 791.9L242.15 801.53L186.83 842.12Z" fill="#231F20"/>
<path d="M233.19 829.6C236.493 829.532 239.772 830.175 242.805 831.484C245.838 832.794 248.554 834.739 250.77 837.19C253.285 839.894 255.014 843.234 255.77 846.85C256.566 850.216 256.371 853.741 255.21 857L278 836L285.57 844.23L231.57 893.86L224.63 886.32L231.31 879.32C227.911 880.181 224.339 880.07 221 879C217.409 877.944 214.177 875.92 211.66 873.15C209.406 870.735 207.694 867.867 206.64 864.736C205.586 861.605 205.215 858.286 205.55 855C206.141 848.078 209.31 841.631 214.429 836.934C219.548 832.238 226.243 829.634 233.19 829.64V829.6ZM217.11 856C216.971 858.032 217.254 860.071 217.943 861.989C218.631 863.906 219.71 865.66 221.11 867.14C222.478 868.675 224.145 869.914 226.009 870.783C227.873 871.651 229.895 872.13 231.95 872.19C234.001 872.298 236.053 871.998 237.987 871.309C239.922 870.619 241.7 869.553 243.22 868.172C244.74 866.791 245.971 865.122 246.842 863.262C247.713 861.402 248.207 859.388 248.295 857.336C248.383 855.284 248.063 853.235 247.354 851.308C246.645 849.38 245.562 847.612 244.165 846.106C242.769 844.6 241.088 843.386 239.22 842.533C237.352 841.681 235.333 841.207 233.28 841.14C231.233 841.037 229.186 841.352 227.264 842.066C225.342 842.779 223.585 843.876 222.1 845.29C220.582 846.64 219.355 848.287 218.497 850.128C217.639 851.97 217.167 853.968 217.11 856Z" fill="#231F20"/>
<path d="M276.94 874.71C280.385 874.312 283.875 874.599 287.208 875.556C290.542 876.513 293.653 878.12 296.362 880.285C299.071 882.45 301.324 885.13 302.992 888.171C304.66 891.211 305.71 894.552 306.08 898C306.47 901.456 306.158 904.954 305.163 908.286C304.168 911.618 302.511 914.714 300.29 917.39C300.17 917.54 299.09 918.73 297.07 920.96L265.61 895.73C264.103 898.732 263.778 902.19 264.7 905.42C265.625 908.951 267.697 912.075 270.59 914.3C274.943 917.787 279.61 919.12 284.59 918.3L288.02 928.3C283.938 929.259 279.683 929.197 275.63 928.12C271.397 927.099 267.441 925.16 264.04 922.44C261.148 920.248 258.729 917.493 256.93 914.341C255.131 911.189 253.988 907.705 253.57 904.1C253.164 900.635 253.446 897.123 254.4 893.767C255.355 890.41 256.964 887.276 259.133 884.543C261.303 881.81 263.991 879.533 267.044 877.842C270.096 876.151 273.452 875.08 276.92 874.69L276.94 874.71ZM271.25 888.71L293.91 906.88C294.814 905.506 295.432 903.963 295.726 902.345C296.02 900.726 295.984 899.065 295.62 897.46C294.857 893.865 292.818 890.668 289.88 888.46C287.127 886.127 283.608 884.895 280 885C278.369 885.01 276.756 885.343 275.254 885.98C273.752 886.617 272.391 887.545 271.25 888.71Z" fill="#231F20"/>
<path d="M297 946.17L323.13 901.56L331.97 906.74L328.31 914.29C330.945 912.73 333.93 911.856 336.99 911.75C340.241 911.652 343.449 912.507 346.22 914.21C351.627 917.376 354.847 921.803 355.88 927.49C356.913 933.176 355.247 939.75 350.88 947.21L337.58 969.92L327.93 964.27L341.23 941.56C343.757 937.233 344.663 933.39 343.95 930.03C343.577 928.418 342.879 926.899 341.898 925.567C340.918 924.235 339.676 923.116 338.248 922.28C336.821 921.444 335.238 920.908 333.596 920.705C331.954 920.502 330.288 920.637 328.7 921.1C325.42 922.1 322.51 924.79 319.98 929.1L306.68 951.82L297 946.17Z" fill="#231F20"/>
<path d="M369.07 927.59L375.71 930.46L383.82 915.53L392.35 919.23L385.63 934.76L396.76 939.58L392.76 948.72L381.63 943.9L373.23 963.31C371.83 966.53 371.497 969.287 372.23 971.58C372.624 972.758 373.278 973.833 374.144 974.724C375.009 975.616 376.064 976.301 377.23 976.73C378.411 977.223 379.664 977.523 380.94 977.62L379.57 987.88C376.771 987.789 374.016 987.154 371.46 986.01C369.178 985.113 367.101 983.764 365.353 982.044C363.605 980.323 362.223 978.268 361.29 976C359.47 971.447 360.017 965.81 362.93 959.09L371.41 939.51L365.11 936.78L369.07 927.59Z" fill="#231F20"/>
<path d="M391 992.44L407.8 943.55L418.38 947.18L401.58 996.08L391 992.44ZM410.51 932.44C410.791 931.604 411.238 930.833 411.824 930.173C412.41 929.513 413.123 928.978 413.92 928.6C414.696 928.19 415.548 927.943 416.423 927.872C417.297 927.802 418.177 927.911 419.009 928.191C419.841 928.472 420.607 928.919 421.26 929.505C421.913 930.091 422.441 930.804 422.81 931.6C423.208 932.389 423.442 933.25 423.498 934.131C423.555 935.013 423.433 935.897 423.14 936.73C422.716 937.981 421.929 939.077 420.88 939.879C419.83 940.681 418.565 941.153 417.247 941.233C415.928 941.313 414.616 940.999 413.477 940.331C412.337 939.663 411.423 938.67 410.85 937.48C410.454 936.709 410.217 935.867 410.154 935.002C410.09 934.138 410.201 933.27 410.48 932.45L410.51 932.44Z" fill="#231F20"/>
<path d="M425.17 949.71L432.17 951.52L437.86 935.52L446.86 937.849L442.63 954.229L454.37 957.229L451.87 966.88L440.13 963.88L434.84 984.359C433.96 987.759 434.053 990.533 435.12 992.68C435.696 993.786 436.513 994.748 437.512 995.494C438.511 996.24 439.666 996.751 440.89 996.99C442.135 997.296 443.422 997.4 444.7 997.299L444.94 1007.65C442.161 1007.99 439.343 1007.79 436.64 1007.06C434.234 1006.53 431.961 1005.51 429.96 1004.07C427.959 1002.63 426.271 1000.8 425 998.69C422.493 994.49 422.16 988.823 424 981.69L429.34 961.039L422.7 959.32L425.17 949.71Z" fill="#231F20"/>
<path d="M450.49 1029.75L455.02 1020.32C456.82 1021.4 458.826 1022.11 460.91 1022.38C465.87 1023.05 470.337 1019.58 474.31 1011.99L461.13 959.3L473.05 961L481.43 997.66L499.3 964.66L511 966.23L485.17 1014.84C481.33 1021.96 477.443 1026.94 473.51 1029.78C471.559 1031.18 469.349 1032.19 467.008 1032.73C464.667 1033.28 462.241 1033.36 459.87 1032.96C456.563 1032.52 453.376 1031.42 450.49 1029.75Z" fill="#231F20"/>
<path d="M559.47 949.09L572.32 948.21L601.32 1015.01L588.32 1015.9L581.71 1000.43L557.42 1002.09L552.97 1018.32L539.97 1019.21L559.47 949.09ZM577.6 989.59L567 964.78L560 990.78L577.6 989.59Z" fill="#231F20"/>
<path d="M616 996.42C618.312 997.887 620.929 998.807 623.65 999.11C626.62 999.541 629.644 999.443 632.58 998.82C634.97 998.422 637.221 997.425 639.12 995.92C639.806 995.384 640.324 994.664 640.615 993.844C640.905 993.024 640.956 992.138 640.76 991.29C640.433 989.763 639.13 988.763 636.85 988.29C634.184 987.779 631.474 987.538 628.76 987.57C625.593 987.565 622.429 987.398 619.28 987.07C616.145 986.762 613.147 985.63 610.59 983.79C609.12 982.647 607.896 981.217 606.995 979.587C606.093 977.957 605.532 976.161 605.345 974.308C605.158 972.455 605.349 970.583 605.907 968.806C606.465 967.029 607.378 965.384 608.59 963.97C611.563 960.51 615.96 958.153 621.78 956.9C630.78 954.96 638.24 956.273 644.16 960.84L638.97 968.84C636.947 967.372 634.561 966.486 632.07 966.28C629.434 965.974 626.767 966.096 624.17 966.64C621.959 967.011 619.875 967.921 618.1 969.29C617.474 969.731 616.988 970.342 616.699 971.051C616.41 971.76 616.33 972.537 616.47 973.29C616.76 974.64 618.03 975.52 620.3 975.93C622.98 976.371 625.694 976.575 628.41 976.54C631.597 976.543 634.782 976.723 637.95 977.08C641.098 977.421 644.102 978.583 646.66 980.45C649.301 982.433 651.089 985.347 651.66 988.6C652.787 993.866 651.703 998.283 648.41 1001.85C645.117 1005.42 640.553 1007.82 634.72 1009.07C630.47 1009.97 626.095 1010.14 621.79 1009.55C617.573 1009.05 613.539 1007.54 610.03 1005.15L616 996.42Z" fill="#231F20"/>
<path d="M669.58 983.17C672.063 984.318 674.775 984.889 677.51 984.84C680.509 984.878 683.492 984.388 686.32 983.39C688.639 982.687 690.741 981.407 692.43 979.67C693.037 979.047 693.454 978.263 693.631 977.411C693.809 976.559 693.739 975.674 693.43 974.86C692.91 973.39 691.43 972.56 689.16 972.39C686.452 972.237 683.735 972.354 681.05 972.74C677.908 973.144 674.747 973.384 671.58 973.46C668.446 973.56 665.34 972.828 662.58 971.34C660.983 970.395 659.594 969.137 658.496 967.641C657.398 966.145 656.614 964.442 656.192 962.635C655.769 960.828 655.717 958.954 656.038 957.126C656.359 955.299 657.047 953.555 658.06 952C660.56 948.18 664.613 945.273 670.22 943.28C678.887 940.18 686.457 940.513 692.93 944.28L688.82 952.93C686.627 951.733 684.146 951.165 681.65 951.29C678.996 951.324 676.365 951.79 673.86 952.67C671.719 953.325 669.772 954.496 668.19 956.08C667.624 956.599 667.219 957.27 667.024 958.013C666.829 958.756 666.852 959.54 667.09 960.27C667.55 961.57 668.93 962.273 671.23 962.38C673.948 962.468 676.668 962.318 679.36 961.93C682.521 961.518 685.703 961.284 688.89 961.23C692.051 961.162 695.175 961.924 697.95 963.44C700.82 965.066 702.965 967.722 703.95 970.87C705.757 975.95 705.257 980.47 702.45 984.43C699.643 988.39 695.43 991.37 689.81 993.37C685.716 994.816 681.402 995.543 677.06 995.52C672.811 995.578 668.612 994.607 664.82 992.69L669.58 983.17Z" fill="#231F20"/>
<path d="M707.32 937.27C708.34 933.959 710.005 930.884 712.218 928.219C714.431 925.555 717.15 923.354 720.217 921.745C723.284 920.135 726.639 919.147 730.089 918.839C733.539 918.531 737.016 918.909 740.32 919.95C743.644 920.979 746.726 922.67 749.38 924.921C752.033 927.172 754.203 929.937 755.76 933.05C755.84 933.21 756.507 934.666 757.76 937.42L722 956.1C724.149 958.684 727.189 960.369 730.52 960.82C734.125 961.399 737.82 960.758 741.02 959C745.96 956.413 749.06 952.67 750.32 947.77L760.85 948.64C760.09 952.762 758.324 956.633 755.71 959.91C753.075 963.377 749.708 966.221 745.85 968.24C742.679 970.003 739.185 971.11 735.577 971.493C731.969 971.876 728.321 971.528 724.85 970.47C721.514 969.448 718.412 967.778 715.723 965.555C713.034 963.332 710.81 960.6 709.179 957.515C707.549 954.43 706.543 951.054 706.221 947.58C705.898 944.106 706.265 940.602 707.3 937.27H707.32ZM717.85 948.1L743.6 934.65C742.706 933.268 741.542 932.082 740.177 931.163C738.813 930.243 737.276 929.609 735.66 929.3C732.064 928.559 728.321 929.141 725.12 930.94C721.876 932.518 719.332 935.244 717.98 938.59C717.332 940.088 716.986 941.699 716.964 943.332C716.942 944.964 717.243 946.584 717.85 948.1Z" fill="#231F20"/>
<path d="M775.9 932.18C778.602 932.61 781.366 932.415 783.98 931.61C786.877 930.831 789.613 929.545 792.06 927.81C794.102 926.502 795.772 924.691 796.91 922.55C797.329 921.787 797.521 920.921 797.464 920.053C797.407 919.185 797.104 918.352 796.59 917.65C795.677 916.37 794.08 915.967 791.8 916.44C789.155 917.037 786.576 917.895 784.1 919C781.189 920.25 778.215 921.348 775.19 922.29C772.194 923.257 768.994 923.409 765.92 922.73C764.118 922.261 762.431 921.431 760.959 920.29C759.488 919.15 758.264 917.722 757.36 916.094C756.457 914.466 755.894 912.672 755.705 910.82C755.516 908.968 755.705 907.097 756.26 905.32C757.593 900.96 760.693 897.05 765.56 893.59C773.06 888.257 780.43 886.503 787.67 888.33L786.1 897.77C783.661 897.218 781.117 897.353 778.75 898.16C776.208 898.92 773.807 900.089 771.64 901.62C769.759 902.838 768.207 904.5 767.12 906.46C766.72 907.113 766.516 907.867 766.532 908.633C766.548 909.399 766.783 910.144 767.21 910.78C768.01 911.907 769.53 912.207 771.77 911.68C774.408 911.025 776.982 910.135 779.46 909.02C782.396 907.759 785.401 906.664 788.46 905.74C791.481 904.803 794.696 904.679 797.78 905.38C800.995 906.149 803.8 908.107 805.63 910.86C808.763 915.247 809.517 919.733 807.89 924.32C806.263 928.907 803.033 932.927 798.2 936.38C794.654 938.888 790.703 940.769 786.52 941.94C782.452 943.158 778.15 943.374 773.98 942.57L775.9 932.18Z" fill="#231F20"/>
<path d="M819.77 898.81C822.504 898.887 825.219 898.339 827.71 897.21C830.485 896.066 833.035 894.437 835.24 892.4C837.087 890.834 838.51 888.83 839.38 886.57C839.689 885.753 839.759 884.865 839.582 884.009C839.405 883.154 838.988 882.367 838.38 881.74C837.31 880.6 835.67 880.4 833.47 881.16C830.923 882.09 828.475 883.269 826.16 884.68C823.436 886.296 820.629 887.768 817.75 889.09C814.902 890.434 811.747 890.996 808.61 890.72C806.767 890.482 804.992 889.875 803.39 888.933C801.788 887.991 800.394 886.735 799.29 885.24C798.187 883.745 797.397 882.043 796.969 880.235C796.541 878.427 796.484 876.551 796.8 874.72C797.587 870.233 800.163 865.963 804.53 861.91C811.283 855.643 818.367 852.956 825.78 853.85L825.42 863.41C822.934 863.183 820.433 863.643 818.19 864.74C815.768 865.822 813.536 867.287 811.58 869.08C809.874 870.532 808.549 872.379 807.72 874.46C807.405 875.159 807.298 875.935 807.411 876.694C807.525 877.453 807.854 878.163 808.36 878.74C809.3 879.74 810.84 879.85 813 879.05C815.53 878.056 817.969 876.845 820.29 875.43C823.026 873.798 825.854 872.325 828.76 871.02C831.641 869.703 834.816 869.166 837.97 869.46C841.257 869.813 844.287 871.4 846.45 873.9C850.117 877.847 851.45 882.18 850.45 886.9C849.45 891.62 846.76 896.023 842.38 900.11C839.185 903.049 835.508 905.417 831.51 907.11C827.634 908.842 823.397 909.611 819.16 909.35L819.77 898.81Z" fill="#231F20"/>
<path d="M869.32 873.28L828.24 841.88L834.47 833.74L841.14 838.01C839.855 835.448 839.311 832.577 839.569 829.722C839.827 826.867 840.877 824.141 842.6 821.85C844.576 819.117 847.35 817.063 850.54 815.97C853.546 814.981 856.777 814.898 859.83 815.73C858.265 813.025 857.492 809.934 857.6 806.81C857.69 803.646 858.798 800.595 860.76 798.11C864.38 793.377 868.873 790.877 874.24 790.61C879.607 790.344 885.703 792.807 892.53 798L914.19 814.56L907.4 823.45L885.74 806.89C881.86 803.924 878.44 802.49 875.48 802.59C874.09 802.611 872.724 802.953 871.489 803.59C870.254 804.226 869.183 805.14 868.36 806.26C867.502 807.351 866.905 808.624 866.614 809.981C866.322 811.338 866.345 812.744 866.68 814.09C867.347 817.03 869.61 819.984 873.47 822.95L895.12 839.5L888.33 848.39L866.67 831.83C862.74 828.83 859.31 827.38 856.37 827.51C854.986 827.539 853.626 827.887 852.398 828.527C851.17 829.167 850.107 830.082 849.29 831.2C848.433 832.324 847.862 833.64 847.627 835.034C847.391 836.427 847.499 837.857 847.94 839.2C848.8 842.26 851.22 845.31 855.2 848.35L876.11 864.35L869.32 873.28Z" fill="#231F20"/>
<path d="M885.75 773.35C884.664 770.051 884.243 766.57 884.512 763.108C884.78 759.645 885.732 756.27 887.313 753.178C888.894 750.086 891.072 747.338 893.722 745.093C896.372 742.849 899.44 741.151 902.75 740.1C906.055 739.019 909.545 738.618 913.01 738.92C916.474 739.222 919.842 740.222 922.91 741.86C923.077 741.953 924.457 742.767 927.05 744.3L908.69 780.2C911.937 781.065 915.39 780.683 918.37 779.13C921.644 777.515 924.287 774.855 925.88 771.57C928.42 766.597 928.787 761.75 926.98 757.03L936.07 751.65C937.832 755.454 938.629 759.634 938.39 763.82C938.245 768.172 937.146 772.439 935.17 776.32C933.609 779.602 931.4 782.534 928.676 784.94C925.952 787.346 922.77 789.176 919.32 790.32C916.008 791.418 912.511 791.851 909.031 791.594C905.551 791.336 902.156 790.394 899.042 788.821C895.927 787.248 893.154 785.075 890.881 782.427C888.609 779.778 886.882 776.707 885.8 773.39L885.75 773.35ZM900.61 776.09L913.83 750.23C912.304 749.619 910.67 749.324 909.026 749.364C907.383 749.404 905.765 749.776 904.27 750.46C900.901 751.927 898.179 754.567 896.61 757.89C894.883 761.056 894.384 764.749 895.21 768.26C895.546 769.858 896.197 771.373 897.124 772.717C898.051 774.061 899.236 775.208 900.61 776.09Z" fill="#231F20"/>
<path d="M951.69 739.23L902.69 722.71L906 713L914.14 715C912.079 712.729 910.618 709.979 909.89 707C909.128 703.837 909.312 700.519 910.42 697.46C912.42 691.52 916.103 687.47 921.47 685.31C926.837 683.15 933.613 683.45 941.8 686.21L966.74 694.63L963.16 705.23L938.22 696.81C933.473 695.21 929.527 695.103 926.38 696.49C924.875 697.179 923.528 698.169 922.42 699.399C921.312 700.628 920.467 702.071 919.938 703.639C919.409 705.207 919.206 706.867 919.342 708.517C919.478 710.166 919.951 711.77 920.73 713.23C922.39 716.237 925.597 718.543 930.35 720.15L955.29 728.56L951.69 739.23Z" fill="#231F20"/>
<path d="M918.86 672.43L920.33 665.35L904.06 660.45L905.94 651.34L922.51 654.76L925 642.88L934.75 644.88L932.3 656.76L953 661.05C956.44 661.76 959.21 661.54 961.3 660.37C962.374 659.734 963.291 658.864 963.984 657.826C964.676 656.787 965.126 655.606 965.3 654.37C965.543 653.114 965.583 651.828 965.42 650.56L975.75 649.81C976.218 652.57 976.157 655.393 975.57 658.13C975.157 660.563 974.254 662.888 972.917 664.962C971.58 667.037 969.836 668.819 967.79 670.2C963.723 672.907 958.093 673.52 950.9 672.04L930 667.73L928.61 674.45L918.86 672.43Z" fill="#231F20"/>
<path d="M107.514 366.364L114.131 355.296L123.593 360.91C129.268 364.287 134.503 365.305 139.299 363.963C144.095 362.622 148.217 359.056 151.663 353.265L156.719 344.754L145.829 338.34C137.573 333.432 132.575 327.482 130.837 320.492C129.099 313.502 130.622 305.924 135.406 297.759L143.486 284.129L190.784 312.205L184.216 323.271L147.698 301.602L146.299 303.962C143.3 309.01 142.284 313.418 143.249 317.187C144.215 320.956 147.187 324.317 152.167 327.272L174.114 340.294L162.587 359.768C157.201 368.848 150.411 374.422 142.218 376.489C134.025 378.556 125.614 377.052 116.985 371.977L107.514 366.364ZM165.058 376.092C164.781 375.181 164.701 374.222 164.821 373.278C164.942 372.334 165.261 371.426 165.757 370.614C166.235 369.769 166.881 369.031 167.656 368.446C168.431 367.861 169.318 367.442 170.262 367.215C171.185 366.967 172.15 366.91 173.096 367.049C174.042 367.188 174.95 367.52 175.763 368.023C176.592 368.508 177.316 369.153 177.891 369.922C178.466 370.691 178.881 371.567 179.111 372.499C179.377 373.44 179.443 374.427 179.305 375.395C179.166 376.363 178.826 377.292 178.307 378.121C177.824 378.95 177.174 379.67 176.398 380.234C175.622 380.799 174.737 381.196 173.799 381.4C172.868 381.644 171.898 381.698 170.946 381.559C169.994 381.42 169.08 381.092 168.257 380.593C167.437 380.111 166.728 379.46 166.176 378.684C165.625 377.909 165.244 377.025 165.058 376.092ZM175.34 358.772C175.059 357.865 174.975 356.907 175.094 355.964C175.213 355.021 175.532 354.115 176.03 353.305C176.512 352.474 177.157 351.748 177.926 351.171C178.695 350.594 179.572 350.178 180.505 349.947C181.427 349.681 182.393 349.608 183.344 349.731C184.295 349.855 185.21 350.172 186.034 350.664C187.689 351.686 188.885 353.309 189.37 355.193C189.855 357.076 189.593 359.075 188.638 360.77C188.155 361.596 187.506 362.314 186.732 362.877C185.957 363.439 185.075 363.835 184.139 364.038C183.209 364.286 182.238 364.341 181.286 364.203C180.333 364.064 179.419 363.734 178.598 363.231C177.768 362.763 177.048 362.123 176.486 361.354C175.925 360.585 175.534 359.705 175.34 358.772Z" fill="#138944"/>
<path d="M201.362 321.111C202.61 320.348 203.725 319.386 204.664 318.264C207.114 315.25 207.998 312.408 207.318 309.737C206.655 307.068 204.485 304.262 200.84 301.307L158.776 267.255L166.789 257.179L208.946 291.298C215.611 296.696 219.376 302.388 220.239 308.375C221.101 314.362 219.228 320.214 214.618 325.932C212.894 328.1 210.813 329.959 208.466 331.43L201.362 321.111Z" fill="#138944"/>
<path d="M155.409 223.566L164.155 214.125L210.627 257.199C215.363 261.59 219.451 261.928 222.89 258.212L225.005 256.027L234.117 264.824L232.248 266.891C228.064 271.413 223.178 273.635 217.592 273.556C212.006 273.478 206.769 271.176 201.881 266.65L155.409 223.566Z" fill="#138944"/>
<path d="M225.005 256.027L228.516 252.562C229.362 251.868 230.029 250.981 230.459 249.974C230.889 248.968 231.069 247.873 230.986 246.782C230.626 244.285 229.448 241.979 227.635 240.225L205.687 216.326L215.009 207.606L237.039 231.581C238.63 233.538 240.83 234.905 243.288 235.466C244.385 235.642 245.508 235.55 246.56 235.195C247.613 234.841 248.564 234.237 249.331 233.434L255.245 227.994L263.878 237.388L257.964 242.828C253.44 246.988 248.371 248.46 242.759 247.241C243.498 252.932 241.628 257.837 237.149 261.956L231.332 267.312L225.005 256.027ZM243.67 270.194C243.675 269.231 243.884 268.28 244.283 267.404C244.682 266.528 245.262 265.746 245.984 265.11C247.41 263.823 249.284 263.147 251.203 263.228C253.122 263.309 254.933 264.14 256.246 265.542C256.901 266.24 257.411 267.062 257.746 267.959C258.081 268.856 258.235 269.81 258.199 270.767C258.178 271.727 257.963 272.673 257.565 273.547C257.167 274.421 256.596 275.205 255.885 275.851C255.184 276.506 254.355 277.008 253.45 277.326C252.544 277.643 251.583 277.769 250.626 277.695C249.665 277.663 248.719 277.438 247.845 277.033C246.972 276.629 246.188 276.054 245.541 275.341C244.889 274.654 244.386 273.839 244.064 272.948C243.742 272.057 243.607 271.109 243.669 270.164L243.67 270.194ZM259.968 262.09C259.313 261.402 258.805 260.589 258.475 259.699C258.144 258.809 257.998 257.862 258.046 256.914C258.063 255.949 258.281 254.999 258.687 254.123C259.092 253.247 259.675 252.466 260.4 251.828C261.096 251.191 261.913 250.699 262.802 250.383C263.692 250.066 264.636 249.932 265.579 249.987C266.537 249.992 267.484 250.197 268.359 250.588C269.234 250.98 270.018 251.549 270.661 252.261C271.319 252.969 271.825 253.804 272.147 254.715C272.47 255.627 272.603 256.594 272.537 257.558C272.524 258.511 272.316 259.451 271.927 260.321C271.538 261.191 270.975 261.972 270.274 262.616C269.572 263.261 268.746 263.756 267.847 264.07C266.947 264.384 265.993 264.512 265.043 264.444C264.08 264.409 263.134 264.179 262.261 263.77C261.389 263.36 260.609 262.778 259.966 262.06L259.968 262.09Z" fill="#138944"/>
<path d="M271.087 215.744L245.433 205.783L234.333 189.921L268.88 165.74C274.226 161.998 279.241 160.052 283.926 159.902C288.61 159.752 292.49 161.871 295.565 166.259C296.85 168.132 297.806 170.21 298.391 172.405C299.04 175.011 299.322 177.696 299.23 180.38C299.169 183.424 299.04 186.02 298.841 188.168C298.646 190.327 298.289 193.281 297.79 197.031L314.593 185.357L324.487 193.917L262.406 238.21L254.561 228.478L271.087 215.744ZM257.614 196.702L283.52 207.035L285.854 205.392C286.006 204.576 286.2 203.249 286.436 201.429C286.673 199.61 286.857 198.293 286.969 197.488C287.081 196.684 287.231 195.528 287.397 193.971C287.562 192.415 287.682 191.25 287.744 190.437C287.805 189.624 287.88 188.621 287.969 187.427C288.05 186.428 288.052 185.425 287.974 184.425C287.898 183.678 287.8 182.871 287.69 182.014C287.528 180.591 287.009 179.232 286.181 178.064C284.538 175.72 282.651 174.689 280.519 174.97C278.388 175.251 275.661 176.537 272.339 178.828L254.055 191.634L257.614 196.702Z" fill="#138944"/>
<path d="M320.145 196.791L314.59 185.287L327.591 179.06C324.783 178.575 322.138 177.403 319.893 175.648C317.648 173.893 315.871 171.61 314.722 169.003C313.091 165.738 312.127 162.18 311.885 158.538C311.643 154.896 312.129 151.243 313.314 147.791C314.499 144.338 316.359 141.156 318.786 138.43C321.213 135.704 324.158 133.489 327.45 131.913C330.743 130.337 334.315 129.432 337.961 129.251C341.606 129.07 345.251 129.616 348.683 130.858C352.115 132.1 355.266 134.013 357.951 136.485C360.636 138.958 362.803 141.94 364.323 145.257L367.41 151.704C368.175 153.529 369.598 155.001 371.397 155.827C372.264 156.171 373.197 156.32 374.129 156.264C375.061 156.207 375.969 155.946 376.788 155.499L379.574 154.171L385.089 165.675L382.343 166.982C379.51 168.471 376.284 169.038 373.114 168.605C370.151 168.097 367.451 166.592 365.46 164.339C364.672 168.164 362.986 171.746 360.54 174.789C358.093 177.832 354.958 180.25 351.392 181.841L320.145 196.791ZM326.321 163.335C327.122 165.087 328.275 166.655 329.71 167.941C331.144 169.227 332.828 170.203 334.657 170.808C336.466 171.485 338.393 171.791 340.323 171.708C342.253 171.625 344.146 171.156 345.891 170.326C347.635 169.497 349.195 168.326 350.478 166.882C351.761 165.438 352.741 163.75 353.358 161.92C354.642 158.243 354.419 154.207 352.736 150.694C351.053 147.181 348.049 144.477 344.379 143.172C342.569 142.513 340.645 142.222 338.722 142.316C336.798 142.41 334.912 142.887 333.175 143.72C331.438 144.552 329.885 145.723 328.606 147.163C327.328 148.604 326.349 150.285 325.729 152.109C325.061 153.922 324.77 155.853 324.871 157.782C324.973 159.712 325.466 161.601 326.321 163.335Z" fill="#138944"/>
<path d="M379.324 154.179L382.231 153.167C387.015 151.506 388.351 147.63 386.237 141.54L365.495 81.6676L377.665 77.4503L398.397 137.323C400.579 143.631 400.582 149.354 398.407 154.493C396.231 159.632 392.231 163.211 386.404 165.229L383.497 166.231L379.324 154.179Z" fill="#138944"/>
<path d="M431.29 152.584L418.87 155.96L396.357 73.1648L408.777 69.7893L431.29 152.584Z" fill="#138944"/>
<path d="M468.75 92.3895L469.334 103.376C469.677 109.954 471.733 114.886 475.504 118.169C479.274 121.453 484.528 122.901 491.265 122.512L501.153 121.997L500.5 109.332C499.999 99.7367 502.176 92.2795 507.034 86.9601C511.891 81.6406 519.044 78.7226 528.491 78.2059L544.312 77.3732L546.047 110.433C546.366 116.512 549.62 119.55 554.381 119.297L556.397 119.727L557.09 131.82L554.341 131.916C548.043 132.256 543.03 130.54 539.303 126.768C535.575 122.996 533.536 117.784 533.183 111.132L532.106 90.5973L529.358 90.6932C523.492 91.0115 519.262 92.6134 516.668 95.499C514.073 98.3847 512.924 102.721 513.219 108.507L514.56 133.996L491.938 135.186C481.39 135.741 472.963 133.194 466.655 127.544C460.348 121.894 456.942 114.048 456.438 104.006L455.854 93.0199L468.75 92.3895ZM479.576 151.408C479.514 150.46 479.643 149.511 479.956 148.614C480.268 147.718 480.758 146.894 481.395 146.191C482.359 145.126 483.615 144.369 485.007 144.016C486.399 143.662 487.865 143.728 489.22 144.204C490.575 144.681 491.758 145.547 492.623 146.694C493.487 147.841 493.994 149.217 494.079 150.651C494.138 151.605 494.008 152.562 493.696 153.466C493.384 154.37 492.897 155.203 492.261 155.918C491.631 156.652 490.857 157.25 489.988 157.674C489.118 158.098 488.171 158.341 487.204 158.386C486.248 158.445 485.289 158.305 484.39 157.973C483.491 157.64 482.672 157.124 481.984 156.457C481.262 155.821 480.677 155.046 480.263 154.178C479.85 153.311 479.616 152.368 479.576 151.408ZM501.491 145.159C502.092 144.426 502.841 143.828 503.688 143.404C504.535 142.98 505.462 142.738 506.408 142.696C507.373 142.619 508.343 142.741 509.259 143.053C510.175 143.365 511.018 143.861 511.735 144.511C512.457 145.135 513.044 145.901 513.46 146.761C513.875 147.62 514.11 148.556 514.151 149.51C514.216 150.466 514.088 151.426 513.776 152.332C513.464 153.238 512.974 154.073 512.334 154.786C511.699 155.528 510.918 156.131 510.039 156.556C509.16 156.981 508.203 157.219 507.227 157.256C506.271 157.314 505.313 157.173 504.414 156.84C503.515 156.508 502.696 155.993 502.007 155.327C501.286 154.691 500.7 153.916 500.285 153.048C499.869 152.181 499.633 151.239 499.589 150.278C499.532 149.34 499.672 148.399 499.999 147.518C500.327 146.636 500.835 145.833 501.491 145.159Z" fill="#138944"/>
<path d="M554.281 119.3C557.357 119.635 559.081 119.822 562.156 120.156C563.25 120.345 564.374 120.267 565.432 119.929C566.49 119.591 567.45 119.002 568.232 118.213C569.888 116.3 570.86 113.889 570.994 111.362L574.488 79.0307L587.174 80.3988L583.671 112.771C583.277 115.266 583.718 117.822 584.926 120.041C585.504 120.968 586.297 121.741 587.238 122.296C588.179 122.85 589.24 123.169 590.33 123.225L598.315 124.087L596.879 136.825L588.844 135.964C582.818 135.314 578.402 132.467 575.598 127.421C571.813 131.736 566.874 133.576 560.781 132.942L552.819 131.859L554.281 119.3ZM568.06 60.2736C568.786 59.6733 569.627 59.2276 570.531 58.9637C571.436 58.6998 572.384 58.6234 573.319 58.7392C574.276 58.8352 575.203 59.1229 576.046 59.5851C576.89 60.0473 577.631 60.6746 578.226 61.4295C578.854 62.1551 579.323 63.0033 579.605 63.9203C579.887 64.8373 579.975 65.8029 579.863 66.7557C579.774 67.7026 579.486 68.62 579.016 69.4471C578.546 70.2742 577.907 70.9922 577.139 71.5537C576.403 72.1641 575.553 72.6228 574.639 72.9034C573.724 73.1839 572.764 73.2809 571.812 73.1885C570.86 73.0962 569.936 72.8165 569.092 72.3654C568.249 71.9144 567.503 71.301 566.898 70.5605C566.279 69.8211 565.819 68.9618 565.547 68.0363C565.275 67.1108 565.198 66.1391 565.319 65.1823C565.42 64.2267 565.716 63.302 566.187 62.4647C566.659 61.6275 567.296 60.8955 568.061 60.3136L568.06 60.2736ZM584.674 67.2681C584.765 66.3224 585.045 65.4045 585.497 64.5689C585.949 63.7332 586.564 62.9968 587.306 62.4033C588.052 61.7993 588.911 61.3489 589.832 61.0779C590.754 60.8068 591.72 60.7205 592.674 60.8238C593.629 60.9272 594.554 61.2181 595.396 61.68C596.238 62.1419 596.981 62.7657 597.581 63.5154C598.345 64.4476 598.865 65.5546 599.097 66.7374C599.328 67.9201 599.262 69.1418 598.905 70.293C598.549 71.4442 597.912 72.489 597.053 73.3339C596.194 74.1789 595.138 74.7976 593.981 75.1347C592.824 75.4718 591.601 75.5168 590.423 75.2656C589.244 75.0145 588.146 74.475 587.227 73.6955C586.308 72.916 585.596 71.9208 585.156 70.799C584.716 69.6771 584.56 68.4636 584.704 67.267L584.674 67.2681Z" fill="#138944"/>
<path d="M595.556 123.863L602.608 125.247C603.69 125.528 604.823 125.548 605.915 125.304C607.006 125.061 608.023 124.562 608.883 123.848C610.715 122.099 611.903 119.784 612.256 117.276L618.545 85.327L631.169 87.8179L624.88 119.767C623.588 126.316 620.672 131.254 616.132 134.581C611.592 137.908 606.249 138.952 600.102 137.713L593.049 136.338L595.556 123.863ZM594.403 152.45C594.575 151.518 594.934 150.629 595.456 149.838C595.978 149.046 596.654 148.367 597.444 147.841C598.229 147.283 599.123 146.896 600.068 146.704C601.013 146.513 601.987 146.521 602.928 146.729C603.854 146.913 604.734 147.281 605.515 147.811C606.297 148.34 606.964 149.021 607.478 149.812C608.046 150.586 608.445 151.47 608.65 152.407C608.855 153.344 608.862 154.314 608.669 155.254C608.489 156.203 608.116 157.106 607.575 157.906C607.033 158.706 606.334 159.387 605.52 159.907C604.748 160.46 603.873 160.851 602.946 161.055C602.019 161.26 601.06 161.274 600.128 161.096C599.185 160.92 598.289 160.548 597.498 160.006C596.707 159.463 596.039 158.761 595.535 157.944C594.979 157.146 594.592 156.242 594.397 155.289C594.202 154.336 594.203 153.353 594.401 152.4L594.403 152.45ZM616.649 151.674C617.413 151.105 618.288 150.706 619.217 150.501C620.147 150.296 621.109 150.29 622.041 150.485C622.984 150.664 623.881 151.031 624.68 151.563C625.479 152.096 626.163 152.783 626.692 153.584C627.257 154.361 627.655 155.246 627.86 156.185C628.065 157.123 628.073 158.094 627.883 159.036C627.467 160.933 626.335 162.595 624.723 163.677C623.11 164.759 621.143 165.176 619.23 164.841C618.288 164.664 617.393 164.292 616.602 163.749C615.811 163.206 615.142 162.505 614.637 161.69C614.092 160.898 613.714 160.003 613.524 159.06C613.335 158.118 613.338 157.146 613.535 156.205C613.696 155.263 614.056 154.366 614.593 153.576C615.13 152.786 615.831 152.12 616.647 151.624L616.649 151.674Z" fill="#138944"/>
<path d="M654.306 101.088C657.496 99.385 661 98.3529 664.603 98.055C668.207 97.7571 671.833 98.1997 675.259 99.3555C683.01 101.84 688.483 106.502 691.677 113.341C694.871 120.18 695.135 127.756 692.47 136.067L688.582 148.21L696.434 150.728L692.536 162.871L684.572 160.318C682.042 166.692 677.266 171.92 671.147 175.015C665.03 178.09 658.272 178.447 650.872 176.083C646.495 174.679 642.475 172.345 639.086 169.241C635.782 166.309 633.279 162.584 631.814 158.418L642.859 153.229C643.826 155.759 645.403 158.01 647.451 159.783C649.534 161.667 651.995 163.086 654.67 163.943C658.2 165.218 662.092 165.039 665.489 163.446C668.591 162.037 671.073 159.545 672.469 156.438L659.476 152.279C651.65 149.77 645.946 145.166 642.364 138.467C640.673 135.229 639.641 131.688 639.326 128.048C639.011 124.409 639.42 120.743 640.529 117.262C641.638 113.782 643.426 110.555 645.788 107.769C648.151 104.982 651.042 102.692 654.294 101.028L654.306 101.088ZM653.87 132.712C654.889 134.518 656.253 136.104 657.886 137.381C659.519 138.659 661.388 139.601 663.385 140.155L676.368 144.314L680.602 131.158C682.023 127.227 681.871 122.899 680.18 119.076C679.344 117.264 678.124 115.655 676.606 114.36C675.087 113.066 673.305 112.116 671.383 111.578C669.54 110.976 667.596 110.745 665.664 110.899C663.731 111.053 661.848 111.589 660.124 112.475C658.4 113.362 656.869 114.582 655.619 116.064C654.37 117.546 653.426 119.262 652.844 121.111C652.165 123.002 651.9 125.017 652.069 127.019C652.237 129.021 652.834 130.963 653.82 132.714L653.87 132.712Z" fill="#138944"/>
<path d="M687.976 160.66L695.552 150.389L703.768 154.405C703.126 152.747 702.851 150.969 702.962 149.195C703.073 147.421 703.566 145.691 704.409 144.126C706.433 140.08 709.834 136.888 714.001 135.126C718.06 133.259 722.674 132.991 726.923 134.374C730.84 130.935 735.684 128.726 740.849 128.025C746.091 127.253 751.441 128.166 756.13 130.633C759.317 132.15 762.137 134.339 764.398 137.049C766.659 139.76 768.306 142.928 769.226 146.335C771.171 153.338 770.293 160.467 766.591 167.72L753.189 193.974L687.976 160.66ZM713.17 148.573C712.329 150.234 711.998 152.106 712.219 153.954C712.439 155.802 713.201 157.544 714.409 158.96C715.616 160.377 717.216 161.404 719.006 161.914C720.796 162.424 722.696 162.394 724.469 161.827C725.658 161.451 726.761 160.844 727.715 160.04C728.668 159.236 729.453 158.251 730.024 157.143C730.595 156.034 730.941 154.823 731.042 153.58C731.143 152.337 730.997 151.086 730.612 149.9C730.227 148.714 729.611 147.615 728.8 146.668C727.989 145.721 726.998 144.944 725.885 144.381C724.772 143.819 723.559 143.482 722.315 143.391C721.071 143.3 719.821 143.455 718.638 143.849C717.458 144.218 716.365 144.823 715.424 145.626C714.484 146.429 713.717 147.415 713.168 148.523L713.17 148.573ZM736.137 143.508C738.374 145.839 739.813 148.819 740.247 152.02C740.791 155.302 740.263 158.671 738.741 161.629C737.953 163.231 736.827 164.643 735.441 165.769C734.056 166.895 732.443 167.708 730.714 168.153L747.666 176.806L755.261 161.912C757.372 157.796 757.954 153.917 757.006 150.274C756.566 148.5 755.738 146.846 754.581 145.431C753.424 144.016 751.968 142.876 750.316 142.093C748.059 140.911 745.494 140.445 742.965 140.758C740.486 141.025 738.126 141.958 736.135 143.458L736.137 143.508Z" fill="#138944"/>
<path d="M771.55 217.13C772.303 218.382 773.252 219.506 774.36 220.46C777.36 222.94 780.193 223.86 782.86 223.22C785.527 222.58 788.363 220.453 791.37 216.84L825.91 175.18L835.91 183.31L801.3 225.06C795.82 231.66 790.083 235.36 784.09 236.16C778.097 236.96 772.277 235.016 766.63 230.33C764.487 228.579 762.654 226.48 761.21 224.12L771.55 217.13Z" fill="#138944"/>
<path d="M869.64 172.33L878.97 181.18L835.36 227.18C830.92 231.847 830.537 235.927 834.21 239.42L836.21 241.32L827.43 250.57L825.43 248.68C820.97 244.44 818.807 239.53 818.94 233.95C819.073 228.37 821.44 223.16 826.04 218.32L869.64 172.33Z" fill="#138944"/>
<path d="M820 265.24C820.728 264.543 821.593 264.005 822.54 263.661C823.487 263.317 824.495 263.173 825.5 263.24C827.496 263.333 829.374 264.212 830.724 265.684C832.075 267.157 832.789 269.103 832.71 271.1C832.673 272.1 832.439 273.083 832.021 273.992C831.604 274.902 831.012 275.72 830.278 276.401C829.545 277.082 828.684 277.611 827.746 277.959C826.808 278.307 825.81 278.467 824.81 278.43C823.812 278.384 822.832 278.142 821.927 277.716C821.023 277.29 820.212 276.69 819.54 275.95C818.858 275.228 818.329 274.376 817.985 273.444C817.642 272.513 817.49 271.521 817.54 270.53C817.561 269.526 817.791 268.537 818.215 267.626C818.638 266.716 819.246 265.903 820 265.24ZM825 248L834.4 239.37L836.48 241.64C839.9 245.366 843.987 245.033 848.74 240.64L872.74 218.64L881.44 228.13L857.44 250.13C852.68 254.49 852.037 258.563 855.51 262.35L857.59 264.62L848.19 273.24L846.1 271C841.887 266.4 840.443 261.353 841.77 255.86C836.083 256.6 831.18 254.73 827.06 250.25L825 248Z" fill="#138944"/>
<path d="M856 262.48L860.86 268.74C861.486 269.656 862.323 270.407 863.302 270.929C864.281 271.452 865.371 271.73 866.48 271.74C868.998 271.592 871.397 270.615 873.3 268.96L899 249L906.83 259.08L881.11 279.08C879.033 280.51 877.49 282.588 876.72 284.99C876.455 286.05 876.45 287.158 876.706 288.22C876.962 289.283 877.471 290.267 878.19 291.09L883.11 297.44L873 305.23L868.07 298.89C864.337 294.076 863.313 288.93 865 283.45C859.26 283.723 854.503 281.426 850.73 276.56L845.87 270.31L856 262.48ZM908 231.4C908.935 231.502 909.839 231.796 910.656 232.262C911.473 232.728 912.186 233.357 912.75 234.11C913.347 234.864 913.786 235.731 914.041 236.659C914.295 237.587 914.359 238.556 914.23 239.51C914.144 240.465 913.861 241.392 913.398 242.232C912.935 243.073 912.302 243.807 911.54 244.39C910.795 244.982 909.933 245.409 909.011 245.644C908.089 245.878 907.127 245.914 906.19 245.75C905.24 245.647 904.319 245.356 903.481 244.894C902.644 244.433 901.907 243.809 901.312 243.061C900.718 242.312 900.278 241.452 900.018 240.532C899.759 239.612 899.685 238.649 899.8 237.7C899.895 236.74 900.19 235.811 900.665 234.973C901.14 234.134 901.786 233.404 902.56 232.83C903.322 232.234 904.197 231.8 905.133 231.554C906.068 231.308 907.044 231.256 908 231.4ZM914.51 248.21C915.251 247.616 916.104 247.178 917.018 246.922C917.932 246.666 918.889 246.597 919.83 246.72C920.783 246.84 921.703 247.146 922.537 247.622C923.372 248.097 924.104 248.732 924.693 249.491C925.282 250.25 925.715 251.117 925.969 252.043C926.222 252.97 926.291 253.937 926.17 254.89C926.053 255.832 925.748 256.741 925.274 257.564C924.8 258.386 924.166 259.106 923.41 259.68C922.659 260.283 921.795 260.731 920.869 260.997C919.943 261.263 918.973 261.342 918.016 261.23C917.059 261.117 916.133 260.815 915.294 260.341C914.455 259.868 913.719 259.231 913.128 258.47C912.537 257.709 912.104 256.837 911.853 255.907C911.603 254.976 911.54 254.005 911.669 253.05C911.797 252.095 912.115 251.175 912.603 250.344C913.091 249.513 913.739 248.788 914.51 248.21Z" fill="#138944"/>
<path d="M882.5 296.5L909.59 340.69L915.08 337.43C921.16 333.737 924.9 329.007 926.3 323.24C927.7 317.473 926.563 311.497 922.89 305.31L911.23 285.63L922.23 279.12L934.23 299.37C939.417 308.137 940.9 317.137 938.68 326.37C936.46 335.603 930.927 342.847 922.08 348.1L916.17 351.73L905.17 358.23L871 302L882.5 296.5ZM944.63 291.28C945.698 290.663 946.902 290.318 948.135 290.275C949.369 290.232 950.593 290.493 951.702 291.034C952.811 291.576 953.77 292.382 954.494 293.381C955.218 294.38 955.686 295.542 955.855 296.764C956.025 297.986 955.892 299.231 955.468 300.39C955.043 301.549 954.34 302.585 953.421 303.409C952.502 304.232 951.395 304.817 950.197 305.112C948.999 305.407 947.746 305.403 946.55 305.1C945.582 304.849 944.674 304.408 943.878 303.804C943.082 303.2 942.413 302.444 941.91 301.58C941.397 300.742 941.061 299.807 940.923 298.833C940.786 297.86 940.849 296.868 941.11 295.92C941.347 294.947 941.782 294.033 942.388 293.234C942.993 292.436 943.757 291.771 944.63 291.28Z" fill="#138944"/>
<path d="M914.48 380.59L909.19 368.85L987.41 333.59L992.7 345.33L914.48 380.59Z" fill="#138944"/>
<path d="M498.36 682.21C501.21 681.52 505.72 683.38 508.01 685.58C520.45 697.43 532.3 709.92 544.69 721.87C550.1 727.11 556.19 731.71 563.62 737.87C568.14 735.403 572.627 732.77 577.08 729.97C587.26 723.49 598.62 718.03 605.47 707.21C600.76 707.13 596.94 710.21 591.99 710.21C586.439 710.39 580.91 709.425 575.749 707.374C570.587 705.323 565.903 702.231 561.99 698.29C551.58 688.29 541.43 677.99 531.18 667.83" fill="black"/>
<path d="M564.12 738.4C548.33 744 533.28 751 517.44 754.48C499.444 758.483 481.092 760.668 462.66 761C422.05 761.56 384.48 750.3 349.66 729C312.75 706.36 285.46 675.5 266.76 636.82C249.19 600.56 243.57 562.1 247.27 522.44C249.456 498.565 255.891 475.273 266.27 453.66C275.88 433.6 286.92 414.97 301.99 398.74C318.81 380.67 344.58 381.92 359.66 400.74C371.14 415.14 369.66 435.62 357.42 449.35C336.21 472.772 323.651 502.745 321.83 534.29C319.03 575.47 332.26 611.17 359.6 641.29C376.285 659.5 397.573 672.873 421.22 680C446.249 687.78 472.929 688.561 498.37 682.26C501.21 681.58 505.72 683.44 508.01 685.64C520.45 697.49 532.3 709.98 544.7 721.93C550.2 727.25 556.45 731.93 564.12 738.4Z" fill="#373636"/>
<path d="M590 618C609.07 598.78 626.29 581.31 643.6 564C684.17 523.42 724.89 483 765.35 442.25C776.95 430.59 790.55 425.84 806.1 430.74C835.05 439.91 842.65 474.21 820.94 496.01C794.193 522.87 767.373 549.643 740.48 576.33C700.74 615.95 660.65 655.11 621.7 695.43C602.33 715.5 575.98 712.54 559.7 695.51C527.49 661.88 494.22 629.34 461.31 596.42C445.12 580.23 444.4 556.23 459.78 540.78C475.16 525.33 499.11 525.25 515.46 541.39C538.16 563.8 560.63 586.39 583.11 609.04C585.585 611.885 587.886 614.877 590 618Z" fill="#EC2028"/>
<path d="M458.88 326C502.73 326.32 538.88 335.64 572.15 355C596.37 369.09 598.89 400.47 577.61 418.29C565.61 428.29 549.41 429.91 534.29 421.5C508.807 407.001 479.48 400.696 450.29 403.44C442.75 404.11 435.29 405.78 427.85 407.17C407.44 410.96 388 399.17 383.17 380.07C377.84 358.94 388.67 339.18 409.38 333C416.414 330.892 423.608 329.36 430.89 328.42C442 327 453.08 326.45 458.88 326Z" fill="#068241"/>
<path d="M666.22 469.85C666.258 480.071 662.252 489.892 655.077 497.172C647.903 504.452 638.141 508.599 627.92 508.71C605.85 508.89 587.32 489.91 587.38 467.19C587.414 456.837 591.557 446.922 598.898 439.622C606.239 432.323 616.178 428.236 626.53 428.26C647.91 428.32 666.29 447.57 666.22 469.85Z" fill="#068241"/>
<path d="M540 1062.1C828.348 1062.1 1062.1 828.348 1062.1 540C1062.1 251.652 828.348 17.9004 540 17.9004C251.652 17.9004 17.8999 251.652 17.8999 540C17.8999 828.348 251.652 1062.1 540 1062.1Z" stroke="#EC2028" stroke-width="7" stroke-miterlimit="10"/>
</svg>
