<svg width="1028" height="352" viewBox="0 0 1028 352" fill="none" xmlns="http://www.w3.org/2000/svg">
<path d="M176.8 268.72C178.5 268.31 181.2 269.43 182.57 270.72C190 277.8 197.07 285.25 204.45 292.39C207.68 295.52 211.32 298.26 215.75 301.98C218.457 300.507 221.123 298.93 223.75 297.25C229.83 293.38 236.62 290.13 240.75 283.67C237.93 283.62 235.65 285.45 232.69 285.5C229.383 285.603 226.09 285.023 223.017 283.796C219.944 282.569 217.157 280.722 214.83 278.37C208.61 272.37 202.55 266.24 196.43 260.17" fill="#0EA398"/>
<path d="M216.08 302.28C206.65 305.62 197.66 309.8 188.2 311.88C177.452 314.274 166.49 315.584 155.48 315.79C131.23 316.13 108.79 309.44 88 296.69C66 283.17 49.69 264.76 38.49 241.64C28 220 24.64 197 26.86 173.33C28.1505 159.075 31.9809 145.166 38.17 132.26C43.91 120.26 50.54 109.13 59.5 99.45C69.5 88.66 84.94 89.39 93.94 100.68C100.81 109.27 99.94 121.5 92.6 129.68C79.9372 143.67 72.4422 161.571 71.36 180.41C69.69 205 77.58 226.35 93.91 244.3C103.886 255.165 116.611 263.135 130.74 267.37C145.682 272.017 161.611 272.484 176.8 268.72C178.5 268.31 181.2 269.43 182.57 270.72C190 277.8 197.07 285.25 204.45 292.39C207.77 295.62 211.49 298.42 216.08 302.28Z" fill="#1EB2AA"/>
<path d="M231.53 230.35C242.93 218.88 253.2 208.46 263.53 198.11C287.76 173.87 312.08 149.71 336.24 125.4C343.17 118.4 351.29 115.6 360.57 118.53C377.86 124 382.4 144.53 369.44 157.53C353.44 173.53 337.42 189.53 321.38 205.53C297.69 229.2 273.71 252.59 250.45 276.67C238.88 288.67 223.14 286.88 213.4 276.72C194.16 256.66 174.28 237.2 154.63 217.54C144.96 207.87 144.54 193.54 153.75 184.31C162.96 175.08 177.24 175.03 187.01 184.67C200.59 198 214 211.5 227.44 225C228.908 226.701 230.273 228.487 231.53 230.35Z" fill="#C5418D"/>
<path d="M153.22 56C179.41 56.2 200.98 61.76 220.87 73.33C235.33 81.75 236.87 100.5 224.13 111.13C216.96 117.13 207.28 118.13 198.26 113.05C183.042 104.394 165.53 100.631 148.1 102.27C143.61 102.67 139.16 103.66 134.71 104.49C122.52 106.76 110.91 99.74 108.02 88.3C104.84 75.69 111.31 63.89 123.68 60.2C127.879 58.9424 132.173 58.0294 136.52 57.47C143.11 56.6 149.76 56.25 153.22 56Z" fill="#1EB2AA"/>
<path d="M277.07 141.9C277.089 148.004 274.695 153.869 270.409 158.216C266.124 162.564 260.294 165.041 254.19 165.11C241.01 165.21 229.94 153.87 229.99 140.31C229.998 137.249 230.609 134.219 231.787 131.394C232.966 128.569 234.69 126.004 236.86 123.845C239.03 121.686 241.604 119.976 244.435 118.811C247.266 117.647 250.299 117.052 253.36 117.06C266.13 117.1 277.1 128.59 277.07 141.9Z" fill="#1EB2AA"/>
<path d="M506 251.31H483.8C475.413 251.31 468.64 248.763 463.48 243.67C460.944 241.181 458.95 238.196 457.622 234.901C456.293 231.605 455.659 228.071 455.76 224.52V215.59H471.76V224.52C471.685 226.008 471.943 227.494 472.515 228.87C473.088 230.245 473.961 231.475 475.07 232.47C477.538 234.462 480.652 235.476 483.82 235.32H490.07V229.88C490.07 222.793 492.2 217.15 496.46 212.95C500.72 208.75 506.36 206.653 513.38 206.66H531.51V231.75C531.478 232.674 531.779 233.58 532.36 234.3C532.637 234.631 532.987 234.894 533.383 235.067C533.778 235.241 534.209 235.32 534.64 235.3H536.87V251.3H534.64C528.74 251.3 524.073 249.483 520.64 245.85C517.207 242.217 515.48 237.513 515.46 231.74V222.2H513.77C511.21 222.2 509.29 222.867 508.01 224.2C506.659 225.734 505.969 227.74 506.09 229.78L506 251.31ZM477.46 272C475.312 271.974 473.259 271.109 471.74 269.59C470.221 268.071 469.356 266.018 469.33 263.87C469.314 262.793 469.516 261.725 469.924 260.728C470.331 259.732 470.935 258.828 471.7 258.07C472.441 257.291 473.335 256.675 474.327 256.26C475.318 255.845 476.385 255.641 477.46 255.66C479.636 255.668 481.721 256.535 483.26 258.073C484.8 259.61 485.669 261.694 485.68 263.87C485.697 264.945 485.491 266.012 485.074 267.004C484.658 267.995 484.04 268.89 483.26 269.63C482.502 270.395 481.598 270.999 480.602 271.406C479.605 271.814 478.536 272.016 477.46 272ZM502.11 269.59C501.348 270.353 500.443 270.959 499.447 271.372C498.451 271.786 497.383 271.998 496.305 271.998C495.227 271.998 494.159 271.786 493.163 271.372C492.166 270.959 491.262 270.353 490.5 269.59C489.728 268.852 489.116 267.964 488.701 266.98C488.287 265.996 488.079 264.938 488.09 263.87C488.07 262.511 488.386 261.169 489.012 259.962C489.637 258.756 490.552 257.723 491.675 256.957C492.797 256.191 494.092 255.715 495.443 255.572C496.794 255.429 498.16 255.623 499.418 256.137C500.676 256.651 501.787 257.469 502.651 258.517C503.516 259.566 504.107 260.812 504.372 262.145C504.636 263.478 504.566 264.856 504.168 266.155C503.77 267.454 503.056 268.634 502.09 269.59H502.11Z" fill="#092524"/>
<path d="M570.78 251.31H535.06V235.31H570.78V251.31Z" fill="#092524"/>
<path d="M604.72 251.31H569V235.31H604.72V251.31Z" fill="#092524"/>
<path d="M610.43 251.31H602.93V235.31H610.43C610.966 235.333 611.5 235.237 611.994 235.03C612.489 234.822 612.931 234.508 613.29 234.11C614.035 233.227 614.418 232.094 614.36 230.94V206.66H630.44V231C630.518 233.687 630.051 236.362 629.068 238.865C628.085 241.367 626.606 243.644 624.72 245.56C622.863 247.452 620.635 248.94 618.176 249.929C615.717 250.919 613.08 251.389 610.43 251.31ZM619.18 201.21C617.849 202.514 616.107 203.316 614.251 203.48C612.395 203.645 610.54 203.161 609 202.112C607.461 201.062 606.332 199.512 605.807 197.724C605.282 195.937 605.392 194.022 606.119 192.307C606.846 190.591 608.145 189.181 609.795 188.315C611.445 187.449 613.344 187.182 615.168 187.558C616.993 187.934 618.631 188.931 619.804 190.379C620.976 191.827 621.611 193.637 621.6 195.5C621.604 196.566 621.391 197.622 620.975 198.603C620.559 199.585 619.949 200.471 619.18 201.21ZM631.42 203.62C630.342 203.638 629.272 203.439 628.274 203.033C627.276 202.627 626.369 202.024 625.61 201.26C624.833 200.518 624.218 199.623 623.803 198.632C623.389 197.64 623.183 196.574 623.2 195.5C623.203 193.321 624.069 191.231 625.61 189.691C627.151 188.15 629.241 187.283 631.42 187.28C632.495 187.261 633.562 187.465 634.553 187.88C635.545 188.295 636.439 188.911 637.18 189.69C637.946 190.449 638.551 191.355 638.958 192.353C639.366 193.351 639.567 194.422 639.55 195.5C639.516 197.645 638.649 199.692 637.131 201.208C635.613 202.724 633.565 203.589 631.42 203.62Z" fill="#092524"/>
<path d="M714.11 251.31H691.88C683.48 251.31 676.707 248.763 671.56 243.67C669.024 241.181 667.03 238.196 665.702 234.901C664.373 231.605 663.74 228.071 663.84 224.52V215.59H679.84V224.52C679.765 226.008 680.023 227.494 680.595 228.87C681.168 230.245 682.041 231.475 683.15 232.47C685.618 234.462 688.732 235.476 691.9 235.32H698.15V229.88C698.15 222.793 700.277 217.15 704.53 212.95C708.783 208.75 714.427 206.653 721.46 206.66H739.59V231.75C739.559 232.673 739.857 233.576 740.43 234.3C740.708 234.63 741.058 234.892 741.454 235.065C741.849 235.239 742.279 235.319 742.71 235.3H744.94V251.3H742.71C736.817 251.3 732.15 249.483 728.71 245.85C725.27 242.217 723.543 237.513 723.53 231.74V222.2H721.8C719.233 222.2 717.31 222.867 716.03 224.2C714.679 225.734 713.989 227.74 714.11 229.78V251.31ZM685.54 272C683.392 271.974 681.339 271.109 679.82 269.59C678.301 268.071 677.436 266.018 677.41 263.87C677.394 262.793 677.596 261.725 678.004 260.728C678.411 259.732 679.015 258.828 679.78 258.07C680.52 257.29 681.414 256.672 682.406 256.258C683.398 255.843 684.465 255.639 685.54 255.66C687.716 255.665 689.801 256.532 691.34 258.07C692.878 259.609 693.745 261.694 693.75 263.87C693.769 264.945 693.565 266.012 693.15 267.003C692.735 267.995 692.119 268.889 691.34 269.63C690.582 270.395 689.678 270.999 688.682 271.406C687.685 271.814 686.616 272.016 685.54 272ZM710.18 269.59C708.849 270.893 707.108 271.696 705.253 271.86C703.397 272.025 701.542 271.542 700.002 270.493C698.463 269.445 697.334 267.895 696.808 266.108C696.282 264.321 696.391 262.407 697.117 260.691C697.843 258.976 699.141 257.565 700.789 256.698C702.438 255.831 704.336 255.562 706.161 255.937C707.986 256.311 709.624 257.306 710.798 258.753C711.972 260.199 712.609 262.007 712.6 263.87C712.609 264.943 712.399 266.006 711.983 266.995C711.567 267.983 710.954 268.877 710.18 269.62V269.59Z" fill="#092524"/>
<path d="M778.86 251.31H743.14V235.31H778.86V251.31Z" fill="#092524"/>
<path d="M812.8 251.31H777.07V235.31H812.8V251.31Z" fill="#092524"/>
<path d="M813.69 251.31H811V235.31H813.68C814.209 235.335 814.736 235.24 815.222 235.032C815.709 234.824 816.142 234.509 816.49 234.11C817.195 233.209 817.55 232.083 817.49 230.94V206.66H833.6V231C833.68 233.683 833.22 236.355 832.246 238.857C831.272 241.358 829.804 243.638 827.93 245.56C826.084 247.453 823.865 248.941 821.414 249.931C818.963 250.921 816.332 251.39 813.69 251.31ZM831.64 270.15C830.235 271.567 828.381 272.452 826.395 272.655C824.41 272.858 822.416 272.365 820.753 271.261C819.09 270.158 817.862 268.511 817.278 266.603C816.693 264.694 816.79 262.642 817.55 260.797C818.31 258.951 819.686 257.427 821.445 256.483C823.204 255.54 825.236 255.236 827.193 255.624C829.151 256.011 830.914 257.066 832.181 258.608C833.448 260.15 834.14 262.084 834.14 264.08C834.159 265.209 833.947 266.33 833.517 267.373C833.087 268.417 832.449 269.362 831.64 270.15Z" fill="#092524"/>
<path d="M914.78 251.31H892.54C884.147 251.31 877.373 248.763 872.22 243.67C869.686 241.18 867.692 238.194 866.364 234.9C865.036 231.605 864.401 228.071 864.5 224.52V215.59H880.5V224.52C880.423 226.007 880.68 227.493 881.251 228.868C881.822 230.244 882.693 231.474 883.8 232.47C886.268 234.462 889.382 235.476 892.55 235.32H898.8V229.88C898.8 222.793 900.93 217.15 905.19 212.95C909.45 208.75 915.09 206.653 922.11 206.66H940.24V251.31H924.16V222.2H922.46C919.9 222.2 917.98 222.867 916.7 224.2C915.349 225.734 914.659 227.74 914.78 229.78V251.31ZM885.84 272C883.694 271.971 881.643 271.105 880.126 269.587C878.609 268.068 877.746 266.016 877.72 263.87C877.703 262.794 877.903 261.726 878.309 260.729C878.714 259.733 879.317 258.828 880.08 258.07C880.821 257.291 881.715 256.675 882.707 256.26C883.698 255.845 884.765 255.641 885.84 255.66C888.018 255.663 890.105 256.528 891.646 258.067C893.187 259.606 894.055 261.692 894.06 263.87C894.079 264.945 893.875 266.012 893.46 267.003C893.045 267.995 892.429 268.889 891.65 269.63C890.891 270.396 889.985 271.001 888.987 271.408C887.989 271.816 886.918 272.017 885.84 272ZM910.49 269.59C909.739 270.367 908.837 270.982 907.84 271.396C906.842 271.811 905.77 272.016 904.69 272C903.615 272.021 902.548 271.817 901.556 271.402C900.564 270.987 899.67 270.37 898.93 269.59C898.169 268.846 897.567 267.956 897.16 266.973C896.752 265.989 896.548 264.934 896.56 263.87C896.544 262.793 896.746 261.725 897.154 260.728C897.561 259.732 898.165 258.828 898.93 258.07C899.67 257.29 900.564 256.672 901.556 256.258C902.548 255.843 903.615 255.639 904.69 255.66C906.866 255.665 908.951 256.532 910.489 258.07C912.028 259.609 912.895 261.694 912.9 263.87C912.915 264.943 912.709 266.007 912.294 266.996C911.88 267.986 911.265 268.879 910.49 269.62V269.59Z" fill="#092524"/>
<path d="M964.88 251.31H948.88V181.65H964.88V251.31Z" fill="#092524"/>
<path d="M558.86 87V149H532.65V121.81H480.89V149H455V87C455 52.54 475.87 33.77 506.93 33.77C537.99 33.77 558.86 52.57 558.86 87ZM532.65 100.75V84.6C532.65 65.35 522.3 56.13 506.77 56.13C491.08 56.13 480.89 65.35 480.89 84.6V100.78L532.65 100.75Z" fill="#1EB2AA"/>
<path d="M596 134.43C596 125.04 603 118.9 611.69 118.9C620.38 118.9 627.38 125.04 627.38 134.43C627.38 138.591 625.727 142.582 622.784 145.524C619.842 148.467 615.851 150.12 611.69 150.12C607.529 150.12 603.538 148.467 600.596 145.524C597.653 142.582 596 138.591 596 134.43Z" fill="#1EB2AA"/>
<path d="M802.68 134.43C802.68 125.04 809.68 118.9 818.37 118.9C827.06 118.9 834.06 125.04 834.06 134.43C834.06 138.591 832.407 142.582 829.464 145.524C826.522 148.467 822.531 150.12 818.37 150.12C814.209 150.12 810.218 148.467 807.275 145.524C804.333 142.582 802.68 138.591 802.68 134.43Z" fill="#1EB2AA"/>
<path d="M959 67.45C949.407 61.8196 938.798 58.136 927.78 56.61V149H901.61V56.61C890.553 58.1848 879.901 61.8645 870.23 67.45L861.33 47.88C877 38.5 895.62 33.8 914.55 33.8C933.64 33.8 952.4 38.5 967.94 47.88L959 67.45Z" fill="#1EB2AA"/>
<path d="M768.37 118.09C768.37 137.66 752.84 148.99 723.08 148.99H664.52V35.75H719.84C748.15 35.75 762.71 47.56 762.71 65.19C762.82 70.3354 761.47 75.4068 758.815 79.8158C756.16 84.2247 752.309 87.7907 747.71 90.1C760.28 94.15 768.37 103.85 768.37 118.09ZM690.56 55.48V82.17H716.61C729.39 82.17 736.34 77.64 736.34 68.75C736.34 59.86 729.34 55.48 716.61 55.48H690.56ZM742 115.34C742 105.79 734.72 101.26 721.13 101.26H690.56V129.26H721.14C734.73 129.25 742 125 742 115.34Z" fill="#1EB2AA"/>
<path d="M727 314.69H729.76V318.41C729.76 323.997 732.577 326.79 738.21 326.79H742.08V321.17C742.08 314.37 745.493 310.97 752.32 310.97H756.22V329.58H753.4V313.69H752.32C749.74 313.69 747.85 314.27 746.65 315.45C745.45 316.63 744.84 318.54 744.84 321.17V329.58H738.18C734.547 329.58 731.773 328.607 729.86 326.66C727.947 324.713 726.993 321.963 727 318.41V314.69ZM734 334.87C734.003 334.385 734.196 333.922 734.539 333.579C734.882 333.236 735.346 333.043 735.83 333.04C736.072 333.039 736.311 333.087 736.534 333.179C736.758 333.272 736.96 333.408 737.13 333.58C737.308 333.744 737.45 333.944 737.546 334.166C737.643 334.388 737.692 334.628 737.69 334.87C737.689 335.113 737.639 335.354 737.543 335.577C737.447 335.801 737.306 336.002 737.13 336.17C736.782 336.508 736.315 336.695 735.83 336.69C735.347 336.687 734.885 336.495 734.542 336.155C734.2 335.814 734.005 335.353 734 334.87ZM740.63 333.6C740.795 333.42 740.996 333.277 741.22 333.18C741.444 333.084 741.686 333.036 741.93 333.04C742.391 333.074 742.821 333.281 743.136 333.62C743.45 333.958 743.625 334.403 743.625 334.865C743.625 335.327 743.45 335.772 743.136 336.11C742.821 336.449 742.391 336.656 741.93 336.69C741.688 336.696 741.447 336.65 741.223 336.557C740.999 336.464 740.797 336.326 740.63 336.15C740.462 335.982 740.329 335.783 740.24 335.563C740.151 335.343 740.106 335.107 740.11 334.87C740.096 334.639 740.128 334.407 740.205 334.189C740.283 333.971 740.403 333.771 740.56 333.6H740.63Z" fill="#F47820"/>
<path d="M757.09 334.94C757.601 335.133 758.145 335.221 758.69 335.2C759.278 335.258 759.87 335.168 760.414 334.938C760.957 334.707 761.434 334.343 761.8 333.88C762.499 332.629 762.816 331.2 762.71 329.77V311H765.46V329.84C765.46 335.273 763.227 337.99 758.76 337.99C757.927 337.985 757.1 337.846 756.31 337.58L757.09 334.94Z" fill="#F47820"/>
<path d="M771.31 300.54H774.06V322.54C774.06 325.36 775.15 326.78 777.34 326.78H778.27V329.57H777.34C776.502 329.616 775.665 329.468 774.893 329.139C774.122 328.809 773.436 328.307 772.89 327.67C771.771 326.202 771.211 324.383 771.31 322.54V300.54Z" fill="#F47820"/>
<path d="M792.42 329.58H777.52V326.79H792.42V329.58Z" fill="#F47820"/>
<path d="M791.67 326.79H793.87C796.03 326.79 797.11 325.37 797.11 322.55V311H799.9V322.58C799.9 325.4 800.98 326.82 803.14 326.82H805.33V329.61H803.14C802.192 329.667 801.248 329.443 800.426 328.967C799.604 328.49 798.941 327.782 798.52 326.93C798.089 327.78 797.419 328.486 796.594 328.962C795.768 329.437 794.821 329.663 793.87 329.61H791.67V326.79ZM794.24 333.6C794.4 333.422 794.595 333.279 794.814 333.183C795.033 333.086 795.271 333.037 795.51 333.04C795.752 333.039 795.991 333.087 796.214 333.179C796.437 333.272 796.64 333.408 796.81 333.58C796.988 333.744 797.13 333.944 797.226 334.166C797.323 334.388 797.371 334.628 797.37 334.87C797.369 335.113 797.319 335.354 797.223 335.577C797.127 335.801 796.986 336.002 796.81 336.17C796.462 336.508 795.995 336.695 795.51 336.69C795.027 336.687 794.565 336.495 794.222 336.155C793.88 335.814 793.685 335.353 793.68 334.87C793.677 334.631 793.726 334.393 793.823 334.174C793.919 333.955 794.061 333.76 794.24 333.6ZM799.68 334.87C799.676 334.628 799.72 334.387 799.809 334.161C799.899 333.936 800.032 333.73 800.201 333.557C800.37 333.383 800.572 333.244 800.795 333.149C801.018 333.053 801.257 333.003 801.5 333C801.742 332.998 801.982 333.045 802.205 333.138C802.428 333.23 802.631 333.367 802.8 333.54C802.979 333.703 803.122 333.902 803.219 334.125C803.315 334.347 803.363 334.588 803.36 334.83C803.362 335.074 803.313 335.315 803.216 335.539C803.12 335.763 802.978 335.964 802.8 336.13C802.628 336.298 802.425 336.431 802.202 336.52C801.979 336.609 801.74 336.653 801.5 336.65C801.019 336.645 800.559 336.451 800.219 336.111C799.879 335.771 799.685 335.311 799.68 334.83V334.87Z" fill="#F47820"/>
<path d="M804.59 326.79H814.19L807.57 316.89V311H821.27C826.35 311 828.893 312.76 828.9 316.28C828.893 317.094 828.726 317.899 828.41 318.65C828.018 319.583 827.5 320.458 826.87 321.25C826.16 322.19 825.53 322.97 824.97 323.6C824.41 324.23 823.64 325.08 822.65 326.15C822.35 326.45 822.13 326.67 822.01 326.82H831.88V329.61H804.59V326.79ZM810.77 313.79V316.69L817.51 326.82H818.74C819.01 326.52 819.65 325.82 820.67 324.75C821.69 323.68 822.38 322.92 822.74 322.48C823.1 322.04 823.59 321.43 824.21 320.64C824.722 320.032 825.152 319.359 825.49 318.64C825.719 318.13 825.842 317.579 825.85 317.02C825.906 316.511 825.81 315.997 825.573 315.542C825.336 315.088 824.97 314.715 824.52 314.47C823.212 313.963 821.811 313.741 820.41 313.82L810.77 313.79Z" fill="#F47820"/>
<path d="M831.13 329.58V326.79H837.39C836.296 326.126 835.401 325.18 834.8 324.05C834.166 322.892 833.839 321.59 833.85 320.27C833.855 317.803 834.838 315.439 836.583 313.696C838.328 311.953 840.693 310.973 843.16 310.97C845.626 310.97 847.992 311.95 849.736 313.694C851.48 315.438 852.46 317.803 852.46 320.27V323.48C852.416 324.358 852.701 325.221 853.26 325.9C853.543 326.2 853.889 326.435 854.272 326.589C854.655 326.743 855.068 326.811 855.48 326.79H856.48V329.58H855.48C854.295 329.632 853.131 329.256 852.2 328.52C851.323 327.751 850.766 326.68 850.64 325.52C849.818 326.75 848.706 327.759 847.401 328.456C846.096 329.154 844.639 329.519 843.16 329.52L831.13 329.58ZM836.6 320.27C836.589 321.79 837.106 323.266 838.063 324.447C839.02 325.628 840.357 326.44 841.846 326.744C843.335 327.049 844.883 326.827 846.227 326.116C847.57 325.406 848.625 324.251 849.212 322.849C849.798 321.447 849.88 319.885 849.442 318.429C849.005 316.974 848.075 315.715 846.813 314.869C845.551 314.022 844.034 313.641 842.521 313.789C841.009 313.937 839.594 314.605 838.52 315.68C837.904 316.274 837.415 316.987 837.085 317.776C836.755 318.566 836.59 319.414 836.6 320.27Z" fill="#F47820"/>
<path d="M855.7 326.79H856.7C858.88 326.79 859.98 325.37 859.98 322.55V300.55H862.77V322.55C862.868 324.396 862.3 326.217 861.17 327.68C860.619 328.317 859.93 328.819 859.155 329.148C858.38 329.477 857.541 329.625 856.7 329.58H855.7V326.79Z" fill="#F47820"/>
<path d="M872.12 329.58H869.36V300.58H872.12V329.58Z" fill="#F47820"/>
<path d="M884 334.94C884.511 335.131 885.055 335.219 885.6 335.2C886.188 335.259 886.781 335.17 887.324 334.939C887.868 334.708 888.345 334.344 888.71 333.88C889.409 332.629 889.726 331.2 889.62 329.77V311H892.38V329.84C892.38 335.273 890.147 337.99 885.68 337.99C884.843 337.986 884.013 337.847 883.22 337.58L884 334.94Z" fill="#F47820"/>
<path d="M898.21 300.54H901V322.54C901 325.36 902.09 326.78 904.28 326.78H905.21V329.57H904.28C903.442 329.618 902.604 329.472 901.832 329.142C901.06 328.812 900.375 328.309 899.83 327.67C898.703 326.205 898.139 324.385 898.24 322.54L898.21 300.54Z" fill="#F47820"/>
<path d="M904.43 329.58V326.79H905.43C907.61 326.79 908.7 325.37 908.7 322.55V311H911.5V322.58C911.5 325.4 912.58 326.82 914.74 326.82H915.74V329.61H914.74C913.791 329.668 912.847 329.445 912.025 328.968C911.203 328.492 910.54 327.782 910.12 326.93C909.683 327.784 909.007 328.492 908.174 328.968C907.341 329.444 906.388 329.667 905.43 329.61L904.43 329.58ZM908.15 334.64C908.147 334.392 908.193 334.146 908.285 333.916C908.378 333.686 908.516 333.476 908.69 333.3C908.86 333.122 909.065 332.98 909.292 332.886C909.519 332.791 909.764 332.745 910.01 332.75C910.386 332.749 910.753 332.86 911.066 333.068C911.378 333.276 911.622 333.572 911.767 333.919C911.911 334.266 911.95 334.648 911.877 335.016C911.805 335.385 911.625 335.724 911.36 335.99C910.991 336.326 910.509 336.511 910.01 336.51C909.764 336.513 909.52 336.466 909.293 336.373C909.065 336.28 908.859 336.142 908.685 335.968C908.512 335.793 908.375 335.586 908.283 335.358C908.191 335.13 908.146 334.886 908.15 334.64Z" fill="#F47820"/>
<path d="M914.93 329.58V326.79H917.12C919.28 326.79 920.36 325.37 920.36 322.55V311H923.16V322.58C923.16 325.4 924.25 326.82 926.43 326.82H928.59V329.61H926.43C925.477 329.671 924.528 329.449 923.701 328.972C922.873 328.495 922.205 327.785 921.78 326.93C921.348 327.781 920.677 328.488 919.849 328.964C919.022 329.44 918.073 329.665 917.12 329.61L914.93 329.58ZM917 306.91C916.996 306.666 917.041 306.423 917.132 306.196C917.223 305.97 917.358 305.764 917.53 305.59C917.696 305.413 917.898 305.274 918.122 305.181C918.346 305.088 918.587 305.043 918.83 305.05C919.069 305.048 919.306 305.095 919.526 305.188C919.746 305.28 919.945 305.417 920.11 305.59C920.285 305.762 920.423 305.967 920.516 306.194C920.609 306.421 920.655 306.665 920.65 306.91C920.645 307.391 920.451 307.851 920.111 308.191C919.771 308.531 919.311 308.725 918.83 308.73C918.587 308.737 918.346 308.692 918.122 308.599C917.898 308.506 917.696 308.367 917.53 308.19C917.36 308.023 917.226 307.824 917.135 307.604C917.044 307.384 916.998 307.148 917 306.91ZM923 306.91C922.995 306.665 923.041 306.421 923.134 306.194C923.227 305.967 923.365 305.762 923.54 305.59C923.705 305.417 923.904 305.28 924.124 305.188C924.344 305.095 924.581 305.048 924.82 305.05C925.063 305.048 925.305 305.095 925.53 305.187C925.755 305.28 925.959 305.417 926.13 305.59C926.31 305.759 926.452 305.964 926.549 306.191C926.645 306.418 926.693 306.663 926.69 306.91C926.693 307.149 926.644 307.386 926.547 307.606C926.451 307.825 926.308 308.02 926.13 308.18C925.961 308.356 925.757 308.496 925.532 308.591C925.307 308.685 925.064 308.733 924.82 308.73C924.339 308.725 923.879 308.531 923.539 308.191C923.199 307.851 923.005 307.391 923 306.91Z" fill="#F47820"/>
<path d="M927.85 329.58V326.79H947.65V323.79C947.7 322.456 947.483 321.125 947.01 319.877C946.538 318.628 945.82 317.487 944.9 316.52C943.959 315.598 942.839 314.879 941.609 314.408C940.379 313.937 939.066 313.723 937.75 313.78H930.42V311H937.86C939.521 310.944 941.175 311.227 942.723 311.833C944.27 312.438 945.678 313.352 946.86 314.52C948.045 315.721 948.973 317.151 949.587 318.722C950.201 320.294 950.487 321.974 950.43 323.66V326.82V329.61L927.85 329.58ZM938.68 306.84C938.678 306.597 938.725 306.355 938.817 306.13C938.91 305.905 939.047 305.701 939.22 305.53C939.389 305.35 939.594 305.208 939.821 305.111C940.048 305.015 940.293 304.967 940.54 304.97C940.786 304.97 941.03 305.02 941.257 305.116C941.484 305.212 941.689 305.353 941.86 305.53C942.044 305.695 942.19 305.897 942.29 306.123C942.39 306.349 942.441 306.593 942.44 306.84C942.442 307.091 942.392 307.341 942.292 307.571C942.192 307.802 942.045 308.01 941.86 308.18C941.688 308.356 941.483 308.495 941.256 308.589C941.029 308.684 940.786 308.732 940.54 308.73C940.294 308.735 940.049 308.689 939.822 308.594C939.595 308.5 939.39 308.358 939.22 308.18C939.046 308.004 938.908 307.794 938.815 307.564C938.723 307.334 938.677 307.088 938.68 306.84Z" fill="#F47820"/>
<path d="M954.05 329.58V326.79H965.05C967.41 326.79 968.59 325.37 968.59 322.55V300.55H971.38V322.55C971.474 324.408 970.864 326.233 969.67 327.66C969.088 328.3 968.373 328.804 967.574 329.136C966.776 329.468 965.914 329.619 965.05 329.58H954.05ZM956.66 324.82V302.41H959.45V324.82H956.66Z" fill="#F47820"/>
<path d="M980.75 329.58H978V300.58H980.76L980.75 329.58Z" fill="#F47820"/>
<path d="M457.87 306.3H462.82C468.153 306.3 470.82 308.463 470.82 312.79C470.883 313.946 470.601 315.095 470.01 316.09C469.342 316.989 468.402 317.648 467.33 317.97V318.12C468.614 318.448 469.764 319.168 470.62 320.18C471.324 321.248 471.674 322.511 471.62 323.79C471.62 328.39 468.693 330.69 462.84 330.69H457.89C457.305 330.801 456.701 330.768 456.132 330.593C455.562 330.417 455.044 330.106 454.622 329.685C454.201 329.264 453.888 328.747 453.712 328.178C453.535 327.609 453.5 327.006 453.61 326.42V310.58C453.498 309.994 453.532 309.389 453.707 308.819C453.883 308.248 454.195 307.729 454.617 307.307C455.039 306.885 455.558 306.573 456.129 306.397C456.699 306.222 457.304 306.188 457.89 306.3H457.87ZM462.82 310.01H459C458.804 309.981 458.604 309.997 458.416 310.058C458.227 310.119 458.055 310.223 457.914 310.361C457.772 310.5 457.665 310.669 457.6 310.857C457.535 311.044 457.515 311.244 457.54 311.44V316.51H462.83C463.913 316.601 464.994 316.315 465.89 315.7C466.235 315.386 466.503 314.998 466.677 314.565C466.85 314.132 466.923 313.665 466.89 313.2C466.925 312.752 466.858 312.302 466.695 311.883C466.533 311.464 466.278 311.087 465.95 310.78C465.025 310.174 463.921 309.899 462.82 310V310.01ZM463.31 319.92H457.53V325.55C457.501 325.749 457.519 325.952 457.583 326.143C457.646 326.333 457.754 326.506 457.898 326.648C458.041 326.789 458.215 326.894 458.407 326.956C458.598 327.017 458.801 327.032 459 327H462.6C463.95 327.116 465.305 326.849 466.51 326.23C466.903 325.911 467.209 325.499 467.399 325.03C467.59 324.562 467.659 324.052 467.6 323.55C467.647 323.048 467.582 322.541 467.409 322.067C467.236 321.593 466.96 321.164 466.6 320.81C465.641 320.137 464.477 319.822 463.31 319.92Z" fill="#F47820"/>
<path d="M491.38 319.44C491.38 319.53 491.38 320.09 491.31 321.08C491.311 321.586 491.138 322.076 490.82 322.47C490.397 322.745 489.892 322.866 489.39 322.81H479V323.64C478.946 324.196 479.034 324.757 479.254 325.271C479.474 325.785 479.82 326.235 480.26 326.58C481.513 327.274 482.942 327.584 484.37 327.47C486.015 327.467 487.653 327.266 489.25 326.87C489.85 326.71 490.25 326.74 490.46 326.92C490.595 327.098 490.694 327.301 490.75 327.517C490.807 327.733 490.821 327.959 490.79 328.18V328.67C490.833 329.107 490.731 329.547 490.5 329.92C490.143 330.223 489.711 330.427 489.25 330.51C487.658 330.93 486.016 331.132 484.37 331.11C481.19 331.11 478.85 330.46 477.37 329.17C475.89 327.88 475.13 325.85 475.13 323.08V319.81C475.13 314.377 477.91 311.66 483.47 311.66C485.633 311.515 487.766 312.235 489.4 313.66C490.104 314.439 490.642 315.353 490.983 316.347C491.323 317.34 491.458 318.393 491.38 319.44ZM479 318.72V319.66H487.78V318.72C487.78 316.24 486.3 315.01 483.35 315.01C480.4 315.01 479 316.24 479 318.72Z" fill="#F47820"/>
<path d="M498.93 319V329C498.988 329.477 498.866 329.958 498.59 330.35C498.194 330.618 497.715 330.735 497.24 330.68H496.75C496.275 330.735 495.796 330.618 495.4 330.35C495.124 329.958 495.002 329.477 495.06 329V319C495.06 314.14 497.787 311.71 503.24 311.71C506.053 311.71 508.113 312.307 509.42 313.5C510.727 314.693 511.393 316.527 511.42 319V329C511.478 329.477 511.356 329.958 511.08 330.35C510.684 330.618 510.205 330.735 509.73 330.68H509.24C509.006 330.752 508.757 330.759 508.519 330.701C508.282 330.642 508.064 330.52 507.891 330.347C507.717 330.175 507.594 329.958 507.534 329.721C507.474 329.484 507.479 329.234 507.55 329V319C507.605 318.485 507.551 317.964 507.391 317.471C507.23 316.978 506.968 316.524 506.62 316.14C505.582 315.601 504.43 315.32 503.26 315.32C502.09 315.32 500.938 315.601 499.9 316.14C499.543 316.52 499.272 316.971 499.104 317.465C498.937 317.958 498.878 318.482 498.93 319Z" fill="#F47820"/>
<path d="M515.07 323.23V319.55C515.001 318.474 515.164 317.395 515.549 316.387C515.933 315.379 516.531 314.466 517.3 313.71C519.118 312.256 521.418 311.542 523.74 311.71C524.729 311.707 525.714 311.835 526.67 312.09C527.125 312.159 527.55 312.36 527.89 312.67C528.112 313.065 528.21 313.518 528.17 313.97V314.45C528.17 315.11 528.05 315.52 527.83 315.69C527.61 315.86 527.19 315.87 526.59 315.69C525.691 315.409 524.751 315.284 523.81 315.32C522.468 315.197 521.126 315.551 520.02 316.32C519.615 316.772 519.309 317.303 519.122 317.88C518.934 318.457 518.869 319.067 518.93 319.67V323.19C518.86 323.806 518.927 324.431 519.126 325.018C519.324 325.606 519.65 326.143 520.08 326.59C520.84 327.23 522.17 327.59 524.08 327.59C525.051 327.559 526.018 327.445 526.97 327.25C527.166 327.177 527.374 327.146 527.582 327.158C527.791 327.17 527.994 327.225 528.18 327.32C528.314 327.487 528.413 327.679 528.47 327.886C528.527 328.092 528.54 328.308 528.51 328.52V328.98C528.552 329.429 528.435 329.878 528.18 330.25C527.833 330.57 527.397 330.779 526.93 330.85C525.95 331.1 524.942 331.228 523.93 331.23C518.023 331.15 515.07 328.483 515.07 323.23Z" fill="#F47820"/>
<path d="M531.66 329V306.1C531.59 305.865 531.586 305.616 531.646 305.379C531.706 305.142 531.829 304.925 532.002 304.752C532.175 304.579 532.392 304.456 532.629 304.396C532.866 304.336 533.115 304.341 533.35 304.41H533.84C534.317 304.352 534.797 304.474 535.19 304.75C535.458 305.146 535.575 305.625 535.52 306.1V314C536.7 312.447 538.64 311.67 541.34 311.67C543.131 311.554 544.897 312.142 546.26 313.31C546.87 313.955 547.339 314.721 547.637 315.558C547.935 316.394 548.055 317.284 547.99 318.17V329C548.061 329.234 548.066 329.484 548.006 329.721C547.946 329.958 547.823 330.175 547.649 330.347C547.476 330.52 547.258 330.642 547.021 330.701C546.783 330.759 546.534 330.752 546.3 330.68H545.81C545.335 330.735 544.856 330.618 544.46 330.35C544.183 329.958 544.062 329.477 544.12 329V318.76C544.166 318.273 544.106 317.783 543.944 317.322C543.782 316.86 543.521 316.44 543.18 316.09C542.307 315.473 541.245 315.182 540.18 315.27C539.553 315.216 538.922 315.288 538.323 315.48C537.723 315.672 537.168 315.981 536.69 316.39C535.855 317.399 535.449 318.695 535.56 320V329C535.633 329.234 535.641 329.483 535.583 329.721C535.525 329.959 535.402 330.176 535.229 330.349C535.056 330.522 534.839 330.645 534.601 330.703C534.363 330.761 534.114 330.753 533.88 330.68H533.39C532.915 330.735 532.436 330.618 532.04 330.35C531.749 329.963 531.614 329.482 531.66 329Z" fill="#F47820"/>
<path d="M555.9 319V329C555.973 329.234 555.981 329.483 555.923 329.721C555.865 329.959 555.742 330.176 555.569 330.349C555.396 330.522 555.179 330.645 554.941 330.703C554.703 330.761 554.454 330.753 554.22 330.68H553.73C553.255 330.735 552.776 330.618 552.38 330.35C552.089 329.963 551.954 329.482 552 329V319C552 314.14 554.54 311.71 559.62 311.71C562.37 311.71 564.25 312.63 565.25 314.45C566.25 312.63 568.13 311.71 570.88 311.71C573.46 311.71 575.36 312.32 576.6 313.52C577.84 314.72 578.46 316.52 578.46 319V329C578.518 329.477 578.396 329.958 578.12 330.35C577.724 330.618 577.245 330.735 576.77 330.68H576.28C576.046 330.753 575.797 330.761 575.559 330.703C575.321 330.645 575.104 330.522 574.931 330.349C574.758 330.176 574.635 329.959 574.577 329.721C574.519 329.483 574.527 329.234 574.6 329V319C574.719 318.489 574.706 317.956 574.56 317.451C574.415 316.947 574.143 316.488 573.77 316.119C573.396 315.75 572.935 315.483 572.429 315.343C571.923 315.203 571.39 315.195 570.88 315.32C569.832 315.217 568.784 315.518 567.95 316.16C567.626 316.553 567.383 317.006 567.235 317.494C567.088 317.981 567.038 318.493 567.09 319V329C567.161 329.234 567.166 329.484 567.106 329.721C567.046 329.958 566.923 330.175 566.749 330.347C566.576 330.52 566.358 330.642 566.121 330.701C565.883 330.759 565.634 330.752 565.4 330.68H565.02C564.786 330.753 564.537 330.761 564.299 330.703C564.061 330.645 563.844 330.522 563.671 330.349C563.498 330.176 563.375 329.959 563.317 329.721C563.259 329.483 563.267 329.234 563.34 329V319C563.257 318.27 562.982 317.575 562.544 316.985C562.106 316.395 561.519 315.932 560.844 315.642C560.169 315.351 559.43 315.245 558.7 315.332C557.971 315.42 557.277 315.698 556.69 316.14C556.07 316.957 555.787 317.981 555.9 319Z" fill="#F47820"/>
<path d="M597.27 317.82V325.1C597.342 325.959 597.206 326.822 596.871 327.616C596.537 328.41 596.015 329.112 595.35 329.66C594.083 330.627 592.057 331.11 589.27 331.11C584.19 331.11 581.65 329.183 581.65 325.33C581.584 324.512 581.723 323.69 582.054 322.939C582.386 322.188 582.9 321.532 583.55 321.03C584.81 320.123 586.73 319.667 589.31 319.66H593.44V317.82C593.485 317.396 593.416 316.968 593.24 316.579C593.064 316.191 592.788 315.856 592.44 315.61C591.367 315.106 590.18 314.896 589 315C587.679 314.982 586.359 315.096 585.06 315.34C584.51 315.44 584.14 315.41 583.95 315.24C583.76 315.07 583.67 314.71 583.67 314.14V313.61C583.629 313.206 583.728 312.8 583.95 312.46C584.246 312.204 584.612 312.044 585 312C586.241 311.812 587.495 311.712 588.75 311.7C591.61 311.7 593.75 312.19 595.13 313.17C595.85 313.701 596.424 314.406 596.799 315.22C597.173 316.033 597.335 316.927 597.27 317.82ZM593.44 324.92V322.59H589.31C588.314 322.514 587.316 322.73 586.44 323.21C586.13 323.439 585.883 323.742 585.723 324.092C585.562 324.441 585.492 324.826 585.52 325.21C585.483 325.593 585.547 325.979 585.704 326.33C585.862 326.68 586.109 326.984 586.42 327.21C587.271 327.67 588.235 327.878 589.2 327.81C590.325 327.899 591.452 327.677 592.46 327.17C592.802 326.91 593.072 326.567 593.244 326.173C593.415 325.779 593.483 325.348 593.44 324.92Z" fill="#F47820"/>
<path d="M604.81 318.57V329C604.868 329.477 604.746 329.958 604.47 330.35C604.074 330.618 603.595 330.735 603.12 330.68H602.64C602.409 330.744 602.165 330.745 601.933 330.682C601.702 330.62 601.491 330.496 601.323 330.325C601.156 330.153 601.038 329.94 600.981 329.707C600.924 329.474 600.93 329.23 601 329V318.3C601 313.867 603.363 311.65 608.09 311.65C608.34 311.629 608.59 311.629 608.84 311.65C609.297 311.665 609.737 311.822 610.1 312.1C610.357 312.489 610.471 312.956 610.42 313.42V314C610.42 314.627 610.32 315.027 610.12 315.2C609.92 315.38 609.49 315.42 608.84 315.32C608.591 315.293 608.339 315.293 608.09 315.32C607.643 315.272 607.19 315.313 606.759 315.442C606.328 315.571 605.927 315.784 605.58 316.07C605.022 316.779 604.747 317.67 604.81 318.57Z" fill="#F47820"/>
<path d="M613.48 329V306.1C613.411 305.865 613.406 305.616 613.466 305.379C613.526 305.142 613.649 304.925 613.822 304.752C613.995 304.579 614.212 304.456 614.449 304.396C614.686 304.336 614.935 304.341 615.17 304.41H615.62C615.855 304.341 616.104 304.336 616.341 304.396C616.578 304.456 616.795 304.579 616.968 304.752C617.141 304.925 617.264 305.142 617.324 305.379C617.384 305.616 617.379 305.865 617.31 306.1V329C617.368 329.477 617.246 329.958 616.97 330.35C616.574 330.618 616.095 330.735 615.62 330.68H615.17C614.695 330.735 614.216 330.618 613.82 330.35C613.544 329.958 613.422 329.477 613.48 329ZM620.09 317.55L623.54 313.64C623.959 313.127 624.476 312.702 625.06 312.39C625.696 312.14 626.378 312.031 627.06 312.07H627.7C628.547 312.07 629.017 312.17 629.11 312.37C629.19 312.57 628.96 312.99 628.41 313.64L623.2 319.5C622.99 319.663 622.814 319.867 622.684 320.098C622.553 320.33 622.471 320.586 622.44 320.85C622.499 321.367 622.757 321.84 623.16 322.17L629.16 329.11C629.71 329.76 629.94 330.18 629.86 330.39C629.78 330.6 629.3 330.68 628.45 330.68H627.81C627.129 330.716 626.448 330.61 625.81 330.37C625.227 330.052 624.711 329.624 624.29 329.11L620.09 324.19C619.18 323.265 618.646 322.036 618.59 320.74C618.572 320.204 618.675 319.671 618.89 319.18C619.204 318.581 619.609 318.035 620.09 317.56V317.55Z" fill="#F47820"/>
<path d="M640.92 308.32V308C640.847 307.765 640.84 307.515 640.898 307.276C640.957 307.037 641.081 306.819 641.255 306.645C641.429 306.471 641.647 306.347 641.886 306.288C642.125 306.229 642.375 306.237 642.61 306.31H658.26C658.735 306.255 659.214 306.372 659.61 306.64C659.901 307.031 660.04 307.514 660 308V308.33C660.054 308.81 659.934 309.293 659.66 309.69C659.264 309.958 658.785 310.075 658.31 310.02H652.49V329.02C652.552 329.509 652.431 330.004 652.15 330.41C651.741 330.682 651.248 330.799 650.76 330.74H650.24C650 330.818 649.743 330.829 649.498 330.771C649.252 330.712 649.028 330.587 648.849 330.409C648.67 330.231 648.544 330.007 648.484 329.762C648.424 329.517 648.433 329.26 648.51 329.02V310H642.66C642.425 310.073 642.175 310.081 641.936 310.022C641.697 309.963 641.479 309.84 641.305 309.666C641.131 309.492 641.007 309.273 640.948 309.034C640.889 308.795 640.897 308.545 640.97 308.31L640.92 308.32Z" fill="#F47820"/>
<path d="M679 319.44C679 319.53 679 320.09 678.92 321.08C678.962 321.333 678.941 321.593 678.856 321.835C678.772 322.078 678.628 322.295 678.438 322.467C678.248 322.64 678.017 322.761 677.768 322.821C677.518 322.881 677.258 322.877 677.01 322.81H666.55V323.64C666.496 324.196 666.584 324.757 666.804 325.271C667.024 325.785 667.37 326.235 667.81 326.58C669.063 327.272 670.492 327.582 671.92 327.47C673.565 327.468 675.203 327.266 676.8 326.87C677.4 326.71 677.8 326.74 678.02 326.92C678.284 327.283 678.399 327.734 678.34 328.18V328.67C678.386 329.106 678.288 329.545 678.06 329.92C677.698 330.223 677.264 330.426 676.8 330.51C675.208 330.931 673.566 331.133 671.92 331.11C668.74 331.11 666.407 330.463 664.92 329.17C663.43 327.89 662.69 325.85 662.69 323.08V319.81C662.69 314.377 665.467 311.66 671.02 311.66C673.183 311.515 675.316 312.235 676.95 313.66C677.666 314.434 678.218 315.345 678.57 316.339C678.923 317.333 679.069 318.388 679 319.44ZM666.57 318.72V319.66H675.36V318.72C675.36 316.24 673.88 315.01 670.93 315.01C667.98 315.01 666.55 316.24 666.55 318.72H666.57Z" fill="#F47820"/>
<path d="M682.13 328.63V328.14C682.07 327.7 682.177 327.254 682.43 326.89C682.63 326.703 683.03 326.683 683.63 326.83C685.418 327.306 687.26 327.545 689.11 327.54C690.025 327.596 690.942 327.473 691.81 327.18C692.058 327.083 692.268 326.909 692.41 326.684C692.552 326.46 692.618 326.195 692.6 325.93C692.607 325.711 692.567 325.493 692.483 325.291C692.398 325.09 692.271 324.908 692.11 324.76C691.53 324.308 690.886 323.945 690.2 323.68L686.14 321.87C685.033 321.45 684.047 320.763 683.27 319.87C682.664 318.961 682.37 317.88 682.43 316.79C682.372 316.052 682.5 315.311 682.802 314.635C683.104 313.959 683.571 313.369 684.16 312.92C685.31 312.1 687.16 311.68 689.6 311.68C691.069 311.669 692.533 311.861 693.95 312.25C694.432 312.345 694.881 312.566 695.25 312.89C695.476 313.262 695.574 313.697 695.53 314.13V314.57C695.59 315.016 695.475 315.467 695.21 315.83C695 316.02 694.59 316.03 693.99 315.83C692.537 315.416 691.031 315.214 689.52 315.23C688.654 315.176 687.787 315.299 686.97 315.59C686.739 315.686 686.543 315.851 686.409 316.062C686.275 316.273 686.209 316.52 686.22 316.77C686.2 317.163 686.337 317.547 686.6 317.84C687.007 318.199 687.474 318.483 687.98 318.68L692.34 320.56C693.536 320.984 694.603 321.707 695.44 322.66C696.091 323.592 696.415 324.714 696.36 325.85C696.422 326.618 696.286 327.388 695.966 328.088C695.645 328.788 695.151 329.395 694.53 329.85C693.323 330.703 691.403 331.13 688.77 331.13C687.037 331.132 685.31 330.917 683.63 330.49C683.177 330.401 682.757 330.194 682.41 329.89C682.18 329.512 682.082 329.069 682.13 328.63Z" fill="#F47820"/>
<path d="M698.53 314.37V314C698.494 313.618 698.585 313.235 698.79 312.91C699.071 312.663 699.419 312.507 699.79 312.46L701.79 312.09L702.24 308.56C702.214 308.36 702.237 308.157 702.308 307.968C702.379 307.78 702.495 307.611 702.646 307.478C702.797 307.345 702.978 307.25 703.174 307.204C703.37 307.157 703.575 307.159 703.77 307.21H704.26C704.643 307.164 705.029 307.256 705.35 307.47C705.567 307.789 705.659 308.177 705.61 308.56V312.09H710.87C711.312 312.042 711.757 312.148 712.13 312.39C712.392 312.758 712.507 313.211 712.45 313.66V314.12C712.507 314.568 712.392 315.022 712.13 315.39C711.757 315.632 711.312 315.738 710.87 315.69H705.61V324.21C705.61 326.39 706.587 327.48 708.54 327.48C709.55 327.486 710.557 327.371 711.54 327.14C712.17 327.01 712.54 327.04 712.78 327.21C713.033 327.57 713.141 328.014 713.08 328.45V328.9C713.123 329.361 713.018 329.823 712.78 330.22C712.441 330.54 712.004 330.738 711.54 330.78C710.55 330.964 709.547 331.064 708.54 331.08C704.04 331.08 701.79 328.777 701.79 324.17V315.69H699.79C699.607 315.767 699.405 315.788 699.209 315.75C699.014 315.712 698.835 315.616 698.694 315.476C698.554 315.335 698.458 315.156 698.42 314.961C698.382 314.765 698.403 314.563 698.48 314.38L698.53 314.37Z" fill="#F47820"/>
</svg>
