<svg width="357" height="73" viewBox="0 0 357 73" fill="none" xmlns="http://www.w3.org/2000/svg">
<path d="M41.7412 58.9686C42.2118 58.8547 42.9582 59.1634 43.3377 59.5278C45.3972 61.4886 47.3581 63.5557 49.41 65.5343C50.3057 66.4021 51.3127 67.1637 52.5423 68.1909C53.2912 67.7827 54.0342 67.3467 54.7713 66.8828C56.4564 65.81 58.3363 64.9068 59.4698 63.1155C58.6905 63.1028 58.058 63.6215 57.2382 63.6215C56.32 63.6509 55.4056 63.4908 54.552 63.1512C53.6984 62.8117 52.9238 62.3 52.2766 61.648C50.5536 59.9908 48.8736 58.288 47.1759 56.6055" fill="black"/>
<path d="M52.6258 68.2699C50.0122 69.1959 47.52 70.3547 44.8988 70.9316C41.9202 71.5962 38.8822 71.959 35.8309 72.0144C29.1083 72.1081 22.8893 70.2434 17.1282 66.7214C11.018 62.9743 6.50171 57.866 3.40484 51.4623C0.497733 45.4608 -0.433351 39.0951 0.178938 32.5294C0.538577 28.5777 1.60104 24.722 3.31629 21.1439C4.90773 17.8243 6.73448 14.7401 9.22918 12.0531C12.0123 9.06253 16.2781 9.27 18.7753 12.3922C20.6754 14.7755 20.4275 18.1659 18.4034 20.4379C14.8927 24.3148 12.8142 29.2763 12.5133 34.4978C12.0503 41.314 14.2388 47.2243 18.7652 52.2087C21.5301 55.2194 25.0562 57.4282 28.9717 58.6023C33.1143 59.8901 37.5303 60.0196 41.7412 58.9767C42.2118 58.8629 42.9582 59.1716 43.3377 59.5359C45.3973 61.4967 47.3581 63.5639 49.41 65.5424C50.3209 66.4254 51.3557 67.1996 52.6258 68.2699Z" fill="#373636"/>
<path d="M56.9086 48.3347C60.0662 45.1543 62.9152 42.2624 65.7818 39.3983C72.4967 32.6808 79.237 25.9887 85.9342 19.2459C87.8545 17.3154 90.1064 16.5285 92.6795 17.3407C97.4715 18.8588 98.729 24.5364 95.1362 28.1443C90.7085 32.5906 86.269 37.0225 81.8177 41.4401C75.2394 47.9982 68.6029 54.4804 62.1561 61.1548C58.9504 64.4769 54.5885 63.986 51.8864 61.1675C46.5554 55.6012 41.0473 50.2146 35.6 44.7647C32.9206 42.0853 32.8017 38.113 35.347 35.5551C37.8923 32.9971 41.857 32.9845 44.5642 35.6563C48.3214 39.3654 52.0407 43.11 55.7625 46.8546C56.1743 47.3242 56.5571 47.8184 56.9086 48.3347Z" fill="#EC2028"/>
<path d="M35.2041 0C42.463 0.0531325 48.4417 1.59651 53.9548 4.80723C57.9625 7.14 58.38 12.3343 54.8581 15.2845C52.8719 16.9442 50.19 17.2074 47.6877 15.8158C43.4707 13.4166 38.6178 12.3726 33.7872 12.8252C32.5399 12.9365 31.3077 13.2123 30.073 13.4425C26.6953 14.07 23.477 12.1243 22.6775 8.95663C21.7945 5.46 23.5883 2.18855 27.0166 1.16639C28.1806 0.816728 29.3712 0.562869 30.5765 0.40735C32.4033 0.177109 34.2452 0.0809639 35.2041 0Z" fill="#068241"/>
<path d="M69.5299 23.8181C69.536 25.51 68.8728 27.1356 67.685 28.3405C66.4972 29.5453 64.8812 30.2316 63.1894 30.2496C59.5359 30.28 56.4694 27.1376 56.4795 23.3778C56.4849 21.6642 57.1704 20.0229 58.3854 18.8145C59.6005 17.6061 61.2455 16.9296 62.9592 16.9336C66.4988 16.9437 69.54 20.1292 69.5299 23.8181Z" fill="#068241"/>
<path d="M353.738 10.6113H357.001V26.4798H353.738V10.6113Z" fill="#068241"/>
<path d="M351.013 23.5345L350.505 26.4794H338.45C338.168 26.4794 338.026 25.9851 338.026 24.9964C338.026 24.0218 338.168 23.5345 338.45 23.5345H346.967V21.2888C346.967 20.286 346.649 19.495 346.014 18.916C345.392 18.3227 344.552 18.0261 343.492 18.0261C342.334 18.0261 341.247 18.3934 340.23 19.1278L338.81 16.3948C339.502 15.9711 340.244 15.6462 341.035 15.4202C341.84 15.1943 342.659 15.0813 343.492 15.0813C344.778 15.0813 345.929 15.3496 346.946 15.8863C347.977 16.4089 348.782 17.1434 349.361 18.0897C349.94 19.036 350.23 20.1024 350.23 21.2888V23.5345H351.013ZM343.556 13.0898C343.062 13.0898 342.652 12.9273 342.327 12.6025C342.016 12.2776 341.861 11.861 341.861 11.3525C341.861 10.844 342.016 10.4274 342.327 10.1025C342.652 9.77766 343.062 9.61523 343.556 9.61523C344.05 9.61523 344.453 9.77766 344.764 10.1025C345.088 10.4274 345.251 10.844 345.251 11.3525C345.251 11.861 345.088 12.2776 344.764 12.6025C344.453 12.9273 344.05 13.0898 343.556 13.0898Z" fill="#068241"/>
<path d="M338.451 23.5369C338.734 23.5369 338.875 24.0242 338.875 24.9988C338.875 25.9874 338.734 26.4818 338.451 26.4818H337.328C336.043 26.4818 335.019 26.1357 334.256 25.4437C333.479 26.1357 332.392 26.4818 330.994 26.4818H329.574C329.292 26.4818 329.15 25.9874 329.15 24.9988C329.15 24.0242 329.292 23.5369 329.574 23.5369H330.591C331.241 23.5369 331.693 23.3957 331.947 23.1132C332.201 22.8307 332.328 22.3575 332.328 21.6937V15.7828H335.591V21.7149C335.591 22.2375 335.549 22.7248 335.464 23.1767C335.789 23.4169 336.198 23.5369 336.693 23.5369H338.451ZM335.76 14.2997C335.337 14.2997 334.984 14.1656 334.701 13.8972C334.433 13.6147 334.299 13.2546 334.299 12.8167C334.299 12.3789 334.433 12.0187 334.701 11.7362C334.984 11.4537 335.337 11.3125 335.76 11.3125C336.184 11.3125 336.53 11.4537 336.799 11.7362C337.081 12.0187 337.222 12.3789 337.222 12.8167C337.222 13.2546 337.081 13.6147 336.799 13.8972C336.53 14.1656 336.184 14.2997 335.76 14.2997ZM332.222 14.2997C331.799 14.2997 331.446 14.1656 331.163 13.8972C330.895 13.6147 330.761 13.2546 330.761 12.8167C330.761 12.3789 330.895 12.0187 331.163 11.7362C331.446 11.4537 331.799 11.3125 332.222 11.3125C332.646 11.3125 332.992 11.4537 333.26 11.7362C333.543 12.0187 333.684 12.3789 333.684 12.8167C333.684 13.2546 333.543 13.6147 333.26 13.8972C332.992 14.1656 332.646 14.2997 332.222 14.2997Z" fill="#068241"/>
<path d="M329.571 23.5371C329.853 23.5371 329.995 24.0244 329.995 24.999C329.995 25.9876 329.853 26.482 329.571 26.482H325.312C325.03 26.482 324.889 25.9876 324.889 24.999C324.889 24.0244 325.03 23.5371 325.312 23.5371H329.571Z" fill="#068241"/>
<path d="M325.313 23.5354C325.596 23.5354 325.737 24.0227 325.737 24.9972C325.737 25.9859 325.596 26.4803 325.313 26.4803H324.191C322.905 26.4803 321.881 26.1342 321.119 25.4421C320.342 26.1342 319.254 26.4803 317.856 26.4803H316.436C316.154 26.4803 316.013 25.9859 316.013 24.9972C316.013 24.0227 316.154 23.5354 316.436 23.5354H317.453C318.103 23.5354 318.555 23.3941 318.809 23.1117C319.064 22.8292 319.191 22.356 319.191 21.6922V15.7812H322.453V21.7134C322.453 22.236 322.411 22.7232 322.326 23.1752C322.651 23.4153 323.061 23.5354 323.555 23.5354H325.313ZM320.674 31.6497C320.179 31.6497 319.77 31.4873 319.445 31.1624C319.134 30.8375 318.979 30.4209 318.979 29.9124C318.979 29.4039 319.134 28.9873 319.445 28.6624C319.77 28.3376 320.179 28.1751 320.674 28.1751C321.168 28.1751 321.571 28.3376 321.881 28.6624C322.206 28.9873 322.369 29.4039 322.369 29.9124C322.369 30.4209 322.206 30.8375 321.881 31.1624C321.571 31.4873 321.168 31.6497 320.674 31.6497Z" fill="#068241"/>
<path d="M316.433 23.5371C316.716 23.5371 316.857 24.0244 316.857 24.999C316.857 25.9876 316.716 26.482 316.433 26.482H312.175C311.892 26.482 311.751 25.9876 311.751 24.999C311.751 24.0244 311.892 23.5371 312.175 23.5371H316.433Z" fill="#068241"/>
<path d="M312.17 23.5371C312.453 23.5371 312.594 24.0244 312.594 24.999C312.594 25.9876 312.453 26.482 312.17 26.482H307.912C307.63 26.482 307.488 25.9876 307.488 24.999C307.488 24.0244 307.63 23.5371 307.912 23.5371H312.17Z" fill="#068241"/>
<path d="M307.92 23.5349C308.203 23.5349 308.344 24.0222 308.344 24.9967C308.344 25.9854 308.203 26.4798 307.92 26.4798H302.242V10.6113H305.505V23.5349H307.92Z" fill="#068241"/>
<path d="M293.834 28.4294C294.653 28.4576 295.239 28.2881 295.592 27.9209C295.946 27.5678 296.122 26.9464 296.122 26.0565V15.7812H299.385V26.0565C299.385 27.6526 298.926 28.9167 298.008 29.8489C297.104 30.7952 295.861 31.2966 294.279 31.3531L293.834 28.4294Z" fill="#068241"/>
<path d="M282.494 15.8242C283.666 16.3609 284.613 16.9541 285.333 17.6038C286.053 18.2394 286.583 19.0092 286.922 19.9131C287.261 20.8171 287.402 21.9188 287.346 23.2182L287.219 26.4808H270.63C270.347 26.4808 270.206 25.9865 270.206 24.9978C270.206 24.0233 270.347 23.536 270.63 23.536H273.469C273.186 22.4908 273.045 21.495 273.045 20.5487C273.045 19.673 273.172 18.8821 273.426 18.1759C273.695 17.4555 274.069 16.8623 274.549 16.3962C273.998 16.2409 273.349 16.0714 272.6 15.8878L273.405 13.0488C276.202 13.755 278.172 14.2847 279.316 14.6378C280.474 14.9768 281.534 15.3722 282.494 15.8242ZM275.884 20.5275C275.884 21.488 276.046 22.4908 276.371 23.536H279.295V20.0191C279.295 19.3552 279.154 18.7973 278.871 18.3454C278.589 17.8934 278.193 17.6674 277.685 17.6674C277.134 17.6674 276.696 17.9287 276.371 18.4513C276.046 18.9598 275.884 19.6518 275.884 20.5275ZM284.083 22.9639C284.125 21.9611 283.998 21.1561 283.702 20.5487C283.405 19.9414 282.854 19.4047 282.049 18.9386C282.106 19.2352 282.134 19.5953 282.134 20.0191V23.536H284.062L284.083 22.9639Z" fill="#068241"/>
<path d="M270.626 23.5371C270.909 23.5371 271.05 24.0244 271.05 24.999C271.05 25.9876 270.909 26.482 270.626 26.482H266.368C266.086 26.482 265.944 25.9876 265.944 24.999C265.944 24.0244 266.086 23.5371 266.368 23.5371H270.626Z" fill="#068241"/>
<path d="M266.364 23.5371C266.646 23.5371 266.788 24.0244 266.788 24.999C266.788 25.9876 266.646 26.482 266.364 26.482H262.105C261.823 26.482 261.682 25.9876 261.682 24.999C261.682 24.0244 261.823 23.5371 262.105 23.5371H266.364Z" fill="#068241"/>
<path d="M262.114 23.5363C262.397 23.5363 262.538 24.0236 262.538 24.9982C262.538 25.9869 262.397 26.4812 262.114 26.4812H259.911C259.826 28.0349 259.289 29.2425 258.301 30.104C257.312 30.9797 255.998 31.3964 254.36 31.354L253.915 28.388C254.226 28.4162 254.445 28.4303 254.572 28.4303C255.264 28.4303 255.772 28.275 256.097 27.9642C256.436 27.6676 256.627 27.1733 256.669 26.4812H254.572C253.47 26.4812 252.453 26.2411 251.521 25.7609C250.603 25.2807 249.869 24.6168 249.318 23.7694C248.781 22.9219 248.513 21.9827 248.513 20.9516C248.513 19.9206 248.781 18.9743 249.318 18.1127C249.869 17.237 250.61 16.552 251.542 16.0576C252.474 15.5492 253.484 15.2949 254.572 15.2949C255.434 15.2949 256.337 15.4573 257.284 15.7822C258.23 16.1071 259.042 16.5449 259.72 17.0957L259.932 17.1805V23.5363H262.114ZM251.775 20.9516C251.775 21.7285 252.037 22.357 252.559 22.8372C253.096 23.3033 253.781 23.5363 254.614 23.5363H256.691V18.7695C255.984 18.4163 255.292 18.2398 254.614 18.2398C253.781 18.2398 253.096 18.5011 252.559 19.0237C252.037 19.5322 251.775 20.1748 251.775 20.9516Z" fill="#068241"/>
<path d="M246.242 15.7812V26.4803H240.733C240.451 26.4803 240.31 25.9859 240.31 24.9972C240.31 24.0227 240.451 23.5354 240.733 23.5354H242.979V15.7812H246.242ZM246.432 31.0988C246.009 31.0988 245.656 30.9576 245.373 30.6751C245.105 30.4068 244.971 30.0537 244.971 29.6158C244.971 29.178 245.105 28.8178 245.373 28.5353C245.656 28.2528 246.009 28.1116 246.432 28.1116C246.856 28.1116 247.202 28.2528 247.47 28.5353C247.753 28.8178 247.894 29.178 247.894 29.6158C247.894 30.0537 247.753 30.4068 247.47 30.6751C247.202 30.9576 246.856 31.0988 246.432 31.0988ZM242.894 31.0988C242.471 31.0988 242.117 30.9576 241.835 30.6751C241.567 30.4068 241.432 30.0537 241.432 29.6158C241.432 29.178 241.567 28.8178 241.835 28.5353C242.117 28.2528 242.471 28.1116 242.894 28.1116C243.318 28.1116 243.664 28.2528 243.932 28.5353C244.215 28.8178 244.356 29.178 244.356 29.6158C244.356 30.0537 244.215 30.4068 243.932 30.6751C243.664 30.9576 243.318 31.0988 242.894 31.0988Z" fill="#068241"/>
<path d="M227.367 14.0244C226.957 14.0244 226.611 13.8831 226.328 13.6006C226.046 13.3182 225.905 12.965 225.905 12.5413C225.905 12.1035 226.046 11.7433 226.328 11.4608C226.611 11.1784 226.957 11.0371 227.367 11.0371C227.79 11.0371 228.136 11.1784 228.405 11.4608C228.687 11.7433 228.828 12.1035 228.828 12.5413C228.828 12.9792 228.687 13.3393 228.405 13.6218C228.136 13.8902 227.79 14.0244 227.367 14.0244ZM230.905 14.0244C230.495 14.0244 230.149 13.8831 229.867 13.6006C229.584 13.3182 229.443 12.965 229.443 12.5413C229.443 12.1035 229.584 11.7433 229.867 11.4608C230.149 11.1784 230.495 11.0371 230.905 11.0371C231.328 11.0371 231.674 11.1784 231.943 11.4608C232.225 11.7433 232.367 12.1035 232.367 12.5413C232.367 12.9792 232.225 13.3393 231.943 13.6218C231.674 13.8902 231.328 14.0244 230.905 14.0244ZM240.735 23.5369C241.018 23.5369 241.159 24.0242 241.159 24.9988C241.159 25.9875 241.018 26.4818 240.735 26.4818H239.972C238.828 26.4818 237.818 26.1358 236.943 25.4437C236.081 24.7516 235.481 23.9112 235.142 22.9225C234.549 21.4819 233.772 20.3802 232.811 19.6175C231.851 18.8407 230.58 18.4523 228.998 18.4523C227.148 18.4523 226.223 18.9184 226.223 19.8505C226.223 20.1895 226.35 20.4791 226.604 20.7192C226.858 20.9452 227.176 21.1288 227.557 21.27C227.953 21.4113 228.504 21.5878 229.21 21.7997C230.283 22.1104 231.159 22.4141 231.837 22.7107C232.515 23.0073 233.101 23.4593 233.595 24.0666C234.09 24.6739 234.337 25.479 234.337 26.4818C234.337 28.1202 233.595 29.3561 232.112 30.1894C230.643 31.0227 228.327 31.4394 225.163 31.4394C222.197 31.4394 219.916 30.9662 218.32 30.0199C216.738 29.0877 215.947 27.5623 215.947 25.4437C215.947 24.9776 215.983 24.4268 216.053 23.7912C216.124 23.1415 216.23 22.5341 216.371 21.9692L219.549 22.6683C219.45 23.0355 219.365 23.4804 219.295 24.003C219.238 24.5256 219.21 25.0058 219.21 25.4437C219.21 26.1781 219.372 26.7572 219.697 27.181C220.036 27.6188 220.629 27.9437 221.477 28.1555C222.338 28.3815 223.546 28.4945 225.1 28.4945C227.261 28.4945 228.779 28.325 229.655 27.986C230.545 27.6471 230.989 27.1527 230.989 26.503C230.989 26.164 230.855 25.8815 230.587 25.6556C230.333 25.4154 230.008 25.2248 229.612 25.0835C229.217 24.9423 228.666 24.7728 227.96 24.5751C226.915 24.2926 226.046 24.0101 225.354 23.7276C224.676 23.431 224.09 22.9932 223.595 22.4141C223.115 21.835 222.875 21.0652 222.875 20.1048C222.875 18.6924 223.405 17.5766 224.464 16.7574C225.538 15.924 227.098 15.5074 229.146 15.5074C230.855 15.5074 232.254 15.7757 233.341 16.3125C234.443 16.8492 235.269 17.4848 235.82 18.2192C236.385 18.9395 236.936 19.8294 237.472 20.8887L237.769 21.4395C238.362 22.8378 239.224 23.5369 240.354 23.5369H240.735ZM227.176 35.7825C226.752 35.7825 226.399 35.6413 226.117 35.3588C225.848 35.0905 225.714 34.7374 225.714 34.2995C225.714 33.8617 225.848 33.5015 226.117 33.219C226.399 32.9365 226.752 32.7953 227.176 32.7953C227.6 32.7953 227.946 32.9365 228.214 33.219C228.497 33.5015 228.638 33.8617 228.638 34.2995C228.638 34.7374 228.497 35.0905 228.214 35.3588C227.946 35.6413 227.6 35.7825 227.176 35.7825ZM223.638 35.7825C223.214 35.7825 222.861 35.6413 222.579 35.3588C222.31 35.0905 222.176 34.7374 222.176 34.2995C222.176 33.8617 222.31 33.5015 222.579 33.219C222.861 32.9365 223.214 32.7953 223.638 32.7953C224.062 32.7953 224.408 32.9365 224.676 33.219C224.958 33.5015 225.1 33.8617 225.1 34.2995C225.1 34.7374 224.958 35.0905 224.676 35.3588C224.408 35.6413 224.062 35.7825 223.638 35.7825Z" fill="#068241"/>
<path d="M203.78 10.6113H207.043V26.4798H203.78V10.6113Z" fill="#068241"/>
<path d="M200.504 10.6113V26.4798H195.567C195.285 26.4798 195.144 25.9854 195.144 24.9967C195.144 24.0222 195.285 23.5349 195.567 23.5349H197.241V10.6113H200.504Z" fill="#068241"/>
<path d="M195.566 23.5373C195.848 23.5373 195.989 24.0245 195.989 24.9991C195.989 25.9878 195.848 26.4821 195.566 26.4821H195.354C193.998 26.4821 192.868 26.1643 191.964 25.5288C191.074 25.8395 190.156 26.0796 189.21 26.2491C188.278 26.4045 187.444 26.4821 186.71 26.4821C185.312 26.4821 183.949 26.1855 182.621 25.5923C181.915 26.1855 181.032 26.4821 179.973 26.4821H178.871C178.589 26.4821 178.447 25.9878 178.447 24.9991C178.447 24.0245 178.589 23.5373 178.871 23.5373H179.168C179.591 23.5373 179.916 23.4384 180.142 23.2407C180.382 23.0429 180.538 22.7392 180.608 22.3296L180.672 21.9059C180.813 20.8607 181.025 19.865 181.307 18.9187C181.59 17.9724 182.098 17.0967 182.833 16.2916C183.581 15.4865 184.605 15.084 185.905 15.084C187.035 15.084 188.087 15.4088 189.062 16.0585C190.05 16.7083 190.876 17.6122 191.54 18.7704C192.218 19.9144 192.67 21.2068 192.896 22.6474C193.08 22.9582 193.32 23.1842 193.617 23.3254C193.913 23.4666 194.309 23.5373 194.803 23.5373H195.566ZM183.85 22.7746C184.386 23.0429 184.874 23.2407 185.312 23.3678C185.764 23.4808 186.237 23.5373 186.731 23.5373C187.635 23.5373 188.617 23.396 189.676 23.1135C189.521 22.1955 189.252 21.348 188.871 20.5712C188.49 19.7802 188.045 19.1588 187.536 18.7068C187.042 18.2548 186.54 18.0289 186.032 18.0289C185.495 18.0289 185.071 18.2831 184.761 18.7916C184.464 19.3 184.259 19.865 184.146 20.4865C184.033 21.1079 183.934 21.8706 183.85 22.7746Z" fill="#068241"/>
<path d="M178.873 23.5356C179.155 23.5356 179.296 24.0229 179.296 24.9975C179.296 25.9861 179.155 26.4805 178.873 26.4805H174.699C173.145 26.4805 171.705 26.2192 170.377 25.6966C168.979 26.2192 167.679 26.4805 166.479 26.4805H163.788C163.505 26.4805 163.364 25.9861 163.364 24.9975C163.364 24.0229 163.505 23.5356 163.788 23.5356H166.479L167.072 23.5144C166.14 22.5257 165.433 21.3464 164.953 19.9763L167.665 15.5061C168.71 15.2377 169.741 15.1035 170.758 15.1035C172.015 15.1035 173.131 15.273 174.106 15.612C175.08 15.951 175.836 16.4312 176.373 17.0526C176.909 17.6741 177.178 18.3803 177.178 19.1713C177.178 19.934 176.93 20.6896 176.436 21.4382C175.942 22.1726 175.271 22.8718 174.423 23.5356H174.699H178.873ZM167.919 18.5145C168.371 20.2376 169.261 21.537 170.589 22.4127C171.549 21.9466 172.347 21.4241 172.983 20.845C173.618 20.2518 173.936 19.7221 173.936 19.256C173.936 18.917 173.647 18.6345 173.068 18.4086C172.503 18.1684 171.726 18.0484 170.737 18.0484C169.734 18.0484 168.795 18.2038 167.919 18.5145Z" fill="#068241"/>
<path d="M163.79 23.5354C164.072 23.5354 164.214 24.0227 164.214 24.9972C164.214 25.9859 164.072 26.4803 163.79 26.4803H162.667C161.382 26.4803 160.358 26.1342 159.595 25.4421C158.818 26.1342 157.731 26.4803 156.332 26.4803H154.913C154.63 26.4803 154.489 25.9859 154.489 24.9972C154.489 24.0227 154.63 23.5354 154.913 23.5354H155.93C156.58 23.5354 157.032 23.3941 157.286 23.1117C157.54 22.8292 157.667 22.356 157.667 21.6922V15.7812H160.93V21.7134C160.93 22.236 160.887 22.7232 160.803 23.1752C161.128 23.4153 161.537 23.5354 162.032 23.5354H163.79ZM161.099 31.0988C160.676 31.0988 160.323 30.9576 160.04 30.6751C159.772 30.4068 159.637 30.0537 159.637 29.6158C159.637 29.178 159.772 28.8178 160.04 28.5353C160.323 28.2528 160.676 28.1116 161.099 28.1116C161.523 28.1116 161.869 28.2528 162.137 28.5353C162.42 28.8178 162.561 29.178 162.561 29.6158C162.561 30.0537 162.42 30.4068 162.137 30.6751C161.869 30.9576 161.523 31.0988 161.099 31.0988ZM157.561 31.0988C157.138 31.0988 156.784 30.9576 156.502 30.6751C156.234 30.4068 156.099 30.0537 156.099 29.6158C156.099 29.178 156.234 28.8178 156.502 28.5353C156.784 28.2528 157.138 28.1116 157.561 28.1116C157.985 28.1116 158.331 28.2528 158.599 28.5353C158.882 28.8178 159.023 29.178 159.023 29.6158C159.023 30.0537 158.882 30.4068 158.599 30.6751C158.331 30.9576 157.985 31.0988 157.561 31.0988Z" fill="#068241"/>
<path d="M154.909 23.5371C155.191 23.5371 155.332 24.0244 155.332 24.999C155.332 25.9876 155.191 26.482 154.909 26.482H150.65C150.368 26.482 150.227 25.9876 150.227 24.999C150.227 24.0244 150.368 23.5371 150.65 23.5371H154.909Z" fill="#068241"/>
<path d="M150.647 23.5371C150.929 23.5371 151.071 24.0244 151.071 24.999C151.071 25.9876 150.929 26.482 150.647 26.482H146.389C146.106 26.482 145.965 25.9876 145.965 24.999C145.965 24.0244 146.106 23.5371 146.389 23.5371H150.647Z" fill="#068241"/>
<path d="M146.384 23.5371C146.667 23.5371 146.808 24.0244 146.808 24.999C146.808 25.9876 146.667 26.482 146.384 26.482H142.126C141.843 26.482 141.702 25.9876 141.702 24.999C141.702 24.0244 141.843 23.5371 142.126 23.5371H146.384Z" fill="#068241"/>
<path d="M142.134 23.5349C142.416 23.5349 142.558 24.0222 142.558 24.9967C142.558 25.9854 142.416 26.4798 142.134 26.4798H136.456V10.6113H139.719V23.5349H142.134Z" fill="#068241"/>
<path d="M128.048 28.4294C128.867 28.4576 129.453 28.2881 129.806 27.9209C130.159 27.5678 130.336 26.9464 130.336 26.0565V15.7812H133.599V26.0565C133.599 27.6526 133.14 28.9167 132.222 29.8489C131.318 30.7952 130.075 31.2966 128.493 31.3531L128.048 28.4294Z" fill="#068241"/>
<path d="M118.012 31.4377C115.046 31.4377 112.765 30.9645 111.169 30.0182C109.587 29.086 108.796 27.5606 108.796 25.442C108.796 24.9759 108.831 24.4251 108.902 23.7895C108.972 23.1398 109.078 22.5324 109.22 21.9675L112.398 22.6666C112.299 23.0338 112.214 23.4788 112.143 24.0013C112.087 24.5239 112.059 25.0042 112.059 25.442C112.059 26.1765 112.221 26.7555 112.546 27.1793C112.885 27.6171 113.478 27.942 114.325 28.1538C115.187 28.3798 116.395 28.4928 117.948 28.4928C120.109 28.4928 121.628 28.3233 122.503 27.9843C123.393 27.6454 123.838 27.151 123.838 26.5013C123.838 26.1623 123.704 25.8798 123.436 25.6539C123.181 25.4138 122.856 25.2231 122.461 25.0818C122.065 24.9406 121.508 24.764 120.787 24.5522C119.742 24.2556 118.881 23.966 118.203 23.6836C117.525 23.3869 116.938 22.9562 116.444 22.3912C115.964 21.8121 115.724 21.0565 115.724 20.1243C115.724 19.2062 115.957 18.4153 116.423 17.7514C116.903 17.0735 117.574 16.5509 118.436 16.1837C119.297 15.8164 120.293 15.6328 121.423 15.6328C122.454 15.6328 123.464 15.7811 124.452 16.0777C125.455 16.3743 126.338 16.7698 127.101 17.2641L125.808 19.9972C125.046 19.5169 124.234 19.1427 123.372 18.8743C122.525 18.5918 121.79 18.4506 121.169 18.4506C120.561 18.4506 120.06 18.5636 119.664 18.7895C119.269 19.0155 119.071 19.3616 119.071 19.8277C119.071 20.1667 119.198 20.4562 119.453 20.6963C119.721 20.9364 120.053 21.1341 120.448 21.2895C120.844 21.4308 121.402 21.6073 122.122 21.8192C123.181 22.1299 124.043 22.4336 124.707 22.7302C125.385 23.0268 125.964 23.4717 126.444 24.0649C126.938 24.644 127.185 25.4067 127.185 26.353C127.185 28.0479 126.451 29.3191 124.982 30.1665C123.527 31.014 121.204 31.4377 118.012 31.4377ZM120.025 35.7597C119.601 35.7597 119.248 35.6184 118.965 35.3359C118.697 35.0676 118.563 34.7145 118.563 34.2766C118.563 33.8388 118.697 33.4786 118.965 33.1961C119.248 32.9137 119.601 32.7724 120.025 32.7724C120.448 32.7724 120.794 32.9137 121.063 33.1961C121.345 33.4786 121.486 33.8388 121.486 34.2766C121.486 34.7145 121.345 35.0676 121.063 35.3359C120.794 35.6184 120.448 35.7597 120.025 35.7597ZM116.486 35.7597C116.063 35.7597 115.71 35.6184 115.427 35.3359C115.159 35.0676 115.025 34.7145 115.025 34.2766C115.025 33.8388 115.159 33.4786 115.427 33.1961C115.71 32.9137 116.063 32.7724 116.486 32.7724C116.91 32.7724 117.256 32.9137 117.525 33.1961C117.807 33.4786 117.948 33.8388 117.948 34.2766C117.948 34.7145 117.807 35.0676 117.525 35.3359C117.256 35.6184 116.91 35.7597 116.486 35.7597Z" fill="#068241"/>
<path d="M356.987 53.4539C356.987 54.1742 356.88 54.8098 356.664 55.3606C356.463 55.8974 356.169 56.3423 355.781 56.6954C355.394 57.0485 354.934 57.3098 354.403 57.4793C353.872 57.6629 353.283 57.7547 352.637 57.7547C351.991 57.7547 351.403 57.6629 350.871 57.4793C350.34 57.3098 349.881 57.0485 349.493 56.6954C349.105 56.3423 348.804 55.8974 348.589 55.3606C348.388 54.8098 348.287 54.1742 348.287 53.4539V43.5176H350.85V47.0133H356.341V49.3014H350.85V53.4539C350.85 54.1601 351.015 54.6615 351.345 54.9581C351.675 55.2547 352.106 55.403 352.637 55.403C353.168 55.403 353.599 55.2618 353.929 54.9793C354.259 54.6827 354.425 54.1742 354.425 53.4539V53.1785H356.987V53.4539Z" fill="black"/>
<path d="M343.615 57.4797V52.0348C343.615 51.032 343.371 50.2905 342.883 49.8103C342.395 49.3301 341.742 49.0899 340.923 49.0899C340.105 49.0899 339.452 49.3301 338.964 49.8103C338.476 50.2905 338.232 51.032 338.232 52.0348V57.4797H335.669V52.0348C335.669 51.1591 335.791 50.3964 336.035 49.7467C336.293 49.0829 336.652 48.532 337.112 48.0942C337.571 47.6422 338.124 47.3032 338.77 47.0773C339.416 46.8513 340.134 46.7383 340.923 46.7383C341.713 46.7383 342.431 46.8513 343.077 47.0773C343.723 47.2891 344.276 47.621 344.735 48.073C345.195 48.5109 345.546 49.0617 345.79 49.7255C346.049 50.3894 346.178 51.1591 346.178 52.0348V57.4797H343.615Z" fill="black"/>
<path d="M325.269 53.1365V53.1789C325.441 53.8851 325.786 54.443 326.303 54.8526C326.834 55.2622 327.501 55.467 328.305 55.467C329.454 55.467 330.294 55.1351 330.825 54.4712H333.56C333.158 55.474 332.498 56.2721 331.579 56.8653C330.66 57.4585 329.569 57.7551 328.305 57.7551C327.458 57.7551 326.683 57.6209 325.98 57.3525C325.291 57.0701 324.688 56.6887 324.171 56.2085C323.668 55.7141 323.273 55.128 322.986 54.45C322.714 53.7721 322.577 53.0376 322.577 52.2467C322.577 51.4557 322.714 50.7213 322.986 50.0433C323.273 49.3654 323.668 48.7863 324.171 48.3061C324.688 47.8117 325.291 47.4304 325.98 47.162C326.683 46.8795 327.458 46.7383 328.305 46.7383C329.138 46.7383 329.906 46.8795 330.61 47.162C331.313 47.4304 331.909 47.8117 332.397 48.3061C332.9 48.7863 333.287 49.3654 333.56 50.0433C333.847 50.7213 333.991 51.4557 333.991 52.2467V53.1365H325.269ZM328.305 49.0264C327.545 49.0264 326.906 49.21 326.389 49.5772C325.886 49.9445 325.535 50.4459 325.334 51.0814V51.1238H331.277V51.0814C331.076 50.4459 330.717 49.9445 330.201 49.5772C329.684 49.21 329.052 49.0264 328.305 49.0264Z" fill="black"/>
<path d="M311.499 57.4797V51.5052C311.499 50.6577 311.29 50.0433 310.874 49.662C310.472 49.2806 309.962 49.0899 309.345 49.0899C308.713 49.0899 308.197 49.2806 307.795 49.662C307.393 50.0292 307.192 50.6436 307.192 51.5052V57.4797H304.629V51.5052C304.629 50.686 304.744 49.9798 304.973 49.3866C305.203 48.7792 305.512 48.2849 305.899 47.9035C306.301 47.508 306.775 47.2185 307.321 47.0349C307.866 46.8372 308.455 46.7383 309.087 46.7383C309.891 46.7383 310.601 46.9007 311.219 47.2256C311.85 47.5363 312.36 47.9883 312.748 48.5815H312.791C313.164 47.9883 313.659 47.5363 314.277 47.2256C314.908 46.9007 315.633 46.7383 316.452 46.7383C317.083 46.7383 317.672 46.8372 318.217 47.0349C318.763 47.2185 319.23 47.508 319.617 47.9035C320.019 48.2849 320.335 48.7792 320.565 49.3866C320.794 49.9798 320.909 50.686 320.909 51.5052V57.4797H318.347V51.5052C318.347 50.6436 318.146 50.0292 317.744 49.662C317.342 49.2806 316.825 49.0899 316.193 49.0899C315.576 49.0899 315.066 49.2806 314.664 49.662C314.262 50.0433 314.061 50.6577 314.061 51.5052V57.4797H311.499Z" fill="black"/>
<path d="M300.157 50.0221C300.128 49.6973 299.97 49.436 299.683 49.2382C299.396 49.0405 299.001 48.9416 298.499 48.9416C297.925 48.9416 297.494 49.0546 297.207 49.2806C296.934 49.5066 296.798 49.7961 296.798 50.1493C296.798 50.46 296.948 50.6789 297.25 50.806C297.551 50.9331 297.932 51.032 298.391 51.1026C298.851 51.1732 299.339 51.2439 299.856 51.3145C300.387 51.3851 300.882 51.5264 301.341 51.7382C301.801 51.9501 302.181 52.2537 302.483 52.6492C302.784 53.0447 302.935 53.6026 302.935 54.3229C302.935 54.8173 302.827 55.2763 302.612 55.7C302.411 56.1237 302.117 56.491 301.729 56.8017C301.341 57.0983 300.868 57.3314 300.308 57.5008C299.762 57.6703 299.152 57.7551 298.477 57.7551C297.803 57.7551 297.192 57.6703 296.647 57.5008C296.101 57.3314 295.635 57.0983 295.247 56.8017C294.859 56.5051 294.558 56.152 294.343 55.7424C294.127 55.3328 294.012 54.8808 293.998 54.3865H296.582C296.597 54.7396 296.755 55.0221 297.056 55.2339C297.372 55.4458 297.831 55.5517 298.434 55.5517C299.123 55.5517 299.611 55.4387 299.899 55.2127C300.2 54.9868 300.351 54.6902 300.351 54.3229C300.351 54.0122 300.2 53.8003 299.899 53.6873C299.597 53.5602 299.217 53.4684 298.757 53.4119C298.298 53.3413 297.803 53.2707 297.271 53.2001C296.755 53.1294 296.266 52.9953 295.807 52.7975C295.348 52.5857 294.967 52.2749 294.666 51.8653C294.364 51.4557 294.213 50.8837 294.213 50.1493C294.213 49.6549 294.314 49.2029 294.515 48.7933C294.716 48.3696 294.996 48.0095 295.355 47.7128C295.728 47.4021 296.173 47.162 296.69 46.9925C297.221 46.823 297.81 46.7383 298.456 46.7383C299.102 46.7383 299.683 46.823 300.2 46.9925C300.717 47.162 301.155 47.3951 301.514 47.6917C301.887 47.9883 302.174 48.3343 302.375 48.7298C302.576 49.1253 302.684 49.556 302.698 50.0221H300.157Z" fill="black"/>
<path d="M289.937 50.0221C289.909 49.6973 289.751 49.436 289.464 49.2382C289.176 49.0405 288.782 48.9416 288.279 48.9416C287.705 48.9416 287.274 49.0546 286.987 49.2806C286.714 49.5066 286.578 49.7961 286.578 50.1493C286.578 50.46 286.729 50.6789 287.03 50.806C287.332 50.9331 287.712 51.032 288.171 51.1026C288.631 51.1732 289.119 51.2439 289.636 51.3145C290.167 51.3851 290.662 51.5264 291.122 51.7382C291.581 51.9501 291.962 52.2537 292.263 52.6492C292.565 53.0447 292.715 53.6026 292.715 54.3229C292.715 54.8173 292.608 55.2763 292.392 55.7C292.191 56.1237 291.897 56.491 291.509 56.8017C291.122 57.0983 290.648 57.3314 290.088 57.5008C289.543 57.6703 288.932 57.7551 288.258 57.7551C287.583 57.7551 286.973 57.6703 286.427 57.5008C285.882 57.3314 285.415 57.0983 285.027 56.8017C284.64 56.5051 284.338 56.152 284.123 55.7424C283.908 55.3328 283.793 54.8808 283.778 54.3865H286.363C286.377 54.7396 286.535 55.0221 286.836 55.2339C287.152 55.4458 287.612 55.5517 288.215 55.5517C288.904 55.5517 289.392 55.4387 289.679 55.2127C289.98 54.9868 290.131 54.6902 290.131 54.3229C290.131 54.0122 289.98 53.8003 289.679 53.6873C289.377 53.5602 288.997 53.4684 288.538 53.4119C288.078 53.3413 287.583 53.2707 287.052 53.2001C286.535 53.1294 286.047 52.9953 285.587 52.7975C285.128 52.5857 284.747 52.2749 284.446 51.8653C284.144 51.4557 283.994 50.8837 283.994 50.1493C283.994 49.6549 284.094 49.2029 284.295 48.7933C284.496 48.3696 284.776 48.0095 285.135 47.7128C285.508 47.4021 285.953 47.162 286.47 46.9925C287.001 46.823 287.59 46.7383 288.236 46.7383C288.882 46.7383 289.464 46.823 289.98 46.9925C290.497 47.162 290.935 47.3951 291.294 47.6917C291.667 47.9883 291.954 48.3343 292.155 48.7298C292.356 49.1253 292.464 49.556 292.478 50.0221H289.937Z" fill="black"/>
<path d="M273.788 53.1365V53.1789C273.96 53.8851 274.304 54.443 274.821 54.8526C275.352 55.2622 276.02 55.467 276.824 55.467C277.973 55.467 278.812 55.1351 279.344 54.4712H282.079C281.677 55.474 281.016 56.2721 280.097 56.8653C279.178 57.4585 278.087 57.7551 276.824 57.7551C275.977 57.7551 275.202 57.6209 274.498 57.3525C273.809 57.0701 273.206 56.6887 272.689 56.2085C272.187 55.7141 271.792 55.128 271.505 54.45C271.232 53.7721 271.096 53.0376 271.096 52.2467C271.096 51.4557 271.232 50.7213 271.505 50.0433C271.792 49.3654 272.187 48.7863 272.689 48.3061C273.206 47.8117 273.809 47.4304 274.498 47.162C275.202 46.8795 275.977 46.7383 276.824 46.7383C277.657 46.7383 278.425 46.8795 279.128 47.162C279.832 47.4304 280.428 47.8117 280.916 48.3061C281.418 48.7863 281.806 49.3654 282.079 50.0433C282.366 50.7213 282.509 51.4557 282.509 52.2467V53.1365H273.788ZM276.824 49.0264C276.063 49.0264 275.424 49.21 274.907 49.5772C274.405 49.9445 274.053 50.4459 273.852 51.0814V51.1238H279.796V51.0814C279.595 50.4459 279.236 49.9445 278.719 49.5772C278.202 49.21 277.571 49.0264 276.824 49.0264Z" fill="black"/>
<path d="M267.056 50.0221C267.028 49.6973 266.87 49.436 266.583 49.2382C266.296 49.0405 265.901 48.9416 265.398 48.9416C264.824 48.9416 264.393 49.0546 264.106 49.2806C263.833 49.5066 263.697 49.7961 263.697 50.1493C263.697 50.46 263.848 50.6789 264.149 50.806C264.451 50.9331 264.831 51.032 265.291 51.1026C265.75 51.1732 266.238 51.2439 266.755 51.3145C267.286 51.3851 267.781 51.5264 268.241 51.7382C268.7 51.9501 269.081 52.2537 269.382 52.6492C269.684 53.0447 269.834 53.6026 269.834 54.3229C269.834 54.8173 269.727 55.2763 269.511 55.7C269.31 56.1237 269.016 56.491 268.629 56.8017C268.241 57.0983 267.767 57.3314 267.207 57.5008C266.662 57.6703 266.051 57.7551 265.377 57.7551C264.702 57.7551 264.092 57.6703 263.546 57.5008C263.001 57.3314 262.534 57.0983 262.146 56.8017C261.759 56.5051 261.457 56.152 261.242 55.7424C261.027 55.3328 260.912 54.8808 260.897 54.3865H263.482C263.496 54.7396 263.654 55.0221 263.955 55.2339C264.271 55.4458 264.731 55.5517 265.334 55.5517C266.023 55.5517 266.511 55.4387 266.798 55.2127C267.1 54.9868 267.25 54.6902 267.25 54.3229C267.25 54.0122 267.1 53.8003 266.798 53.6873C266.497 53.5602 266.116 53.4684 265.657 53.4119C265.197 53.3413 264.702 53.2707 264.171 53.2001C263.654 53.1294 263.166 52.9953 262.706 52.7975C262.247 52.5857 261.867 52.2749 261.565 51.8653C261.264 51.4557 261.113 50.8837 261.113 50.1493C261.113 49.6549 261.213 49.2029 261.414 48.7933C261.615 48.3696 261.895 48.0095 262.254 47.7128C262.627 47.4021 263.072 47.162 263.589 46.9925C264.121 46.823 264.709 46.7383 265.355 46.7383C266.001 46.7383 266.583 46.823 267.1 46.9925C267.616 47.162 268.054 47.3951 268.413 47.6917C268.786 47.9883 269.074 48.3343 269.275 48.7298C269.476 49.1253 269.583 49.556 269.598 50.0221H267.056Z" fill="black"/>
<path d="M256.836 50.0221C256.807 49.6973 256.649 49.436 256.362 49.2382C256.075 49.0405 255.68 48.9416 255.178 48.9416C254.603 48.9416 254.173 49.0546 253.885 49.2806C253.613 49.5066 253.476 49.7961 253.476 50.1493C253.476 50.46 253.627 50.6789 253.929 50.806C254.23 50.9331 254.61 51.032 255.07 51.1026C255.529 51.1732 256.017 51.2439 256.534 51.3145C257.065 51.3851 257.561 51.5264 258.02 51.7382C258.48 51.9501 258.86 52.2537 259.162 52.6492C259.463 53.0447 259.614 53.6026 259.614 54.3229C259.614 54.8173 259.506 55.2763 259.291 55.7C259.09 56.1237 258.795 56.491 258.408 56.8017C258.02 57.0983 257.546 57.3314 256.986 57.5008C256.441 57.6703 255.831 57.7551 255.156 57.7551C254.481 57.7551 253.871 57.6703 253.326 57.5008C252.78 57.3314 252.313 57.0983 251.926 56.8017C251.538 56.5051 251.237 56.152 251.021 55.7424C250.806 55.3328 250.691 54.8808 250.677 54.3865H253.261C253.275 54.7396 253.433 55.0221 253.735 55.2339C254.051 55.4458 254.51 55.5517 255.113 55.5517C255.802 55.5517 256.29 55.4387 256.577 55.2127C256.879 54.9868 257.03 54.6902 257.03 54.3229C257.03 54.0122 256.879 53.8003 256.577 53.6873C256.276 53.5602 255.895 53.4684 255.436 53.4119C254.977 53.3413 254.481 53.2707 253.95 53.2001C253.433 53.1294 252.945 52.9953 252.486 52.7975C252.026 52.5857 251.646 52.2749 251.344 51.8653C251.043 51.4557 250.892 50.8837 250.892 50.1493C250.892 49.6549 250.993 49.2029 251.194 48.7933C251.395 48.3696 251.675 48.0095 252.033 47.7128C252.407 47.4021 252.852 47.162 253.369 46.9925C253.9 46.823 254.488 46.7383 255.134 46.7383C255.781 46.7383 256.362 46.823 256.879 46.9925C257.396 47.162 257.834 47.3951 258.192 47.6917C258.566 47.9883 258.853 48.3343 259.054 48.7298C259.255 49.1253 259.363 49.556 259.377 50.0221H256.836Z" fill="black"/>
<path d="M246.159 57.4808V53.3283H239.29V57.4808H236.598V49.3665C236.598 48.4343 236.727 47.601 236.985 46.8665C237.258 46.1179 237.653 45.4894 238.17 44.9809C238.687 44.4584 239.325 44.0558 240.086 43.7733C240.862 43.4909 241.745 43.3496 242.735 43.3496C243.726 43.3496 244.601 43.4909 245.362 43.7733C246.138 44.0558 246.784 44.4584 247.301 44.9809C247.832 45.4894 248.234 46.1179 248.506 46.8665C248.779 47.601 248.916 48.4343 248.916 49.3665V57.4808H246.159ZM246.159 49.3665C246.159 48.2507 245.872 47.3891 245.298 46.7818C244.738 46.1744 243.876 45.8708 242.714 45.8708C241.551 45.8708 240.689 46.1744 240.129 46.7818C239.569 47.3891 239.29 48.2507 239.29 49.3665V50.8707H246.159V49.3665Z" fill="black"/>
<path d="M225.824 55.9562H225.781C225.465 56.4788 225.042 56.8884 224.511 57.185C223.979 57.4816 223.362 57.6299 222.659 57.6299C222.041 57.6299 221.446 57.531 220.871 57.3333C220.297 57.1214 219.787 56.8036 219.342 56.3799C218.897 55.9562 218.538 55.4124 218.266 54.7486C218.007 54.0706 217.878 53.2655 217.878 52.3334V47.0156H220.441V52.3334C220.441 53.3362 220.685 54.0777 221.173 54.5579C221.661 55.0381 222.314 55.2782 223.132 55.2782C223.922 55.2782 224.568 55.0311 225.071 54.5367C225.573 54.0424 225.824 53.3079 225.824 52.3334V47.0156H228.387V57.1214C228.387 58.0395 228.251 58.8163 227.978 59.4519C227.705 60.1016 227.325 60.6313 226.836 61.0409C226.363 61.4505 225.803 61.7471 225.157 61.9307C224.511 62.1284 223.822 62.2273 223.089 62.2273C222.472 62.2273 221.883 62.1567 221.324 62.0154C220.778 61.8742 220.275 61.6553 219.816 61.3587C219.371 61.062 218.983 60.6878 218.653 60.2358C218.337 59.7838 218.108 59.2471 217.964 58.6256H220.527C220.943 59.572 221.797 60.0451 223.089 60.0451C223.965 60.0451 224.64 59.8191 225.114 59.3672C225.587 58.9293 225.824 58.2019 225.824 57.185V55.9562Z" fill="black"/>
<path d="M216.231 53.4539C216.231 54.1742 216.124 54.8098 215.908 55.3606C215.707 55.8974 215.413 56.3423 215.025 56.6954C214.638 57.0485 214.178 57.3098 213.647 57.4793C213.116 57.6629 212.527 57.7547 211.881 57.7547C211.235 57.7547 210.647 57.6629 210.115 57.4793C209.584 57.3098 209.125 57.0485 208.737 56.6954C208.35 56.3423 208.048 55.8974 207.833 55.3606C207.632 54.8098 207.531 54.1742 207.531 53.4539V43.5176H210.094V47.0133H215.585V49.3014H210.094V53.4539C210.094 54.1601 210.259 54.6615 210.589 54.9581C210.919 55.2547 211.35 55.403 211.881 55.403C212.413 55.403 212.843 55.2618 213.173 54.9793C213.504 54.6827 213.669 54.1742 213.669 53.4539V53.1785H216.231V53.4539Z" fill="black"/>
<path d="M203.764 45.7631C203.29 45.7631 202.888 45.6007 202.558 45.2758C202.228 44.951 202.062 44.5555 202.062 44.0894C202.062 43.6092 202.228 43.2067 202.558 42.8818C202.888 42.557 203.29 42.3945 203.764 42.3945C204.252 42.3945 204.654 42.557 204.97 42.8818C205.3 43.2067 205.465 43.6092 205.465 44.0894C205.465 44.5555 205.3 44.951 204.97 45.2758C204.654 45.6007 204.252 45.7631 203.764 45.7631ZM202.493 57.4791V47.0131H205.056V57.4791H202.493Z" fill="black"/>
<path d="M200.48 53.4539C200.48 54.1742 200.373 54.8098 200.157 55.3606C199.956 55.8974 199.662 56.3423 199.274 56.6954C198.887 57.0485 198.427 57.3098 197.896 57.4793C197.365 57.6629 196.776 57.7547 196.13 57.7547C195.484 57.7547 194.896 57.6629 194.364 57.4793C193.833 57.3098 193.374 57.0485 192.986 56.6954C192.599 56.3423 192.297 55.8974 192.082 55.3606C191.881 54.8098 191.78 54.1742 191.78 53.4539V43.5176H194.343V47.0133H199.834V49.3014H194.343V53.4539C194.343 54.1601 194.508 54.6615 194.838 54.9581C195.168 55.2547 195.599 55.403 196.13 55.403C196.662 55.403 197.092 55.2618 197.422 54.9793C197.753 54.6827 197.918 54.1742 197.918 53.4539V53.1785H200.48V53.4539Z" fill="black"/>
<path d="M187.108 57.4797V52.0348C187.108 51.032 186.863 50.2905 186.375 49.8103C185.887 49.3301 185.234 49.0899 184.416 49.0899C183.597 49.0899 182.944 49.3301 182.456 49.8103C181.968 50.2905 181.724 51.032 181.724 52.0348V57.4797H179.161V52.0348C179.161 51.1591 179.283 50.3964 179.527 49.7467C179.786 49.0829 180.145 48.532 180.604 48.0942C181.063 47.6422 181.616 47.3032 182.262 47.0773C182.908 46.8513 183.626 46.7383 184.416 46.7383C185.205 46.7383 185.923 46.8513 186.569 47.0773C187.215 47.2891 187.768 47.621 188.227 48.073C188.687 48.5109 189.038 49.0617 189.283 49.7255C189.541 50.3894 189.67 51.1591 189.67 52.0348V57.4797H187.108Z" fill="black"/>
<path d="M168.762 53.1365V53.1789C168.934 53.8851 169.279 54.443 169.796 54.8526C170.327 55.2622 170.995 55.467 171.799 55.467C172.947 55.467 173.787 55.1351 174.318 54.4712H177.053C176.651 55.474 175.991 56.2721 175.072 56.8653C174.153 57.4585 173.062 57.7551 171.799 57.7551C170.952 57.7551 170.176 57.6209 169.473 57.3525C168.784 57.0701 168.181 56.6887 167.664 56.2085C167.161 55.7141 166.767 55.128 166.479 54.45C166.207 53.7721 166.07 53.0376 166.07 52.2467C166.07 51.4557 166.207 50.7213 166.479 50.0433C166.767 49.3654 167.161 48.7863 167.664 48.3061C168.181 47.8117 168.784 47.4304 169.473 47.162C170.176 46.8795 170.952 46.7383 171.799 46.7383C172.631 46.7383 173.399 46.8795 174.103 47.162C174.806 47.4304 175.402 47.8117 175.89 48.3061C176.393 48.7863 176.78 49.3654 177.053 50.0433C177.34 50.7213 177.484 51.4557 177.484 52.2467V53.1365H168.762ZM171.799 49.0264C171.038 49.0264 170.399 49.21 169.882 49.5772C169.38 49.9445 169.028 50.4459 168.827 51.0814V51.1238H174.77V51.0814C174.569 50.4459 174.211 49.9445 173.694 49.5772C173.177 49.21 172.545 49.0264 171.799 49.0264Z" fill="black"/>
<path d="M164.381 52.1619C164.381 53.0094 164.238 53.7792 163.951 54.4712C163.678 55.1633 163.29 55.7565 162.788 56.2509C162.3 56.7311 161.704 57.1054 161 57.3737C160.297 57.628 159.529 57.7551 158.696 57.7551C157.849 57.7551 157.074 57.6209 156.37 57.3526C155.681 57.0701 155.078 56.6887 154.561 56.2085C154.059 55.7142 153.664 55.128 153.377 54.4501C153.104 53.7721 152.968 53.0376 152.968 52.2467C152.968 51.3145 153.119 50.5094 153.42 49.8315C153.736 49.1394 154.138 48.5674 154.626 48.1154C155.128 47.6493 155.696 47.3033 156.327 47.0773C156.959 46.8513 157.591 46.7383 158.222 46.7383C159.026 46.7383 159.73 46.8937 160.333 47.2044C160.95 47.5151 161.431 47.9388 161.776 48.4756H161.819V42.4375H164.381V52.1619ZM158.696 55.4034C159.644 55.4034 160.397 55.1139 160.957 54.5348C161.532 53.9416 161.819 53.1789 161.819 52.2467C161.819 51.3145 161.532 50.5589 160.957 49.9798C160.397 49.3866 159.644 49.09 158.696 49.09C157.749 49.09 156.988 49.3866 156.413 49.9798C155.839 50.5589 155.552 51.3145 155.552 52.2467C155.552 53.1789 155.839 53.9416 156.413 54.5348C156.988 55.1139 157.749 55.4034 158.696 55.4034Z" fill="black"/>
<path d="M148.132 57.4807V43.625H150.888V57.4807H148.132Z" fill="black"/>
<path d="M136.993 55.9562H136.95C136.634 56.4788 136.211 56.8884 135.68 57.185C135.148 57.4816 134.531 57.6299 133.828 57.6299C133.21 57.6299 132.614 57.531 132.04 57.3333C131.466 57.1214 130.956 56.8036 130.511 56.3799C130.066 55.9562 129.707 55.4124 129.435 54.7486C129.176 54.0706 129.047 53.2655 129.047 52.3334V47.0156H131.61V52.3334C131.61 53.3362 131.854 54.0777 132.342 54.5579C132.83 55.0381 133.483 55.2782 134.301 55.2782C135.091 55.2782 135.737 55.0311 136.24 54.5367C136.742 54.0424 136.993 53.3079 136.993 52.3334V47.0156H139.556V57.1214C139.556 58.0395 139.42 58.8163 139.147 59.4519C138.874 60.1016 138.494 60.6313 138.005 61.0409C137.532 61.4505 136.972 61.7471 136.326 61.9307C135.68 62.1284 134.991 62.2273 134.258 62.2273C133.641 62.2273 133.052 62.1567 132.492 62.0154C131.947 61.8742 131.444 61.6553 130.985 61.3587C130.54 61.062 130.152 60.6878 129.822 60.2358C129.506 59.7838 129.277 59.2471 129.133 58.6256H131.696C132.112 59.572 132.966 60.0451 134.258 60.0451C135.134 60.0451 135.809 59.8191 136.283 59.3672C136.756 58.9293 136.993 58.2019 136.993 57.185V55.9562Z" fill="black"/>
<path d="M111.805 57.4808H109.049V48.5614C109.049 47.6716 109.171 46.9018 109.415 46.2521C109.673 45.5883 110.018 45.0445 110.449 44.6208C110.894 44.1971 111.418 43.8793 112.021 43.6674C112.624 43.4555 113.27 43.3496 113.959 43.3496C114.863 43.3496 115.653 43.5332 116.328 43.9004C117.002 44.2536 117.541 44.7691 117.943 45.447H117.986C118.373 44.7691 118.905 44.2536 119.579 43.9004C120.269 43.5332 121.065 43.3496 121.97 43.3496C122.659 43.3496 123.305 43.4555 123.908 43.6674C124.511 43.8793 125.028 44.1971 125.458 44.6208C125.904 45.0445 126.248 45.5883 126.492 46.2521C126.751 46.9018 126.88 47.6716 126.88 48.5614V57.4808H124.123V48.5614C124.123 47.6151 123.894 46.9301 123.434 46.5063C122.975 46.0826 122.408 45.8708 121.733 45.8708C121.044 45.8708 120.47 46.0826 120.01 46.5063C119.565 46.9301 119.343 47.6151 119.343 48.5614V57.4808H116.586V48.5614C116.586 47.6151 116.356 46.9301 115.897 46.5063C115.452 46.0826 114.885 45.8708 114.196 45.8708C113.521 45.8708 112.954 46.0826 112.494 46.5063C112.035 46.9301 111.805 47.6151 111.805 48.5614V57.4808Z" fill="black"/>
</svg>
