<svg xmlns="http://www.w3.org/2000/svg" width="792" height="1120" fill="none"><g clip-path="url(#a)"><mask id="b" width="792" height="1120" x="0" y="0" maskUnits="userSpaceOnUse" style="mask-type:luminance"><path fill="#fff" d="M792 0H0v1120h792z"/></mask><g mask="url(#b)"><path fill="#fff" d="M792 0H0v1120h792z"/><path fill="#EC2028" d="M332.282 84.97c61.462 43.036 76.399 127.749 33.363 189.211s-127.749 76.4-189.212 33.364L-213.515 34.5c-61.463-43.036-76.4-127.75-33.363-189.212 43.036-61.462 127.749-76.399 189.212-33.363z" opacity=".4"/><path fill="#068241" d="M337.962 1185.2c73.237 51.29 91.035 152.23 39.754 225.46-51.28 73.24-152.222 91.04-225.459 39.76l-464.65-325.35c-73.237-51.28-91.036-152.226-39.755-225.463s152.222-91.035 225.459-39.755zM147.505 444.518c-20.47 29.235-60.764 36.34-89.998 15.869l-414.814-290.455c-29.234-20.47-36.339-60.764-15.869-89.998s60.764-36.34 89.998-15.87L131.636 354.52c29.234 20.47 36.339 60.764 15.869 89.998"/><path fill="#373636" d="M331.891 50.236c18.626 13.041 23.152 38.712 10.111 57.338s-38.713 23.152-57.338 10.11c-18.626-13.042-23.152-38.713-10.111-57.338s38.713-23.152 57.338-10.11"/><path fill="#EC2028" d="M224.282 703.971c61.462 43.036 76.399 127.749 33.363 189.211s-127.749 76.4-189.212 33.364l-389.948-273.045c-61.463-43.036-76.4-127.749-33.363-189.212 43.036-61.462 127.749-76.399 189.211-33.363z" opacity=".4"/><path fill="#fff" d="M225.743 874.633zc-34.829 49.74-103.386 61.829-153.127 27v-.001c-49.741-34.828-61.83-103.385-27-153.126v-.001c34.829-49.74 103.385-61.829 153.126-27l.001.001c49.74 34.828 61.829 103.385 27 153.126"/><path fill="#000" d="M122.303 857.271c.928-.224 2.399.384 3.148 1.103 4.06 3.866 7.927 7.942 11.972 11.843 1.766 1.711 3.752 3.213 6.176 5.238a82 82 0 0 0 4.395-2.579c3.323-2.115 7.029-3.896 9.264-7.428-1.536-.025-2.783.997-4.4.997a13.18 13.18 0 0 1-9.782-3.891c-3.398-3.267-6.71-6.625-10.058-9.942"/><path fill="#373636" d="M143.763 875.61c-5.154 1.826-10.067 4.111-15.236 5.248a89.5 89.5 0 0 1-17.879 2.135c-13.255.185-25.517-3.492-36.876-10.436-12.048-7.388-20.953-17.46-27.059-30.087-5.732-11.833-7.567-24.384-6.36-37.33a65.7 65.7 0 0 1 6.186-22.449c3.138-6.545 6.74-12.627 11.658-17.925 5.488-5.896 13.899-5.487 18.822.669 3.747 4.699 3.258 11.384-.733 15.864a45.17 45.17 0 0 0-11.614 27.722c-.912 13.44 3.403 25.093 12.328 34.921a44.8 44.8 0 0 0 20.124 12.606 46.86 46.86 0 0 0 25.177.739c.928-.225 2.4.384 3.148 1.102 4.061 3.866 7.927 7.942 11.973 11.843 1.796 1.741 3.836 3.268 6.341 5.378"/><path fill="#EC2028" d="M152.21 836.305c6.226-6.271 11.843-11.973 17.495-17.62 13.24-13.245 26.53-26.44 39.735-39.735 3.786-3.806 8.226-5.358 13.3-3.756 9.448 2.993 11.927 14.187 4.844 21.301a6301 6301 0 0 1-26.261 26.216c-12.97 12.931-26.055 25.712-38.767 38.872-6.32 6.55-14.921 5.582-20.248.025-10.512-10.975-21.372-21.596-32.112-32.342-5.283-5.283-5.518-13.115-.499-18.159 5.018-5.043 12.836-5.068 18.173.2 7.409 7.313 14.742 14.696 22.08 22.08q1.22 1.39 2.26 2.918"/><path fill="#068241" d="M109.419 741c14.313.105 26.101 3.148 36.971 9.479 7.902 4.599 8.725 14.841 1.781 20.658-3.916 3.272-9.204 3.791-14.138 1.047a46.63 46.63 0 0 0-27.408-5.896c-2.459.219-4.888.763-7.322 1.217-6.66 1.237-13.006-2.599-14.582-8.845-1.741-6.894 1.796-13.345 8.555-15.36a44 44 0 0 1 7.019-1.497c3.602-.454 7.233-.643 9.124-.803M177.088 787.963a12.64 12.64 0 0 1-12.502 12.681c-7.203.06-13.249-6.136-13.23-13.549a12.75 12.75 0 0 1 12.776-12.706c6.98.02 12.976 6.301 12.956 13.574"/><path stroke="#000" d="M142.88 498.947h-.001c-17.117 24.446-50.81 30.388-75.257 13.27-24.446-17.117-30.387-50.811-13.27-75.257s50.811-30.388 75.257-13.27h.001c24.446 17.117 30.387 50.811 13.27 75.257ZM165.232 992.558c23.55 16.492 29.273 48.952 12.783 72.502s-48.949 29.27-72.5 12.78c-23.55-16.49-29.273-48.95-12.783-72.5 16.49-23.548 48.949-29.272 72.5-12.782Z"/><path fill="#000" d="M385.666 435.88q0 3.103 1.568 4.32 1.6 1.216 5.632 1.216 6.208 0 6.208-3.296 0-1.184-.768-1.856t-2.912-1.344q-3.072-.96-4.352-2.368-1.408-1.536-1.408-4.128 0-3.424 2.144-5.12 1.793-1.408 4.832-1.408 1.92 0 3.744.576v2.944q-1.76-.448-3.072-.448-1.824 0-2.848.928t-1.024 2.56q0 1.313.736 2.016.736.672 3.04 1.504 2.944 1.056 4.192 2.304 1.536 1.504 1.536 3.808 0 3.616-3.232 5.312-2.304 1.248-5.664 1.248h-3.168q-3.744 0-6.112-1.824-2.976-2.24-2.976-6.592V433l1.984-1.568h1.92zm4.224 10.624q.864 0 1.472.608t.608 1.472-.608 1.472a2 2 0 0 1-1.472.608 2 2 0 0 1-1.472-.608 2 2 0 0 1-.608-1.472q0-.864.608-1.472a2 2 0 0 1 1.472-.608m4.864 0q.864 0 1.472.608t.608 1.472-.608 1.472a2 2 0 0 1-1.472.608 1.97 1.97 0 0 1-1.44-.608 2 2 0 0 1-.608-1.472q0-.864.608-1.472a1.97 1.97 0 0 1 1.44-.608m20.812-24.224v13.952q0 3.968-2.432 6.144-1.567 1.44-4.032 2.016-1.152.224-2.4.224-.416 0-1.12-.064l-1.568-1.952v-1.376q1.024.16 1.984.16 5.664 0 5.664-5.504v-13.6zm8.319-8.192v18.848q0 .32.192.512.192.288.608.288h.832V437h-2.08q-1.312 0-2.304-.928-1.152-1.056-1.152-2.592v-19.392zm11.049 8.192v11.456000000000001h1.632V437h-1.12l-1.184-1.312h-.064Q433.11 437 431.478 437h-6.176v-3.264h4.832q.448 0 .64-.256a.82.82 0 0 0 .288-.64v-10.56zm-6.944 17.056q.864 0 1.472.608t.608 1.472-.608 1.472a2 2 0 0 1-1.472.608 2 2 0 0 1-1.472-.608 2 2 0 0 1-.608-1.472q0-.864.608-1.472a2 2 0 0 1 1.472-.608m4.864 0q.864 0 1.472.608t.608 1.472-.608 1.472a2 2 0 0 1-1.472.608 1.97 1.97 0 0 1-1.44-.608 2 2 0 0 1-.608-1.472q0-.864.608-1.472a1.97 1.97 0 0 1 1.44-.608m7.927-11.424q1.089-3.136 3.968-4.768a9.25 9.25 0 0 1 4.64-1.216q2.497 0 4.576 1.344 2.593 1.568 3.712 4.64l-.384.896q-1.28.576-2.688 1.984-1.344 1.472-1.76 2.944h5.152V437h-7.04q-.896 0-1.632-.832h-.16q-.735.832-1.696.832h-11.136v-3.264h9.28q-.384-1.312-1.632-2.784-1.375-1.536-2.848-2.144zm12.8-.256q-.768-1.344-2.08-1.984-.991-.48-2.208-.48-1.28 0-2.432.544a4.55 4.55 0 0 0-1.984 1.92q1.089.48 2.304 1.92 1.344 1.505 1.984 3.264h.128q.609-1.792 2.08-3.424 1.185-1.312 2.208-1.76m9.886 6.08q-.768-1.856-.768-4.16 0-3.775 2.336-5.856 1.951-1.76 4.992-1.792 2.72 0 4.448 1.28 2.112 1.6 2.112 4.608v5.12q0 .288.16.544.255.256.576.256h.288V437h-1.408q-1.44 0-2.464-1.024-1.569 1.984-4.16 1.984-2.784 0-4.736-2.048h-.064l-.896 1.088h-6.112v-3.264zm9.216-5.92q0-1.183-.736-1.92-.672-.736-1.92-.736-1.569 0-2.528 1.216-.928 1.216-.928 3.264 0 2.24.96 3.648t2.464 1.408q1.375 0 2.688-1.312zm14.345-13.728v19.392q0 1.344-.864 2.304-.993 1.216-2.592 1.216h-6.176v-3.264h4.928a.83.83 0 0 0 .608-.256.74.74 0 0 0 .224-.544v-18.848zm8.326 0V436.2l-1.984 1.6h-1.92v-23.712zm16.779 1.152q.864 0 1.472.608t.608 1.472q0 .833-.608 1.44a2 2 0 0 1-1.472.608 2 2 0 0 1-1.472-.608 1.97 1.97 0 0 1-.608-1.44q0-.864.608-1.472a2 2 0 0 1 1.472-.608m4.864 0q.864 0 1.472.608t.608 1.472q0 .833-.608 1.44a2 2 0 0 1-1.472.608 1.97 1.97 0 0 1-1.44-.608 1.97 1.97 0 0 1-.608-1.44q0-.864.608-1.472a1.97 1.97 0 0 1 1.44-.608m2.08 6.176v11.52q0 .384.224.576a.64.64 0 0 0 .512.224h.896V437h-2.016q-1.471 0-2.656-1.184-1.823 1.504-4.064 1.504-2.528 0-4.352-1.6-2.432-2.272-2.432-6.08 0-3.488 2.24-5.792 2.048-2.08 5.024-2.08 1.665 0 3.328.704l1.376-1.056zm-3.904 4.128q-1.12-.416-2.144-.416-1.728 0-2.848 1.28-1.12 1.248-1.12 3.264t.992 3.232q1.025 1.216 2.72 1.216 1.152 0 2.4-.512zm14.948-3.264v11.2q0 1.248-.832 2.304-1.055 1.216-2.624 1.216h-6.176v-3.264h4.928a.83.83 0 0 0 .608-.256.74.74 0 0 0 .224-.544V422.28zm-7.008 17.056q.864 0 1.472.608t.608 1.472-.608 1.472a2 2 0 0 1-1.472.608 1.97 1.97 0 0 1-1.44-.608 2 2 0 0 1-.608-1.472q0-.864.608-1.472a1.97 1.97 0 0 1 1.44-.608m4.896 0q.864 0 1.44.608.608.608.608 1.472t-.608 1.472a1.9 1.9 0 0 1-1.44.608 2 2 0 0 1-1.472-.608 2 2 0 0 1-.608-1.472q0-.864.608-1.472a2 2 0 0 1 1.472-.608M541.391 437q-3.52 0-5.536-2.4-1.696-2.048-1.696-5.056 0-3.584 2.016-5.6 2.111-2.048 5.408-2.048 2.4 0 4.16 1.184 2.304 1.664 2.304 4.736v5.92h1.024V437h-1.056q-.225 3.456-2.432 5.408-1.536 1.376-3.68 1.888a13 13 0 0 1-2.944.352q-.48 0-1.376-.064h-.096l-1.632-2.016v-1.408q1.312.224 2.464.224 5.248 0 5.728-4.384zm2.752-9.184q0-1.28-.832-2.016a2.55 2.55 0 0 0-1.728-.64q-1.632 0-2.592 1.152t-.96 3.168q0 1.952 1.056 3.104t2.88 1.152h2.176zm12.466-5.184q3.456-1.568 7.008-1.568 4.577 0 6.912 2.752 2.016 2.4 2.016 6.464v2.56q0 .127-.032.48v.416h1.056V437h-.64l-1.088-1.312h-.064q-.32.352-.8.736a3.24 3.24 0 0 1-1.888.576h-8q-1.343 0-2.048-.352h-.128q-.703.352-2.368.352h-7.744v-3.264h5.76q-.511-.64-.832-1.664a7.1 7.1 0 0 1-.288-2.048q0-2.048 1.056-3.52a5.05 5.05 0 0 1 2.112-1.664zm12.032 8.16q0-3.552-1.568-5.152-1.472-1.472-4.448-1.472-1.311 0-2.784.288 2.304.288 3.616 2.048 1.056 1.472 1.056 3.52 0 1.024-.256 1.952-.32 1.088-.832 1.76h4.384q.417 0 .608-.256a.74.74 0 0 0 .224-.544zm-9.696 2.56q1.056-.096 1.696-.96.64-.896.64-2.24 0-1.536-.736-2.368a2.03 2.03 0 0 0-1.6-.736q-.928 0-1.6.672-.768.864-.768 2.432.033 1.376.672 2.24.64.864 1.696.96m24.02-19.264v19.392q0 1.344-.864 2.304-.991 1.216-2.592 1.216h-6.176v-3.264h4.928a.83.83 0 0 0 .608-.256.74.74 0 0 0 .224-.544v-18.848zm8.326 0V436.2l-1.984 1.6h-1.92v-23.712zm19.244 8.192v13.952q0 3.968-2.432 6.144-1.569 1.44-4.032 2.016-1.152.224-2.4.224-.417 0-1.12-.064l-1.568-1.952v-1.376q1.024.16 1.984.16 5.664 0 5.664-5.504v-13.6zm8.319-8.192v18.848q0 .32.192.512.192.288.608.288h.832V437h-2.08q-1.312 0-2.304-.928-1.152-1.056-1.152-2.592v-19.392zm11.049 8.192v11.456000000000001h1.632V437h-1.12l-1.184-1.312h-.064q-1.088 1.312-2.72 1.312h-6.176v-3.264h4.832q.447 0 .64-.256a.82.82 0 0 0 .288-.64v-10.56zm-2.048 17.056q.831 0 1.44.608.608.608.608 1.472t-.608 1.472a1.97 1.97 0 0 1-1.44.608 2 2 0 0 1-1.472-.608 2 2 0 0 1-.608-1.472q0-.864.608-1.472a2 2 0 0 1 1.472-.608m6.551-24.096q.864 0 1.472.608t.608 1.472q0 .833-.608 1.44a2 2 0 0 1-1.472.608 2 2 0 0 1-1.472-.608 1.97 1.97 0 0 1-.608-1.44q0-.864.608-1.472a2 2 0 0 1 1.472-.608m4.864 0q.864 0 1.472.608t.608 1.472q0 .833-.608 1.44a2 2 0 0 1-1.472.608 1.97 1.97 0 0 1-1.44-.608 1.97 1.97 0 0 1-.608-1.44q0-.864.608-1.472a1.97 1.97 0 0 1 1.44-.608m1.664 7.04v11.456000000000001h1.632V437h-1.12l-1.184-1.312h-.064Q639.11 437 637.478 437h-6.176v-3.264h4.832q.448 0 .64-.256a.82.82 0 0 0 .288-.64v-10.56zm11.511-7.04q.864 0 1.472.608t.608 1.472q0 .833-.608 1.44a2 2 0 0 1-1.472.608 1.97 1.97 0 0 1-1.44-.608 1.97 1.97 0 0 1-.608-1.44q0-.864.608-1.472a1.97 1.97 0 0 1 1.44-.608m-5.856 7.584q3.168-.928 5.536-.928 3.873 0 6.24 2.432 2.144 2.208 2.144 5.504v3.648q0 1.312-.896 2.368-1.056 1.152-2.56 1.152h-14.72v-3.264h13.472q.8 0 .8-.8v-2.88q0-2.24-1.472-3.52-1.44-1.28-4-1.28-1.472 0-4.544.672zm21.796-8.736V436.2l-1.984 1.6h-1.92v-23.712zM349.36 459.088V482h-4.704v-22.912zm19.455 0V482h-4.416v-1.888q-1.536 2.24-4.64 2.24-3.36 0-5.408-2.816-1.76-2.4-1.76-5.984 0-4.255 2.24-6.72 1.951-2.144 4.896-2.144 3.103 0 4.672 2.368v-7.968zm-8.096 9.216q-1.665 0-2.688 1.44t-1.024 3.776q0 2.304.992 3.744 1.023 1.408 2.72 1.408 1.695 0 2.688-1.408 1.024-1.409 1.024-3.744 0-2.368-1.024-3.776-1.024-1.44-2.688-1.44m26.992 6.368h-11.392q.096 2.048.64 2.912.928 1.408 2.912 1.408 2.464 0 3.296-2.048h4.352q-.736 2.496-2.88 3.968-2.112 1.44-4.96 1.44-3.872 0-5.952-2.592-1.824-2.272-1.824-5.984 0-4.512 2.368-6.976 2.08-2.112 5.472-2.112 2.592 0 4.544 1.28t2.784 3.584q.672 1.793.672 4.32 0 .32-.032.8m-4.576-2.912q-.32-3.712-3.424-3.712-2.912 0-3.328 3.712zm7.699-6.72h4.416v2.4q1.792-2.752 5.056-2.752 2.911 0 4.416 1.728 1.28 1.536 1.28 4.16V482h-4.384v-10.528q0-3.04-2.848-3.04-1.6 0-2.56.928-.96.895-.96 2.4V482h-4.416zm27.251 0v2.912h-2.976v9.44q0 .928.32 1.28.353.352 1.248.352.736 0 1.888-.576.096-.065.16-.096l.512 3.008a9.45 9.45 0 0 1-4.224.992q-4.32 0-4.32-3.968v-10.432h-2.176v-2.912h2.176v-2.816l4.416-2.528v5.344zm8.479 0V482h-4.416v-16.96zm-2.24-5.824q.864 0 1.44.608.608.608.608 1.472t-.608 1.472q-.576.576-1.44.576a2.06 2.06 0 0 1-1.472-.576 2 2 0 0 1-.608-1.472q0-.864.608-1.472a2 2 0 0 1 1.472-.608m14.542 5.824v2.912h-2.976v9.44q0 .928.32 1.28.353.352 1.248.352.736 0 1.888-.576.096-.065.16-.096l.512 3.008a9.45 9.45 0 0 1-4.224.992q-4.32 0-4.32-3.968v-10.432h-2.176v-2.912h2.176v-2.816l4.416-2.528v5.344zm14.399 0h4.512l-6.976 20.032q-.735 2.144-1.952 2.944-1.216.832-3.616.832-2.208 0-3.072-.576l.672-2.976q1.152.288 1.92.288 1.12 0 1.92-.768.8-.736.8-1.76v-.352l-6.304-17.664h4.832l3.776 12.352zm13.36 16.96v-22.912h10.208q3.488 0 5.408 1.696 2.08 1.792 2.08 4.352 0 1.472-.736 2.56-.704 1.056-2.4 2.144 3.776 2.24 3.776 5.568 0 3.008-2.272 4.928-1.984 1.664-5.76 1.664zm4.704-18.976v5.184h5.152q3.296 0 3.296-2.592t-3.296-2.592zm0 9.12v5.92h5.632q3.488 0 3.488-2.944 0-2.976-3.488-2.976zm31.945 2.528h-11.392q.096 2.048.64 2.912.927 1.408 2.912 1.408 2.463 0 3.296-2.048h4.352q-.736 2.496-2.88 3.968-2.112 1.44-4.96 1.44-3.873 0-5.952-2.592-1.824-2.272-1.824-5.984 0-4.512 2.368-6.976 2.079-2.112 5.472-2.112 2.591 0 4.544 1.28t2.784 3.584q.672 1.793.672 4.32 0 .32-.032.8m-4.576-2.912q-.32-3.712-3.424-3.712-2.913 0-3.328 3.712zm7.699-6.72h4.416v2.4q1.791-2.752 5.056-2.752 2.912 0 4.416 1.728 1.28 1.536 1.28 4.16V482h-4.384v-10.528q0-3.04-2.848-3.04-1.6 0-2.56.928-.96.895-.96 2.4V482h-4.416zm33.554 6.208h-4.192q-.384-1.664-1.12-2.336-.704-.672-2.016-.672-1.984 0-2.752 1.408-.832 1.632-.832 4 0 2.4.928 3.808.96 1.376 2.624 1.376 1.313 0 2.016-.672.736-.704 1.152-2.304h4.192q-.32 3.2-2.56 4.96-1.952 1.568-4.832 1.568-4.032 0-6.112-2.592-1.824-2.24-1.824-6.048 0-4.608 2.4-6.976 2.08-2.08 5.632-2.08 3.393 0 5.376 1.952 1.697 1.728 1.92 4.608m3.071-12.16h4.416v8.352q1.791-2.752 4.96-2.752 2.24 0 3.776 1.312 1.76 1.44 1.76 4.576V482h-4.416v-10.528q0-3.04-2.688-3.04-1.504 0-2.464.928-.928.928-.928 2.4V482h-4.416zm18.937 5.952h4.384v2.048q1.952-2.4 4.64-2.4 3.295 0 4.608 2.496 1.92-2.496 4.96-2.496 2.56 0 3.968 1.408 1.44 1.375 1.44 3.84V482h-4.384v-11.36q0-2.208-2.4-2.208-1.409 0-2.208.896-.8.864-.8 2.432V482h-4.416v-11.36q0-2.208-2.368-2.208-1.409 0-2.208.896-.8.864-.8 2.432V482h-4.416zm42.559 15.84V482h-4.8q-.48-.607-.512-1.728-1.76 2.08-5.12 2.08-2.465 0-3.968-1.504-1.216-1.216-1.216-3.36 0-3.2 2.56-4.544 1.087-.576 4.32-1.152l3.456-.64-.032-1.216q-.033-1.696-2.56-1.696-1.632 0-2.304.512-.64.48-.8 1.792h-4.224q.384-5.856 7.232-5.856 3.775 0 5.44 1.344 1.503 1.28 1.504 3.872v9.472q0 1.152 1.024 1.504m-5.28-7.072-3.232.736q-1.377.32-2.048.928a2 2 0 0 0-.64 1.504q0 1.824 2.368 1.824 3.424 0 3.52-3.744zm8.252-8.768h4.416v3.232q.833-3.584 4.736-3.584h.864l.032 4.352a8.4 8.4 0 0 0-1.664-.16q-2.175 0-3.008.8-.96.896-.96 3.232V482h-4.416zm16.635 6.592 5.536-6.592h5.024l-5.792 6.4 6.176 10.56h-5.152l-4.064-7.488-1.728 1.92V482h-4.416v-22.912h4.416zm29.293-8.608V482h-4.704v-18.976h-6.976v-3.936h18.336v3.936zm23.824 11.648H665.85q.096 2.048.64 2.912.929 1.408 2.912 1.408 2.465 0 3.296-2.048h4.352q-.735 2.496-2.88 3.968-2.112 1.44-4.96 1.44-3.871 0-5.952-2.592-1.824-2.272-1.824-5.984 0-4.512 2.368-6.976 2.08-2.112 5.472-2.112 2.592 0 4.544 1.28 1.953 1.28 2.784 3.584.672 1.793.672 4.32 0 .32-.032.8m-4.576-2.912q-.32-3.712-3.424-3.712-2.911 0-3.328 3.712zm21.811-1.728h-4.48q-.031-1.024-.736-1.44-.704-.448-2.432-.448-2.528 0-2.528 1.472 0 .864 1.536 1.28l5.568 1.568q3.328.929 3.328 4.224 0 2.592-2.016 4.192-1.888 1.472-5.44 1.472-4.351 0-6.24-1.28-1.855-1.216-1.984-3.936h4.384q.192 1.056.896 1.408.736.352 2.688.352 3.296 0 3.296-1.568 0-.928-1.472-1.376l-5.248-1.6q-2.016-.608-2.752-1.408-.96-.991-.96-2.688 0-2.784 2.112-4.288 1.857-1.28 4.864-1.28 3.648 0 5.76 1.632 1.824 1.44 1.856 3.712m11.389-4.992v2.912h-2.976v9.44q0 .928.32 1.28.352.352 1.248.352.736 0 1.888-.576.096-.065.16-.096l.512 3.008a9.45 9.45 0 0 1-4.224.992q-4.32 0-4.32-3.968v-10.432h-2.176v-2.912h2.176v-2.816l4.416-2.528v5.344z"/><path fill="#373636" d="M357.637 546.166q3.724-1.102 6.118-1.102 4.56 0 7.372 2.888 2.508 2.584 2.508 6.536v3.344q0 .874-.038 1.292h1.254V563h-.76l-1.254-1.558h-.114Q371.469 563 369.531 563h-6.916q-3.192 0-4.522 1.938-.798 1.178-.798 3.002 0 5.51 7.106 5.51 1.558 0 3.61-.38v1.596l-1.9 2.394q-1.178.266-2.66.304-4.028 0-6.802-1.824-3.99-2.47-3.99-7.752 0-3.952 2.546-6.232 2.698-2.432 7.904-2.432h4.94q.95 0 .95-.95v-3.42q0-2.622-1.71-4.142-1.673-1.558-4.56-1.558-1.862 0-5.092.798zm6.84 19.608q1.026 0 1.748.722t.722 1.748-.722 1.748a2.38 2.38 0 0 1-1.748.722 2.38 2.38 0 0 1-1.748-.722q-.684-.722-.684-1.748t.684-1.748a2.38 2.38 0 0 1 1.748-.722m16.901-13.68q0-3.61 2.508-5.472 1.976-1.52 5.396-1.52 3.344 0 5.662 1.976 2.926 2.508 2.926 7.106 0 4.332-2.318 7.182-2.243 2.774-5.814 2.774-3.154 0-4.978-2.356-1.216 1.216-2.964 1.216h-7.258v-3.876h5.852a.99.99 0 0 0 .722-.304.88.88 0 0 0 .266-.646zm4.598 6.612q1.406 1.52 3.23 1.52 1.786 0 2.926-1.558 1.14-1.596 1.14-4.104 0-2.736-1.254-4.294-1.14-1.33-2.964-1.33-1.368 0-2.166.874-.912.836-.912 2.28zm19.009-13.414q1.293-.228 3.002-.228 4.371 0 7.068 2.812 2.394 2.546 2.394 6.308v3.648q0 .874-.038 1.292h.988V563h-.494l-1.254-1.558h-.114a8 8 0 0 1-.646.646q-1.14.912-2.546.912h-12.198v-3.876h10.716q.95 0 .95-.95v-3.534q0-2.622-1.596-4.218-1.482-1.482-4.294-1.596-1.291 0-1.938.152zm19.921 13.832q-.912-2.204-.912-4.94 0-4.484 2.774-6.954 2.319-2.09 5.928-2.128 3.23 0 5.282 1.52 2.508 1.9 2.508 5.472v6.08q0 .342.19.646.305.304.684.304h.342V563h-1.672q-1.71 0-2.926-1.216-1.862 2.356-4.94 2.356-3.305 0-5.624-2.432h-.076L425.4 563h-7.258v-3.876zm10.944-7.03q0-1.406-.874-2.28-.798-.874-2.28-.874-1.862 0-3.002 1.444-1.101 1.444-1.102 3.876 0 2.66 1.14 4.332t2.926 1.672q1.635 0 3.192-1.558zm17.035-16.302v23.028q0 1.596-1.026 2.736-1.178 1.444-3.078 1.444h-7.334v-3.876h5.852a.99.99 0 0 0 .722-.304.88.88 0 0 0 .266-.646v-22.382zm9.887 0v26.258l-2.356 1.9h-2.28v-28.158zm37.596 0v23.332h1.9V563h-1.938q-.267 4.18-3.116 6.65-2.927 2.432-7.638 2.432h-3.762q-5.13 0-8.056-2.812-2.736-2.66-2.736-7.182v-6.802l2.356-1.9h2.28v8.284q0 3.61 1.824 5.054 1.824 1.482 6.232 1.482 4.293 0 6.042-1.33 1.976-1.52 1.976-5.206v-25.878zm13.08 9.728v13.604000000000001h1.938V563h-1.33l-1.406-1.558h-.076q-1.293 1.558-3.23 1.558h-7.334v-3.876h5.738q.531 0 .76-.304a.98.98 0 0 0 .342-.76v-12.54zm-8.246 20.254q1.026 0 1.748.722t.722 1.748-.722 1.748a2.38 2.38 0 0 1-1.748.722 2.38 2.38 0 0 1-1.748-.722 2.38 2.38 0 0 1-.722-1.748q0-1.026.722-1.748a2.38 2.38 0 0 1 1.748-.722m5.776 0q1.026 0 1.748.722t.722 1.748-.722 1.748a2.38 2.38 0 0 1-1.748.722q-.988 0-1.71-.722a2.38 2.38 0 0 1-.722-1.748q0-1.026.722-1.748.721-.722 1.71-.722m15.569-13.87q5.092-6.878 12.578-6.878 4.56 0 7.524 2.85 2.698 2.584 2.698 6.536v3.496q0 .228-.038.646v.57h1.254V563h-.76l-1.254-1.558h-.114q-1.254 1.558-3.23 1.558h-30.096v-3.876h6.84l-.038-13.604h4.636zm18.164 2.736q-.038-2.736-2.09-4.332-1.748-1.292-4.218-1.292-3.8 0-7.03 3.154-2.964 2.47-4.826 6.954h17.214q.95 0 .95-.95zm10.594-8.474q3.61-1.102 6.574-1.102 4.598 0 7.41 2.888 2.546 2.584 2.546 6.536v4.636h1.254V563h-.798l-1.254-1.558h-.076q-1.293 1.558-3.23 1.558h-17.48v-3.876h15.998q.95 0 .95-.95v-3.42q0-2.584-1.748-4.142-1.71-1.596-4.522-1.596-1.862 0-5.624.836zm21.195-9.006q1.026 0 1.748.722t.722 1.748q0 .989-.722 1.71a2.38 2.38 0 0 1-1.748.722 2.38 2.38 0 0 1-1.748-.722q-.722-.721-.722-1.71 0-1.026.722-1.748a2.38 2.38 0 0 1 1.748-.722m5.776 0q1.026 0 1.748.722t.722 1.748q0 .989-.722 1.71a2.38 2.38 0 0 1-1.748.722q-.987 0-1.71-.722-.722-.721-.722-1.71 0-1.026.722-1.748.723-.722 1.71-.722m1.976 8.36v13.604000000000001h1.938V563h-1.33l-1.406-1.558h-.076q-1.292 1.558-3.23 1.558h-7.334v-3.876h5.738q.532 0 .76-.304a.98.98 0 0 0 .342-.76v-12.54zm13.1-9.728v23.028q0 1.596-1.026 2.736-1.179 1.444-3.078 1.444h-7.334v-3.876h5.852a.99.99 0 0 0 .722-.304.88.88 0 0 0 .266-.646v-22.382zm9.887 0v26.258l-2.356 1.9h-2.28v-28.158zm22.852 9.728v13.604h1.938V563h-1.976q-.304 4.56-3.61 6.992-2.736 2.014-6.726 2.014-.684 0-1.482-.038l-1.862-2.318v-1.634q1.216.19 2.356.19 6.726 0 6.726-6.536v-16.15zm13.128 0v13.3q0 1.482-.988 2.736-1.254 1.444-3.116 1.444h-7.334v-3.876h5.852a.99.99 0 0 0 .722-.304.88.88 0 0 0 .266-.646V545.52zm-8.322 20.254q1.026 0 1.748.722t.722 1.748-.722 1.748a2.38 2.38 0 0 1-1.748.722q-.989 0-1.71-.722a2.38 2.38 0 0 1-.722-1.748q0-1.026.722-1.748.721-.722 1.71-.722m5.814 0q1.026 0 1.71.722.722.722.722 1.748t-.722 1.748q-.684.722-1.71.722a2.38 2.38 0 0 1-1.748-.722 2.38 2.38 0 0 1-.722-1.748q0-1.026.722-1.748a2.38 2.38 0 0 1 1.748-.722m18.436-20.254v13.604h1.938V563h-1.976q-.303 4.56-3.61 6.992-2.736 2.014-6.726 2.014-.684 0-1.482-.038l-1.862-2.318v-1.634q1.216.19 2.356.19 6.726 0 6.726-6.536v-16.15zm13.129-8.36q1.025 0 1.748.722.722.722.722 1.748 0 .989-.722 1.71a2.38 2.38 0 0 1-1.748.722q-.989 0-1.71-.722-.722-.721-.722-1.71 0-1.026.722-1.748.721-.722 1.71-.722m5.776 0q1.025 0 1.748.722.722.722.722 1.748 0 .989-.722 1.71a2.38 2.38 0 0 1-1.748.722q-1.026 0-1.748-.684-.684-.722-.684-1.748t.684-1.748a2.38 2.38 0 0 1 1.748-.722m-9.652 21.964q-1.71-2.28-1.71-5.51 0-2.926 1.482-5.054 2.394-3.496 6.916-3.496 3.42 0 5.738 2.128 2.697 2.47 2.698 6.422 0 3.116-1.71 5.51h2.622V563h-5.7q-2.47 0-3.572-.494h-.19q-1.065.494-3.572.494h-10.564v-3.876zm6.688-.038q1.71-.19 2.736-1.558 1.064-1.406 1.064-3.572 0-2.28-1.026-3.648t-2.774-1.368q-1.71 0-2.774 1.368-1.026 1.368-1.026 3.648 0 2.166 1.026 3.572 1.064 1.368 2.774 1.558m12.739-21.926q1.026 0 1.748.722.723.722.722 1.748 0 .989-.722 1.71a2.38 2.38 0 0 1-1.748.722 2.38 2.38 0 0 1-1.748-.722q-.722-.721-.722-1.71 0-1.026.722-1.748a2.38 2.38 0 0 1 1.748-.722m5.776 0q1.026 0 1.748.722t.722 1.748q0 .989-.722 1.71a2.38 2.38 0 0 1-1.748.722q-.987 0-1.71-.722-.722-.721-.722-1.71 0-1.026.722-1.748.723-.722 1.71-.722m1.976 8.36v13.3q0 1.482-.988 2.736-1.254 1.444-3.116 1.444h-7.334v-3.876h5.852q.419 0 .722-.304a.88.88 0 0 0 .266-.646V545.52zM346.086 590.466V613H340.5v-22.534h-8.284v-4.674h21.774v4.674zm10.773-4.674h5.244v9.918q2.128-3.268 5.89-3.268 2.66 0 4.484 1.558 2.09 1.71 2.09 5.434V613h-5.244v-12.502q0-3.61-3.192-3.61-1.785 0-2.926 1.102-1.101 1.102-1.102 2.85V613h-5.244zm40.007 18.506h-13.528q.114 2.432.76 3.458 1.101 1.672 3.458 1.672 2.925 0 3.914-2.432h5.168q-.874 2.964-3.42 4.712-2.509 1.71-5.89 1.71-4.599 0-7.068-3.078-2.166-2.698-2.166-7.106 0-5.358 2.812-8.284 2.469-2.508 6.498-2.508 3.078 0 5.396 1.52t3.306 4.256q.798 2.128.798 5.13 0 .38-.038.95m-5.434-3.458q-.38-4.408-4.066-4.408-3.459 0-3.952 4.408zm39.185-5.966h-5.32q-1.102-4.712-5.814-4.712-3.534 0-5.434 2.812-1.634 2.47-1.634 6.574 0 4.637 2.052 7.068 1.786 2.09 4.826 2.09 2.622 0 4.18-1.368 1.559-1.368 1.824-3.914h5.434q-.266 4.94-3.8 7.638-3.04 2.356-7.79 2.356-6.08 0-9.424-4.256-2.888-3.686-2.888-9.728 0-6.917 3.8-10.716 3.306-3.344 8.626-3.344 6.308 0 9.538 4.218 1.596 2.09 1.824 5.282m12.767-2.432q4.979 0 7.638 3.192 2.319 2.736 2.318 7.296 0 5.244-3.002 8.056-2.622 2.432-6.954 2.432-4.977 0-7.638-3.154-2.318-2.774-2.318-7.334 0-5.206 3.002-8.018 2.622-2.47 6.954-2.47m0 4.218q-2.127 0-3.42 1.748-1.292 1.71-1.292 4.522 0 3.04 1.444 4.788 1.293 1.482 3.268 1.482 2.129 0 3.42-1.71 1.33-1.747 1.33-4.56 0-3.002-1.482-4.75-1.291-1.52-3.268-1.52m13.819-3.8h5.206v2.432q2.319-2.85 5.51-2.85 3.915 0 5.472 2.964 2.28-2.964 5.89-2.964 3.04 0 4.712 1.672 1.71 1.634 1.71 4.56V613h-5.206v-13.49q0-2.622-2.85-2.622-1.671 0-2.622 1.064-.95 1.026-.95 2.888V613h-5.244v-13.49q0-2.622-2.812-2.622-1.671 0-2.622 1.064-.95 1.026-.95 2.888V613h-5.244zm33.324-7.068h5.244v9.348q1.863-2.698 5.51-2.698 4.067 0 6.422 3.268 2.09 2.888 2.09 7.22 0 4.94-2.698 7.904-2.355 2.584-5.814 2.584-3.686 0-5.51-2.66V613h-5.244zm9.614 11.02q-2.013 0-3.23 1.672-1.178 1.634-1.178 4.484 0 2.813 1.178 4.446 1.178 1.634 3.23 1.634 2.014 0 3.192-1.634 1.216-1.672 1.216-4.446 0-2.812-1.216-4.484-1.178-1.672-3.192-1.672m18.64-3.952V613h-5.244v-20.14zm-2.66-6.916q1.026 0 1.71.722.722.722.722 1.748t-.722 1.748q-.684.684-1.71.684t-1.748-.684a2.38 2.38 0 0 1-.722-1.748q0-1.026.722-1.748a2.38 2.38 0 0 1 1.748-.722m7.731 6.916h5.244v2.85q2.127-3.268 6.004-3.268 3.457 0 5.244 2.052 1.52 1.824 1.52 4.94V613h-5.206v-12.502q0-3.61-3.382-3.61-1.9 0-3.04 1.102-1.14 1.063-1.14 2.85V613h-5.244zm40.34 11.438h-13.528q.114 2.432.76 3.458 1.102 1.672 3.458 1.672 2.926 0 3.914-2.432h5.168q-.875 2.964-3.42 4.712-2.508 1.71-5.89 1.71-4.598 0-7.068-3.078-2.166-2.698-2.166-7.106 0-5.358 2.812-8.284 2.47-2.508 6.498-2.508 3.078 0 5.396 1.52t3.306 4.256q.798 2.128.798 5.13 0 .38-.038.95m-5.434-3.458q-.38-4.408-4.066-4.408-3.458 0-3.952 4.408zm27.154-15.048V613h-5.244v-2.242q-1.823 2.66-5.51 2.66-3.99 0-6.422-3.344-2.09-2.85-2.09-7.106 0-5.053 2.66-7.98 2.319-2.546 5.814-2.546 3.687 0 5.548 2.812v-9.462zm-9.614 10.944q-1.976 0-3.192 1.71-1.215 1.71-1.216 4.484 0 2.736 1.178 4.446 1.217 1.672 3.23 1.672t3.192-1.672q1.216-1.672 1.216-4.446 0-2.812-1.216-4.484-1.215-1.71-3.192-1.71m27.593 5.472V613h-5.586v-27.208h14.592q3.458 0 5.282 1.862 2.052 2.09 2.052 5.51 0 4.94-4.636 6.726 2.622 1.026 3.192 2.546.417 1.102.608 7.334.038 1.558 1.178 2.204V613h-6.004q-.837-1.558-.836-4.598 0-.76.038-1.862v-1.102q0-3.23-3.458-3.23zm0-4.674h6.764q2.127 0 2.964-.684 1.026-.874 1.026-2.888 0-1.938-1.026-2.774-.875-.722-2.964-.722h-6.764zm38.268 6.764h-13.528q.114 2.432.76 3.458 1.101 1.672 3.458 1.672 2.925 0 3.914-2.432h5.168q-.874 2.964-3.42 4.712-2.509 1.71-5.89 1.71-4.599 0-7.068-3.078-2.166-2.698-2.166-7.106 0-5.358 2.812-8.284 2.469-2.508 6.498-2.508 3.078 0 5.396 1.52t3.306 4.256q.798 2.128.798 5.13 0 .38-.038.95m-5.434-3.458q-.38-4.408-4.066-4.408-3.459 0-3.952 4.408zm14.348-7.98v2.888q1.824-3.306 5.586-3.306 1.786 0 3.496.874 1.749.874 2.774 2.28 2.166 3.002 2.166 7.486 0 4.826-2.698 7.79-2.318 2.546-5.738 2.546-3.723 0-5.586-2.85v10.564h-5.244V592.86zm4.37 3.952q-1.976 0-3.192 1.71-1.215 1.673-1.216 4.446 0 2.736 1.216 4.408t3.192 1.672 3.192-1.672 1.216-4.408q0-2.774-1.216-4.446-1.215-1.71-3.192-1.71m22.25-4.37q4.978 0 7.638 3.192 2.318 2.736 2.318 7.296 0 5.244-3.002 8.056-2.622 2.432-6.954 2.432-4.978 0-7.638-3.154-2.318-2.774-2.318-7.334 0-5.206 3.002-8.018 2.622-2.47 6.954-2.47m0 4.218q-2.129 0-3.42 1.748-1.292 1.71-1.292 4.522 0 3.04 1.444 4.788 1.292 1.482 3.268 1.482 2.129 0 3.42-1.71 1.33-1.747 1.33-4.56 0-3.002-1.482-4.75-1.292-1.52-3.268-1.52m13.819-3.8h5.244v3.838q.987-4.256 5.624-4.256h1.026l.038 5.168a10 10 0 0 0-1.976-.19q-2.585 0-3.572.95-1.14 1.064-1.14 3.838V613h-5.244zm24.048 0v3.458h-3.534v11.21q0 1.102.38 1.52.417.418 1.482.418.874 0 2.242-.684.114-.077.19-.114l.608 3.572a11.2 11.2 0 0 1-5.016 1.178q-5.13 0-5.13-4.712v-12.388h-2.584v-3.458h2.584v-3.344l5.244-3.002v6.346z"/><path fill="#fff" d="M530.03 859.688v1.728h-5.928v-1.728z"/><path fill="#000" d="M444.069 895.84h-6.624l-1.824 5.16h-2.328l6.12-17.184h2.832L448.269 901h-2.424zm-.624-1.848-2.64-7.8-2.808 7.8zm7.039 7.008v-17.184h6.984q2.4 0 3.72 1.2 1.368 1.248 1.368 3.168 0 2.64-2.4 3.744 3.144 1.2 3.144 4.176 0 2.064-1.32 3.456-1.368 1.44-3.768 1.44zm2.184-9.792h4.248q1.68 0 2.496-.6.936-.696.936-2.112t-.936-2.136q-.816-.6-2.496-.6h-4.248zm0 7.848h5.352q1.464 0 2.28-.768.816-.792.816-2.184t-.816-2.16q-.816-.792-2.28-.792h-5.352zm20.022-13.296V901h-2.184v-15.24h-5.664v-1.944h13.464v1.944zm23.045 13.584v1.584q-.816.288-1.272.288-1.92 0-2.088-1.752-1.32 1.8-4.2 1.8-1.992 0-3.096-1.104-.96-.96-.96-2.472 0-1.728 1.224-2.664.696-.528 2.904-1.032l4.032-.912.024-1.032q0-1.848-2.784-1.848-2.664 0-2.856 2.16h-1.992q.072-1.632.816-2.496 1.272-1.464 4.128-1.464 4.632 0 4.632 3.36v6.888q0 .912.792.912.096 0 .504-.144.144-.048.192-.072m-3.432-4.656-3.168.816q-1.704.432-2.352.888-.624.456-.624 1.272 0 1.896 2.448 1.896 1.728 0 2.928-1.128.768-.696.768-1.584zm14.35-2.64h-2.16q-.096-1.848-2.472-1.848-1.224 0-1.944.48-.696.456-.696 1.248 0 1.2 2.28 1.728l1.896.432q1.848.432 2.664 1.224t.816 2.16q0 1.752-1.368 2.784-1.368 1.008-3.696 1.008-2.544 0-3.864-1.2-1.104-.984-1.176-2.616h2.232q.192.84.528 1.224.648.768 2.424.768 1.32 0 2.088-.48.792-.504.792-1.32 0-1.224-1.896-1.68l-1.848-.432q-2.112-.504-2.952-1.2-.96-.792-.96-2.28 0-1.68 1.272-2.664 1.296-.984 3.456-.984 2.256 0 3.504 1.128 1.08.984 1.08 2.52m11.789 0h-2.16q-.096-1.848-2.472-1.848-1.224 0-1.944.48-.696.456-.696 1.248 0 1.2 2.28 1.728l1.896.432q1.848.432 2.664 1.224t.816 2.16q0 1.752-1.368 2.784-1.368 1.008-3.696 1.008-2.544 0-3.864-1.2-1.104-.984-1.176-2.616h2.232q.192.84.528 1.224.648.768 2.424.768 1.32 0 2.088-.48.792-.504.792-1.32 0-1.224-1.896-1.68l-1.848-.432q-2.112-.504-2.952-1.2-.96-.792-.96-2.28 0-1.68 1.272-2.664 1.296-.984 3.456-.984 2.256 0 3.504 1.128 1.08.984 1.08 2.52m13.445 3.36h-9.096q.024 1.584.672 2.52 1.032 1.512 2.976 1.512 2.4 0 3.24-2.28h1.968q-.384 1.944-1.776 3.024t-3.504 1.08q-2.808 0-4.296-1.92-1.32-1.68-1.32-4.44 0-3.192 1.728-4.968 1.512-1.536 3.912-1.536 1.752 0 3.072.84a4.67 4.67 0 0 1 1.92 2.304q.504 1.248.504 3.792zm-2.112-1.608q0-1.608-.96-2.592-.936-1.008-2.424-1.008-1.512 0-2.472.984-.936.96-1.056 2.616zm13.558-1.752h-2.16q-.096-1.848-2.472-1.848-1.224 0-1.944.48-.696.456-.696 1.248 0 1.2 2.28 1.728l1.896.432q1.848.432 2.664 1.224t.816 2.16q0 1.752-1.368 2.784-1.368 1.008-3.696 1.008-2.544 0-3.864-1.2-1.104-.984-1.176-2.616h2.232q.192.84.528 1.224.648.768 2.424.768 1.32 0 2.088-.48.792-.504.792-1.32 0-1.224-1.896-1.68l-1.848-.432q-2.112-.504-2.952-1.2-.96-.792-.96-2.28 0-1.68 1.272-2.664 1.296-.984 3.456-.984 2.256 0 3.504 1.128 1.08.984 1.08 2.52m11.789 0h-2.16q-.096-1.848-2.472-1.848-1.224 0-1.944.48-.696.456-.696 1.248 0 1.2 2.28 1.728l1.896.432q1.848.432 2.664 1.224t.816 2.16q0 1.752-1.368 2.784-1.368 1.008-3.696 1.008-2.544 0-3.864-1.2-1.104-.984-1.176-2.616h2.232q.192.84.528 1.224.648.768 2.424.768 1.32 0 2.088-.48.792-.504.792-1.32 0-1.224-1.896-1.68l-1.848-.432q-2.112-.504-2.952-1.2-.96-.792-.96-2.28 0-1.68 1.272-2.664 1.296-.984 3.456-.984 2.256 0 3.504 1.128 1.08.984 1.08 2.52m3.029-3.384h1.824v1.776q1.44-2.04 3.792-2.04 2.28 0 3.312 1.824.888-1.032 1.704-1.416.84-.408 2.064-.408 3.6 0 3.6 3.384V901h-1.968v-8.448q0-2.448-2.304-2.448-1.2 0-2.04.936t-.84 2.232V901h-1.968v-8.448q0-2.448-2.28-2.448-1.224 0-2.088.936-.84.912-.84 2.232V901h-1.968zm30.056 6.744h-9.096q.024 1.584.672 2.52 1.032 1.512 2.976 1.512 2.4 0 3.24-2.28h1.968q-.384 1.944-1.776 3.024t-3.504 1.08q-2.808 0-4.296-1.92-1.32-1.68-1.32-4.44 0-3.192 1.728-4.968 1.512-1.536 3.912-1.536 1.752 0 3.072.84a4.67 4.67 0 0 1 1.92 2.304q.504 1.248.504 3.792zm-2.112-1.608q0-1.608-.96-2.592-.936-1.008-2.424-1.008-1.512 0-2.472.984-.936.96-1.056 2.616zm4.798-5.136h1.824v2.088q1.488-2.352 4.08-2.352 1.8 0 2.856.912 1.056.888 1.056 2.4V901h-1.944v-8.496q0-1.104-.696-1.752-.672-.648-1.848-.648-1.536 0-2.448 1.128t-.912 3V901h-1.968zm17.925 0v1.584h-2.52v8.208q0 .432.288.744.312.288.792.288.456 0 1.392-.216l.216 1.728q-1.488.264-2.256.264-2.376 0-2.376-1.944v-9.072h-1.68v-1.584h1.68v-2.52l1.944-.888v3.408zm11.061 3.384h-2.16q-.096-1.848-2.472-1.848-1.224 0-1.944.48-.696.456-.696 1.248 0 1.2 2.28 1.728l1.896.432q1.848.432 2.664 1.224t.816 2.16q0 1.752-1.368 2.784-1.368 1.008-3.696 1.008-2.544 0-3.864-1.2-1.104-.984-1.176-2.616h2.232q.192.84.528 1.224.648.768 2.424.768 1.32 0 2.088-.48.792-.504.792-1.32 0-1.224-1.896-1.68l-1.848-.432q-2.112-.504-2.952-1.2-.96-.792-.96-2.28 0-1.68 1.272-2.664 1.296-.984 3.456-.984 2.256 0 3.504 1.128 1.08.984 1.08 2.52M397.976 936h-2.232l-2.52-9.696-2.376 9.696h-2.208l-3.576-12.336h2.16l2.544 9.6 2.352-9.6h2.4l2.424 9.6 2.448-9.6h2.208zm17.016 0h-2.232l-2.52-9.696-2.376 9.696h-2.208l-3.576-12.336h2.16l2.544 9.6 2.352-9.6h2.4l2.424 9.6 2.448-9.6h2.208zm17.016 0h-2.232l-2.52-9.696L424.88 936h-2.208l-3.576-12.336h2.16l2.544 9.6 2.352-9.6h2.4l2.424 9.6 2.448-9.6h2.208zm6.359-2.232q.504 0 .84.336t.336.84q0 .48-.336.84a1.14 1.14 0 0 1-.84.336q-.48 0-.84-.336a1.2 1.2 0 0 1-.336-.84q0-.504.336-.84.36-.336.84-.336m14.982.576v1.584q-.816.288-1.272.288-1.92 0-2.088-1.752-1.32 1.8-4.2 1.8-1.992 0-3.096-1.104-.96-.96-.96-2.472 0-1.728 1.224-2.664.696-.528 2.904-1.032l4.032-.912.024-1.032q0-1.848-2.784-1.848-2.664 0-2.856 2.16h-1.992q.072-1.632.816-2.496 1.272-1.464 4.128-1.464 4.632 0 4.632 3.36v6.888q0 .912.792.912.096 0 .504-.144.144-.048.192-.072m-3.432-4.656-3.168.816q-1.704.432-2.352.888-.624.456-.624 1.272 0 1.896 2.448 1.896 1.728 0 2.928-1.128.768-.696.768-1.584zm5.205-10.872h1.944v6.504q1.368-1.92 3.84-1.92 2.616 0 4.032 1.92 1.248 1.68 1.248 4.44 0 3.192-1.656 4.968-1.44 1.536-3.72 1.536-2.568 0-3.912-1.944V936h-1.776zm5.424 6.408q-1.584 0-2.544 1.296-.936 1.272-.936 3.384 0 2.208 1.08 3.456.936 1.056 2.4 1.056 1.632 0 2.592-1.224.984-1.224.984-3.288 0-2.256-1.104-3.552-.96-1.128-2.472-1.128m12.886-1.56v1.584h-2.52v8.208q0 .432.288.744.312.288.792.288.456 0 1.392-.216L473.6 936q-1.488.264-2.256.264-2.376 0-2.376-1.944v-9.072h-1.68v-1.584h1.68v-2.52l1.944-.888v3.408zm7.461 6.024v1.728h-5.928v-1.728zm13.495 4.656v1.584q-.816.288-1.272.288-1.92 0-2.088-1.752-1.32 1.8-4.2 1.8-1.992 0-3.096-1.104-.96-.96-.96-2.472 0-1.728 1.224-2.664.696-.528 2.904-1.032l4.032-.912.024-1.032q0-1.848-2.784-1.848-2.664 0-2.856 2.16h-1.992q.072-1.632.816-2.496 1.272-1.464 4.128-1.464 4.632 0 4.632 3.36v6.888q0 .912.792.912.096 0 .504-.144.144-.048.192-.072m-3.432-4.656-3.168.816q-1.704.432-2.352.888-.624.456-.624 1.272 0 1.896 2.448 1.896 1.728 0 2.928-1.128.768-.696.768-1.584zm14.349-2.64h-2.16q-.096-1.848-2.472-1.848-1.224 0-1.944.48-.696.456-.696 1.248 0 1.2 2.28 1.728l1.896.432q1.848.432 2.664 1.224t.816 2.16q0 1.752-1.368 2.784-1.368 1.008-3.696 1.008-2.544 0-3.864-1.2-1.104-.984-1.176-2.616h2.232q.192.84.528 1.224.648.768 2.424.768 1.32 0 2.088-.48.792-.504.792-1.32 0-1.224-1.896-1.68l-1.848-.432q-2.112-.504-2.952-1.2-.96-.792-.96-2.28 0-1.68 1.272-2.664 1.296-.984 3.456-.984 2.256 0 3.504 1.128 1.08.984 1.08 2.52m11.789 0h-2.16q-.096-1.848-2.472-1.848-1.224 0-1.944.48-.696.456-.696 1.248 0 1.2 2.28 1.728l1.896.432q1.848.432 2.664 1.224t.816 2.16q0 1.752-1.368 2.784-1.368 1.008-3.696 1.008-2.544 0-3.864-1.2-1.104-.984-1.176-2.616h2.232q.192.84.528 1.224.648.768 2.424.768 1.32 0 2.088-.48.792-.504.792-1.32 0-1.224-1.896-1.68l-1.848-.432q-2.112-.504-2.952-1.2-.96-.792-.96-2.28 0-1.68 1.272-2.664 1.296-.984 3.456-.984 2.256 0 3.504 1.128 1.08.984 1.08 2.52m13.445 3.36h-9.096q.024 1.584.672 2.52 1.032 1.512 2.976 1.512 2.4 0 3.24-2.28h1.968q-.384 1.944-1.776 3.024t-3.504 1.08q-2.808 0-4.296-1.92-1.32-1.68-1.32-4.44 0-3.192 1.728-4.968 1.512-1.536 3.912-1.536 1.752 0 3.072.84a4.67 4.67 0 0 1 1.92 2.304q.504 1.248.504 3.792zm-2.112-1.608q0-1.608-.96-2.592-.936-1.008-2.424-1.008-1.512 0-2.472.984-.936.96-1.056 2.616zm13.558-1.752h-2.16q-.096-1.848-2.472-1.848-1.224 0-1.944.48-.696.456-.696 1.248 0 1.2 2.28 1.728l1.896.432q1.848.432 2.664 1.224t.816 2.16q0 1.752-1.368 2.784-1.368 1.008-3.696 1.008-2.544 0-3.864-1.2-1.104-.984-1.176-2.616h2.232q.192.84.528 1.224.648.768 2.424.768 1.32 0 2.088-.48.792-.504.792-1.32 0-1.224-1.896-1.68l-1.848-.432q-2.112-.504-2.952-1.2-.96-.792-.96-2.28 0-1.68 1.272-2.664 1.296-.984 3.456-.984 2.256 0 3.504 1.128 1.08.984 1.08 2.52m11.789 0h-2.16q-.096-1.848-2.472-1.848-1.224 0-1.944.48-.696.456-.696 1.248 0 1.2 2.28 1.728l1.896.432q1.848.432 2.664 1.224t.816 2.16q0 1.752-1.368 2.784-1.368 1.008-3.696 1.008-2.544 0-3.864-1.2-1.104-.984-1.176-2.616h2.232q.192.84.528 1.224.648.768 2.424.768 1.32 0 2.088-.48.792-.504.792-1.32 0-1.224-1.896-1.68l-1.848-.432q-2.112-.504-2.952-1.2-.96-.792-.96-2.28 0-1.68 1.272-2.664 1.296-.984 3.456-.984 2.256 0 3.504 1.128 1.08.984 1.08 2.52m3.029-3.384h1.824v1.776q1.44-2.04 3.792-2.04 2.28 0 3.312 1.824.888-1.032 1.704-1.416.84-.408 2.064-.408 3.6 0 3.6 3.384V936h-1.968v-8.448q0-2.448-2.304-2.448-1.2 0-2.04.936t-.84 2.232V936h-1.968v-8.448q0-2.448-2.28-2.448-1.224 0-2.088.936-.84.912-.84 2.232V936h-1.968zm30.057 6.744h-9.096q.024 1.584.672 2.52 1.032 1.512 2.976 1.512 2.4 0 3.24-2.28h1.968q-.384 1.944-1.776 3.024t-3.504 1.08q-2.808 0-4.296-1.92-1.32-1.68-1.32-4.44 0-3.192 1.728-4.968 1.512-1.536 3.912-1.536 1.752 0 3.072.84a4.67 4.67 0 0 1 1.92 2.304q.504 1.248.504 3.792zm-2.112-1.608q0-1.608-.96-2.592-.936-1.008-2.424-1.008-1.512 0-2.472.984-.936.96-1.056 2.616zm4.797-5.136h1.824v2.088q1.488-2.352 4.08-2.352 1.8 0 2.856.912 1.056.888 1.056 2.4V936h-1.944v-8.496q0-1.104-.696-1.752-.672-.648-1.848-.648-1.536 0-2.448 1.128t-.912 3V936h-1.968zm17.926 0v1.584h-2.52v8.208q0 .432.288.744.312.288.792.288.456 0 1.392-.216l.216 1.728q-1.488.264-2.256.264-2.376 0-2.376-1.944v-9.072h-1.68v-1.584h1.68v-2.52l1.944-.888v3.408zm11.061 3.384h-2.16q-.096-1.848-2.472-1.848-1.224 0-1.944.48-.696.456-.696 1.248 0 1.2 2.28 1.728l1.896.432q1.848.432 2.664 1.224t.816 2.16q0 1.752-1.368 2.784-1.368 1.008-3.696 1.008-2.544 0-3.864-1.2-1.104-.984-1.176-2.616h2.232q.192.84.528 1.224.648.768 2.424.768 1.32 0 2.088-.48.792-.504.792-1.32 0-1.224-1.896-1.68l-1.848-.432q-2.112-.504-2.952-1.2-.96-.792-.96-2.28 0-1.68 1.272-2.664 1.296-.984 3.456-.984 2.256 0 3.504 1.128 1.08.984 1.08 2.52m3.773 6.72q.504 0 .84.336t.336.84q0 .48-.336.84a1.14 1.14 0 0 1-.84.336q-.48 0-.84-.336a1.2 1.2 0 0 1-.336-.84q0-.504.336-.84.36-.336.84-.336m13.469-5.976h-1.968q-.36-2.592-2.928-2.592-1.608 0-2.52 1.272t-.912 3.528q0 2.232 1.08 3.408.912 1.032 2.448 1.032 2.472 0 2.952-2.688h1.992q-.192 2.304-1.656 3.48-1.272 1.032-3.336 1.032-2.712 0-4.224-1.92-1.296-1.656-1.296-4.344 0-3.216 1.704-5.04 1.464-1.56 3.792-1.56 2.688 0 4.032 1.8.696.936.84 2.592m7.181-4.392q2.784 0 4.248 1.944 1.296 1.68 1.296 4.56 0 3.216-1.68 4.896-1.44 1.464-3.888 1.464-2.832 0-4.32-1.896-1.296-1.656-1.296-4.464 0-3.264 1.704-5.016 1.464-1.488 3.936-1.488m0 1.8q-1.68 0-2.64 1.272-.96 1.248-.96 3.432 0 2.28 1.08 3.48.936 1.056 2.496 1.056 1.656 0 2.568-1.2.936-1.2.936-3.336 0-2.352-1.056-3.6-.912-1.104-2.424-1.104m8.278-1.536h1.824v1.776q1.44-2.04 3.792-2.04 2.28 0 3.312 1.824.888-1.032 1.704-1.416.84-.408 2.064-.408 3.6 0 3.6 3.384V936h-1.968v-8.448q0-2.448-2.304-2.448-1.2 0-2.04.936t-.84 2.232V936h-1.968v-8.448q0-2.448-2.28-2.448-1.224 0-2.088.936-.84.912-.84 2.232V936h-1.968zM533.999 1027.64c-.75 0-1.388-.2-1.915-.61s-.929-1.01-1.208-1.79-.417-1.72-.417-2.83q0-1.65.417-2.82c.282-.78.686-1.38 1.213-1.79.531-.41 1.167-.62 1.91-.62s1.377.21 1.904.62c.53.41.934 1.01 1.213 1.79q.422 1.17.422 2.82c0 1.11-.139 2.05-.417 2.83-.279.78-.681 1.38-1.208 1.79s-1.165.61-1.914.61m0-1.09q1.113 0 1.73-1.08c.411-.71.616-1.74.616-3.06q0-1.32-.283-2.25c-.186-.62-.454-1.1-.806-1.42a1.8 1.8 0 0 0-1.257-.49c-.736 0-1.311.37-1.726 1.09-.414.72-.621 1.75-.621 3.07q0 1.32.278 2.25c.186.61.453 1.08.801 1.4.351.32.774.49 1.268.49m8.75 1.09c-.75 0-1.388-.2-1.915-.61s-.929-1.01-1.208-1.79-.417-1.72-.417-2.83q0-1.65.417-2.82c.282-.78.686-1.38 1.213-1.79.531-.41 1.167-.62 1.91-.62s1.377.21 1.904.62c.53.41.934 1.01 1.213 1.79q.422 1.17.422 2.82c0 1.11-.139 2.05-.417 2.83-.279.78-.681 1.38-1.208 1.79s-1.165.61-1.914.61m0-1.09q1.113 0 1.73-1.08c.411-.71.616-1.74.616-3.06q0-1.32-.283-2.25c-.186-.62-.454-1.1-.806-1.42a1.8 1.8 0 0 0-1.257-.49c-.736 0-1.311.37-1.726 1.09-.414.72-.621 1.75-.621 3.07q0 1.32.278 2.25c.186.61.453 1.08.801 1.4.351.32.774.49 1.268.49m8.67-9.37q.627 0 1.253.24c.417.15.799.41 1.143.77q.517.54.831 1.47c.208.62.313 1.4.313 2.33 0 .91-.086 1.71-.259 2.41q-.253 1.05-.736 1.77c-.318.48-.706.85-1.163 1.1-.454.24-.968.37-1.541.37-.57 0-1.079-.11-1.526-.34a2.95 2.95 0 0 1-1.094-.95 3.3 3.3 0 0 1-.542-1.42h1.213c.109.47.327.86.651 1.16.328.3.761.46 1.298.46.785 0 1.405-.35 1.859-1.03q.687-1.035.686-2.91h-.079q-.279.42-.661.72c-.256.2-.539.36-.851.47a3 3 0 0 1-.994.16 3.1 3.1 0 0 1-1.606-.43 3.25 3.25 0 0 1-1.163-1.2c-.288-.51-.433-1.09-.433-1.75q0-.93.418-1.71a3.17 3.17 0 0 1 1.183-1.24q.766-.465 1.8-.45m0 1.09c-.418 0-.794.11-1.129.32-.331.2-.594.48-.79.83-.192.35-.288.74-.288 1.16s.092.81.278 1.16c.189.34.446.62.771.82.328.21.701.31 1.118.31.315 0 .608-.06.88-.19q.408-.18.711-.51c.206-.22.366-.47.482-.74q.174-.42.174-.87c0-.4-.096-.77-.288-1.12a2.2 2.2 0 0 0-.785-.84q-.498-.33-1.134-.33m5.54 9.23 4.554-9.01v-.08h-5.25v-1.09h6.522v1.15l-4.534 9.03zm11.259-10.18v10.18h-1.233v-8.89h-.06l-2.485 1.65v-1.25l2.545-1.69zm6.11 10.32c-.583 0-1.109-.12-1.576-.35a2.93 2.93 0 0 1-1.123-.95 2.64 2.64 0 0 1-.463-1.39h1.193c.047.47.256.85.627 1.15q.562.45 1.342.45.627 0 1.114-.3c.328-.19.585-.46.77-.8q.284-.525.284-1.17c0-.45-.098-.84-.294-1.19a2.14 2.14 0 0 0-.795-.83c-.338-.2-.724-.3-1.158-.31q-.468 0-.96.15a2.6 2.6 0 0 0-.81.37l-1.154-.14.617-5.01h5.289v1.09h-4.255l-.358 3h.06a2.96 2.96 0 0 1 1.769-.57q.936 0 1.666.45c.49.29.875.69 1.153 1.21.282.51.423 1.1.423 1.76q0 .975-.438 1.74-.432.765-1.193 1.2c-.507.29-1.084.44-1.73.44m8.657 0c-.749 0-1.387-.2-1.914-.61s-.93-1.01-1.208-1.79c-.279-.78-.418-1.72-.418-2.83q0-1.65.418-2.82c.281-.78.686-1.38 1.213-1.79.53-.41 1.166-.62 1.909-.62.742 0 1.377.21 1.904.62.53.41.935 1.01 1.213 1.79q.423 1.17.423 2.82c0 1.11-.14 2.05-.418 2.83s-.681 1.38-1.208 1.79-1.165.61-1.914.61m0-1.09q1.113 0 1.73-1.08c.411-.71.616-1.74.616-3.06q0-1.32-.283-2.25c-.186-.62-.454-1.1-.805-1.42a1.8 1.8 0 0 0-1.258-.49c-.736 0-1.311.37-1.725 1.09s-.622 1.75-.622 3.07q0 1.32.279 2.25c.185.61.452 1.08.8 1.4.351.32.774.49 1.268.49m8.869 1.09c-.656 0-1.241-.11-1.755-.34-.51-.22-.916-.54-1.218-.94q-.448-.6-.487-1.41h1.253c.026.33.139.62.338.85.199.24.459.42.78.55.322.13.678.2 1.069.2.438 0 .826-.08 1.164-.23.338-.16.603-.37.795-.64s.288-.59.288-.94q0-.57-.278-.99a1.83 1.83 0 0 0-.815-.68q-.537-.24-1.313-.24h-.815v-1.1h.815c.405 0 .759-.07 1.064-.22.308-.14.549-.35.721-.61.176-.27.263-.58.263-.94q0-.51-.228-.9a1.57 1.57 0 0 0-.647-.59c-.275-.15-.599-.22-.974-.22-.351 0-.683.07-.994.2-.308.12-.56.31-.756.55s-.302.53-.318.86h-1.193c.02-.53.18-1 .482-1.4s.696-.72 1.183-.94a3.76 3.76 0 0 1 1.616-.34c.63 0 1.17.13 1.621.38.45.25.797.59 1.039 1 .242.42.363.86.363 1.34q0 .87-.453 1.47-.447.6-1.218.84v.08c.643.11 1.145.38 1.507.82s.542.98.542 1.63c0 .55-.151 1.05-.453 1.49-.298.43-.706.78-1.223 1.03s-1.105.38-1.765.38m8.735 0q-1.024 0-1.809-.36a3.05 3.05 0 0 1-1.218-1.01 2.53 2.53 0 0 1-.433-1.47 2.7 2.7 0 0 1 .254-1.2c.172-.37.407-.67.706-.92.301-.25.638-.4 1.009-.47v-.06a2 2 0 0 1-1.164-.82c-.288-.42-.43-.91-.427-1.45a2.43 2.43 0 0 1 .393-1.38c.265-.41.629-.73 1.093-.97.468-.23 1-.35 1.596-.35.59 0 1.117.12 1.581.35.464.24.829.56 1.094.97.268.4.404.87.408 1.38a2.53 2.53 0 0 1-.443 1.45c-.288.42-.671.69-1.148.82v.06c.368.07.699.22.994.47s.53.55.706.92.265.76.268 1.2a2.56 2.56 0 0 1-.447 1.47c-.292.42-.698.76-1.218 1.01q-.775.36-1.795.36m0-1.09c.461 0 .859-.08 1.193-.23q.503-.225.776-.63c.182-.27.275-.59.278-.95a1.8 1.8 0 0 0-.298-1.02c-.195-.3-.462-.53-.8-.7-.335-.17-.718-.25-1.149-.25-.434 0-.822.08-1.163.25-.338.17-.605.4-.801.7q-.288.435-.283 1.02c-.003.36.085.68.264.95q.273.405.78.63c.338.15.739.23 1.203.23m0-4.84c.365 0 .688-.07.97-.22.285-.14.508-.35.671-.61.162-.26.245-.57.248-.92a1.7 1.7 0 0 0-.243-.9c-.159-.26-.38-.45-.661-.59-.282-.15-.61-.22-.985-.22-.381 0-.714.07-.999.22-.285.14-.505.33-.661.59q-.234.39-.229.9c-.003.35.075.66.234.92.162.26.386.47.671.61.285.15.613.22.984.22m5.127 3.7v-1.01l4.475-7.08h.735v1.57h-.497l-3.38 5.35v.08h6.025v1.09zm4.793 2.09v-10.18h1.173v10.18zm4.428 0v-.89l3.361-3.68c.394-.43.719-.81.975-1.13q.383-.48.566-.9.189-.435.189-.9 0-.54-.258-.93a1.66 1.66 0 0 0-.696-.6 2.16 2.16 0 0 0-.995-.22c-.391 0-.732.08-1.024.25a1.67 1.67 0 0 0-.671.67c-.156.29-.234.62-.234 1.01h-1.173c0-.59.138-1.12.413-1.57q.412-.675 1.123-1.05c.478-.26 1.013-.38 1.606-.38.597 0 1.125.12 1.586.38q.691.375 1.084 1.02c.262.42.393.9.393 1.42 0 .38-.068.74-.204 1.1-.133.36-.365.75-.696 1.19q-.492.645-1.367 1.59l-2.287 2.45v.08h4.733v1.09zm11.858.14a4 4 0 0 1-1.253-.24 3 3 0 0 1-1.144-.77c-.344-.36-.621-.86-.83-1.48q-.313-.93-.313-2.34 0-1.35.253-2.4c.169-.7.415-1.29.736-1.76.322-.48.709-.85 1.163-1.1.458-.25.973-.37 1.547-.37.57 0 1.077.11 1.521.34.447.23.812.54 1.094.95.281.4.464.87.547 1.39h-1.214a2.24 2.24 0 0 0-.656-1.13c-.325-.31-.755-.46-1.292-.46-.789 0-1.411.35-1.865 1.03-.45.69-.678 1.65-.681 2.89h.08a3.03 3.03 0 0 1 1.516-1.19c.312-.11.641-.16.989-.16.584 0 1.117.14 1.601.44.484.28.872.68 1.164 1.19s.437 1.09.437 1.75c0 .63-.141 1.21-.422 1.73s-.678.93-1.189 1.24q-.76.465-1.789.45m0-1.09c.417 0 .792-.11 1.123-.32q.502-.315.791-.84.293-.525.293-1.17c0-.42-.095-.8-.283-1.15a2.2 2.2 0 0 0-.771-.83 2 2 0 0 0-1.114-.31c-.315 0-.608.06-.88.19q-.407.18-.716.51c-.202.21-.361.46-.477.74a2.2 2.2 0 0 0-.174.87 2.35 2.35 0 0 0 1.069 1.98q.502.33 1.139.33m8.736 1.09a4 4 0 0 1-1.253-.24 3 3 0 0 1-1.143-.77c-.345-.36-.622-.86-.831-1.48q-.313-.93-.313-2.34 0-1.35.254-2.4c.169-.7.414-1.29.735-1.76.322-.48.71-.85 1.164-1.1.457-.25.973-.37 1.546-.37.57 0 1.077.11 1.521.34.448.23.812.54 1.094.95.282.4.464.87.547 1.39h-1.213a2.26 2.26 0 0 0-.656-1.13c-.325-.31-.756-.46-1.293-.46-.789 0-1.41.35-1.864 1.03-.451.69-.678 1.65-.682 2.89h.08q.279-.42.661-.72c.259-.2.544-.36.855-.47.312-.11.642-.16.99-.16.583 0 1.117.14 1.601.44.483.28.871.68 1.163 1.19s.437 1.09.437 1.75c0 .63-.14 1.21-.422 1.73a3.23 3.23 0 0 1-1.188 1.24q-.76.465-1.79.45m0-1.09c.417 0 .792-.11 1.123-.32q.503-.315.791-.84.293-.525.293-1.17c0-.42-.094-.8-.283-1.15a2.2 2.2 0 0 0-.771-.83 2 2 0 0 0-1.113-.31c-.315 0-.609.06-.88.19q-.408.18-.716.51c-.202.21-.362.46-.478.74a2.2 2.2 0 0 0-.174.87 2.35 2.35 0 0 0 1.069 1.98q.503.33 1.139.33m8.736 1.09a4 4 0 0 1-1.253-.24 3 3 0 0 1-1.143-.77c-.345-.36-.622-.86-.83-1.48q-.314-.93-.314-2.34 0-1.35.254-2.4c.169-.7.414-1.29.736-1.76.321-.48.709-.85 1.163-1.1.457-.25.973-.37 1.546-.37.57 0 1.077.11 1.522.34.447.23.812.54 1.093.95.282.4.464.87.547 1.39h-1.213a2.25 2.25 0 0 0-.656-1.13c-.325-.31-.756-.46-1.293-.46-.789 0-1.41.35-1.864 1.03-.451.69-.678 1.65-.681 2.89h.079a3.04 3.04 0 0 1 1.517-1.19c.311-.11.641-.16.989-.16.583 0 1.117.14 1.601.44.484.28.872.68 1.163 1.19s.438 1.09.438 1.75c0 .63-.141 1.21-.423 1.73a3.23 3.23 0 0 1-1.188 1.24q-.76.465-1.79.45m0-1.09c.418 0 .792-.11 1.124-.32q.502-.315.79-.84.294-.525.294-1.17c0-.42-.095-.8-.284-1.15a2.2 2.2 0 0 0-.77-.83 2 2 0 0 0-1.114-.31c-.315 0-.608.06-.88.19q-.407.18-.716.51c-.202.21-.361.46-.477.74a2.35 2.35 0 0 0 .895 2.85q.501.33 1.138.33"/><path fill="#EC2028" d="M672.569 1034c6.627 0 12-5.37 12-12s-5.373-12-12-12c-6.628 0-12 5.37-12 12s5.372 12 12 12"/><path fill="#fff" fill-rule="evenodd" d="M668.798 1029c-.065 0-.131 0-.194-.02a.6.6 0 0 1-.171-.09.45.45 0 0 1-.152-.22l-.687-2.01a.5.5 0 0 1-.017-.24.5.5 0 0 1 .107-.22.7.7 0 0 1 .146-.11l2.225-1.15a.53.53 0 0 1 .557.06l.036.03 1.134 1.11a7.43 7.43 0 0 0 3.339-3.82l-1.343-.87-.04-.03a.47.47 0 0 1-.16-.23.47.47 0 0 1 .004-.28l.789-2.31a.4.4 0 0 1 .09-.15.53.53 0 0 1 .451-.17l2.191.29c.112.02.215.07.293.15.077.07.125.18.135.28a8.9 8.9 0 0 1-.404 3.58 9.05 9.05 0 0 1-1.801 3.15 9.55 9.55 0 0 1-2.925 2.26c-1.12.56-2.345.9-3.603 1.01m4.32-11.42c.05-.02.102-.02.155-.02.052.01.102.03.147.05.044.03.082.06.11.11.028.04.046.09.052.14l.027.23c.008.07-.01.14-.049.2a.33.33 0 0 1-.17.14.9.9 0 0 0-.361.26.87.87 0 0 0-.196.38.36.36 0 0 1-.112.19.5.5 0 0 1-.206.08l-.239.01a.27.27 0 0 1-.154-.02.35.35 0 0 1-.128-.09.333.333 0 0 1-.086-.28c.054-.31.195-.6.408-.85.213-.24.49-.42.802-.53m-.345-3.57a.34.34 0 0 1 .142 0q.07.015.128.06c.038.02.07.06.094.1a.3.3 0 0 1 .044.13l.027.22c.01.08-.014.17-.067.24a.35.35 0 0 1-.219.12 4.72 4.72 0 0 0-2.735 1.53 4.32 4.32 0 0 0-1.081 2.84.332.332 0 0 1-.325.33l-.232.02c-.047 0-.095 0-.14-.02a.355.355 0 0 1-.204-.18.3.3 0 0 1-.03-.13 5.17 5.17 0 0 1 1.297-3.43 5.55 5.55 0 0 1 3.301-1.83m.186 1.77a.4.4 0 0 1 .145 0c.048.01.093.03.133.05.04.03.073.07.098.11.024.04.04.08.045.13l.027.22a.32.32 0 0 1-.062.23.3.3 0 0 1-.207.13 2.83 2.83 0 0 0-1.529.9 2.6 2.6 0 0 0-.646 1.6.3.3 0 0 1-.1.21c-.06.06-.14.1-.225.1l-.232.02a.7.7 0 0 1-.144-.02.3.3 0 0 1-.124-.08.3.3 0 0 1-.081-.11.4.4 0 0 1-.026-.14c.03-.79.333-1.55.864-2.16.53-.6 1.256-1.02 2.064-1.19" clip-rule="evenodd"/><path fill="#000" d="m444.204 1053.57-1.054.3a2.1 2.1 0 0 0-.293-.51 1.4 1.4 0 0 0-.517-.42c-.219-.11-.499-.16-.84-.16-.468 0-.857.11-1.169.32q-.462.315-.462.81 0 .435.318.69c.212.17.544.31.994.43l1.134.27c.683.17 1.191.42 1.526.76s.502.78.502 1.31c0 .44-.126.83-.377 1.18q-.373.51-1.045.81-.67.3-1.561.3-1.167 0-1.934-.51c-.51-.34-.833-.83-.969-1.48l1.114-.28q.159.615.601.93.447.3 1.169.3c.546 0 .981-.11 1.302-.34.325-.24.487-.52.487-.85a.87.87 0 0 0-.278-.66c-.186-.19-.471-.32-.855-.41l-1.273-.3c-.699-.17-1.213-.42-1.541-.77q-.487-.525-.487-1.32 0-.645.363-1.14.368-.495.999-.78c.424-.19.905-.29 1.442-.29.755 0 1.349.17 1.779.5.435.33.743.77.925 1.31m6.718 2.81v-4.52h1.173v7.64h-1.173v-1.29h-.08c-.179.39-.457.71-.835.99-.378.27-.855.4-1.432.4-.477 0-.901-.1-1.272-.31a2.2 2.2 0 0 1-.875-.96c-.212-.43-.318-.96-.318-1.61v-4.86h1.173v4.78c0 .55.156 1 .467 1.33.315.33.716.5 1.203.5.292 0 .589-.08.89-.23.305-.15.56-.38.766-.68.209-.31.313-.7.313-1.18m3.322 5.98v-10.5h1.134v1.22h.139c.086-.14.205-.3.358-.51.156-.21.378-.39.666-.56.292-.16.686-.25 1.183-.25.643 0 1.21.16 1.701.49.49.32.873.77 1.148 1.36s.413 1.29.413 2.09q0 1.215-.413 2.1t-1.143 1.38q-.731.48-1.686.48-.735 0-1.178-.24a2.2 2.2 0 0 1-.681-.57 7 7 0 0 1-.368-.52h-.099v4.03zm1.154-6.68q0 .87.253 1.53c.169.44.416.78.741 1.03.325.24.723.37 1.193.37q.736 0 1.228-.39c.332-.26.58-.62.746-1.06.169-.44.253-.93.253-1.48 0-.54-.082-1.02-.248-1.45-.163-.43-.409-.78-.741-1.03-.328-.25-.741-.38-1.238-.38q-.715 0-1.203.36c-.325.24-.57.57-.736 1.01-.165.42-.248.92-.248 1.49m7.378 6.68v-10.5h1.133v1.22h.139c.086-.14.206-.3.358-.51.156-.21.378-.39.666-.56.292-.16.686-.25 1.184-.25.643 0 1.209.16 1.7.49.49.32.873.77 1.148 1.36s.413 1.29.413 2.09q0 1.215-.413 2.1-.412.885-1.143 1.38-.73.48-1.685.48-.737 0-1.179-.24a2.2 2.2 0 0 1-.681-.57 7 7 0 0 1-.368-.52h-.099v4.03zm1.153-6.68q0 .87.253 1.53c.17.44.416.78.741 1.03.325.24.723.37 1.193.37q.736 0 1.228-.39c.332-.26.58-.62.746-1.06.169-.44.254-.93.254-1.48 0-.54-.083-1.02-.249-1.45-.162-.43-.409-.78-.741-1.03-.328-.25-.74-.38-1.238-.38q-.716 0-1.203.36c-.325.24-.57.57-.735 1.01-.166.42-.249.92-.249 1.49m10.48 3.98c-.689 0-1.294-.16-1.815-.49a3.37 3.37 0 0 1-1.213-1.38q-.432-.885-.432-2.07c0-.79.144-1.49.432-2.08.292-.59.696-1.06 1.213-1.38.521-.33 1.126-.5 1.815-.5s1.293.17 1.81.5c.52.32.924.79 1.213 1.38.291.59.437 1.29.437 2.08q0 1.185-.437 2.07a3.3 3.3 0 0 1-1.213 1.38c-.517.33-1.121.49-1.81.49m0-1.05c.524 0 .955-.14 1.293-.41s.588-.62.75-1.06c.163-.43.244-.91.244-1.42s-.081-.98-.244-1.43a2.37 2.37 0 0 0-.75-1.06c-.338-.28-.769-.41-1.293-.41s-.954.13-1.293.41c-.338.27-.588.62-.75 1.06-.163.45-.244.92-.244 1.43s.081.99.244 1.42c.162.44.412.79.75 1.06.339.27.769.41 1.293.41m5.251.89v-7.64h1.134v1.16h.079c.14-.38.391-.69.756-.92q.548-.36 1.233-.36c.086 0 .194.01.323.01s.227.01.293.01v1.2a3.112 3.112 0 0 0-.715-.08c-.372 0-.703.08-.995.23-.288.15-.517.37-.686.64-.166.27-.248.57-.248.92v4.83zm9.009-7.64v1h-3.958v-1zm-2.804-1.83h1.173v7.28q0 .495.144.75.15.24.378.33c.156.05.32.08.492.08.13 0 .236-.01.319-.02.082-.02.149-.03.198-.04l.239 1.05q-.12.045-.333.09a2.7 2.7 0 0 1-.542.05q-.497 0-.974-.21a1.95 1.95 0 0 1-.786-.66c-.205-.29-.308-.66-.308-1.1zm10.435 12.15c-1.014 0-1.911-.13-2.689-.41-.779-.28-1.434-.68-1.964-1.22a5.26 5.26 0 0 1-1.203-1.97c-.272-.78-.408-1.68-.408-2.68 0-.97.138-1.84.413-2.6q.417-1.155 1.208-1.95.795-.81 1.929-1.23 1.138-.42 2.575-.42 1.397 0 2.446.45c.703.31 1.289.71 1.76 1.23.474.52.829 1.09 1.064 1.74.239.64.358 1.3.358 1.99 0 .48-.023.96-.07 1.46-.046.49-.144.94-.293 1.36q-.224.615-.691.99c-.308.26-.726.38-1.253.38a3.2 3.2 0 0 1-.766-.11 1.94 1.94 0 0 1-.74-.36c-.216-.17-.343-.4-.383-.68h-.06q-.119.285-.368.54c-.162.18-.376.31-.641.42-.262.1-.582.14-.96.13-.43-.02-.81-.11-1.138-.29a2.5 2.5 0 0 1-.825-.72 3.5 3.5 0 0 1-.498-1.07 5.1 5.1 0 0 1-.164-1.32q0-.675.199-1.23c.133-.37.317-.69.552-.97.239-.28.517-.5.835-.67.322-.17.668-.27 1.039-.31.332-.03.633-.02.905.04s.496.15.671.28c.176.12.287.25.334.4h.059v-.56h1.054v4.49c0 .28.078.53.234.74s.383.32.681.32c.338 0 .596-.12.775-.35q.274-.345.373-1.08c.07-.48.105-1.1.105-1.85q0-.675-.184-1.32c-.12-.43-.302-.84-.547-1.22a4.167 4.167 0 0 0-2.227-1.67c-.498-.17-1.063-.25-1.696-.25q-1.168 0-2.093.36-.92.36-1.566 1.05a4.7 4.7 0 0 0-.979 1.67c-.222.66-.333 1.4-.333 2.23q0 1.275.333 2.25c.225.66.557 1.21.994 1.66.441.45.986.8 1.636 1.03s1.398.35 2.247.35c.365 0 .724-.03 1.079-.1.354-.07.668-.15.939-.23.272-.09.468-.15.587-.19l.279.92c-.206.08-.474.17-.806.26q-.492.12-1.054.21c-.371.06-.726.08-1.064.08m-.577-3.95q.667 0 1.079-.27.413-.27.602-.81c.126-.36.189-.82.189-1.37 0-.56-.07-.99-.209-1.3a1.28 1.28 0 0 0-.616-.66 2.5 2.5 0 0 0-1.005-.19q-.567 0-.969.3c-.265.2-.469.46-.612.79-.139.32-.209.68-.209 1.06 0 .43.057.82.17 1.2q.168.555.551.9c.256.23.599.35 1.029.35m10.069 1.45q-.726 0-1.317-.27a2.35 2.35 0 0 1-.94-.8c-.232-.36-.348-.78-.348-1.28 0-.44.086-.79.259-1.06.172-.28.402-.49.691-.65.288-.15.606-.27.954-.35q.528-.12 1.059-.18c.464-.06.84-.11 1.129-.14.291-.03.504-.09.636-.16.136-.08.204-.21.204-.4v-.04q0-.735-.403-1.14c-.265-.28-.668-.41-1.208-.41-.56 0-.999.12-1.317.37q-.478.36-.672.78l-1.113-.4q.299-.69.795-1.08c.335-.26.7-.44 1.094-.55.398-.1.789-.16 1.173-.16q.368 0 .846.09.482.09.929.36.453.27.751.81c.199.36.298.84.298 1.45v5.03h-1.173v-1.03h-.06c-.079.16-.212.34-.397.53a2.2 2.2 0 0 1-.741.48c-.308.13-.685.2-1.129.2m.179-1.06q.696 0 1.173-.27c.322-.18.564-.42.726-.7.166-.29.249-.6.249-.91v-1.08c-.05.06-.159.12-.328.17q-.249.06-.577.12l-.631.09a9 9 0 0 0-.492.06c-.305.04-.59.1-.856.19-.261.09-.474.22-.636.4-.159.17-.239.4-.239.7q0 .615.453.93.457.3 1.158.3m5.622.88v-10.18h1.173v3.76h.1c.086-.14.205-.3.357-.51.156-.21.378-.39.667-.56.291-.16.686-.25 1.183-.25.643 0 1.21.16 1.7.49.491.32.874.77 1.149 1.36s.412 1.29.412 2.09q0 1.215-.412 2.1-.413.885-1.144 1.38-.73.48-1.685.48-.736 0-1.178-.24a2.3 2.3 0 0 1-.682-.57 7 7 0 0 1-.367-.52h-.14v1.17zm1.153-3.82q0 .87.254 1.53c.169.44.416.78.741 1.03.324.24.722.37 1.193.37q.736 0 1.228-.39c.331-.26.58-.62.745-1.06.169-.44.254-.93.254-1.48 0-.54-.083-1.02-.249-1.45-.162-.43-.409-.78-.74-1.03-.328-.25-.741-.38-1.238-.38q-.717 0-1.203.36c-.325.24-.57.57-.736 1.01-.166.42-.249.92-.249 1.49m10.704-3.82v1h-3.957v-1zm-2.804-1.83h1.173v7.28q0 .495.145.75a.78.78 0 0 0 .377.33c.156.05.32.08.493.08.129 0 .235-.01.318-.02.083-.02.149-.03.199-.04l.238 1.05q-.118.045-.333.09c-.142.03-.323.05-.542.05q-.497 0-.974-.21a1.95 1.95 0 0 1-.786-.66c-.205-.29-.308-.66-.308-1.1zm8.671 4.56v1.09h-4.455v-1.09zm4.311 5.09q-.726 0-1.317-.27a2.35 2.35 0 0 1-.94-.8c-.232-.36-.348-.78-.348-1.28 0-.44.086-.79.259-1.06.172-.28.402-.49.691-.65.288-.15.606-.27.954-.35q.527-.12 1.059-.18c.464-.06.84-.11 1.129-.14.291-.03.503-.09.636-.16.136-.08.204-.21.204-.4v-.04q0-.735-.403-1.14c-.265-.28-.668-.41-1.208-.41-.56 0-.999.12-1.317.37q-.478.36-.672.78l-1.113-.4q.299-.69.795-1.08c.335-.26.7-.44 1.094-.55.398-.1.789-.16 1.173-.16q.369 0 .845.09.483.09.93.36.453.27.751.81c.199.36.298.84.298 1.45v5.03h-1.173v-1.03h-.06a2.226 2.226 0 0 1-1.138 1.01c-.309.13-.685.2-1.129.2m.179-1.06q.696 0 1.173-.27c.322-.18.564-.42.726-.7.166-.29.249-.6.249-.91v-1.08c-.05.06-.159.12-.328.17q-.249.06-.577.12l-.631.09q-.304.03-.493.06c-.304.04-.59.1-.855.19-.262.09-.474.22-.636.4-.159.17-.239.4-.239.7q0 .615.453.93.457.3 1.158.3m10.872-5.05-1.054.3a2.1 2.1 0 0 0-.294-.51 1.4 1.4 0 0 0-.517-.42c-.218-.11-.498-.16-.84-.16-.467 0-.857.11-1.168.32q-.462.315-.462.81 0 .435.318.69c.212.17.543.31.994.43l1.134.27c.682.17 1.191.42 1.526.76s.502.78.502 1.31c0 .44-.126.83-.378 1.18q-.372.51-1.044.81-.671.3-1.561.3-1.169 0-1.934-.51c-.51-.34-.834-.83-.969-1.48l1.113-.28q.16.615.602.93.447.3 1.168.3c.547 0 .981-.11 1.303-.34.324-.24.487-.52.487-.85 0-.26-.093-.49-.279-.66-.185-.19-.47-.32-.855-.41l-1.272-.3c-.7-.17-1.213-.42-1.542-.77q-.486-.525-.487-1.32 0-.645.363-1.14.368-.495.999-.78c.425-.19.905-.29 1.442-.29.756 0 1.349.17 1.78.5.434.33.742.77.925 1.31m7.314 0-1.054.3a2.1 2.1 0 0 0-.293-.51 1.4 1.4 0 0 0-.517-.42c-.219-.11-.499-.16-.84-.16-.468 0-.857.11-1.169.32q-.462.315-.462.81 0 .435.318.69c.212.17.544.31.994.43l1.134.27c.683.17 1.192.42 1.526.76s.502.78.502 1.31c0 .44-.126.83-.377 1.18q-.374.51-1.044.81-.671.3-1.562.3-1.168 0-1.933-.51c-.511-.34-.834-.83-.97-1.48l1.114-.28q.159.615.601.93.448.3 1.169.3c.546 0 .981-.11 1.302-.34.325-.24.487-.52.487-.85 0-.26-.092-.49-.278-.66-.186-.19-.471-.32-.855-.41l-1.273-.3c-.699-.17-1.213-.42-1.541-.77q-.487-.525-.487-1.32 0-.645.363-1.14.368-.495.999-.78c.424-.19.905-.29 1.442-.29.755 0 1.349.17 1.779.5.435.33.743.77.925 1.31m5.107 6.09c-.736 0-1.37-.16-1.904-.49-.53-.33-.939-.78-1.228-1.37-.285-.59-.427-1.28-.427-2.06q0-1.17.427-2.07c.289-.6.69-1.06 1.203-1.4q.776-.51 1.81-.51c.398 0 .79.07 1.178.2.388.14.741.35 1.059.65.318.29.572.69.761 1.17q.283.735.283 1.8v.5h-5.886v-1.01h4.693c0-.44-.086-.82-.258-1.16-.17-.34-.411-.6-.726-.8-.312-.19-.68-.29-1.104-.29-.467 0-.872.11-1.213.35a2.2 2.2 0 0 0-.781.89c-.182.37-.273.76-.273 1.18v.68q0 .87.298 1.47c.202.39.482.7.84.91.358.2.774.31 1.248.31.309 0 .587-.05.836-.13.251-.09.468-.23.651-.4.182-.18.323-.4.422-.67l1.134.32c-.119.38-.32.72-.602 1.01s-.629.52-1.044.68q-.621.24-1.397.24m10.356-6.09-1.054.3a2.1 2.1 0 0 0-.293-.51 1.4 1.4 0 0 0-.517-.42c-.219-.11-.499-.16-.84-.16-.468 0-.857.11-1.169.32q-.462.315-.462.81 0 .435.318.69c.212.17.544.31.994.43l1.134.27c.683.17 1.191.42 1.526.76s.502.78.502 1.31c0 .44-.126.83-.378 1.18q-.372.51-1.044.81-.67.3-1.561.3-1.168 0-1.934-.51c-.51-.34-.833-.83-.969-1.48l1.114-.28q.159.615.601.93.447.3 1.168.3c.547 0 .982-.11 1.303-.34.325-.24.487-.52.487-.85a.87.87 0 0 0-.278-.66c-.186-.19-.471-.32-.855-.41l-1.273-.3c-.699-.17-1.213-.42-1.541-.77q-.487-.525-.487-1.32 0-.645.363-1.14.367-.495.999-.78c.424-.19.905-.29 1.442-.29.755 0 1.349.17 1.779.5.435.33.743.77.925 1.31m7.315 0-1.054.3a2.1 2.1 0 0 0-.294-.51 1.4 1.4 0 0 0-.517-.42c-.219-.11-.499-.16-.84-.16-.467 0-.857.11-1.168.32q-.463.315-.463.81 0 .435.319.69c.212.17.543.31.994.43l1.133.27c.683.17 1.192.42 1.527.76s.502.78.502 1.31c0 .44-.126.83-.378 1.18q-.374.51-1.044.81-.672.3-1.561.3-1.169 0-1.934-.51c-.511-.34-.834-.83-.97-1.48l1.114-.28q.16.615.602.93.447.3 1.168.3c.547 0 .981-.11 1.302-.34.325-.24.488-.52.488-.85 0-.26-.093-.49-.279-.66-.185-.19-.47-.32-.855-.41l-1.273-.3c-.699-.17-1.213-.42-1.541-.77q-.487-.525-.487-1.32 0-.645.363-1.14.368-.495.999-.78c.424-.19.905-.29 1.442-.29.756 0 1.349.17 1.78.5.434.33.742.77.925 1.31m1.905 5.93v-7.64h1.133v1.2h.1c.159-.41.416-.73.77-.95.355-.23.781-.35 1.278-.35.504 0 .923.12 1.258.35.338.22.602.54.79.95h.08c.196-.4.489-.71.88-.94q.587-.36 1.407-.36c.683 0 1.241.22 1.675.65q.652.63.652 1.98v5.11h-1.174v-5.11c0-.56-.154-.97-.462-1.21a1.72 1.72 0 0 0-1.089-.36c-.537 0-.953.16-1.248.49-.295.32-.442.72-.442 1.22v4.97h-1.193v-5.23q0-.645-.423-1.05c-.282-.27-.645-.4-1.089-.4q-.457 0-.855.24c-.262.16-.474.39-.636.68q-.239.42-.239.99v4.77zm15.37.16c-.736 0-1.371-.16-1.905-.49-.53-.33-.939-.78-1.228-1.37-.285-.59-.427-1.28-.427-2.06q0-1.17.427-2.07c.289-.6.69-1.06 1.204-1.4q.775-.51 1.809-.51c.398 0 .791.07 1.179.2.387.14.74.35 1.058.65.319.29.572.69.761 1.17q.284.735.284 1.8v.5h-5.887v-1.01h4.693c0-.44-.086-.82-.258-1.16-.169-.34-.411-.6-.726-.8a2.1 2.1 0 0 0-1.104-.29c-.467 0-.871.11-1.213.35a2.2 2.2 0 0 0-.78.89c-.183.37-.274.76-.274 1.18v.68q0 .87.299 1.47c.202.39.482.7.84.91.358.2.774.31 1.248.31.308 0 .586-.05.835-.13.252-.09.469-.23.651-.4.182-.18.323-.4.423-.67l1.133.32c-.119.38-.32.72-.601 1.01-.282.29-.63.52-1.044.68q-.622.24-1.397.24m6.12-4.75v4.59h-1.174v-7.64h1.134v1.2h.099c.179-.39.451-.7.816-.94q.546-.36 1.412-.36c.517 0 .969.11 1.357.32q.582.315.905.96c.215.42.323.96.323 1.61v4.85h-1.174v-4.77c0-.6-.155-1.07-.467-1.4q-.467-.51-1.283-.51-.561 0-1.004.24c-.291.16-.522.4-.691.71q-.253.465-.253 1.14m10.337-3.05v1h-3.958v-1zm-2.804-1.83h1.173v7.28q0 .495.144.75.15.24.378.33c.156.05.32.08.492.08.13 0 .236-.01.319-.02.082-.02.149-.03.198-.04l.239 1.05q-.12.045-.333.09a2.7 2.7 0 0 1-.542.05q-.497 0-.974-.21a1.95 1.95 0 0 1-.786-.66c-.205-.29-.308-.66-.308-1.1zm9.841 3.54-1.054.3a2.1 2.1 0 0 0-.293-.51 1.4 1.4 0 0 0-.517-.42c-.219-.11-.499-.16-.84-.16-.468 0-.857.11-1.169.32q-.462.315-.462.81 0 .435.318.69c.212.17.544.31.994.43l1.134.27c.683.17 1.191.42 1.526.76s.502.78.502 1.31c0 .44-.126.83-.378 1.18q-.372.51-1.044.81-.67.3-1.561.3-1.168 0-1.934-.51c-.51-.34-.833-.83-.969-1.48l1.114-.28q.159.615.601.93.447.3 1.168.3c.547 0 .982-.11 1.303-.34.325-.24.487-.52.487-.85a.87.87 0 0 0-.278-.66c-.186-.19-.471-.32-.855-.41l-1.273-.3c-.699-.17-1.213-.42-1.541-.77q-.487-.525-.487-1.32 0-.645.362-1.14.369-.495 1-.78c.424-.19.905-.29 1.442-.29.755 0 1.348.17 1.779.5.435.33.743.77.925 1.31m2.761 6.01a.88.88 0 0 1-.632-.26.88.88 0 0 1-.263-.64q0-.36.263-.63a.88.88 0 0 1 .632-.26.88.88 0 0 1 .631.26q.264.27.263.63 0 .255-.124.45a.88.88 0 0 1-.77.45m6.102.08q-1.074 0-1.849-.51c-.517-.34-.915-.8-1.193-1.4-.279-.59-.418-1.27-.418-2.03 0-.77.142-1.46.428-2.05.288-.6.689-1.06 1.203-1.4q.776-.51 1.809-.51.805 0 1.452.3t1.059.84c.275.36.446.77.512 1.25h-1.173c-.09-.35-.289-.66-.597-.92-.305-.28-.716-.41-1.233-.41q-.685 0-1.203.36c-.341.23-.608.56-.8 1-.189.42-.284.93-.284 1.5 0 .59.093 1.11.279 1.54q.284.66.795 1.02c.345.24.749.37 1.213.37.305 0 .582-.06.83-.16.249-.11.459-.26.632-.46q.258-.3.368-.72h1.173c-.066.45-.23.86-.492 1.22-.259.36-.602.64-1.029.86-.425.2-.918.31-1.482.31m7.82 0c-.689 0-1.294-.16-1.814-.49a3.36 3.36 0 0 1-1.213-1.38q-.433-.885-.433-2.07c0-.79.144-1.49.433-2.08.291-.59.696-1.06 1.213-1.38.52-.33 1.125-.5 1.814-.5s1.293.17 1.81.5c.521.32.925.79 1.213 1.38.292.59.438 1.29.438 2.08q0 1.185-.438 2.07a3.3 3.3 0 0 1-1.213 1.38c-.517.33-1.12.49-1.81.49m0-1.05c.524 0 .955-.14 1.293-.41s.588-.62.751-1.06c.162-.43.243-.91.243-1.42s-.081-.98-.243-1.43a2.4 2.4 0 0 0-.751-1.06c-.338-.28-.769-.41-1.293-.41s-.954.13-1.292.41c-.338.27-.588.62-.751 1.06-.162.45-.243.92-.243 1.43s.081.99.243 1.42c.163.44.413.79.751 1.06s.769.41 1.292.41m5.252.89v-7.64h1.133v1.2h.1c.159-.41.416-.73.77-.95.355-.23.781-.35 1.278-.35.504 0 .923.12 1.258.35.338.22.601.54.79.95h.08c.195-.4.489-.71.88-.94q.587-.36 1.407-.36c.683 0 1.241.22 1.675.65q.651.63.651 1.98v5.11h-1.173v-5.11c0-.56-.154-.97-.462-1.21a1.72 1.72 0 0 0-1.089-.36c-.537 0-.953.16-1.248.49-.295.32-.442.72-.442 1.22v4.97h-1.193v-5.23q0-.645-.423-1.05c-.282-.27-.645-.4-1.089-.4q-.457 0-.855.24c-.262.16-.474.39-.636.68q-.239.42-.239.99v4.77z"/><path fill="#068241" d="M672.569 1066c6.627 0 12-5.37 12-12s-5.373-12-12-12c-6.628 0-12 5.37-12 12s5.372 12 12 12"/><path fill="#fff" d="M676.397 1048.67h-8c-1.333 0-2 .66-2 2v6c0 1.33.667 2 2 2h8c1.334 0 2-.67 2-2v-6c0-1.34-.666-2-2-2m-.039 3.07-3.275 2.38c-.205.15-.446.22-.686.22s-.481-.07-.686-.22l-3.273-2.38a.5.5 0 0 1 .588-.81l3.274 2.38c.059.04.137.04.195 0l3.276-2.38a.504.504 0 0 1 .698.11c.162.22.112.54-.111.7"/><path fill="#000" d="m468.335 1091.5-2.327-7.64h1.233l1.651 5.85h.079l1.631-5.85h1.253l1.61 5.83h.08l1.651-5.83h1.233l-2.327 7.64h-1.154l-1.67-5.87h-.119l-1.671 5.87zm11.375 0-2.327-7.64h1.233l1.651 5.85h.079l1.631-5.85h1.253l1.61 5.83h.08l1.651-5.83h1.233l-2.327 7.64h-1.154l-1.67-5.87h-.119l-1.671 5.87zm11.375 0-2.327-7.64h1.233l1.651 5.85h.079l1.631-5.85h1.253l1.61 5.83h.08l1.651-5.83h1.233l-2.327 7.64h-1.154l-1.67-5.87h-.119l-1.671 5.87zm9.461.08a.88.88 0 0 1-.632-.26.88.88 0 0 1-.263-.64q0-.36.263-.63a.88.88 0 0 1 .632-.26.88.88 0 0 1 .631.26q.264.27.264.63 0 .255-.125.45a.88.88 0 0 1-.77.45m5.247.1q-.726 0-1.317-.27a2.35 2.35 0 0 1-.94-.8c-.232-.36-.348-.78-.348-1.28 0-.44.086-.79.259-1.06.172-.28.402-.49.691-.65.288-.15.606-.27.954-.35q.528-.12 1.059-.18c.464-.06.84-.11 1.129-.14.291-.03.504-.09.636-.16.136-.08.204-.21.204-.4v-.04q0-.735-.403-1.14c-.265-.28-.668-.41-1.208-.41-.56 0-.999.12-1.317.37q-.478.36-.672.78l-1.113-.4q.298-.69.795-1.08c.335-.26.7-.44 1.094-.55.398-.1.789-.16 1.173-.16q.368 0 .846.09.482.09.929.36.453.27.751.81c.199.36.298.84.298 1.45v5.03h-1.173v-1.03h-.06c-.079.16-.212.34-.397.53a2.2 2.2 0 0 1-.741.48c-.308.13-.685.2-1.129.2m.179-1.06q.696 0 1.173-.27c.322-.18.564-.42.726-.7.166-.29.249-.6.249-.91v-1.08c-.05.06-.159.12-.328.17q-.249.06-.577.12l-.631.09a9 9 0 0 0-.492.06c-.305.04-.59.1-.856.19-.261.09-.474.22-.636.4-.159.17-.239.4-.239.7q0 .615.453.93.457.3 1.158.3m5.622.88v-10.18h1.173v3.76h.1c.086-.14.205-.3.357-.51.156-.21.378-.39.667-.56.291-.16.686-.25 1.183-.25.643 0 1.21.16 1.7.49.491.32.874.77 1.149 1.36s.412 1.29.412 2.09q0 1.215-.412 2.1-.413.885-1.144 1.38-.73.48-1.685.48-.736 0-1.178-.24a2.3 2.3 0 0 1-.682-.57 7 7 0 0 1-.367-.52h-.14v1.17zm1.153-3.82q0 .87.254 1.53c.169.44.416.78.741 1.03.324.24.722.37 1.193.37q.736 0 1.228-.39c.331-.26.58-.62.745-1.06.169-.44.254-.93.254-1.48 0-.54-.083-1.02-.249-1.45-.162-.43-.409-.78-.74-1.03-.328-.25-.741-.38-1.238-.38q-.717 0-1.203.36c-.325.24-.57.57-.736 1.01-.166.42-.249.92-.249 1.49m10.704-3.82v1h-3.957v-1zm-2.804-1.83h1.173v7.28q0 .495.145.75a.78.78 0 0 0 .377.33c.156.05.32.08.493.08.129 0 .235-.01.318-.02.083-.02.149-.03.199-.04l.238 1.05q-.119.045-.333.09c-.142.03-.323.05-.542.05q-.497 0-.974-.21a1.95 1.95 0 0 1-.786-.66c-.205-.29-.308-.66-.308-1.1zm8.671 4.56v1.09h-4.455v-1.09zm4.311 5.09q-.726 0-1.317-.27a2.35 2.35 0 0 1-.94-.8c-.232-.36-.348-.78-.348-1.28 0-.44.086-.79.259-1.06.172-.28.402-.49.691-.65.288-.15.606-.27.954-.35q.526-.12 1.059-.18c.464-.06.84-.11 1.129-.14.291-.03.503-.09.636-.16.136-.08.204-.21.204-.4v-.04q0-.735-.403-1.14c-.265-.28-.668-.41-1.208-.41-.56 0-.999.12-1.317.37q-.478.36-.672.78l-1.113-.4q.298-.69.795-1.08c.335-.26.7-.44 1.094-.55.398-.1.789-.16 1.173-.16q.369 0 .845.09.483.09.93.36.453.27.751.81c.199.36.298.84.298 1.45v5.03h-1.173v-1.03h-.06a2.226 2.226 0 0 1-1.138 1.01c-.309.13-.685.2-1.129.2m.179-1.06q.696 0 1.173-.27c.322-.18.564-.42.726-.7.166-.29.249-.6.249-.91v-1.08c-.05.06-.159.12-.328.17q-.249.06-.577.12l-.631.09q-.304.03-.493.06c-.304.04-.59.1-.855.19-.262.09-.474.22-.636.4-.159.17-.239.4-.239.7q0 .615.453.93.457.3 1.158.3m10.872-5.05-1.054.3a2.1 2.1 0 0 0-.294-.51 1.4 1.4 0 0 0-.517-.42c-.218-.11-.498-.16-.84-.16-.467 0-.857.11-1.168.32q-.462.315-.462.81 0 .435.318.69c.212.17.543.31.994.43l1.134.27c.682.17 1.191.42 1.526.76s.502.78.502 1.31c0 .44-.126.83-.378 1.18q-.372.51-1.044.81-.671.3-1.561.3-1.169 0-1.934-.51c-.51-.34-.834-.83-.969-1.48l1.113-.28q.16.615.602.93.447.3 1.168.3c.547 0 .981-.11 1.303-.34.324-.24.487-.52.487-.85 0-.26-.093-.49-.279-.66-.185-.19-.47-.32-.855-.41l-1.272-.3c-.7-.17-1.213-.42-1.542-.77q-.486-.525-.487-1.32 0-.645.363-1.14.368-.495.999-.78c.425-.19.905-.29 1.442-.29.756 0 1.349.17 1.78.5.434.33.742.77.925 1.31m7.314 0-1.054.3a2.1 2.1 0 0 0-.293-.51 1.4 1.4 0 0 0-.517-.42c-.219-.11-.499-.16-.84-.16-.468 0-.857.11-1.169.32q-.462.315-.462.81 0 .435.318.69c.212.17.544.31.994.43l1.134.27c.683.17 1.192.42 1.526.76s.502.78.502 1.31c0 .44-.126.83-.377 1.18q-.374.51-1.044.81-.672.3-1.562.3-1.168 0-1.933-.51c-.511-.34-.834-.83-.97-1.48l1.114-.28q.159.615.601.93.448.3 1.169.3c.546 0 .981-.11 1.302-.34.325-.24.487-.52.487-.85 0-.26-.092-.49-.278-.66-.186-.19-.471-.32-.855-.41l-1.273-.3c-.699-.17-1.213-.42-1.541-.77q-.487-.525-.487-1.32 0-.645.363-1.14.367-.495.999-.78c.424-.19.905-.29 1.442-.29.755 0 1.349.17 1.779.5.435.33.743.77.925 1.31m5.107 6.09c-.736 0-1.37-.16-1.904-.49-.53-.33-.939-.78-1.228-1.37-.285-.59-.427-1.28-.427-2.06q0-1.17.427-2.07c.289-.6.69-1.06 1.203-1.4q.776-.51 1.81-.51c.398 0 .79.07 1.178.2.388.14.741.35 1.059.65.318.29.572.69.761 1.17q.283.735.283 1.8v.5h-5.886v-1.01h4.693c0-.44-.086-.82-.258-1.16-.17-.34-.411-.6-.726-.8-.312-.19-.68-.29-1.104-.29-.467 0-.872.11-1.213.35a2.2 2.2 0 0 0-.781.89c-.182.37-.273.76-.273 1.18v.68q0 .87.298 1.47c.202.39.482.7.84.91.358.2.774.31 1.248.31.309 0 .587-.05.836-.13.251-.09.468-.23.651-.4.182-.18.323-.4.422-.67l1.134.32c-.119.38-.32.72-.602 1.01s-.629.52-1.044.68q-.621.24-1.397.24m10.356-6.09-1.054.3a2.1 2.1 0 0 0-.293-.51 1.4 1.4 0 0 0-.517-.42c-.219-.11-.499-.16-.84-.16-.468 0-.857.11-1.169.32q-.462.315-.462.81 0 .435.318.69c.212.17.544.31.994.43l1.134.27c.683.17 1.191.42 1.526.76s.502.78.502 1.31c0 .44-.126.83-.378 1.18q-.372.51-1.044.81-.67.3-1.561.3-1.168 0-1.934-.51c-.51-.34-.833-.83-.969-1.48l1.114-.28q.159.615.601.93.447.3 1.168.3c.547 0 .982-.11 1.303-.34.325-.24.487-.52.487-.85a.87.87 0 0 0-.278-.66c-.186-.19-.471-.32-.855-.41l-1.273-.3c-.699-.17-1.213-.42-1.541-.77q-.487-.525-.487-1.32 0-.645.363-1.14.367-.495.999-.78c.424-.19.905-.29 1.442-.29.755 0 1.349.17 1.779.5.435.33.743.77.925 1.31m7.315 0-1.054.3a2.1 2.1 0 0 0-.294-.51 1.4 1.4 0 0 0-.517-.42c-.219-.11-.499-.16-.84-.16-.467 0-.857.11-1.168.32q-.463.315-.463.81 0 .435.319.69c.212.17.543.31.994.43l1.133.27c.683.17 1.192.42 1.527.76s.502.78.502 1.31c0 .44-.126.83-.378 1.18q-.374.51-1.044.81-.672.3-1.561.3-1.169 0-1.934-.51c-.511-.34-.834-.83-.97-1.48l1.114-.28q.16.615.602.93.447.3 1.168.3c.547 0 .981-.11 1.302-.34.325-.24.488-.52.488-.85 0-.26-.093-.49-.279-.66-.185-.19-.47-.32-.855-.41l-1.273-.3c-.699-.17-1.213-.42-1.541-.77q-.487-.525-.487-1.32 0-.645.363-1.14.367-.495.999-.78c.424-.19.905-.29 1.442-.29.756 0 1.349.17 1.78.5.434.33.742.77.925 1.31m1.905 5.93v-7.64h1.133v1.2h.1c.159-.41.416-.73.77-.95.355-.23.781-.35 1.278-.35.504 0 .923.12 1.258.35.338.22.602.54.79.95h.08c.196-.4.489-.71.88-.94q.587-.36 1.407-.36c.683 0 1.241.22 1.675.65q.652.63.652 1.98v5.11h-1.174v-5.11c0-.56-.154-.97-.462-1.21a1.72 1.72 0 0 0-1.089-.36c-.537 0-.953.16-1.248.49-.295.32-.442.72-.442 1.22v4.97h-1.193v-5.23q0-.645-.423-1.05c-.282-.27-.645-.4-1.089-.4q-.457 0-.855.24c-.262.16-.474.39-.636.68q-.239.42-.239.99v4.77zm15.37.16c-.736 0-1.371-.16-1.905-.49-.53-.33-.939-.78-1.228-1.37-.285-.59-.427-1.28-.427-2.06q0-1.17.427-2.07c.289-.6.69-1.06 1.204-1.4q.776-.51 1.809-.51c.398 0 .791.07 1.179.2.387.14.74.35 1.058.65.319.29.572.69.761 1.17q.284.735.284 1.8v.5h-5.887v-1.01h4.693c0-.44-.086-.82-.258-1.16-.169-.34-.411-.6-.726-.8a2.1 2.1 0 0 0-1.104-.29c-.467 0-.871.11-1.213.35a2.2 2.2 0 0 0-.78.89c-.183.37-.274.76-.274 1.18v.68q0 .87.299 1.47c.202.39.482.7.84.91.358.2.774.31 1.248.31.308 0 .586-.05.835-.13.252-.09.469-.23.651-.4.182-.18.323-.4.423-.67l1.133.32c-.119.38-.32.72-.601 1.01-.282.29-.63.52-1.044.68q-.622.24-1.397.24m6.12-4.75v4.59h-1.174v-7.64h1.134v1.2h.099c.179-.39.451-.7.816-.94q.546-.36 1.412-.36c.517 0 .969.11 1.357.32q.582.315.905.96c.215.42.323.96.323 1.61v4.85h-1.174v-4.77c0-.6-.155-1.07-.467-1.4q-.467-.51-1.283-.51-.561 0-1.004.24c-.291.16-.522.4-.691.71q-.253.465-.253 1.14m10.337-3.05v1h-3.958v-1zm-2.804-1.83h1.173v7.28q0 .495.144.75.15.24.378.33c.156.05.32.08.492.08.13 0 .236-.01.319-.02.082-.02.149-.03.198-.04l.239 1.05q-.12.045-.333.09a2.7 2.7 0 0 1-.542.05q-.497 0-.974-.21a1.95 1.95 0 0 1-.786-.66c-.205-.29-.308-.66-.308-1.1zm9.841 3.54-1.054.3a2.1 2.1 0 0 0-.293-.51 1.4 1.4 0 0 0-.517-.42c-.219-.11-.499-.16-.84-.16-.468 0-.857.11-1.169.32q-.462.315-.462.81 0 .435.318.69c.212.17.544.31.994.43l1.134.27c.683.17 1.191.42 1.526.76s.502.78.502 1.31c0 .44-.126.83-.378 1.18q-.372.51-1.044.81-.67.3-1.561.3-1.168 0-1.934-.51c-.51-.34-.833-.83-.969-1.48l1.114-.28q.159.615.601.93.447.3 1.168.3c.547 0 .982-.11 1.303-.34.325-.24.487-.52.487-.85a.87.87 0 0 0-.278-.66c-.186-.19-.471-.32-.855-.41l-1.273-.3c-.699-.17-1.213-.42-1.541-.77q-.487-.525-.487-1.32 0-.645.362-1.14.369-.495 1-.78c.424-.19.905-.29 1.442-.29.755 0 1.348.17 1.779.5.435.33.743.77.925 1.31m2.761 6.01a.88.88 0 0 1-.632-.26.88.88 0 0 1-.263-.64q0-.36.263-.63a.88.88 0 0 1 .632-.26.88.88 0 0 1 .631.26q.264.27.263.63 0 .255-.124.45a.88.88 0 0 1-.77.45m6.102.08q-1.074 0-1.849-.51c-.517-.34-.915-.8-1.193-1.4-.279-.59-.418-1.27-.418-2.03 0-.77.142-1.46.428-2.05.288-.6.689-1.06 1.203-1.4q.775-.51 1.809-.51.805 0 1.452.3t1.059.84c.275.36.446.77.512 1.25h-1.173c-.09-.35-.289-.66-.597-.92-.305-.28-.716-.41-1.233-.41q-.686 0-1.203.36c-.341.23-.608.56-.8 1-.189.42-.284.93-.284 1.5 0 .59.093 1.11.279 1.54q.284.66.795 1.02c.345.24.749.37 1.213.37.305 0 .582-.06.83-.16.249-.11.459-.26.632-.46q.258-.3.368-.72h1.173c-.066.45-.23.86-.492 1.22-.259.36-.602.64-1.029.86-.425.2-.918.31-1.482.31m7.82 0c-.689 0-1.294-.16-1.814-.49a3.36 3.36 0 0 1-1.213-1.38q-.433-.885-.433-2.07c0-.79.144-1.49.433-2.08.291-.59.696-1.06 1.213-1.38.52-.33 1.125-.5 1.814-.5s1.293.17 1.81.5c.521.32.925.79 1.213 1.38.292.59.438 1.29.438 2.08q0 1.185-.438 2.07a3.3 3.3 0 0 1-1.213 1.38c-.517.33-1.12.49-1.81.49m0-1.05c.524 0 .955-.14 1.293-.41s.588-.62.751-1.06c.162-.43.243-.91.243-1.42s-.081-.98-.243-1.43a2.4 2.4 0 0 0-.751-1.06c-.338-.28-.769-.41-1.293-.41s-.954.13-1.292.41c-.338.27-.588.62-.751 1.06-.162.45-.243.92-.243 1.43s.081.99.243 1.42c.163.44.413.79.751 1.06s.769.41 1.292.41m5.252.89v-7.64h1.133v1.2h.1c.159-.41.416-.73.77-.95.355-.23.781-.35 1.278-.35.504 0 .923.12 1.258.35.338.22.601.54.79.95h.08c.195-.4.489-.71.88-.94q.587-.36 1.407-.36c.683 0 1.241.22 1.675.65q.651.63.651 1.98v5.11h-1.173v-5.11c0-.56-.154-.97-.462-1.21a1.72 1.72 0 0 0-1.089-.36c-.537 0-.953.16-1.248.49-.295.32-.442.72-.442 1.22v4.97h-1.193v-5.23q0-.645-.423-1.05c-.282-.27-.645-.4-1.089-.4q-.457 0-.855.24c-.262.16-.474.39-.636.68q-.239.42-.239.99v4.77zM465.53 1094.28h183.041v.96H465.53z"/><path fill="#EC2028" d="M672.569 1098c6.627 0 12-5.37 12-12s-5.373-12-12-12c-6.628 0-12 5.37-12 12s5.372 12 12 12"/><path fill="#fff" fill-rule="evenodd" d="m673.896 1088.95-.184-.1.022.23.048 2.64.045.28.168-.23.69-.9.477.67.045.05h.79l-.123-.18-.631-.91 1.084-.3.285-.07-.249-.13zm-1.33-8.95a6.17 6.17 0 0 0-4.244 1.74c-1.123 1.11-1.753 2.59-1.753 4.14s.63 3.04 1.753 4.14a6.18 6.18 0 0 0 4.244 1.75c.171 0 .343-.01.513-.02l.126-.02-.009-.1-.105-.71-.012-.09h-.108c-.063.01-.117.02-.165.02-.084 0-.159.02-.24.02a5.1 5.1 0 0 1-2.933-.96c3.758-1.34 6.502-3.13 7.849-5.11.095.36.145.72.147 1.09a4.8 4.8 0 0 1-1.302 3.29l-.072.1.108.07.624.37.078.06.06-.09a5.86 5.86 0 0 0 1.386-3 5.74 5.74 0 0 0-.49-3.26 6 6 0 0 0-2.213-2.49 6.26 6.26 0 0 0-3.242-.94m-.669 1.95c.126-.31.147-.65.06-.97.2-.04.404-.06.609-.07.689.01 1.368.15 1.996.43-.873.93-1.889 1.73-3.011 2.37a11 11 0 0 1-.312-.96c.282-.21.507-.48.658-.8m-.856-.78q.045.105.046.21 0 .105-.043.21c-.177.44-.804.83-1.411.9-.214.02-.429-.03-.624-.11.57-.56 1.267-.97 2.032-1.21m-2.626 1.92c.39.25.862.36 1.326.29.236-.02.466-.07.682-.17.079.33.182.64.306.95-1.005.55-2.072.99-3.179 1.31.071-.85.369-1.67.865-2.38m.429 6.13a4.82 4.82 0 0 1-1.279-2.81c1.235-.33 2.424-.8 3.539-1.41a7.2 7.2 0 0 0 1.933 2.41 25.4 25.4 0 0 1-4.193 1.81m5.016-2.33a6.16 6.16 0 0 1-1.951-2.34 14.5 14.5 0 0 0 3.502-2.76 4.64 4.64 0 0 1 1.669 1.9c-.54 1.1-1.636 2.2-3.22 3.2" clip-rule="evenodd"/><path fill="#373636" d="M822.408 896.923c24.39 17.078 30.317 50.695 13.239 75.085s-50.694 30.322-75.085 13.239c-24.39-17.078-30.317-50.694-13.239-75.084s50.695-30.318 75.085-13.24"/><path fill="#0EA398" d="M466.435 141.316c.591-.142 1.529.247 2.005.695 2.582 2.458 5.038 5.045 7.603 7.525 1.122 1.087 2.387 2.038 3.926 3.33a45 45 0 0 0 2.78-1.642c2.113-1.344 4.472-2.473 5.907-4.716-.98-.018-1.772.618-2.8.635a8.36 8.36 0 0 1-6.206-2.476c-2.162-2.083-4.267-4.212-6.394-6.32"/><path fill="#1EB2AA" d="M480.082 152.97c-3.277 1.16-6.401 2.611-9.688 3.334a57.3 57.3 0 0 1-11.369 1.358c-8.427.118-16.224-2.206-23.448-6.633-7.645-4.695-13.312-11.088-17.204-19.117-3.645-7.515-4.812-15.502-4.041-23.721a41.6 41.6 0 0 1 3.93-14.263c1.995-4.167 4.298-8.032 7.412-11.393 3.475-3.747 8.84-3.494 11.967.427 2.387 2.983 2.085 7.23-.466 10.07a28.7 28.7 0 0 0-7.38 17.617c-.58 8.539 2.161 15.954 7.836 22.187a28.47 28.47 0 0 0 12.797 8.011 29.8 29.8 0 0 0 16.005.469c.591-.142 1.529.247 2.005.695 2.582 2.458 5.038 5.045 7.603 7.525 1.153 1.121 2.446 2.094 4.041 3.434"/><path fill="#C5418D" d="M485.453 127.992c3.962-3.983 7.53-7.602 11.12-11.196 8.419-8.417 16.87-16.807 25.265-25.25 2.408-2.43 5.229-3.402 8.454-2.385 6.008 1.9 7.585 9.029 3.082 13.543q-8.34 8.334-16.7 16.669c-8.231 8.22-16.564 16.342-24.646 24.704-4.021 4.167-9.49 3.546-12.874.017-6.686-6.966-13.594-13.723-20.422-20.551-3.36-3.358-3.506-8.334-.306-11.539 3.201-3.205 8.163-3.223 11.558.125 4.718 4.629 9.378 9.317 14.048 14.005q.766.887 1.421 1.858"/><path fill="#1EB2AA" d="M458.239 67.447c9.101.07 16.596 2 23.507 6.018 5.025 2.924 5.56 9.435 1.133 13.126-2.492 2.084-5.855 2.431-8.989.667a29.66 29.66 0 0 0-17.43-3.743c-1.56.138-3.106.482-4.653.77-4.235.789-8.27-1.649-9.274-5.622-1.105-4.379 1.143-8.476 5.442-9.758a28 28 0 0 1 4.461-.948c2.29-.302 4.601-.423 5.803-.51M501.275 97.277a8.03 8.03 0 0 1-2.314 5.666 8.05 8.05 0 0 1-5.636 2.394c-4.58.034-8.426-3.904-8.409-8.612a8.1 8.1 0 0 1 2.387-5.718 8.1 8.1 0 0 1 5.734-2.356c4.437.014 8.249 4.004 8.238 8.626"/><path fill="#092524" d="M580.824 135.271h-7.714q-4.371 0-7.061-2.653a8.96 8.96 0 0 1-2.682-6.651v-3.101h5.559v3.101a3.48 3.48 0 0 0 1.15 2.761 4.5 4.5 0 0 0 3.041.99h2.172v-1.889q0-3.692 2.22-5.879 2.22-2.188 5.879-2.185h6.3v8.713c-.011.321.094.636.296.886a.978.978 0 0 0 .792.347h.775v5.556h-.775q-3.075 0-4.865-1.892-1.79-1.893-1.8-4.9v-3.313h-.587q-1.335 0-2.002.694a2.7 2.7 0 0 0-.667 1.938zm-9.917 7.184a2.858 2.858 0 0 1-2.825-2.823 2.8 2.8 0 0 1 .206-1.091c.142-.346.352-.66.617-.923a2.71 2.71 0 0 1 2.002-.837 2.87 2.87 0 0 1 2.856 2.851 2.7 2.7 0 0 1-.841 2 2.77 2.77 0 0 1-2.015.823m8.565-.836a2.85 2.85 0 0 1-4.034 0 2.72 2.72 0 0 1-.837-1.987 2.86 2.86 0 0 1 1.245-2.4 2.85 2.85 0 0 1 2.691-.285 2.85 2.85 0 0 1 1.721 2.086 2.86 2.86 0 0 1-.793 2.586z"/><path fill="#092524" d="M603.334 135.27h-12.412v-5.556h12.412z"/><path fill="#092524" d="M615.129 135.27h-12.411v-5.556h12.411z"/><path fill="#092524" d="M617.115 135.271h-2.606v-5.557h2.606a1.26 1.26 0 0 0 .993-.416c.259-.307.392-.7.372-1.101v-8.432h5.588v8.453a6.9 6.9 0 0 1-1.988 5.056 6.68 6.68 0 0 1-4.965 1.997m3.04-17.398a2.804 2.804 0 0 1-4.647-1.211 2.8 2.8 0 0 1 1.386-3.267 2.8 2.8 0 0 1 3.478.717c.407.502.628 1.131.624 1.778a2.75 2.75 0 0 1-.841 1.983m4.253.837a2.79 2.79 0 0 1-2.019-.82 2.7 2.7 0 0 1-.837-2 2.86 2.86 0 0 1 2.856-2.855 2.71 2.71 0 0 1 2.002.837 2.783 2.783 0 0 1 .823 2.018 2.86 2.86 0 0 1-.84 1.982 2.87 2.87 0 0 1-1.985.838M653.139 135.271h-7.725q-4.378 0-7.061-2.653a8.96 8.96 0 0 1-2.682-6.651v-3.101h5.56v3.101a3.46 3.46 0 0 0 1.15 2.761 4.5 4.5 0 0 0 3.04.99h2.172v-1.889q0-3.692 2.217-5.879 2.217-2.188 5.883-2.185h6.299v8.713c-.01.321.093.634.292.886a.99.99 0 0 0 .793.347h.774v5.556h-.774q-3.072 0-4.865-1.892-1.793-1.893-1.8-4.9v-3.313h-.601q-1.338 0-2.005.694a2.7 2.7 0 0 0-.667 1.938zm-9.928 7.184a2.86 2.86 0 0 1-2.825-2.823 2.784 2.784 0 0 1 .824-2.014 2.68 2.68 0 0 1 2.001-.837 2.86 2.86 0 0 1 2.853 2.851 2.688 2.688 0 0 1-.837 2 2.78 2.78 0 0 1-2.016.823m8.562-.836a2.801 2.801 0 0 1-4.539-3.091 2.8 2.8 0 0 1 3.142-1.651 2.8 2.8 0 0 1 2.238 2.755 2.75 2.75 0 0 1-.841 1.997z"/><path fill="#092524" d="M675.638 135.27h-12.412v-5.556h12.412z"/><path fill="#092524" d="M687.433 135.27h-12.416v-5.556h12.416z"/><path fill="#092524" d="M687.743 135.271h-.934v-5.557h.931a1.22 1.22 0 0 0 .976-.416c.245-.313.369-.704.348-1.101v-8.432h5.598v8.453a6.93 6.93 0 0 1-1.971 5.056 6.63 6.63 0 0 1-4.948 1.997m6.238 6.542a2.997 2.997 0 0 1-4.991-1.232 2.992 2.992 0 0 1 3.445-3.812c.681.134 1.293.5 1.733 1.036.441.535.681 1.207.681 1.9a2.88 2.88 0 0 1-.868 2.108M722.868 135.271h-7.728q-4.376 0-7.061-2.653a8.98 8.98 0 0 1-2.683-6.651v-3.101h5.56v3.101a3.465 3.465 0 0 0 1.147 2.761 4.5 4.5 0 0 0 3.04.99h2.172v-1.889q0-3.692 2.22-5.879 2.22-2.188 5.88-2.185h6.299v15.506h-5.587v-10.109h-.591q-1.334 0-2.001.694a2.7 2.7 0 0 0-.667 1.938zm-10.056 7.184a2.855 2.855 0 0 1-2.822-2.823 2.77 2.77 0 0 1 .82-2.014 2.7 2.7 0 0 1 2.002-.837 2.862 2.862 0 0 1 2.647 3.939 2.7 2.7 0 0 1-.629.912 2.786 2.786 0 0 1-2.018.823m8.565-.836a2.76 2.76 0 0 1-2.016.836 2.68 2.68 0 0 1-2.001-.836 2.74 2.74 0 0 1-.824-1.987 2.78 2.78 0 0 1 .824-2.014 2.69 2.69 0 0 1 2.001-.837 2.86 2.86 0 0 1 2.016.837c.534.535.835 1.259.837 2.014a2.7 2.7 0 0 1-.837 1.997zM740.276 135.271h-5.56V111.08h5.56z"/><path fill="#1EB2AA" d="M599.194 78.212v21.53h-9.107V90.3h-17.985v9.442h-8.997v-21.53c0-11.967 7.253-18.485 18.046-18.485s18.043 6.529 18.043 18.485m-9.107 4.775v-5.609c0-6.684-3.597-9.886-8.993-9.886-5.452 0-8.992 3.202-8.992 9.886v5.62zM612.097 94.682c0-3.26 2.433-5.393 5.452-5.393s5.452 2.132 5.452 5.393a5.453 5.453 0 0 1-10.904 0M683.915 94.682c0-3.26 2.432-5.393 5.451-5.393 3.02 0 5.452 2.132 5.452 5.393a5.45 5.45 0 0 1-5.452 5.449 5.448 5.448 0 0 1-5.451-5.449M738.231 71.423a29.4 29.4 0 0 0-10.848-3.765v32.084h-9.094V67.658a30.4 30.4 0 0 0-10.904 3.765l-3.092-6.796c5.445-3.257 11.915-4.89 18.493-4.89 6.633 0 13.152 1.633 18.551 4.89zM671.992 89.008c0 6.796-5.396 10.73-15.737 10.73h-20.348V60.416h19.222c9.837 0 14.897 4.1 14.897 10.223a9.45 9.45 0 0 1-5.212 8.65c4.367 1.407 7.178 4.775 7.178 9.72m-27.037-21.742v9.268h9.052c4.441 0 6.856-1.573 6.856-4.66s-2.433-4.608-6.856-4.608zm17.874 20.787c0-3.316-2.529-4.89-7.251-4.89h-10.623v9.724h10.626c4.722-.004 7.248-1.48 7.248-4.834"/><path fill="#F47820" d="M657.617 157.28h.959v1.292q0 2.91 2.936 2.91h1.345v-1.952q0-3.542 3.558-3.542h1.356v6.463h-.98v-5.518h-.376c-.896 0-1.553.201-1.97.611q-.627.616-.629 1.986v2.921h-2.314q-1.893 0-2.891-1.014-.997-1.014-.994-2.865zm2.433 7.008a.635.635 0 0 1 .635-.636.64.64 0 0 1 .452.188.61.61 0 0 1 0 .899.644.644 0 0 1-.899-.005.64.64 0 0 1-.188-.446m2.303-.441a.6.6 0 0 1 .452-.195.64.64 0 0 1 .589.634.635.635 0 0 1-.589.634.61.61 0 0 1-.452-.188.6.6 0 0 1-.18-.444.6.6 0 0 1 .156-.441zM668.075 164.312c.177.067.366.097.556.09a1.23 1.23 0 0 0 1.08-.458 2.55 2.55 0 0 0 .317-1.428v-6.518h.955v6.543q0 2.83-2.328 2.83a2.7 2.7 0 0 1-.851-.142zM673.016 152.366h.956v7.64q0 1.47 1.14 1.472h.323v.969h-.323a1.9 1.9 0 0 1-.85-.15 1.9 1.9 0 0 1-.697-.51 2.7 2.7 0 0 1-.549-1.781z"/><path fill="#F47820" d="M680.352 162.45h-5.177v-.969h5.177z"/><path fill="#F47820" d="M680.088 161.482h.764c.751 0 1.126-.494 1.126-1.473v-4.011h.97v4.022q0 1.47 1.125 1.472h.761v.969h-.761a1.68 1.68 0 0 1-1.605-.931 1.71 1.71 0 0 1-1.616.931h-.764zm.893 2.364a.58.58 0 0 1 .441-.194.64.64 0 0 1 .452.187.613.613 0 0 1 0 .9.64.64 0 0 1-.452.18.635.635 0 0 1-.586-.873.6.6 0 0 1 .145-.2m1.89.441a.65.65 0 0 1 .181-.456.64.64 0 0 1 .697-.145q.117.049.206.14a.58.58 0 0 1 .195.448.6.6 0 0 1-.195.451.63.63 0 0 1-.451.181.64.64 0 0 1-.633-.632z"/><path fill="#F47820" d="M684.578 161.482h3.336l-2.3-3.438v-2.046h4.76q2.648 0 2.651 1.834c-.002.283-.06.562-.17.823a3.8 3.8 0 0 1-.535.903q-.37.488-.66.816t-.806.885a4 4 0 0 0-.223.233h3.43v.969h-9.483zm2.148-4.515v1.007l2.342 3.518h.427c.094-.104.316-.347.671-.719q.531-.558.719-.788t.511-.639q.267-.318.444-.695c.08-.177.123-.368.126-.562a.89.89 0 0 0-.463-.886 3.4 3.4 0 0 0-1.428-.225z"/><path fill="#F47820" d="M693.802 162.451v-.969h2.175a2.5 2.5 0 0 1-.9-.952 2.7 2.7 0 0 1-.33-1.312 3.236 3.236 0 0 1 5.52-2.284c.606.606.946 1.427.946 2.284v1.114a1.23 1.23 0 0 0 .278.841 1 1 0 0 0 .772.309h.347v.969h-.347a1.72 1.72 0 0 1-1.14-.369 1.62 1.62 0 0 1-.542-1.041 3.1 3.1 0 0 1-1.126 1.019c-.453.243-.959.37-1.473.37zm1.9-3.233a2.28 2.28 0 1 0 4.463-.64 2.28 2.28 0 0 0-2.405-1.611 2.28 2.28 0 0 0-1.391.657 2.18 2.18 0 0 0-.667 1.594"/><path fill="#F47820" d="M702.338 161.482h.347q1.139-.001 1.14-1.473v-7.639h.97v7.639a2.7 2.7 0 0 1-.556 1.782 1.93 1.93 0 0 1-1.554.66h-.347zM708.045 162.451h-.959V152.38h.959zM712.172 164.312c.177.066.366.097.556.09a1.22 1.22 0 0 0 1.08-.458 2.55 2.55 0 0 0 .317-1.428v-6.518h.959v6.543q0 2.83-2.329 2.83a2.8 2.8 0 0 1-.854-.142zM717.109 152.366h.97v7.64q-.001 1.47 1.139 1.472h.323v.969h-.323a1.9 1.9 0 0 1-.85-.149 1.9 1.9 0 0 1-.696-.511 2.67 2.67 0 0 1-.552-1.781z"/><path fill="#F47820" d="M719.272 162.45v-.968h.348c.758 0 1.135-.494 1.135-1.473v-4.011h.974v4.022q0 1.47 1.125 1.472h.349v.969h-.349a1.67 1.67 0 0 1-1.604-.931 1.72 1.72 0 0 1-1.63.931zm1.293 1.758a.66.66 0 0 1 .396-.61.6.6 0 0 1 .25-.047.66.66 0 0 1 .61.406.66.66 0 0 1-.141.719.7.7 0 0 1-.719.133.7.7 0 0 1-.211-.14.65.65 0 0 1-.185-.461"/><path fill="#F47820" d="M722.92 162.45v-.968h.761c.75 0 1.126-.494 1.126-1.473v-4.011h.973v4.022q0 1.47 1.136 1.472h.75v.969h-.75a1.69 1.69 0 0 1-1.616-.931 1.71 1.71 0 0 1-1.619.931zm.719-7.872a.64.64 0 0 1 .636-.646.6.6 0 0 1 .445.188.62.62 0 0 1 .188.458.64.64 0 0 1-.879.587.6.6 0 0 1-.206-.142.63.63 0 0 1-.184-.445m2.085 0a.618.618 0 0 1 .188-.458.6.6 0 0 1 .444-.188.63.63 0 0 1 .456.188.6.6 0 0 1 .194.458.584.584 0 0 1-.194.441.6.6 0 0 1-.208.143.637.637 0 0 1-.88-.584"/><path fill="#F47820" d="M727.407 162.45v-.969h6.88v-1.041a3.48 3.48 0 0 0-.956-2.525 3.34 3.34 0 0 0-2.484-.951H728.3v-.966h2.585a4.236 4.236 0 0 1 3.127 1.223 4.3 4.3 0 0 1 1.241 3.174v2.066zm3.763-7.896a.6.6 0 0 1 .048-.247.6.6 0 0 1 .14-.208.6.6 0 0 1 .458-.195.64.64 0 0 1 .459.195.6.6 0 0 1 .149.206.6.6 0 0 1 .052.249.62.62 0 0 1-.201.465.64.64 0 0 1-.459.191.6.6 0 0 1-.458-.191.64.64 0 0 1-.188-.465M736.513 162.451v-.969h3.822q1.231-.001 1.231-1.473v-7.639h.969v7.639a2.56 2.56 0 0 1-.594 1.775 2.05 2.05 0 0 1-1.606.667zm.907-1.653v-7.783h.97v7.783zM745.79 162.451h-.956V152.38h.959zM564.101 154.366h1.72q2.78 0 2.78 2.254c.022.401-.076.8-.281 1.146a1.8 1.8 0 0 1-.932.653v.052a2.22 2.22 0 0 1 1.144.715c.244.371.366.81.347 1.254q0 2.396-3.051 2.396h-1.72a1.28 1.28 0 0 1-1.135-.349 1.28 1.28 0 0 1-.352-1.134v-5.501a1.26 1.26 0 0 1 .35-1.136 1.27 1.27 0 0 1 1.137-.35zm1.72 1.289h-1.327a.44.44 0 0 0-.377.122.4.4 0 0 0-.109.172.43.43 0 0 0-.021.202v1.761h1.838c.376.031.752-.068 1.063-.282a1.065 1.065 0 0 0 .348-.868 1.03 1.03 0 0 0-.327-.84 1.7 1.7 0 0 0-1.088-.271zm.171 3.441h-2.009v1.955a.45.45 0 0 0 .128.381.44.44 0 0 0 .383.123h1.251c.469.04.94-.053 1.359-.268a1.036 1.036 0 0 0 .378-.931 1.17 1.17 0 0 0-.347-.951 1.74 1.74 0 0 0-1.143-.309M575.746 158.929c0 .032 0 .226-.024.57 0 .175-.06.346-.171.483a.76.76 0 0 1-.497.118h-3.61v.288a1.16 1.16 0 0 0 .438 1.021c.435.241.932.348 1.428.309a7 7 0 0 0 1.696-.209c.208-.055.347-.045.42.018a.6.6 0 0 1 .115.437v.171a.7.7 0 0 1-.101.434.93.93 0 0 1-.434.205 6.3 6.3 0 0 1-1.696.208q-1.66-.001-2.432-.674c-.515-.448-.779-1.153-.779-2.115v-1.135q0-2.83 2.898-2.83a2.84 2.84 0 0 1 2.061.694 2.69 2.69 0 0 1 .688 2.007m-4.302-.25v.327h3.051v-.327q0-1.29-1.539-1.288c-1.025 0-1.512.427-1.512 1.288M578.367 158.776v3.473a.67.67 0 0 1-.118.469.7.7 0 0 1-.47.114h-.17a.7.7 0 0 1-.469-.114.67.67 0 0 1-.118-.469v-3.473q0-2.53 2.842-2.531 1.467 0 2.148.621.68.623.695 1.91v3.473a.67.67 0 0 1-.118.469.7.7 0 0 1-.47.114h-.17a.47.47 0 0 1-.469-.115.47.47 0 0 1-.118-.468v-3.473a1.285 1.285 0 0 0-.323-.993 2.54 2.54 0 0 0-2.335 0 1.27 1.27 0 0 0-.337.993M583.975 160.245v-1.277a2.6 2.6 0 0 1 .775-2.028 3.2 3.2 0 0 1 2.237-.695c.344-.001.686.043 1.018.132a.8.8 0 0 1 .424.201.8.8 0 0 1 .098.452v.166c0 .23-.042.372-.118.431-.077.059-.223.063-.431 0a2.9 2.9 0 0 0-.966-.128 2 2 0 0 0-1.317.347 1.503 1.503 0 0 0-.379 1.163v1.223a1.47 1.47 0 0 0 .4 1.18c.264.222.726.348 1.389.348a6 6 0 0 0 1.005-.119.515.515 0 0 1 .42.025.54.54 0 0 1 .115.416v.16a.67.67 0 0 1-.115.441.83.83 0 0 1-.434.209 4.3 4.3 0 0 1-1.043.132q-3.078-.042-3.078-2.779M589.741 162.249v-7.952a.472.472 0 0 1 .587-.587h.17a.67.67 0 0 1 .469.118.7.7 0 0 1 .115.469v2.743q.615-.809 2.022-.809a2.4 2.4 0 0 1 1.71.57 2.222 2.222 0 0 1 .601 1.687v3.761a.46.46 0 0 1-.118.468.48.48 0 0 1-.469.116h-.17a.7.7 0 0 1-.469-.115.67.67 0 0 1-.119-.469v-3.556a1.175 1.175 0 0 0-.326-.927 1.6 1.6 0 0 0-1.043-.285 1.66 1.66 0 0 0-1.212.389 1.74 1.74 0 0 0-.393 1.254v3.125a.46.46 0 0 1-.115.469.5.5 0 0 1-.218.123.5.5 0 0 1-.251-.008h-.17a.7.7 0 0 1-.469-.115.67.67 0 0 1-.132-.469M598.165 158.776v3.473a.46.46 0 0 1-.333.591.45.45 0 0 1-.25-.008h-.171a.7.7 0 0 1-.469-.114.68.68 0 0 1-.132-.469v-3.473q0-2.53 2.648-2.531 1.435.001 1.956.951.522-.95 1.957-.951 1.342.002 1.987.628c.431.417.647 1.042.647 1.903v3.473a.67.67 0 0 1-.119.469.7.7 0 0 1-.469.114h-.17a.463.463 0 0 1-.584-.583v-3.473a1.067 1.067 0 0 0-1.292-1.278 1.44 1.44 0 0 0-1.018.292 1.341 1.341 0 0 0-.299.986v3.473a.47.47 0 0 1-.337.591.5.5 0 0 1-.251-.008h-.132a.46.46 0 0 1-.591-.333.45.45 0 0 1 .008-.25v-3.473a1.45 1.45 0 0 0-1.613-1.273c-.253.03-.494.127-.698.28a1.4 1.4 0 0 0-.275.993M612.541 158.367v2.528a1.85 1.85 0 0 1-.667 1.583q-.66.504-2.113.504-2.648 0-2.648-2.007a1.72 1.72 0 0 1 .66-1.494q.657-.472 2.002-.475h1.435v-.639a.841.841 0 0 0-.347-.768 2.34 2.34 0 0 0-1.196-.212 7 7 0 0 0-1.369.118q-.287.054-.386-.034-.098-.087-.097-.382v-.184a.62.62 0 0 1 .097-.4.67.67 0 0 1 .365-.159 9 9 0 0 1 1.303-.105c.994 0 1.738.17 2.217.511a1.846 1.846 0 0 1 .744 1.615m-1.331 2.465v-.809h-1.435a1.8 1.8 0 0 0-.997.215.8.8 0 0 0-.25.306.8.8 0 0 0-.07.389.77.77 0 0 0 .313.694c.295.16.63.232.966.209.391.031.782-.046 1.133-.223a.88.88 0 0 0 .34-.781M615.16 158.627v3.622a.67.67 0 0 1-.118.469.7.7 0 0 1-.469.114h-.167a.463.463 0 0 1-.57-.583v-3.716q0-2.309 2.464-2.309.13-.01.26 0c.159.005.312.06.438.156a.7.7 0 0 1 .111.459v.201q0 .327-.104.417-.106.093-.445.042a1 1 0 0 0-.26 0 1.17 1.17 0 0 0-.873.26 1.26 1.26 0 0 0-.267.868M618.172 162.249v-7.952a.47.47 0 0 1 .119-.468.47.47 0 0 1 .468-.119h.156a.48.48 0 0 1 .468.119.47.47 0 0 1 .119.468v7.952a.67.67 0 0 1-.118.469.7.7 0 0 1-.469.114h-.156a.7.7 0 0 1-.469-.114.67.67 0 0 1-.118-.469m2.296-3.976 1.199-1.358c.146-.178.325-.326.528-.434.221-.087.458-.125.695-.111h.223q.44 0 .49.104.041.103-.244.441l-1.81 2.035a.69.69 0 0 0-.264.469.7.7 0 0 0 .25.458l2.085 2.41q.286.337.243.445c-.028.073-.194.1-.49.1h-.222a1.7 1.7 0 0 1-.695-.107 1.8 1.8 0 0 1-.528-.438l-1.46-1.708a1.82 1.82 0 0 1-.521-1.198 1.3 1.3 0 0 1 .104-.542 2.3 2.3 0 0 1 .417-.563zM627.707 155.068v-.111a.47.47 0 0 1 .587-.587h5.439a.7.7 0 0 1 .469.114.7.7 0 0 1 .135.473v.114a.7.7 0 0 1-.118.473.7.7 0 0 1-.469.114h-2.022v6.598a.7.7 0 0 1-.12.483.7.7 0 0 1-.482.114h-.18a.47.47 0 0 1-.484-.114.482.482 0 0 1-.117-.483v-6.605h-2.034a.466.466 0 0 1-.594-.335.47.47 0 0 1 .008-.252zM640.94 158.929c0 .032 0 .226-.028.57a.53.53 0 0 1-.664.601h-3.635v.288a1.16 1.16 0 0 0 .439 1.021c.436.24.931.348 1.427.309a7 7 0 0 0 1.696-.209c.209-.055.348-.045.424.018a.6.6 0 0 1 .112.437v.171a.7.7 0 0 1-.098.434.96.96 0 0 1-.438.205 6.3 6.3 0 0 1-1.696.208q-1.657 0-2.432-.674c-.518-.444-.775-1.153-.775-2.115v-1.135q0-2.83 2.895-2.83a2.84 2.84 0 0 1 2.06.694 2.7 2.7 0 0 1 .713 2.007m-4.32-.25v.327h3.055v-.327q0-1.29-1.54-1.288c-1.025 0-1.522.427-1.522 1.288zM642.026 162.121v-.171a.62.62 0 0 1 .104-.434q.105-.096.417-.02a7.3 7.3 0 0 0 1.904.246c.318.019.637-.023.939-.125a.43.43 0 0 0 .274-.434.516.516 0 0 0-.17-.406 2.6 2.6 0 0 0-.664-.375l-1.411-.629a2.5 2.5 0 0 1-.997-.694 1.76 1.76 0 0 1-.292-1.07 1.54 1.54 0 0 1 .601-1.344c.4-.285 1.043-.43 1.891-.43a5.6 5.6 0 0 1 1.511.197c.168.033.324.11.452.223.078.129.112.28.097.43v.153a.6.6 0 0 1-.111.438c-.073.066-.215.069-.424 0a5.5 5.5 0 0 0-1.553-.209 2.2 2.2 0 0 0-.886.125.43.43 0 0 0-.261.41.52.52 0 0 0 .132.372q.215.188.48.291l1.515.653c.415.147.786.398 1.077.729.226.324.339.714.32 1.108a1.57 1.57 0 0 1-.636 1.389q-.63.445-2.002.445a7.3 7.3 0 0 1-1.786-.222.9.9 0 0 1-.424-.209.7.7 0 0 1-.097-.437M647.726 157.169v-.129a.6.6 0 0 1 .091-.378.65.65 0 0 1 .347-.157l.695-.128.156-1.226a.432.432 0 0 1 .325-.471.44.44 0 0 1 .207.002h.17a.56.56 0 0 1 .379.09.54.54 0 0 1 .09.379v1.226h1.828a.67.67 0 0 1 .438.104.62.62 0 0 1 .111.441v.16a.63.63 0 0 1-.111.441.67.67 0 0 1-.438.104h-1.828v2.959q0 1.135 1.019 1.135.528.002 1.042-.118c.219-.045.348-.035.431.024a.6.6 0 0 1 .104.431v.156a.75.75 0 0 1-.104.459.73.73 0 0 1-.431.194 6 6 0 0 1-1.042.104q-2.346 0-2.346-2.399v-2.945h-.695a.35.35 0 0 1-.381-.074.35.35 0 0 1-.074-.381z"/></g></g><defs><clipPath id="a"><path fill="#fff" d="M0 0h792v1120H0z"/></clipPath></defs></svg>