<svg xmlns="http://www.w3.org/2000/svg" width="792" height="1120" fill="none"><g clip-path="url(#a)"><path fill="#fff" d="M0 0h792v1120H0z"/><path fill="#068241" d="m-10.947 819-231.736 229.086 299.72 303.187 231.736-229.086z"/><rect width="111.231" height="346.681" fill="#EC2028" rx="55.615" transform="scale(-1 1)rotate(44.671 -1270.795 102.104)"/><rect width="39.975" height="214.027" fill="#EC2028" rx="19.988" transform="scale(-1 1)rotate(44.671 -1035.232 499.248)"/><rect width="111.231" height="346.681" stroke="silver" stroke-width="12" rx="55.615" transform="scale(-1 1)rotate(44.671 -1214.252 234.97)"/><path fill="#068241" d="M842.095 295.256 1076 64.026 773.474-242 539.57-10.77z"/><rect width="112.272" height="349.927" fill="#EC2028" rx="56.136" transform="scale(1 -1)rotate(44.671 498.202 553.473)"/><rect width="40.349" height="216.03" fill="#EC2028" rx="20.175" transform="scale(1 -1)rotate(44.671 735.971 954.335)"/><rect width="112.272" height="349.927" stroke="silver" stroke-width="12" rx="56.136" transform="scale(1 -1)rotate(44.671 555.274 687.582)"/><rect width="355" height="177.947" x="-.5" y=".5" fill="#068241" stroke="#EC2028" rx="88.973" transform="matrix(-1 0 0 1 912 743)"/><rect width="173" height="173.947" x="-2.5" y="2.5" fill="#fff" stroke="#EC2028" stroke-width="5" rx="86.5" transform="matrix(-1 0 0 1 730 743)"/><path fill="#000" d="M655.018 867.194c-.722-.174-1.866.299-2.448.857-3.156 3.006-6.162 6.175-9.307 9.207-1.373 1.331-2.917 2.498-4.802 4.073a63 63 0 0 1-3.416-2.005c-2.583-1.645-5.465-3.029-7.202-5.775 1.194-.02 2.164.775 3.42.775a10.26 10.26 0 0 0 7.606-3.025c2.641-2.54 5.216-5.15 7.818-7.729"/><path fill="#373636" d="M638.333 881.451c4.007 1.42 7.827 3.196 11.845 4.08a69.6 69.6 0 0 0 13.899 1.66c10.305.144 19.838-2.715 28.668-8.113 9.366-5.744 16.289-13.574 21.036-23.39 4.456-9.199 5.883-18.957 4.945-29.021a51.1 51.1 0 0 0-4.809-17.452c-2.44-5.089-5.24-9.816-9.064-13.935-4.266-4.584-10.805-4.266-14.632.52-2.913 3.653-2.533 8.85.57 12.333a35.1 35.1 0 0 1 9.028 21.551c.71 10.448-2.645 19.508-9.583 27.148a34.8 34.8 0 0 1-15.645 9.8 36.4 36.4 0 0 1-19.573.574c-.722-.174-1.866.299-2.447.858-3.157 3.005-6.163 6.174-9.308 9.207-1.396 1.353-2.983 2.54-4.93 4.18"/><path fill="#EC2028" d="M631.767 850.895c-4.84-4.875-9.207-9.308-13.601-13.698-10.293-10.297-20.624-20.555-30.89-30.89-2.944-2.96-6.395-4.166-10.339-2.921-7.346 2.327-9.273 11.03-3.766 16.56a4903 4903 0 0 0 20.415 20.381c10.083 10.052 20.256 19.989 30.138 30.219 4.914 5.093 11.6 4.34 15.742.02 8.171-8.532 16.614-16.789 24.964-25.143 4.107-4.107 4.289-10.196.388-14.117-3.902-3.921-9.979-3.94-14.129.155-5.759 5.686-11.46 11.426-17.165 17.165a24 24 0 0 0-1.757 2.269"/><path fill="#068241" d="M665.033 776.803c-11.127.082-20.291 2.448-28.742 7.369-6.143 3.576-6.783 11.538-1.385 16.06 3.045 2.544 7.156 2.948 10.991.815a36.25 36.25 0 0 1 21.307-4.585c1.912.171 3.801.594 5.694.947 5.177.962 10.11-2.021 11.336-6.876 1.353-5.36-1.396-10.375-6.651-11.942a34 34 0 0 0-5.457-1.163c-2.8-.353-5.624-.5-7.093-.625M612.426 813.313a9.82 9.82 0 0 0 9.719 9.859c5.6.046 10.3-4.77 10.285-10.533a9.91 9.91 0 0 0-9.933-9.878c-5.425.015-10.087 4.898-10.071 10.552"/><path fill="#000" d="M605.43 1014.64c-.749 0-1.387-.2-1.914-.61s-.93-1.01-1.208-1.79c-.279-.78-.418-1.72-.418-2.83q0-1.65.418-2.82c.281-.78.686-1.38 1.213-1.79.53-.41 1.166-.62 1.909-.62.742 0 1.377.21 1.904.62.53.41.934 1.01 1.213 1.79q.423 1.17.422 2.82c0 1.11-.139 2.05-.417 2.83-.279.78-.681 1.38-1.208 1.79s-1.165.61-1.914.61m0-1.09q1.113 0 1.73-1.08c.411-.71.616-1.74.616-3.06q0-1.32-.283-2.25c-.186-.62-.454-1.1-.805-1.42a1.8 1.8 0 0 0-1.258-.49c-.736 0-1.311.37-1.725 1.09s-.622 1.75-.622 3.07q0 1.32.279 2.25c.185.61.452 1.08.8 1.4.351.32.774.49 1.268.49m8.75 1.09c-.749 0-1.387-.2-1.914-.61s-.93-1.01-1.208-1.79c-.279-.78-.418-1.72-.418-2.83q0-1.65.418-2.82c.281-.78.686-1.38 1.213-1.79.53-.41 1.166-.62 1.909-.62.742 0 1.377.21 1.904.62.53.41.934 1.01 1.213 1.79q.423 1.17.422 2.82c0 1.11-.139 2.05-.417 2.83-.279.78-.681 1.38-1.208 1.79s-1.165.61-1.914.61m0-1.09q1.113 0 1.73-1.08c.411-.71.616-1.74.616-3.06q0-1.32-.283-2.25c-.186-.62-.454-1.1-.805-1.42a1.8 1.8 0 0 0-1.258-.49c-.736 0-1.311.37-1.725 1.09s-.622 1.75-.622 3.07q0 1.32.279 2.25c.185.61.452 1.08.8 1.4.351.32.774.49 1.268.49m8.67-9.37q.627 0 1.253.24c.418.15.799.41 1.143.77q.518.54.831 1.47c.209.62.313 1.4.313 2.33 0 .91-.086 1.71-.259 2.41q-.253 1.05-.735 1.77c-.319.48-.706.85-1.164 1.1-.454.24-.968.37-1.541.37-.57 0-1.079-.11-1.526-.34a2.96 2.96 0 0 1-1.094-.95 3.3 3.3 0 0 1-.542-1.42h1.213c.11.47.327.86.651 1.16.329.3.761.46 1.298.46.786 0 1.405-.35 1.859-1.03q.687-1.035.687-2.91h-.08a3.05 3.05 0 0 1-1.511 1.19c-.312.11-.643.16-.995.16a3.1 3.1 0 0 1-1.606-.43 3.26 3.26 0 0 1-1.163-1.2c-.288-.51-.432-1.09-.432-1.75q0-.93.417-1.71a3.17 3.17 0 0 1 1.183-1.24q.766-.465 1.8-.45m0 1.09c-.417 0-.794.11-1.128.32-.332.2-.595.48-.791.83-.192.35-.288.74-.288 1.16s.093.81.278 1.16c.189.34.446.62.771.82.328.21.701.31 1.118.31.315 0 .609-.06.88-.19q.408-.18.711-.51c.206-.22.367-.47.483-.74q.174-.42.174-.87c0-.4-.097-.77-.289-1.12a2.2 2.2 0 0 0-.785-.84q-.498-.33-1.134-.33m5.54 9.23 4.554-9.01v-.08h-5.25v-1.09h6.522v1.15l-4.534 9.03zm11.259-10.18v10.18h-1.233v-8.89h-.059l-2.486 1.65v-1.25l2.545-1.69zm6.11 10.32c-.583 0-1.108-.12-1.576-.35a2.93 2.93 0 0 1-1.123-.95 2.64 2.64 0 0 1-.463-1.39h1.193c.047.47.256.85.627 1.15q.562.45 1.342.45.627 0 1.114-.3c.328-.19.585-.46.77-.8q.284-.525.284-1.17c0-.45-.098-.84-.293-1.19a2.15 2.15 0 0 0-.796-.83c-.338-.2-.724-.3-1.158-.31q-.468 0-.96.15a2.6 2.6 0 0 0-.81.37l-1.154-.14.617-5.01h5.29v1.09h-4.256l-.358 3h.06a2.961 2.961 0 0 1 1.77-.57q.935 0 1.665.45c.491.29.875.69 1.153 1.21.282.51.423 1.1.423 1.76q0 .975-.437 1.74-.434.765-1.194 1.2c-.507.29-1.083.44-1.73.44m8.657 0c-.749 0-1.387-.2-1.914-.61s-.93-1.01-1.208-1.79c-.279-.78-.418-1.72-.418-2.83q0-1.65.418-2.82c.282-.78.686-1.38 1.213-1.79.53-.41 1.167-.62 1.909-.62s1.377.21 1.904.62c.53.41.935 1.01 1.213 1.79q.423 1.17.423 2.82c0 1.11-.139 2.05-.418 2.83s-.681 1.38-1.208 1.79-1.165.61-1.914.61m0-1.09q1.113 0 1.73-1.08c.411-.71.617-1.74.617-3.06q0-1.32-.284-2.25c-.185-.62-.454-1.1-.805-1.42a1.8 1.8 0 0 0-1.258-.49c-.736 0-1.311.37-1.725 1.09s-.622 1.75-.622 3.07q0 1.32.279 2.25c.185.61.452 1.08.8 1.4.352.32.774.49 1.268.49m8.869 1.09c-.656 0-1.241-.11-1.755-.34-.51-.22-.916-.54-1.218-.94q-.447-.6-.487-1.41h1.253c.026.33.139.62.338.85.199.24.459.42.781.55.321.13.677.2 1.068.2.438 0 .826-.08 1.164-.23.338-.16.603-.37.795-.64s.289-.59.289-.94q0-.57-.279-.99a1.8 1.8 0 0 0-.815-.68q-.537-.24-1.313-.24h-.815v-1.1h.815c.405 0 .759-.07 1.064-.22.309-.14.549-.35.721-.61.176-.27.264-.58.264-.94q0-.51-.229-.9a1.57 1.57 0 0 0-.646-.59c-.275-.15-.6-.22-.975-.22-.351 0-.683.07-.994.2-.308.12-.56.31-.756.55a1.45 1.45 0 0 0-.318.86h-1.193c.02-.53.18-1 .482-1.4s.696-.72 1.183-.94a3.76 3.76 0 0 1 1.616-.34c.63 0 1.17.13 1.621.38s.797.59 1.039 1c.242.42.363.86.363 1.34q0 .87-.453 1.47-.447.6-1.218.84v.08c.643.11 1.146.38 1.507.82s.542.98.542 1.63c0 .55-.151 1.05-.453 1.49-.298.43-.706.78-1.223 1.03s-1.105.38-1.765.38m8.735 0q-1.024 0-1.809-.36a3.05 3.05 0 0 1-1.218-1.01 2.53 2.53 0 0 1-.433-1.47 2.7 2.7 0 0 1 .254-1.2c.172-.37.407-.67.706-.92.301-.25.638-.4 1.009-.47v-.06c-.487-.13-.875-.4-1.163-.82a2.5 2.5 0 0 1-.428-1.45c-.003-.51.128-.98.393-1.38.265-.41.63-.73 1.094-.97.467-.23.999-.35 1.595-.35.59 0 1.117.12 1.581.35.464.24.829.56 1.094.97.269.4.404.87.408 1.38a2.53 2.53 0 0 1-.443 1.45c-.288.42-.671.69-1.148.82v.06c.368.07.699.22.994.47s.531.55.706.92c.176.37.265.76.269 1.2a2.57 2.57 0 0 1-.448 1.47c-.291.42-.697.76-1.218 1.01q-.775.36-1.795.36m0-1.09c.461 0 .859-.08 1.194-.23q.501-.225.775-.63c.182-.27.275-.59.279-.95a1.8 1.8 0 0 0-.299-1.02c-.195-.3-.462-.53-.8-.7-.335-.17-.718-.25-1.149-.25-.434 0-.822.08-1.163.25-.338.17-.605.4-.8.7q-.289.435-.284 1.02c-.003.36.085.68.264.95q.273.405.78.63c.338.15.739.23 1.203.23m0-4.84c.365 0 .688-.07.97-.22.285-.14.509-.35.671-.61s.245-.57.249-.92a1.73 1.73 0 0 0-.244-.9 1.56 1.56 0 0 0-.661-.59c-.282-.15-.61-.22-.985-.22-.381 0-.714.07-.999.22-.285.14-.505.33-.661.59q-.234.39-.229.9c-.003.35.075.66.234.92.162.26.386.47.671.61.285.15.613.22.984.22m5.127 3.7v-1.01l4.475-7.08h.736v1.57h-.498l-3.38 5.35v.08h6.025v1.09zm4.793 2.09v-10.18h1.173v10.18zm4.428 0v-.89l3.361-3.68c.395-.43.719-.81.975-1.13q.383-.48.566-.9.189-.435.189-.9 0-.54-.258-.93a1.66 1.66 0 0 0-.696-.6 2.16 2.16 0 0 0-.995-.22c-.391 0-.732.08-1.024.25a1.67 1.67 0 0 0-.671.67c-.156.29-.234.62-.234 1.01h-1.173c0-.59.138-1.12.413-1.57q.412-.675 1.123-1.05c.478-.26 1.013-.38 1.606-.38.597 0 1.125.12 1.586.38q.691.375 1.084 1.02c.262.42.393.9.393 1.42 0 .38-.068.74-.204 1.1-.133.36-.365.75-.696 1.19q-.492.645-1.367 1.59l-2.287 2.45v.08h4.733v1.09zm11.858.14a4 4 0 0 1-1.253-.24 3 3 0 0 1-1.144-.77c-.344-.36-.621-.86-.83-1.48q-.313-.93-.313-2.34 0-1.35.253-2.4c.169-.7.415-1.29.736-1.76.322-.48.71-.85 1.164-1.1.457-.25.972-.37 1.546-.37.57 0 1.077.11 1.521.34.448.23.812.54 1.094.95.282.4.464.87.547 1.39h-1.213a2.25 2.25 0 0 0-.657-1.13c-.324-.31-.755-.46-1.292-.46-.789 0-1.411.35-1.865 1.03-.45.69-.677 1.65-.681 2.89h.08a3.03 3.03 0 0 1 1.516-1.19c.312-.11.642-.16.99-.16.583 0 1.116.14 1.6.44.484.28.872.68 1.164 1.19s.437 1.09.437 1.75c0 .63-.141 1.21-.422 1.73s-.678.93-1.189 1.24q-.76.465-1.789.45m0-1.09c.417 0 .792-.11 1.123-.32q.503-.315.791-.84.293-.525.293-1.17c0-.42-.094-.8-.283-1.15a2.2 2.2 0 0 0-.771-.83 2 2 0 0 0-1.114-.31c-.314 0-.608.06-.88.19q-.407.18-.715.51a2.4 2.4 0 0 0-.478.74 2.2 2.2 0 0 0-.174.87 2.35 2.35 0 0 0 1.069 1.98q.502.33 1.139.33m8.736 1.09a4 4 0 0 1-1.253-.24 3 3 0 0 1-1.143-.77c-.345-.36-.622-.86-.831-1.48q-.312-.93-.313-2.34 0-1.35.254-2.4c.169-.7.414-1.29.736-1.76.321-.48.709-.85 1.163-1.1.457-.25.973-.37 1.546-.37.57 0 1.077.11 1.521.34.448.23.812.54 1.094.95.282.4.464.87.547 1.39h-1.213a2.25 2.25 0 0 0-.656-1.13c-.325-.31-.756-.46-1.293-.46-.789 0-1.41.35-1.864 1.03-.451.69-.678 1.65-.681 2.89h.079q.279-.42.661-.72c.259-.2.544-.36.856-.47s.641-.16.989-.16c.583 0 1.117.14 1.601.44.484.28.871.68 1.163 1.19s.438 1.09.438 1.75c0 .63-.141 1.21-.423 1.73a3.23 3.23 0 0 1-1.188 1.24q-.76.465-1.79.45m0-1.09c.418 0 .792-.11 1.124-.32q.501-.315.79-.84.293-.525.293-1.17c0-.42-.094-.8-.283-1.15a2.2 2.2 0 0 0-.771-.83 2 2 0 0 0-1.113-.31c-.315 0-.608.06-.88.19q-.408.18-.716.51c-.202.21-.361.46-.477.74a2.35 2.35 0 0 0 .895 2.85q.501.33 1.138.33m8.736 1.09a4 4 0 0 1-1.253-.24 3 3 0 0 1-1.143-.77c-.345-.36-.621-.86-.83-1.48q-.313-.93-.313-2.34 0-1.35.253-2.4c.169-.7.414-1.29.736-1.76.321-.48.709-.85 1.163-1.1.458-.25.973-.37 1.546-.37.57 0 1.078.11 1.522.34.447.23.812.54 1.093.95.282.4.464.87.547 1.39h-1.213a2.24 2.24 0 0 0-.656-1.13c-.325-.31-.756-.46-1.293-.46-.788 0-1.41.35-1.864 1.03-.451.69-.678 1.65-.681 2.89h.08a3.03 3.03 0 0 1 1.516-1.19c.311-.11.641-.16.989-.16.584 0 1.117.14 1.601.44.484.28.872.68 1.163 1.19s.438 1.09.438 1.75c0 .63-.141 1.21-.423 1.73-.281.52-.677.93-1.188 1.24q-.76.465-1.79.45m0-1.09c.418 0 .792-.11 1.124-.32q.502-.315.79-.84.294-.525.294-1.17c0-.42-.095-.8-.284-1.15a2.2 2.2 0 0 0-.77-.83 2 2 0 0 0-1.114-.31c-.315 0-.608.06-.88.19q-.408.18-.716.51c-.202.21-.361.46-.477.74a2.35 2.35 0 0 0 .895 2.85q.502.33 1.138.33"/><path fill="#EC2028" d="M744 1021c6.627 0 12-5.37 12-12s-5.373-12-12-12-12 5.37-12 12 5.373 12 12 12"/><path fill="#fff" fill-rule="evenodd" d="M740.229 1016c-.065 0-.131 0-.194-.02a.6.6 0 0 1-.171-.09.45.45 0 0 1-.152-.22l-.687-2.01a.47.47 0 0 1 .236-.57l2.225-1.15a.53.53 0 0 1 .557.06l.036.03 1.134 1.11a7.43 7.43 0 0 0 3.339-3.82l-1.343-.87-.04-.03a.47.47 0 0 1-.16-.23.47.47 0 0 1 .004-.28l.79-2.31a.4.4 0 0 1 .089-.15.524.524 0 0 1 .451-.17l2.192.29c.111.02.214.07.292.15.078.07.125.18.135.28a8.9 8.9 0 0 1-.404 3.58 9.05 9.05 0 0 1-1.801 3.15 9.55 9.55 0 0 1-2.925 2.26c-1.12.56-2.344.9-3.603 1.01m4.32-11.42c.05-.02.103-.02.155-.02.052.01.102.03.147.05.044.03.082.06.11.11.029.04.046.09.052.14l.027.23a.3.3 0 0 1-.049.2.33.33 0 0 1-.17.14.9.9 0 0 0-.361.26.87.87 0 0 0-.196.38.36.36 0 0 1-.112.19.5.5 0 0 1-.206.08l-.239.01a.27.27 0 0 1-.154-.02.34.34 0 0 1-.127-.09.333.333 0 0 1-.087-.28c.055-.31.195-.6.408-.85.213-.24.49-.42.802-.53m-.345-3.57a.34.34 0 0 1 .142 0q.07.015.128.06c.038.02.07.06.094.1a.3.3 0 0 1 .044.13l.027.22c.01.08-.014.17-.067.24a.35.35 0 0 1-.218.12c-1.07.19-2.038.73-2.736 1.53a4.32 4.32 0 0 0-1.081 2.84.332.332 0 0 1-.325.33l-.232.02c-.047 0-.095 0-.14-.02a.3.3 0 0 1-.121-.07.34.34 0 0 1-.113-.24 5.17 5.17 0 0 1 1.297-3.43 5.55 5.55 0 0 1 3.301-1.83m.186 1.77a.4.4 0 0 1 .145 0c.048.01.093.03.133.05.04.03.073.07.098.11.024.04.04.08.045.13l.027.22c.01.08-.012.17-.062.23a.3.3 0 0 1-.207.13c-.598.13-1.136.45-1.529.9-.394.45-.62 1.01-.646 1.6a.3.3 0 0 1-.1.21c-.06.06-.14.1-.225.1l-.232.02a.7.7 0 0 1-.144-.02.3.3 0 0 1-.124-.08.3.3 0 0 1-.081-.11.4.4 0 0 1-.026-.14c.03-.79.334-1.55.864-2.16a3.8 3.8 0 0 1 2.064-1.19" clip-rule="evenodd"/><path fill="#000" d="m515.635 1040.57-1.054.3a2.1 2.1 0 0 0-.293-.51 1.4 1.4 0 0 0-.517-.42c-.219-.11-.499-.16-.84-.16-.468 0-.857.11-1.169.32q-.462.315-.462.81 0 .435.318.69c.212.17.544.31.995.43l1.133.27c.683.17 1.192.42 1.526.76s.503.78.503 1.31c0 .44-.126.83-.378 1.18q-.374.51-1.044.81-.672.3-1.561.3-1.169 0-1.934-.51c-.511-.34-.834-.83-.97-1.48l1.114-.28q.159.615.601.93.448.3 1.169.3c.547 0 .981-.11 1.302-.34.325-.24.487-.52.487-.85 0-.26-.092-.49-.278-.66-.186-.19-.471-.32-.855-.41l-1.273-.3c-.699-.17-1.213-.42-1.541-.77q-.487-.525-.487-1.32 0-.645.363-1.14.367-.495.999-.78c.424-.19.905-.29 1.442-.29.755 0 1.349.17 1.78.5.434.33.742.77.924 1.31m6.718 2.81v-4.52h1.173v7.64h-1.173v-1.29h-.079c-.179.39-.458.71-.836.99-.377.27-.855.4-1.431.4-.478 0-.902-.1-1.273-.31a2.2 2.2 0 0 1-.875-.96c-.212-.43-.318-.96-.318-1.61v-4.86h1.173v4.78c0 .55.156 1 .467 1.33.315.33.716.5 1.203.5.292 0 .589-.08.89-.23.305-.15.56-.38.766-.68.209-.31.313-.7.313-1.18m3.322 5.98v-10.5h1.134v1.22h.139c.086-.14.206-.3.358-.51.156-.21.378-.39.666-.56.292-.16.686-.25 1.184-.25.643 0 1.209.16 1.7.49.49.32.873.77 1.148 1.36s.413 1.29.413 2.09q0 1.215-.413 2.1-.412.885-1.143 1.38-.73.48-1.686.48-.735 0-1.178-.24a2.2 2.2 0 0 1-.681-.57 7 7 0 0 1-.368-.52h-.099v4.03zm1.154-6.68q0 .87.253 1.53c.169.44.416.78.741 1.03.325.24.723.37 1.193.37q.736 0 1.228-.39c.332-.26.58-.62.746-1.06.169-.44.254-.93.254-1.48 0-.54-.083-1.02-.249-1.45-.162-.43-.409-.78-.741-1.03-.328-.25-.741-.38-1.238-.38q-.716 0-1.203.36c-.325.24-.57.57-.736 1.01-.165.42-.248.92-.248 1.49m7.378 6.68v-10.5h1.133v1.22h.139c.087-.14.206-.3.358-.51.156-.21.378-.39.667-.56.291-.16.686-.25 1.183-.25.643 0 1.21.16 1.7.49.491.32.873.77 1.149 1.36.275.59.412 1.29.412 2.09q0 1.215-.412 2.1-.414.885-1.144 1.38-.73.48-1.685.48-.736 0-1.179-.24a2.2 2.2 0 0 1-.681-.57 7 7 0 0 1-.368-.52h-.099v4.03zm1.153-6.68q0 .87.254 1.53c.169.44.416.78.74 1.03.325.24.723.37 1.194.37q.735 0 1.228-.39c.331-.26.58-.62.745-1.06.169-.44.254-.93.254-1.48 0-.54-.083-1.02-.249-1.45-.162-.43-.409-.78-.74-1.03-.329-.25-.741-.38-1.238-.38q-.717 0-1.204.36c-.324.24-.57.57-.735 1.01-.166.42-.249.92-.249 1.49m10.48 3.98c-.689 0-1.294-.16-1.814-.49a3.37 3.37 0 0 1-1.214-1.38q-.432-.885-.432-2.07c0-.79.144-1.49.432-2.08.292-.59.697-1.06 1.214-1.38.52-.33 1.125-.5 1.814-.5s1.293.17 1.81.5c.52.32.925.79 1.213 1.38.292.59.437 1.29.437 2.08q0 1.185-.437 2.07a3.3 3.3 0 0 1-1.213 1.38c-.517.33-1.12.49-1.81.49m0-1.05c.524 0 .955-.14 1.293-.41s.588-.62.751-1.06c.162-.43.243-.91.243-1.42s-.081-.98-.243-1.43a2.4 2.4 0 0 0-.751-1.06c-.338-.28-.769-.41-1.293-.41s-.954.13-1.292.41a2.37 2.37 0 0 0-.751 1.06c-.163.45-.244.92-.244 1.43s.081.99.244 1.42c.162.44.413.79.751 1.06s.769.41 1.292.41m5.251.89v-7.64h1.134v1.16h.08c.139-.38.391-.69.755-.92q.548-.36 1.233-.36c.086 0 .194.01.323.01.13 0 .227.01.294.01v1.2a3.112 3.112 0 0 0-.716-.08c-.371 0-.703.08-.995.23a1.713 1.713 0 0 0-.934 1.56v4.83zm9.009-7.64v1h-3.957v-1zm-2.804-1.83h1.173v7.28q0 .495.144.75.15.24.378.33c.156.05.32.08.492.08.13 0 .236-.01.319-.02.083-.02.149-.03.199-.04l.238 1.05q-.119.045-.333.09c-.142.03-.323.05-.542.05q-.497 0-.974-.21a1.95 1.95 0 0 1-.786-.66c-.205-.29-.308-.66-.308-1.1zm10.435 12.15c-1.014 0-1.91-.13-2.689-.41s-1.434-.68-1.964-1.22-.931-1.2-1.203-1.97c-.272-.78-.408-1.68-.408-2.68 0-.97.138-1.84.413-2.6q.417-1.155 1.208-1.95.795-.81 1.929-1.23 1.138-.42 2.575-.42 1.397 0 2.446.45c.703.31 1.289.71 1.76 1.23.474.52.829 1.09 1.064 1.74.239.64.358 1.3.358 1.99 0 .48-.023.96-.07 1.46-.046.49-.144.94-.293 1.36q-.223.615-.691.99c-.308.26-.726.38-1.253.38-.232 0-.487-.04-.765-.11a1.9 1.9 0 0 1-.741-.36c-.216-.17-.343-.4-.383-.68h-.06q-.119.285-.368.54c-.162.18-.376.31-.641.42-.262.1-.582.14-.959.13-.431-.02-.811-.11-1.139-.29a2.5 2.5 0 0 1-.825-.72 3.5 3.5 0 0 1-.497-1.07q-.165-.615-.164-1.32 0-.675.198-1.23c.133-.37.317-.69.552-.97.239-.28.517-.5.835-.67.322-.17.668-.27 1.04-.31.331-.03.633-.02.904.04.272.06.496.15.672.28.175.12.286.25.333.4h.059v-.56h1.054v4.49c0 .28.078.53.234.74s.383.32.681.32c.338 0 .597-.12.776-.35q.273-.345.372-1.08c.07-.48.105-1.1.105-1.85q0-.675-.184-1.32a4.4 4.4 0 0 0-.547-1.22 3.9 3.9 0 0 0-.92-.99 4.2 4.2 0 0 0-1.307-.68c-.497-.17-1.062-.25-1.696-.25q-1.167 0-2.093.36-.92.36-1.566 1.05a4.7 4.7 0 0 0-.979 1.67c-.222.66-.333 1.4-.333 2.23q0 1.275.333 2.25c.225.66.557 1.21.994 1.66.441.45.986.8 1.636 1.03s1.399.35 2.247.35c.365 0 .724-.03 1.079-.1s.668-.15.94-.23c.271-.09.467-.15.586-.19l.279.92c-.206.08-.474.17-.806.26q-.492.12-1.054.21c-.371.06-.726.08-1.064.08m-.576-3.95q.666 0 1.078-.27t.602-.81c.126-.36.189-.82.189-1.37 0-.56-.07-.99-.209-1.3a1.28 1.28 0 0 0-.616-.66 2.5 2.5 0 0 0-1.005-.19q-.566 0-.969.3c-.265.2-.469.46-.612.79-.139.32-.208.68-.208 1.06 0 .43.056.82.169 1.2q.168.555.552.9c.255.23.598.35 1.029.35m10.068 1.45q-.726 0-1.317-.27a2.35 2.35 0 0 1-.94-.8c-.232-.36-.348-.78-.348-1.28 0-.44.086-.79.259-1.06.172-.28.402-.49.691-.65.288-.15.606-.27.954-.35q.528-.12 1.059-.18c.464-.06.841-.11 1.129-.14.292-.03.504-.09.636-.16.136-.08.204-.21.204-.4v-.04q0-.735-.403-1.14c-.265-.28-.667-.41-1.208-.41-.56 0-.999.12-1.317.37q-.477.36-.671.78l-1.114-.4q.298-.69.795-1.08c.335-.26.7-.44 1.094-.55.398-.1.789-.16 1.174-.16q.367 0 .845.09.482.09.929.36.453.27.751.81c.199.36.298.84.298 1.45v5.03h-1.173v-1.03h-.06c-.079.16-.212.34-.397.53a2.2 2.2 0 0 1-.741.48c-.308.13-.685.2-1.129.2m.179-1.06q.696 0 1.174-.27c.321-.18.563-.42.725-.7.166-.29.249-.6.249-.91v-1.08c-.05.06-.159.12-.328.17q-.249.06-.577.12l-.631.09q-.303.03-.492.06c-.305.04-.59.1-.855.19-.262.09-.474.22-.637.4-.159.17-.238.4-.238.7q0 .615.452.93.457.3 1.158.3m5.622.88v-10.18h1.173v3.76h.1c.086-.14.205-.3.358-.51.155-.21.377-.39.666-.56.292-.16.686-.25 1.183-.25.643 0 1.21.16 1.7.49.491.32.874.77 1.149 1.36s.412 1.29.412 2.09q0 1.215-.412 2.1t-1.144 1.38q-.73.48-1.685.48-.736 0-1.178-.24a2.2 2.2 0 0 1-.681-.57 7 7 0 0 1-.368-.52h-.14v1.17zm1.153-3.82q0 .87.254 1.53c.169.44.416.78.741 1.03.325.24.722.37 1.193.37q.736 0 1.228-.39c.331-.26.58-.62.746-1.06.169-.44.253-.93.253-1.48 0-.54-.083-1.02-.248-1.45-.163-.43-.41-.78-.741-1.03-.328-.25-.741-.38-1.238-.38q-.716 0-1.203.36c-.325.24-.57.57-.736 1.01-.166.42-.249.92-.249 1.49m10.704-3.82v1h-3.957v-1zm-2.804-1.83h1.174v7.28q0 .495.144.75.149.24.378.33c.155.05.319.08.492.08.129 0 .235-.01.318-.02.083-.02.149-.03.199-.04l.238 1.05q-.119.045-.333.09c-.142.03-.323.05-.542.05q-.497 0-.974-.21a1.95 1.95 0 0 1-.786-.66c-.205-.29-.308-.66-.308-1.1zm8.671 4.56v1.09h-4.455v-1.09zm4.311 5.09q-.726 0-1.317-.27a2.35 2.35 0 0 1-.94-.8c-.232-.36-.348-.78-.348-1.28 0-.44.086-.79.259-1.06.172-.28.402-.49.691-.65.288-.15.606-.27.954-.35q.528-.12 1.059-.18c.464-.06.84-.11 1.129-.14.291-.03.504-.09.636-.16.136-.08.204-.21.204-.4v-.04q0-.735-.403-1.14c-.265-.28-.668-.41-1.208-.41-.56 0-.999.12-1.317.37q-.477.36-.671.78l-1.114-.4q.299-.69.795-1.08c.335-.26.7-.44 1.094-.55.398-.1.789-.16 1.173-.16q.368 0 .846.09.482.09.929.36.453.27.751.81c.199.36.298.84.298 1.45v5.03h-1.173v-1.03h-.06c-.079.16-.212.34-.397.53a2.2 2.2 0 0 1-.741.48c-.308.13-.685.2-1.129.2m.179-1.06q.696 0 1.174-.27c.321-.18.563-.42.725-.7.166-.29.249-.6.249-.91v-1.08c-.05.06-.159.12-.328.17q-.249.06-.577.12l-.631.09q-.303.03-.492.06c-.305.04-.59.1-.856.19-.261.09-.473.22-.636.4-.159.17-.239.4-.239.7q0 .615.453.93.457.3 1.158.3m10.872-5.05-1.054.3a2.1 2.1 0 0 0-.293-.51 1.4 1.4 0 0 0-.517-.42c-.219-.11-.499-.16-.841-.16-.467 0-.856.11-1.168.32q-.462.315-.462.81 0 .435.318.69c.212.17.543.31.994.43l1.134.27c.682.17 1.191.42 1.526.76s.502.78.502 1.31c0 .44-.126.83-.378 1.18q-.372.51-1.044.81-.671.3-1.561.3-1.168 0-1.934-.51c-.51-.34-.833-.83-.969-1.48l1.113-.28q.16.615.602.93.447.3 1.168.3c.547 0 .981-.11 1.303-.34.325-.24.487-.52.487-.85a.87.87 0 0 0-.278-.66c-.186-.19-.471-.32-.855-.41l-1.273-.3c-.7-.17-1.213-.42-1.541-.77q-.488-.525-.488-1.32 0-.645.363-1.14.369-.495 1-.78c.424-.19.904-.29 1.441-.29.756 0 1.349.17 1.78.5.434.33.743.77.925 1.31m7.314 0-1.054.3a2.1 2.1 0 0 0-.293-.51 1.4 1.4 0 0 0-.517-.42c-.219-.11-.499-.16-.84-.16-.468 0-.857.11-1.169.32q-.462.315-.462.81 0 .435.318.69c.212.17.544.31.995.43l1.133.27c.683.17 1.192.42 1.526.76s.503.78.503 1.31c0 .44-.126.83-.378 1.18q-.374.51-1.044.81-.672.3-1.561.3-1.169 0-1.934-.51c-.511-.34-.834-.83-.97-1.48l1.114-.28q.159.615.601.93.448.3 1.169.3c.547 0 .981-.11 1.302-.34.325-.24.487-.52.487-.85 0-.26-.092-.49-.278-.66-.186-.19-.471-.32-.855-.41l-1.273-.3c-.699-.17-1.213-.42-1.541-.77q-.487-.525-.487-1.32 0-.645.363-1.14.368-.495.999-.78c.424-.19.905-.29 1.442-.29.755 0 1.349.17 1.78.5.434.33.742.77.924 1.31m5.107 6.09c-.735 0-1.37-.16-1.904-.49-.53-.33-.939-.78-1.228-1.37-.285-.59-.427-1.28-.427-2.06q0-1.17.427-2.07c.289-.6.69-1.06 1.203-1.4q.776-.51 1.81-.51c.398 0 .791.07 1.178.2.388.14.741.35 1.059.65.319.29.572.69.761 1.17q.283.735.283 1.8v.5h-5.886v-1.01h4.693c0-.44-.086-.82-.258-1.16-.169-.34-.411-.6-.726-.8-.312-.19-.68-.29-1.104-.29-.467 0-.872.11-1.213.35a2.2 2.2 0 0 0-.78.89c-.183.37-.274.76-.274 1.18v.68q0 .87.298 1.47c.203.39.483.7.841.91.358.2.773.31 1.247.31.309 0 .587-.05.836-.13.252-.09.469-.23.651-.4.182-.18.323-.4.423-.67l1.133.32c-.119.38-.32.72-.602 1.01s-.629.52-1.044.68q-.621.24-1.397.24m10.356-6.09-1.054.3a2.1 2.1 0 0 0-.293-.51 1.4 1.4 0 0 0-.517-.42c-.219-.11-.499-.16-.84-.16-.468 0-.857.11-1.169.32q-.462.315-.462.81 0 .435.318.69c.212.17.544.31.995.43l1.133.27c.683.17 1.192.42 1.526.76s.502.78.502 1.31c0 .44-.125.83-.377 1.18q-.374.51-1.044.81-.672.3-1.561.3-1.169 0-1.934-.51c-.511-.34-.834-.83-.97-1.48l1.114-.28q.159.615.601.93.448.3 1.169.3c.546 0 .981-.11 1.302-.34.325-.24.487-.52.487-.85 0-.26-.092-.49-.278-.66-.186-.19-.471-.32-.855-.41l-1.273-.3c-.699-.17-1.213-.42-1.541-.77q-.487-.525-.487-1.32 0-.645.363-1.14.367-.495.999-.78c.424-.19.905-.29 1.442-.29.755 0 1.349.17 1.78.5.434.33.742.77.924 1.31m7.315 0-1.054.3a2.1 2.1 0 0 0-.294-.51 1.4 1.4 0 0 0-.517-.42c-.218-.11-.498-.16-.84-.16-.467 0-.857.11-1.168.32q-.462.315-.463.81 0 .435.319.69c.212.17.543.31.994.43l1.133.27c.683.17 1.192.42 1.527.76s.502.78.502 1.31c0 .44-.126.83-.378 1.18q-.373.51-1.044.81t-1.561.3q-1.169 0-1.934-.51c-.51-.34-.834-.83-.969-1.48l1.113-.28q.16.615.602.93.447.3 1.168.3c.547 0 .981-.11 1.303-.34.324-.24.487-.52.487-.85 0-.26-.093-.49-.279-.66-.185-.19-.47-.32-.855-.41l-1.272-.3c-.7-.17-1.213-.42-1.542-.77q-.486-.525-.487-1.32 0-.645.363-1.14.368-.495.999-.78c.425-.19.905-.29 1.442-.29.756 0 1.349.17 1.78.5.434.33.742.77.925 1.31m1.905 5.93v-7.64h1.134v1.2h.099c.159-.41.416-.73.771-.95.354-.23.78-.35 1.277-.35.504 0 .923.12 1.258.35.338.22.602.54.791.95h.079c.196-.4.489-.71.88-.94q.587-.36 1.407-.36c.683 0 1.241.22 1.676.65q.651.63.651 1.98v5.11h-1.174v-5.11c0-.56-.154-.97-.462-1.21a1.72 1.72 0 0 0-1.089-.36c-.537 0-.953.16-1.248.49-.294.32-.442.72-.442 1.22v4.97h-1.193v-5.23q0-.645-.423-1.05c-.281-.27-.644-.4-1.089-.4q-.456 0-.855.24c-.261.16-.474.39-.636.68q-.239.42-.239.99v4.77zm15.37.16c-.736 0-1.371-.16-1.904-.49-.531-.33-.94-.78-1.228-1.37-.285-.59-.428-1.28-.428-2.06q0-1.17.428-2.07c.288-.6.689-1.06 1.203-1.4q.775-.51 1.809-.51c.398 0 .791.07 1.179.2.387.14.74.35 1.059.65.318.29.571.69.76 1.17q.284.735.284 1.8v.5h-5.887v-1.01h4.693c0-.44-.086-.82-.258-1.16-.169-.34-.411-.6-.726-.8a2.1 2.1 0 0 0-1.104-.29c-.467 0-.871.11-1.213.35a2.2 2.2 0 0 0-.78.89c-.182.37-.274.76-.274 1.18v.68q0 .87.299 1.47c.202.39.482.7.84.91.358.2.774.31 1.248.31.308 0 .586-.05.835-.13.252-.09.469-.23.651-.4.183-.18.323-.4.423-.67l1.133.32c-.119.38-.319.72-.601 1.01s-.63.52-1.044.68q-.622.24-1.397.24m6.12-4.75v4.59h-1.174v-7.64h1.134v1.2h.099c.179-.39.451-.7.816-.94q.546-.36 1.412-.36c.517 0 .969.11 1.357.32q.582.315.905.96c.215.42.323.96.323 1.61v4.85h-1.173v-4.77c0-.6-.156-1.07-.468-1.4q-.467-.51-1.282-.51-.562 0-1.005.24c-.291.16-.522.4-.691.71q-.253.465-.253 1.14m10.337-3.05v1h-3.957v-1zm-2.804-1.83h1.173v7.28q0 .495.144.75.15.24.378.33c.156.05.32.08.492.08.13 0 .236-.01.319-.02.083-.02.149-.03.199-.04l.238 1.05q-.118.045-.333.09c-.142.03-.323.05-.542.05q-.497 0-.974-.21a1.95 1.95 0 0 1-.786-.66c-.205-.29-.308-.66-.308-1.1zm9.841 3.54-1.054.3a2.1 2.1 0 0 0-.293-.51 1.4 1.4 0 0 0-.517-.42c-.219-.11-.499-.16-.84-.16-.468 0-.857.11-1.169.32q-.462.315-.462.81 0 .435.318.69c.212.17.544.31.995.43l1.133.27c.683.17 1.192.42 1.526.76s.502.78.502 1.31c0 .44-.126.83-.377 1.18q-.373.51-1.044.81t-1.562.3q-1.168 0-1.933-.51c-.511-.34-.834-.83-.97-1.48l1.114-.28q.159.615.601.93.448.3 1.169.3c.546 0 .981-.11 1.302-.34.325-.24.487-.52.487-.85 0-.26-.092-.49-.278-.66-.186-.19-.471-.32-.855-.41l-1.273-.3c-.699-.17-1.213-.42-1.541-.77q-.487-.525-.487-1.32 0-.645.363-1.14.368-.495.999-.78c.424-.19.905-.29 1.442-.29.755 0 1.349.17 1.78.5.434.33.742.77.924 1.31m2.761 6.01a.88.88 0 0 1-.632-.26.88.88 0 0 1-.263-.64q0-.36.263-.63a.88.88 0 0 1 .632-.26.88.88 0 0 1 .631.26q.264.27.264.63 0 .255-.125.45a.88.88 0 0 1-.77.45m6.102.08q-1.074 0-1.849-.51c-.517-.34-.915-.8-1.193-1.4-.279-.59-.418-1.27-.418-2.03 0-.77.143-1.46.428-2.05.288-.6.689-1.06 1.203-1.4q.776-.51 1.809-.51.805 0 1.452.3t1.059.84c.275.36.446.77.512 1.25h-1.173c-.09-.35-.288-.66-.597-.92-.305-.28-.716-.41-1.233-.41q-.685 0-1.203.36c-.341.23-.608.56-.8 1-.189.42-.284.93-.284 1.5 0 .59.093 1.11.279 1.54q.284.66.795 1.02c.345.24.749.37 1.213.37.305 0 .582-.06.831-.16.248-.11.459-.26.631-.46q.258-.3.368-.72h1.173c-.066.45-.23.86-.492 1.22-.259.36-.602.64-1.029.86-.424.2-.918.31-1.482.31m7.821 0c-.69 0-1.295-.16-1.815-.49a3.37 3.37 0 0 1-1.213-1.38q-.433-.885-.433-2.07c0-.79.145-1.49.433-2.08.292-.59.696-1.06 1.213-1.38.52-.33 1.125-.5 1.815-.5.689 0 1.292.17 1.809.5.521.32.925.79 1.213 1.38.292.59.438 1.29.438 2.08q0 1.185-.438 2.07a3.3 3.3 0 0 1-1.213 1.38c-.517.33-1.12.49-1.809.49m0-1.05c.523 0 .954-.14 1.292-.41s.589-.62.751-1.06c.162-.43.244-.91.244-1.42s-.082-.98-.244-1.43a2.37 2.37 0 0 0-.751-1.06c-.338-.28-.769-.41-1.292-.41-.524 0-.955.13-1.293.41-.338.27-.588.62-.751 1.06-.162.45-.243.92-.243 1.43s.081.99.243 1.42c.163.44.413.79.751 1.06s.769.41 1.293.41m5.251.89v-7.64h1.133v1.2h.1c.159-.41.416-.73.77-.95.355-.23.781-.35 1.278-.35.504 0 .923.12 1.258.35.338.22.602.54.79.95h.08c.196-.4.489-.71.88-.94q.586-.36 1.407-.36c.683 0 1.241.22 1.675.65q.652.63.652 1.98v5.11h-1.174v-5.11c0-.56-.154-.97-.462-1.21a1.72 1.72 0 0 0-1.089-.36c-.537 0-.953.16-1.248.49-.295.32-.442.72-.442 1.22v4.97h-1.193v-5.23q0-.645-.423-1.05c-.282-.27-.645-.4-1.089-.4q-.457 0-.855.24c-.262.16-.474.39-.636.68q-.239.42-.239.99v4.77z"/><path fill="#068241" d="M744 1053c6.627 0 12-5.37 12-12s-5.373-12-12-12-12 5.37-12 12 5.373 12 12 12"/><path fill="#fff" d="M747.828 1035.67h-8c-1.333 0-2 .66-2 2v6c0 1.33.667 2 2 2h8c1.333 0 2-.67 2-2v-6c0-1.34-.667-2-2-2m-.039 3.07-3.275 2.38c-.205.15-.446.22-.686.22s-.481-.07-.686-.22l-3.274-2.38a.5.5 0 0 1-.111-.7.506.506 0 0 1 .699-.11l3.275 2.38c.058.04.136.04.195 0l3.275-2.38a.504.504 0 0 1 .698.11c.163.22.113.54-.11.7"/><path fill="#000" d="m539.765 1078.5-2.327-7.64h1.233l1.651 5.85h.079l1.631-5.85h1.253l1.611 5.83h.079l1.651-5.83h1.233l-2.327 7.64h-1.153l-1.671-5.87h-.119l-1.671 5.87zm11.375 0-2.327-7.64h1.233l1.651 5.85h.079l1.631-5.85h1.253l1.611 5.83h.079l1.651-5.83h1.233l-2.327 7.64h-1.153l-1.671-5.87h-.119l-1.671 5.87zm11.375 0-2.327-7.64h1.233l1.651 5.85h.079l1.631-5.85h1.253l1.611 5.83h.079l1.651-5.83h1.233l-2.327 7.64h-1.153l-1.671-5.87h-.119l-1.671 5.87zm9.461.08a.88.88 0 0 1-.632-.26.88.88 0 0 1-.263-.64q0-.36.263-.63a.88.88 0 0 1 .632-.26c.245 0 .456.09.631.26q.264.27.264.63 0 .255-.125.45a.88.88 0 0 1-.77.45m5.247.1q-.726 0-1.317-.27a2.35 2.35 0 0 1-.94-.8c-.232-.36-.348-.78-.348-1.28 0-.44.086-.79.259-1.06.172-.28.402-.49.691-.65.288-.15.606-.27.954-.35q.528-.12 1.059-.18c.464-.06.841-.11 1.129-.14.292-.03.504-.09.636-.16.136-.08.204-.21.204-.4v-.04q0-.735-.403-1.14c-.265-.28-.667-.41-1.208-.41-.56 0-.999.12-1.317.37q-.477.36-.671.78l-1.114-.4q.298-.69.795-1.08c.335-.26.7-.44 1.094-.55.398-.1.789-.16 1.174-.16q.367 0 .845.09.482.09.929.36.453.27.751.81c.199.36.298.84.298 1.45v5.03h-1.173v-1.03h-.06c-.079.16-.212.34-.397.53a2.2 2.2 0 0 1-.741.48c-.308.13-.685.2-1.129.2m.179-1.06q.696 0 1.174-.27c.321-.18.563-.42.725-.7.166-.29.249-.6.249-.91v-1.08c-.05.06-.159.12-.328.17q-.249.06-.577.12l-.631.09q-.303.03-.492.06c-.305.04-.59.1-.855.19-.262.09-.474.22-.637.4-.159.17-.238.4-.238.7q0 .615.452.93.457.3 1.158.3m5.622.88v-10.18h1.173v3.76h.1c.086-.14.205-.3.358-.51.155-.21.377-.39.666-.56.292-.16.686-.25 1.183-.25.643 0 1.21.16 1.7.49.491.32.874.77 1.149 1.36s.412 1.29.412 2.09q0 1.215-.412 2.1t-1.144 1.38q-.73.48-1.685.48-.736 0-1.178-.24a2.2 2.2 0 0 1-.681-.57 7 7 0 0 1-.368-.52h-.14v1.17zm1.153-3.82q0 .87.254 1.53c.169.44.416.78.741 1.03.325.24.722.37 1.193.37q.736 0 1.228-.39c.331-.26.58-.62.746-1.06.169-.44.253-.93.253-1.48 0-.54-.083-1.02-.248-1.45-.163-.43-.41-.78-.741-1.03-.328-.25-.741-.38-1.238-.38q-.716 0-1.203.36c-.325.24-.57.57-.736 1.01-.166.42-.249.92-.249 1.49m10.704-3.82v1h-3.957v-1zm-2.804-1.83h1.174v7.28q0 .495.144.75.149.24.378.33c.155.05.319.08.492.08.129 0 .235-.01.318-.02.083-.02.149-.03.199-.04l.238 1.05q-.119.045-.333.09c-.142.03-.323.05-.542.05q-.497 0-.974-.21a1.95 1.95 0 0 1-.786-.66c-.205-.29-.308-.66-.308-1.1zm8.671 4.56v1.09h-4.455v-1.09zm4.311 5.09q-.726 0-1.317-.27a2.35 2.35 0 0 1-.94-.8c-.232-.36-.348-.78-.348-1.28 0-.44.086-.79.259-1.06.172-.28.402-.49.691-.65.288-.15.606-.27.954-.35q.528-.12 1.059-.18c.464-.06.84-.11 1.129-.14.291-.03.504-.09.636-.16.136-.08.204-.21.204-.4v-.04q0-.735-.403-1.14c-.265-.28-.668-.41-1.208-.41-.56 0-.999.12-1.317.37q-.477.36-.671.78l-1.114-.4q.299-.69.795-1.08c.335-.26.7-.44 1.094-.55.398-.1.789-.16 1.173-.16q.368 0 .846.09.482.09.929.36.453.27.751.81c.199.36.298.84.298 1.45v5.03h-1.173v-1.03h-.06c-.079.16-.212.34-.397.53a2.2 2.2 0 0 1-.741.48c-.308.13-.685.2-1.129.2m.179-1.06q.696 0 1.174-.27c.321-.18.563-.42.725-.7.166-.29.249-.6.249-.91v-1.08c-.05.06-.159.12-.328.17q-.249.06-.577.12l-.631.09q-.303.03-.492.06c-.305.04-.59.1-.856.19-.261.09-.473.22-.636.4-.159.17-.239.4-.239.7q0 .615.453.93.457.3 1.158.3m10.872-5.05-1.054.3a2.1 2.1 0 0 0-.293-.51 1.4 1.4 0 0 0-.517-.42c-.219-.11-.499-.16-.841-.16-.467 0-.856.11-1.168.32q-.462.315-.462.81 0 .435.318.69c.212.17.543.31.994.43l1.134.27c.682.17 1.191.42 1.526.76s.502.78.502 1.31c0 .44-.126.83-.378 1.18q-.372.51-1.044.81-.671.3-1.561.3-1.168 0-1.934-.51c-.51-.34-.833-.83-.969-1.48l1.113-.28q.16.615.602.93.447.3 1.168.3c.547 0 .981-.11 1.303-.34.325-.24.487-.52.487-.85a.87.87 0 0 0-.278-.66c-.186-.19-.471-.32-.855-.41l-1.273-.3c-.7-.17-1.213-.42-1.541-.77q-.488-.525-.488-1.32 0-.645.363-1.14.369-.495 1-.78c.424-.19.904-.29 1.441-.29.756 0 1.349.17 1.78.5.434.33.743.77.925 1.31m7.314 0-1.054.3a2.1 2.1 0 0 0-.293-.51 1.4 1.4 0 0 0-.517-.42c-.219-.11-.499-.16-.84-.16-.468 0-.857.11-1.169.32q-.462.315-.462.81 0 .435.318.69c.212.17.544.31.995.43l1.133.27c.683.17 1.192.42 1.526.76s.503.78.503 1.31c0 .44-.126.83-.378 1.18q-.374.51-1.044.81-.672.3-1.561.3-1.169 0-1.934-.51c-.511-.34-.834-.83-.97-1.48l1.114-.28q.159.615.601.93.448.3 1.169.3c.547 0 .981-.11 1.302-.34.325-.24.487-.52.487-.85 0-.26-.092-.49-.278-.66-.186-.19-.471-.32-.855-.41l-1.273-.3c-.699-.17-1.213-.42-1.541-.77q-.487-.525-.487-1.32 0-.645.363-1.14.368-.495.999-.78c.424-.19.905-.29 1.442-.29.755 0 1.349.17 1.78.5.434.33.742.77.924 1.31m5.107 6.09c-.735 0-1.37-.16-1.904-.49-.53-.33-.939-.78-1.228-1.37-.285-.59-.427-1.28-.427-2.06q0-1.17.427-2.07c.289-.6.69-1.06 1.203-1.4q.776-.51 1.81-.51c.398 0 .791.07 1.178.2.388.14.741.35 1.059.65.319.29.572.69.761 1.17q.283.735.283 1.8v.5h-5.886v-1.01h4.693c0-.44-.086-.82-.258-1.16-.169-.34-.411-.6-.726-.8-.312-.19-.68-.29-1.104-.29-.467 0-.872.11-1.213.35a2.2 2.2 0 0 0-.78.89c-.183.37-.274.76-.274 1.18v.68q0 .87.298 1.47c.203.39.483.7.841.91.358.2.773.31 1.247.31.309 0 .587-.05.836-.13.252-.09.469-.23.651-.4.182-.18.323-.4.423-.67l1.133.32c-.119.38-.32.72-.602 1.01s-.629.52-1.044.68q-.621.24-1.397.24m10.356-6.09-1.054.3a2.1 2.1 0 0 0-.293-.51 1.4 1.4 0 0 0-.517-.42c-.219-.11-.499-.16-.84-.16-.468 0-.857.11-1.169.32q-.462.315-.462.81 0 .435.318.69c.212.17.544.31.995.43l1.133.27c.683.17 1.192.42 1.526.76s.502.78.502 1.31c0 .44-.125.83-.377 1.18q-.374.51-1.044.81-.672.3-1.561.3-1.169 0-1.934-.51c-.511-.34-.834-.83-.97-1.48l1.114-.28q.159.615.601.93.448.3 1.169.3c.546 0 .981-.11 1.302-.34.325-.24.487-.52.487-.85 0-.26-.092-.49-.278-.66-.186-.19-.471-.32-.855-.41l-1.273-.3c-.699-.17-1.213-.42-1.541-.77q-.487-.525-.487-1.32 0-.645.363-1.14.367-.495.999-.78c.424-.19.905-.29 1.442-.29.755 0 1.349.17 1.78.5.434.33.742.77.924 1.31m7.315 0-1.054.3a2.1 2.1 0 0 0-.294-.51 1.4 1.4 0 0 0-.517-.42c-.218-.11-.498-.16-.84-.16-.467 0-.857.11-1.168.32q-.462.315-.463.81 0 .435.319.69c.212.17.543.31.994.43l1.133.27c.683.17 1.192.42 1.527.76s.502.78.502 1.31c0 .44-.126.83-.378 1.18q-.373.51-1.044.81t-1.561.3q-1.169 0-1.934-.51c-.51-.34-.834-.83-.969-1.48l1.113-.28q.16.615.602.93.447.3 1.168.3c.547 0 .981-.11 1.303-.34.324-.24.487-.52.487-.85 0-.26-.093-.49-.279-.66-.185-.19-.47-.32-.855-.41l-1.272-.3c-.7-.17-1.213-.42-1.542-.77q-.486-.525-.487-1.32 0-.645.363-1.14.368-.495.999-.78c.425-.19.905-.29 1.442-.29.756 0 1.349.17 1.78.5.434.33.742.77.925 1.31m1.905 5.93v-7.64h1.134v1.2h.099c.159-.41.416-.73.771-.95.354-.23.78-.35 1.277-.35.504 0 .923.12 1.258.35.338.22.602.54.791.95h.079c.196-.4.489-.71.88-.94q.587-.36 1.407-.36c.683 0 1.241.22 1.676.65q.651.63.651 1.98v5.11h-1.174v-5.11c0-.56-.154-.97-.462-1.21a1.72 1.72 0 0 0-1.089-.36c-.537 0-.953.16-1.248.49-.294.32-.442.72-.442 1.22v4.97h-1.193v-5.23q0-.645-.423-1.05c-.281-.27-.644-.4-1.089-.4q-.456 0-.855.24c-.261.16-.474.39-.636.68q-.239.42-.239.99v4.77zm15.37.16c-.736 0-1.371-.16-1.904-.49-.531-.33-.94-.78-1.228-1.37-.285-.59-.428-1.28-.428-2.06q0-1.17.428-2.07c.288-.6.689-1.06 1.203-1.4q.775-.51 1.809-.51c.398 0 .791.07 1.179.2.387.14.74.35 1.059.65.318.29.571.69.76 1.17q.284.735.284 1.8v.5h-5.887v-1.01h4.693c0-.44-.086-.82-.258-1.16-.169-.34-.411-.6-.726-.8a2.1 2.1 0 0 0-1.104-.29c-.467 0-.871.11-1.213.35a2.2 2.2 0 0 0-.78.89c-.182.37-.274.76-.274 1.18v.68q0 .87.299 1.47c.202.39.482.7.84.91.358.2.774.31 1.248.31.308 0 .586-.05.835-.13.252-.09.469-.23.651-.4.183-.18.323-.4.423-.67l1.133.32c-.119.38-.319.72-.601 1.01s-.63.52-1.044.68q-.622.24-1.397.24m6.12-4.75v4.59h-1.174v-7.64h1.134v1.2h.099c.179-.39.451-.7.816-.94q.546-.36 1.412-.36c.517 0 .969.11 1.357.32q.582.315.905.96c.215.42.323.96.323 1.61v4.85h-1.173v-4.77c0-.6-.156-1.07-.468-1.4q-.467-.51-1.282-.51-.562 0-1.005.24c-.291.16-.522.4-.691.71q-.253.465-.253 1.14m10.337-3.05v1h-3.957v-1zm-2.804-1.83h1.173v7.28q0 .495.144.75.15.24.378.33c.156.05.32.08.492.08.13 0 .236-.01.319-.02.083-.02.149-.03.199-.04l.238 1.05q-.118.045-.333.09c-.142.03-.323.05-.542.05q-.497 0-.974-.21a1.95 1.95 0 0 1-.786-.66c-.205-.29-.308-.66-.308-1.1zm9.841 3.54-1.054.3a2.1 2.1 0 0 0-.293-.51 1.4 1.4 0 0 0-.517-.42c-.219-.11-.499-.16-.84-.16-.468 0-.857.11-1.169.32q-.462.315-.462.81 0 .435.318.69c.212.17.544.31.995.43l1.133.27c.683.17 1.192.42 1.526.76s.502.78.502 1.31c0 .44-.126.83-.377 1.18q-.373.51-1.044.81t-1.562.3q-1.168 0-1.933-.51c-.511-.34-.834-.83-.97-1.48l1.114-.28q.159.615.601.93.448.3 1.169.3c.546 0 .981-.11 1.302-.34.325-.24.487-.52.487-.85 0-.26-.092-.49-.278-.66-.186-.19-.471-.32-.855-.41l-1.273-.3c-.699-.17-1.213-.42-1.541-.77q-.487-.525-.487-1.32 0-.645.363-1.14.368-.495.999-.78c.424-.19.905-.29 1.442-.29.755 0 1.349.17 1.78.5.434.33.742.77.924 1.31m2.761 6.01a.88.88 0 0 1-.632-.26.88.88 0 0 1-.263-.64q0-.36.263-.63a.88.88 0 0 1 .632-.26.88.88 0 0 1 .631.26q.264.27.264.63 0 .255-.125.45a.88.88 0 0 1-.77.45m6.102.08q-1.074 0-1.849-.51c-.517-.34-.915-.8-1.193-1.4-.279-.59-.418-1.27-.418-2.03 0-.77.143-1.46.428-2.05.288-.6.689-1.06 1.203-1.4q.776-.51 1.809-.51.805 0 1.452.3t1.059.84c.275.36.446.77.512 1.25h-1.173c-.09-.35-.288-.66-.597-.92-.305-.28-.716-.41-1.233-.41q-.685 0-1.203.36c-.341.23-.608.56-.8 1-.189.42-.284.93-.284 1.5 0 .59.093 1.11.279 1.54q.284.66.795 1.02c.345.24.749.37 1.213.37.305 0 .582-.06.831-.16.248-.11.459-.26.631-.46q.258-.3.368-.72h1.173c-.066.45-.23.86-.492 1.22-.259.36-.602.64-1.029.86-.424.2-.918.31-1.482.31m7.821 0c-.69 0-1.295-.16-1.815-.49a3.37 3.37 0 0 1-1.213-1.38q-.433-.885-.433-2.07c0-.79.145-1.49.433-2.08.292-.59.696-1.06 1.213-1.38.52-.33 1.125-.5 1.815-.5.689 0 1.292.17 1.809.5.521.32.925.79 1.213 1.38.292.59.438 1.29.438 2.08q0 1.185-.438 2.07a3.3 3.3 0 0 1-1.213 1.38c-.517.33-1.12.49-1.809.49m0-1.05c.523 0 .954-.14 1.292-.41s.589-.62.751-1.06c.162-.43.244-.91.244-1.42s-.082-.98-.244-1.43a2.37 2.37 0 0 0-.751-1.06c-.338-.28-.769-.41-1.292-.41-.524 0-.955.13-1.293.41-.338.27-.588.62-.751 1.06-.162.45-.243.92-.243 1.43s.081.99.243 1.42c.163.44.413.79.751 1.06s.769.41 1.293.41m5.251.89v-7.64h1.133v1.2h.1c.159-.41.416-.73.77-.95.355-.23.781-.35 1.278-.35.504 0 .923.12 1.258.35.338.22.602.54.79.95h.08c.196-.4.489-.71.88-.94q.586-.36 1.407-.36c.683 0 1.241.22 1.675.65q.652.63.652 1.98v5.11h-1.174v-5.11c0-.56-.154-.97-.462-1.21a1.72 1.72 0 0 0-1.089-.36c-.537 0-.953.16-1.248.49-.295.32-.442.72-.442 1.22v4.97h-1.193v-5.23q0-.645-.423-1.05c-.282-.27-.645-.4-1.089-.4q-.457 0-.855.24c-.262.16-.474.39-.636.68q-.239.42-.239.99v4.77zM536.961 1081.28h183.041v.96H536.961z"/><a><path fill="none" d="M.961.028h183.042v16.943H.961z"/></a><path fill="#EC2028" d="M744 1085c6.627 0 12-5.37 12-12s-5.373-12-12-12-12 5.37-12 12 5.373 12 12 12"/><path fill="#fff" fill-rule="evenodd" d="m745.327 1075.95-.183-.1.021.23.048 2.64.045.28.168-.23.69-.9.477.67.045.05h.79l-.123-.18-.631-.91 1.084-.3.285-.07-.249-.13zm-1.33-8.95a6.17 6.17 0 0 0-4.244 1.74c-1.123 1.11-1.753 2.59-1.753 4.14s.63 3.04 1.753 4.14a6.18 6.18 0 0 0 4.244 1.75c.171 0 .343-.01.513-.02l.126-.02-.009-.1-.105-.71-.012-.09h-.108c-.063.01-.117.02-.165.02-.084 0-.159.02-.24.02a5.1 5.1 0 0 1-2.932-.96c3.758-1.34 6.501-3.13 7.849-5.11.095.36.144.72.147 1.09a4.8 4.8 0 0 1-1.303 3.29l-.072.1.108.07.624.37.078.06.06-.09a5.85 5.85 0 0 0 1.386-3 5.74 5.74 0 0 0-.49-3.26 6 6 0 0 0-2.212-2.49 6.27 6.27 0 0 0-3.243-.94m-.669 1.95c.126-.31.147-.65.06-.97.2-.04.404-.06.609-.07.689.01 1.368.15 1.996.43-.873.93-1.888 1.73-3.01 2.37a11 11 0 0 1-.313-.96c.282-.21.507-.48.658-.8m-.856-.78q.045.105.046.21 0 .105-.043.21c-.177.44-.804.83-1.41.9-.215.02-.43-.03-.625-.11.57-.56 1.267-.97 2.032-1.21m-2.626 1.92c.39.25.862.36 1.327.29.235-.02.465-.07.681-.17.079.33.182.64.306.95-1.005.55-2.071.99-3.178 1.31.07-.85.368-1.67.864-2.38m.429 6.13a4.8 4.8 0 0 1-1.278-2.81c1.234-.33 2.423-.8 3.538-1.41a7.2 7.2 0 0 0 1.933 2.41 25.4 25.4 0 0 1-4.193 1.81m5.016-2.33a6.16 6.16 0 0 1-1.951-2.34 14.5 14.5 0 0 0 3.503-2.76 4.64 4.64 0 0 1 1.668 1.9c-.54 1.1-1.635 2.2-3.22 3.2" clip-rule="evenodd"/><path fill="#068241" d="M326.156 414.52v13.034q0 .38-.038.57h1.976V432h-1.292l-1.444-1.558h-.114Q324.066 432 322.052 432h-21.28q-2.431 0-4.218-1.558-2.432-2.014-2.432-5.282v-6.004l2.356-1.9h2.28v7.904q0 1.33.912 2.166.874.798 2.014.798h18.772q.494 0 .836-.342a1.17 1.17 0 0 0 .228-.722v-12.54zm-15.998 20.254q1.026 0 1.748.722t.722 1.748-.722 1.748a2.38 2.38 0 0 1-1.748.722 2.38 2.38 0 0 1-1.748-.722 2.38 2.38 0 0 1-.722-1.748q0-1.026.722-1.748a2.38 2.38 0 0 1 1.748-.722m29.107-29.982v23.028q0 1.596-1.026 2.736-1.178 1.444-3.078 1.444h-7.334v-3.876h5.852q.419 0 .722-.304a.88.88 0 0 0 .266-.646v-22.382zm9.888 0v22.382q0 .38.228.608.228.342.722.342h.988V432h-2.47q-1.558 0-2.736-1.102-1.368-1.254-1.368-3.078v-23.028zm13.12 0v16.112q5.169-6.878 12.616-6.878 4.56 0 7.486 2.888 2.698 2.585 2.698 6.498v3.61q0 .151-.038.57v.532h1.254V432h-.76l-1.254-1.558h-.114Q382.907 432 380.969 432h-30.134v-3.876h6.84v-23.332zm18.164 18.848q-.037-2.888-2.242-4.408-1.671-1.216-4.066-1.216-2.812 0-5.434 1.748-3.837 2.546-6.422 8.36h17.214q.95 0 .95-.95zm17.016-18.848v23.028q0 1.596-1.026 2.736-1.178 1.444-3.078 1.444h-7.334v-3.876h5.852a.99.99 0 0 0 .722-.304.88.88 0 0 0 .266-.646v-22.382zm9.887 0v26.258l-2.356 1.9h-2.28v-28.158zm22.852 9.728v13.604h1.938V432h-1.976q-.304 4.56-3.61 6.992-2.736 2.014-6.726 2.014-.684 0-1.482-.038l-1.862-2.318v-1.634q1.216.19 2.356.19 6.726 0 6.726-6.536v-16.15zm13.128 0v13.3q0 1.482-.988 2.736-1.254 1.444-3.116 1.444h-7.334v-3.876h5.852a.99.99 0 0 0 .722-.304.88.88 0 0 0 .266-.646V414.52zm-8.322 20.254q1.026 0 1.748.722t.722 1.748-.722 1.748a2.38 2.38 0 0 1-1.748.722q-.988 0-1.71-.722a2.38 2.38 0 0 1-.722-1.748q0-1.026.722-1.748.721-.722 1.71-.722m5.814 0q1.026 0 1.71.722.722.722.722 1.748t-.722 1.748q-.684.722-1.71.722a2.38 2.38 0 0 1-1.748-.722 2.38 2.38 0 0 1-.722-1.748q0-1.026.722-1.748a2.38 2.38 0 0 1 1.748-.722m18.436-20.254v13.604h1.938V432h-1.976q-.304 4.56-3.61 6.992-2.736 2.014-6.726 2.014-.684 0-1.482-.038l-1.862-2.318v-1.634q1.216.19 2.356.19 6.726 0 6.726-6.536v-16.15zm13.129-8.36q1.026 0 1.748.722t.722 1.748q0 .989-.722 1.71a2.38 2.38 0 0 1-1.748.722q-.988 0-1.71-.722-.722-.721-.722-1.71 0-1.026.722-1.748t1.71-.722m5.776 0q1.026 0 1.748.722t.722 1.748q0 .989-.722 1.71a2.38 2.38 0 0 1-1.748.722q-1.026 0-1.748-.684-.684-.722-.684-1.748t.684-1.748a2.38 2.38 0 0 1 1.748-.722m-9.652 21.964q-1.71-2.28-1.71-5.51 0-2.926 1.482-5.054 2.394-3.496 6.916-3.496 3.42 0 5.738 2.128 2.697 2.47 2.698 6.422 0 3.116-1.71 5.51h2.622V432h-5.7q-2.47 0-3.572-.494h-.19q-1.064.494-3.572.494h-10.564v-3.876zm6.688-.038q1.71-.19 2.736-1.558 1.064-1.406 1.064-3.572 0-2.28-1.026-3.648t-2.774-1.368q-1.71 0-2.774 1.368-1.026 1.368-1.026 3.648 0 2.166 1.026 3.572 1.064 1.368 2.774 1.558m12.74-21.926q1.026 0 1.748.722t.722 1.748q0 .989-.722 1.71a2.38 2.38 0 0 1-1.748.722 2.38 2.38 0 0 1-1.748-.722q-.723-.721-.722-1.71 0-1.026.722-1.748a2.38 2.38 0 0 1 1.748-.722m5.776 0q1.026 0 1.748.722t.722 1.748q0 .989-.722 1.71a2.38 2.38 0 0 1-1.748.722q-.988 0-1.71-.722-.723-.721-.722-1.71 0-1.026.722-1.748.721-.722 1.71-.722m1.976 8.36v13.3q0 1.482-.988 2.736-1.254 1.444-3.116 1.444h-7.334v-3.876h5.852a.99.99 0 0 0 .722-.304.88.88 0 0 0 .266-.646V414.52zM238.923 459.466V482h-5.586v-22.534h-8.284v-4.674h21.774v4.674zm10.774-4.674h5.244v9.918q2.127-3.268 5.89-3.268 2.66 0 4.484 1.558 2.09 1.71 2.09 5.434V482h-5.244v-12.502q0-3.61-3.192-3.61-1.786 0-2.926 1.102-1.102 1.103-1.102 2.85V482h-5.244zm40.006 18.506h-13.528q.114 2.432.76 3.458 1.102 1.672 3.458 1.672 2.926 0 3.914-2.432h5.168q-.875 2.964-3.42 4.712-2.508 1.71-5.89 1.71-4.598 0-7.068-3.078-2.166-2.698-2.166-7.106 0-5.358 2.812-8.284 2.47-2.508 6.498-2.508 3.078 0 5.396 1.52t3.306 4.256q.798 2.129.798 5.13 0 .38-.038.95m-5.434-3.458q-.38-4.408-4.066-4.408-3.458 0-3.952 4.408zm32.877-2.052h-5.32q-.037-1.216-.874-1.71-.836-.532-2.888-.532-3.002 0-3.002 1.748 0 1.026 1.824 1.52l6.612 1.862q3.952 1.102 3.952 5.016 0 3.078-2.394 4.978-2.242 1.748-6.46 1.748-5.168 0-7.41-1.52-2.203-1.445-2.356-4.674h5.206q.228 1.254 1.064 1.672.875.418 3.192.418 3.915 0 3.914-1.862 0-1.102-1.748-1.634l-6.232-1.9q-2.394-.722-3.268-1.672-1.14-1.178-1.14-3.192 0-3.306 2.508-5.092 2.205-1.52 5.776-1.52 4.332 0 6.84 1.938 2.166 1.71 2.204 4.408m13.524-5.928v3.458h-3.534v11.21q0 1.102.38 1.52.418.418 1.482.418.874 0 2.242-.684a2 2 0 0 1 .19-.114l.608 3.572a11.2 11.2 0 0 1-5.016 1.178q-5.13 0-5.13-4.712v-12.388h-2.584v-3.458h2.584v-3.344l5.244-3.002v6.346zM353.241 482h-5.206v-2.85q-2.127 3.268-6.042 3.268-3.458 0-5.244-2.052-1.52-1.786-1.52-4.902V461.86h5.244v12.502q0 3.61 3.344 3.61 1.9 0 3.04-1.064 1.178-1.064 1.178-2.888v-12.16h5.206zm22.976-27.208V482h-5.244v-2.242q-1.824 2.66-5.51 2.66-3.99 0-6.422-3.344-2.09-2.85-2.09-7.106 0-5.054 2.66-7.98 2.317-2.546 5.814-2.546 3.685 0 5.548 2.812v-9.462zm-9.614 10.944q-1.977 0-3.192 1.71t-1.216 4.484q0 2.736 1.178 4.446 1.215 1.672 3.23 1.672 2.013 0 3.192-1.672 1.216-1.673 1.216-4.446 0-2.812-1.216-4.484-1.216-1.71-3.192-1.71m32.053 7.562h-13.528q.115 2.432.76 3.458 1.103 1.672 3.458 1.672 2.927 0 3.914-2.432h5.168q-.873 2.964-3.42 4.712-2.508 1.71-5.89 1.71-4.597 0-7.068-3.078-2.166-2.698-2.166-7.106 0-5.358 2.812-8.284 2.47-2.508 6.498-2.508 3.078 0 5.396 1.52t3.306 4.256q.798 2.129.798 5.13 0 .38-.038.95m-5.434-3.458q-.38-4.408-4.066-4.408-3.457 0-3.952 4.408zm9.143-7.98h5.244v2.85q2.127-3.268 6.004-3.268 3.457 0 5.244 2.052 1.52 1.824 1.52 4.94V482h-5.206v-12.502q0-3.61-3.382-3.61-1.9 0-3.04 1.102-1.14 1.063-1.14 2.85V482h-5.244zm32.36 0v3.458h-3.534v11.21q0 1.102.38 1.52.418.418 1.482.418.874 0 2.242-.684.114-.076.19-.114l.608 3.572a11.2 11.2 0 0 1-5.016 1.178q-5.13 0-5.13-4.712v-12.388h-2.584v-3.458h2.584v-3.344l5.244-3.002v6.346zm17.806 9.348V482h-5.586v-27.208h14.592q3.458 0 5.282 1.862 2.052 2.09 2.052 5.51 0 4.94-4.636 6.726 2.622 1.026 3.192 2.546.417 1.102.608 7.334.038 1.558 1.178 2.204V482h-6.004q-.837-1.558-.836-4.598 0-.76.038-1.862v-1.102q0-3.23-3.458-3.23zm0-4.674h6.764q2.127 0 2.964-.684 1.026-.874 1.026-2.888 0-1.938-1.026-2.774-.875-.722-2.964-.722h-6.764zm38.268 6.764h-13.528q.114 2.432.76 3.458 1.101 1.672 3.458 1.672 2.925 0 3.914-2.432h5.168q-.875 2.964-3.42 4.712-2.509 1.71-5.89 1.71-4.599 0-7.068-3.078-2.166-2.698-2.166-7.106 0-5.358 2.812-8.284 2.469-2.508 6.498-2.508 3.078 0 5.396 1.52t3.306 4.256q.798 2.129.798 5.13 0 .38-.038.95m-5.434-3.458q-.38-4.408-4.066-4.408-3.459 0-3.952 4.408zm14.348-7.98v2.888q1.824-3.306 5.586-3.306 1.786 0 3.496.874 1.748.875 2.774 2.28 2.166 3.002 2.166 7.486 0 4.826-2.698 7.79-2.318 2.546-5.738 2.546-3.723 0-5.586-2.85v10.564h-5.244V461.86zm4.37 3.952q-1.976 0-3.192 1.71-1.216 1.673-1.216 4.446 0 2.736 1.216 4.408t3.192 1.672 3.192-1.672 1.216-4.408q0-2.774-1.216-4.446-1.215-1.71-3.192-1.71m22.25-4.37q4.978 0 7.638 3.192 2.318 2.736 2.318 7.296 0 5.244-3.002 8.056-2.622 2.432-6.954 2.432-4.979 0-7.638-3.154-2.318-2.774-2.318-7.334 0-5.206 3.002-8.018 2.622-2.47 6.954-2.47m0 4.218q-2.128 0-3.42 1.748-1.292 1.71-1.292 4.522 0 3.04 1.444 4.788 1.292 1.482 3.268 1.482 2.128 0 3.42-1.71 1.33-1.748 1.33-4.56 0-3.002-1.482-4.75-1.292-1.52-3.268-1.52m13.819-3.8h5.244v3.838q.988-4.256 5.624-4.256h1.026l.038 5.168a10 10 0 0 0-1.976-.19q-2.584 0-3.572.95-1.14 1.064-1.14 3.838V482h-5.244zm24.048 0v3.458h-3.534v11.21q0 1.102.38 1.52.417.418 1.482.418.873 0 2.242-.684.114-.076.19-.114l.608 3.572a11.2 11.2 0 0 1-5.016 1.178q-5.13 0-5.13-4.712v-12.388h-2.584v-3.458h2.584v-3.344l5.244-3.002v6.346z"/><path fill="#fff" d="M246.774 746.608V754h-2.184v-17.184h7.896q2.736 0 4.08 1.344 1.176 1.176 1.176 3.264 0 1.464-.648 2.424-.624.96-2.088 1.68 1.176.456 1.728 1.224.552.792.624 3.24.048 1.8.216 2.424.192.6.816 1.032V754h-2.64a5.3 5.3 0 0 1-.528-2.328l.024-2.688q0-.264-.216-.816t-.408-.792q-.648-.768-2.208-.768zm0-1.944h5.304q3.384 0 3.384-2.952t-3.384-2.952h-5.304zm24.72 3.744h-9.096q.024 1.584.672 2.52 1.032 1.512 2.976 1.512 2.4 0 3.24-2.28h1.968q-.384 1.944-1.776 3.024t-3.504 1.08q-2.808 0-4.296-1.92-1.32-1.68-1.32-4.44 0-3.192 1.728-4.968 1.512-1.536 3.912-1.536 1.752 0 3.072.84a4.67 4.67 0 0 1 1.92 2.304q.504 1.248.504 3.792zm-2.112-1.608q0-1.608-.96-2.592-.936-1.008-2.424-1.008-1.512 0-2.472.984-.936.96-1.056 2.616zm4.413 12.336v-17.472h1.824v1.896q1.368-2.16 3.936-2.16 2.616 0 4.032 2.016 1.248 1.752 1.248 4.608 0 3.048-1.632 4.752-1.416 1.488-3.672 1.488-2.28 0-3.768-1.656v6.528zm5.424-15.912q-1.56 0-2.52 1.272-.936 1.272-.936 3.408 0 2.208 1.08 3.456.912 1.056 2.376 1.056 1.632 0 2.592-1.224.984-1.248.984-3.288 0-2.256-1.104-3.552-.984-1.128-2.472-1.128m12.886-1.824q2.784 0 4.248 1.944 1.296 1.68 1.296 4.56 0 3.216-1.68 4.896-1.44 1.464-3.888 1.464-2.832 0-4.32-1.896-1.296-1.656-1.296-4.464 0-3.264 1.704-5.016 1.464-1.488 3.936-1.488m0 1.8q-1.68 0-2.64 1.272-.96 1.248-.96 3.432 0 2.28 1.08 3.48.936 1.056 2.496 1.056 1.656 0 2.568-1.2.936-1.2.936-3.336 0-2.352-1.056-3.6-.912-1.104-2.424-1.104m8.254-1.536h1.824v2.256q1.08-2.544 3.408-2.544.288 0 .696.072v2.016q-1.92.024-2.64.552-1.32.96-1.32 3.576V754h-1.968zm12.699 0v1.584h-2.52v8.208q0 .432.288.744.312.288.792.288.456 0 1.392-.216l.216 1.728q-1.488.264-2.256.264-2.376 0-2.376-1.944v-9.072h-1.68v-1.584h1.68v-2.52l1.944-.888v3.408zm8.555 0V754h-1.944v-12.336zm-.936-4.824q.504 0 .84.36.36.336.36.816 0 .504-.36.864a1.14 1.14 0 0 1-.84.336q-.48 0-.84-.336a1.22 1.22 0 0 1-.336-.864q0-.48.336-.816.36-.36.84-.36m13.075 8.208h-2.16q-.096-1.848-2.472-1.848-1.224 0-1.944.48-.696.456-.696 1.248 0 1.2 2.28 1.728l1.896.432q1.848.432 2.664 1.224t.816 2.16q0 1.752-1.368 2.784-1.368 1.008-3.696 1.008-2.544 0-3.864-1.2-1.104-.984-1.176-2.616h2.232q.192.84.528 1.224.648.768 2.424.768 1.32 0 2.088-.48.792-.504.792-1.32 0-1.224-1.896-1.68l-1.848-.432q-2.112-.504-2.952-1.2-.96-.792-.96-2.28 0-1.68 1.272-2.664 1.296-.984 3.456-.984 2.256 0 3.504 1.128 1.08.984 1.08 2.52m11.789 0h-2.16q-.096-1.848-2.472-1.848-1.224 0-1.944.48-.696.456-.696 1.248 0 1.2 2.28 1.728l1.896.432q1.848.432 2.664 1.224t.816 2.16q0 1.752-1.368 2.784-1.368 1.008-3.696 1.008-2.544 0-3.864-1.2-1.104-.984-1.176-2.616h2.232q.192.84.528 1.224.648.768 2.424.768 1.32 0 2.088-.48.792-.504.792-1.32 0-1.224-1.896-1.68l-1.848-.432q-2.112-.504-2.952-1.2-.96-.792-.96-2.28 0-1.68 1.272-2.664 1.296-.984 3.456-.984 2.256 0 3.504 1.128 1.08.984 1.08 2.52M358.266 754h-1.944v-1.944q-1.32 2.208-3.936 2.208-1.8 0-2.88-.888-1.056-.912-1.056-2.424v-9.288h1.944v8.496q0 1.08.696 1.728t1.872.648q1.536 0 2.448-1.104.912-1.128.912-3.024v-6.744h1.944zm13.822-5.592h-9.096q.024 1.584.672 2.52 1.032 1.512 2.976 1.512 2.4 0 3.24-2.28h1.968q-.384 1.944-1.776 3.024t-3.504 1.08q-2.808 0-4.296-1.92-1.32-1.68-1.32-4.44 0-3.192 1.728-4.968 1.512-1.536 3.912-1.536 1.752 0 3.072.84a4.67 4.67 0 0 1 1.92 2.304q.504 1.248.504 3.792zm-2.112-1.608q0-1.608-.96-2.592-.936-1.008-2.424-1.008-1.512 0-2.472.984-.936.96-1.056 2.616zm19.235-9.984V754h-1.968v-1.704q-1.176 1.992-3.648 1.992-2.712 0-4.176-1.968-1.272-1.728-1.272-4.56 0-3.096 1.656-4.848 1.416-1.512 3.672-1.512 2.496 0 3.768 1.872v-6.456zm-5.4 6.408q-1.632 0-2.64 1.296-.984 1.272-.984 3.384 0 2.184 1.152 3.432.984 1.104 2.496 1.104 1.56 0 2.472-1.224.936-1.224.936-3.312 0-2.28-1.056-3.552-.936-1.128-2.376-1.128m19.414 9.12v1.584q-.816.288-1.272.288-1.92 0-2.088-1.752-1.32 1.8-4.2 1.8-1.992 0-3.096-1.104-.96-.96-.96-2.472 0-1.728 1.224-2.664.696-.528 2.904-1.032l4.032-.912.024-1.032q0-1.848-2.784-1.848-2.664 0-2.856 2.16h-1.992q.072-1.632.816-2.496 1.272-1.464 4.128-1.464 4.632 0 4.632 3.36v6.888q0 .912.792.912.096 0 .504-.144.144-.048.192-.072m-3.432-4.656-3.168.816q-1.704.432-2.352.888-.624.456-.624 1.272 0 1.896 2.448 1.896 1.728 0 2.928-1.128.768-.696.768-1.584zm10.414-6.024v1.584h-2.52v8.208q0 .432.288.744.312.288.792.288.456 0 1.392-.216l.216 1.728q-1.488.264-2.256.264-2.376 0-2.376-1.944v-9.072h-1.68v-1.584h1.68v-2.52l1.944-.888v3.408zm12.717 6.744h-9.096q.024 1.584.672 2.52 1.032 1.512 2.976 1.512 2.4 0 3.24-2.28h1.968q-.384 1.944-1.776 3.024t-3.504 1.08q-2.808 0-4.296-1.92-1.32-1.68-1.32-4.44 0-3.192 1.728-4.968 1.512-1.536 3.912-1.536 1.752 0 3.072.84a4.67 4.67 0 0 1 1.92 2.304q.504 1.248.504 3.792zm-2.112-1.608q0-1.608-.96-2.592-.936-1.008-2.424-1.008-1.512 0-2.472.984-.936.96-1.056 2.616zm9.947.48q.504 0 .84.336t.336.84q0 .48-.336.84a1.14 1.14 0 0 1-.84.336q-.48 0-.84-.336a1.2 1.2 0 0 1-.336-.84q0-.504.336-.84.36-.336.84-.336m.024 4.488q.48 0 .816.336.36.336.36.84 0 .48-.36.84a1.1 1.1 0 0 1-.816.336q-.504 0-.864-.336a1.2 1.2 0 0 1-.336-.84q0-.504.336-.84.36-.336.864-.336m8.371-13.704q2.256-1.464 4.56-1.464 2.256 0 3.384 1.32.984 1.152.984 3.072 0 1.512-.768 2.952-.696 1.224-2.448 3.312l-3.384 3.84-.984 1.2h7.872v.672l-.84 1.032h-9.192v-1.728l1.824-2.184 3.696-4.296q1.104-1.32 1.56-2.208.624-1.2.624-2.328 0-1.248-.744-2.016t-1.992-.768q-1.464 0-3.048 1.128zm12.154-.984q1.56-.48 2.544-.48 2.4 0 3.84 1.248 1.368 1.2 1.368 3.216 0 3.384-3 4.056 1.728.288 2.712 1.464 1.008 1.176 1.008 2.904 0 2.496-1.944 3.792-1.488.984-3.72.984-1.44 0-2.88-.408l-.768-.96v-.744q1.656.36 2.904.36 4.344 0 4.344-2.928 0-1.584-1.32-2.664a4.2 4.2 0 0 0-1.584-.816q-.816-.24-2.424-.264v-1.56h2.04q1.152 0 1.872-.744.744-.768.744-1.968 0-1.416-.936-2.232-.936-.84-2.544-.84-.792 0-2.256.312zm17.391.768-6 16.152h-1.944l6.024-16.152zm6.567 16.464q-3.192 0-4.56-3.336-.888-2.136-.888-5.304 0-3.984 1.392-6.576 1.368-2.592 4.056-2.592 2.616 0 4.008 2.52 1.464 2.568 1.464 6.576 0 3.768-1.2 6.048-1.416 2.664-4.272 2.664m3.384-8.664q0-7.32-3.384-7.32-3.36 0-3.36 7.272 0 3.048.552 4.584.792 2.28 2.808 2.28 3.384 0 3.384-6.816m5.119-8.568q1.56-.48 2.544-.48 2.4 0 3.84 1.248 1.368 1.2 1.368 3.216 0 3.384-3 4.056 1.728.288 2.712 1.464 1.008 1.176 1.008 2.904 0 2.496-1.944 3.792-1.488.984-3.72.984-1.44 0-2.88-.408l-.768-.96v-.744q1.656.36 2.904.36 4.344 0 4.344-2.928 0-1.584-1.32-2.664a4.2 4.2 0 0 0-1.584-.816q-.816-.24-2.424-.264v-1.56h2.04q1.152 0 1.872-.744.744-.768.744-1.968 0-1.416-.936-2.232-.936-.84-2.544-.84-.792 0-2.256.312zm17.391.768-6 16.152h-1.944l6.024-16.152zm1.815.216q2.256-1.464 4.56-1.464 2.256 0 3.384 1.32.984 1.152.984 3.072 0 1.512-.768 2.952-.696 1.224-2.448 3.312l-3.384 3.84-.984 1.2h7.872v.672l-.84 1.032h-9.192v-1.728l1.824-2.184 3.696-4.296q1.104-1.32 1.56-2.208.624-1.2.624-2.328 0-1.248-.744-2.016t-1.992-.768q-1.464 0-3.048 1.128zm16.33 16.248q-3.192 0-4.56-3.336-.888-2.136-.888-5.304 0-3.984 1.392-6.576 1.368-2.592 4.056-2.592 2.616 0 4.008 2.52 1.464 2.568 1.464 6.576 0 3.768-1.2 6.048-1.416 2.664-4.272 2.664m3.384-8.664q0-7.32-3.384-7.32-3.36 0-3.36 7.272 0 3.048.552 4.584.792 2.28 2.808 2.28 3.384 0 3.384-6.816m4.543-7.584q2.256-1.464 4.56-1.464 2.256 0 3.384 1.32.984 1.152.984 3.072 0 1.512-.768 2.952-.696 1.224-2.448 3.312l-3.384 3.84-.984 1.2h7.872v.672l-.84 1.032h-9.192v-1.728l1.824-2.184 3.696-4.296q1.104-1.32 1.56-2.208.624-1.2.624-2.328 0-1.248-.744-2.016t-1.992-.768q-1.464 0-3.048 1.128zm19.259-1.248v1.728h-5.592l-.288 5.304q1.104-.168 1.752-.168 2.664 0 4.104 1.632 1.248 1.416 1.248 3.768 0 2.64-1.848 3.984-1.464 1.08-3.84 1.08-1.44 0-2.88-.432l-.768-.936v-.744q1.656.336 2.904.336 2.232 0 3.264-.72 1.152-.792 1.152-2.616 0-3.648-4.296-3.648-1.008 0-2.928.216l.48-8.784z"/><path fill="#000" d="M312.5 783.84h-6.624l-1.824 5.16h-2.328l6.12-17.184h2.832L316.7 789h-2.424zm-.624-1.848-2.64-7.8-2.808 7.8zm7.039 7.008v-17.184h6.984q2.4 0 3.72 1.2 1.368 1.248 1.368 3.168 0 2.64-2.4 3.744 3.144 1.2 3.144 4.176 0 2.064-1.32 3.456-1.368 1.44-3.768 1.44zm2.184-9.792h4.248q1.68 0 2.496-.6.936-.696.936-2.112t-.936-2.136q-.816-.6-2.496-.6h-4.248zm0 7.848h5.352q1.464 0 2.28-.768.816-.792.816-2.184t-.816-2.16q-.816-.792-2.28-.792h-5.352zm20.023-13.296V789h-2.184v-15.24h-5.664v-1.944h13.464v1.944zm23.044 13.584v1.584q-.816.288-1.272.288-1.92 0-2.088-1.752-1.32 1.8-4.2 1.8-1.992 0-3.096-1.104-.96-.96-.96-2.472 0-1.728 1.224-2.664.696-.528 2.904-1.032l4.032-.912.024-1.032q0-1.848-2.784-1.848-2.664 0-2.856 2.16h-1.992q.072-1.632.816-2.496 1.272-1.464 4.128-1.464 4.632 0 4.632 3.36v6.888q0 .912.792.912.096 0 .504-.144.144-.048.192-.072m-3.432-4.656-3.168.816q-1.704.432-2.352.888-.624.456-.624 1.272 0 1.896 2.448 1.896 1.728 0 2.928-1.128.768-.696.768-1.584zm14.35-2.64h-2.16q-.096-1.848-2.472-1.848-1.224 0-1.944.48-.696.456-.696 1.248 0 1.2 2.28 1.728l1.896.432q1.848.432 2.664 1.224t.816 2.16q0 1.752-1.368 2.784-1.368 1.008-3.696 1.008-2.544 0-3.864-1.2-1.104-.984-1.176-2.616h2.232q.192.84.528 1.224.648.768 2.424.768 1.32 0 2.088-.48.792-.504.792-1.32 0-1.224-1.896-1.68l-1.848-.432q-2.112-.504-2.952-1.2-.96-.792-.96-2.28 0-1.68 1.272-2.664 1.296-.984 3.456-.984 2.256 0 3.504 1.128 1.08.984 1.08 2.52m11.789 0h-2.16q-.096-1.848-2.472-1.848-1.224 0-1.944.48-.696.456-.696 1.248 0 1.2 2.28 1.728l1.896.432q1.848.432 2.664 1.224t.816 2.16q0 1.752-1.368 2.784-1.368 1.008-3.696 1.008-2.544 0-3.864-1.2-1.104-.984-1.176-2.616h2.232q.192.84.528 1.224.648.768 2.424.768 1.32 0 2.088-.48.792-.504.792-1.32 0-1.224-1.896-1.68l-1.848-.432q-2.112-.504-2.952-1.2-.96-.792-.96-2.28 0-1.68 1.272-2.664 1.296-.984 3.456-.984 2.256 0 3.504 1.128 1.08.984 1.08 2.52m13.445 3.36h-9.096q.024 1.584.672 2.52 1.032 1.512 2.976 1.512 2.4 0 3.24-2.28h1.968q-.384 1.944-1.776 3.024t-3.504 1.08q-2.808 0-4.296-1.92-1.32-1.68-1.32-4.44 0-3.192 1.728-4.968 1.512-1.536 3.912-1.536 1.752 0 3.072.84a4.67 4.67 0 0 1 1.92 2.304q.504 1.248.504 3.792zm-2.112-1.608q0-1.608-.96-2.592-.936-1.008-2.424-1.008-1.512 0-2.472.984-.936.96-1.056 2.616zm13.558-1.752h-2.16q-.096-1.848-2.472-1.848-1.224 0-1.944.48-.696.456-.696 1.248 0 1.2 2.28 1.728l1.896.432q1.848.432 2.664 1.224t.816 2.16q0 1.752-1.368 2.784-1.368 1.008-3.696 1.008-2.544 0-3.864-1.2-1.104-.984-1.176-2.616h2.232q.192.84.528 1.224.648.768 2.424.768 1.32 0 2.088-.48.792-.504.792-1.32 0-1.224-1.896-1.68l-1.848-.432q-2.112-.504-2.952-1.2-.96-.792-.96-2.28 0-1.68 1.272-2.664 1.296-.984 3.456-.984 2.256 0 3.504 1.128 1.08.984 1.08 2.52m11.789 0h-2.16q-.096-1.848-2.472-1.848-1.224 0-1.944.48-.696.456-.696 1.248 0 1.2 2.28 1.728l1.896.432q1.848.432 2.664 1.224t.816 2.16q0 1.752-1.368 2.784-1.368 1.008-3.696 1.008-2.544 0-3.864-1.2-1.104-.984-1.176-2.616h2.232q.192.84.528 1.224.648.768 2.424.768 1.32 0 2.088-.48.792-.504.792-1.32 0-1.224-1.896-1.68l-1.848-.432q-2.112-.504-2.952-1.2-.96-.792-.96-2.28 0-1.68 1.272-2.664 1.296-.984 3.456-.984 2.256 0 3.504 1.128 1.08.984 1.08 2.52m3.029-3.384h1.824v1.776q1.44-2.04 3.792-2.04 2.28 0 3.312 1.824.888-1.032 1.704-1.416.84-.408 2.064-.408 3.6 0 3.6 3.384V789h-1.968v-8.448q0-2.448-2.304-2.448-1.2 0-2.04.936t-.84 2.232V789h-1.968v-8.448q0-2.448-2.28-2.448-1.224 0-2.088.936-.84.912-.84 2.232V789h-1.968zm30.056 6.744h-9.096q.024 1.584.672 2.52 1.032 1.512 2.976 1.512 2.4 0 3.24-2.28h1.968q-.384 1.944-1.776 3.024t-3.504 1.08q-2.808 0-4.296-1.92-1.32-1.68-1.32-4.44 0-3.192 1.728-4.968 1.512-1.536 3.912-1.536 1.752 0 3.072.84a4.67 4.67 0 0 1 1.92 2.304q.504 1.248.504 3.792zm-2.112-1.608q0-1.608-.96-2.592-.936-1.008-2.424-1.008-1.512 0-2.472.984-.936.96-1.056 2.616zm4.798-5.136h1.824v2.088q1.488-2.352 4.08-2.352 1.8 0 2.856.912 1.056.888 1.056 2.4V789h-1.944v-8.496q0-1.104-.696-1.752-.672-.648-1.848-.648-1.536 0-2.448 1.128t-.912 3V789h-1.968zm17.926 0v1.584h-2.52v8.208q0 .432.288.744.312.288.792.288.456 0 1.392-.216l.216 1.728q-1.488.264-2.256.264-2.376 0-2.376-1.944v-9.072h-1.68v-1.584h1.68v-2.52l1.944-.888v3.408zm11.061 3.384h-2.16q-.096-1.848-2.472-1.848-1.224 0-1.944.48-.696.456-.696 1.248 0 1.2 2.28 1.728l1.896.432q1.848.432 2.664 1.224t.816 2.16q0 1.752-1.368 2.784-1.368 1.008-3.696 1.008-2.544 0-3.864-1.2-1.104-.984-1.176-2.616h2.232q.192.84.528 1.224.648.768 2.424.768 1.32 0 2.088-.48.792-.504.792-1.32 0-1.224-1.896-1.68l-1.848-.432q-2.112-.504-2.952-1.2-.96-.792-.96-2.28 0-1.68 1.272-2.664 1.296-.984 3.456-.984 2.256 0 3.504 1.128 1.08.984 1.08 2.52M266.408 824h-2.232l-2.52-9.696L259.28 824h-2.208l-3.576-12.336h2.16l2.544 9.6 2.352-9.6h2.4l2.424 9.6 2.448-9.6h2.208zm17.015 0h-2.232l-2.52-9.696-2.376 9.696h-2.208l-3.576-12.336h2.16l2.544 9.6 2.352-9.6h2.4l2.424 9.6 2.448-9.6h2.208zm17.016 0h-2.232l-2.52-9.696-2.376 9.696h-2.208l-3.576-12.336h2.16l2.544 9.6 2.352-9.6h2.4l2.424 9.6 2.448-9.6h2.208zm6.359-2.232q.504 0 .84.336t.336.84q0 .48-.336.84a1.14 1.14 0 0 1-.84.336q-.48 0-.84-.336a1.2 1.2 0 0 1-.336-.84q0-.504.336-.84.36-.336.84-.336m14.982.576v1.584q-.816.288-1.272.288-1.92 0-2.088-1.752-1.32 1.8-4.2 1.8-1.992 0-3.096-1.104-.96-.96-.96-2.472 0-1.728 1.224-2.664.696-.528 2.904-1.032l4.032-.912.024-1.032q0-1.848-2.784-1.848-2.664 0-2.856 2.16h-1.992q.072-1.632.816-2.496 1.272-1.464 4.128-1.464 4.632 0 4.632 3.36v6.888q0 .912.792.912.096 0 .504-.144.144-.048.192-.072m-3.432-4.656-3.168.816q-1.704.432-2.352.888-.624.456-.624 1.272 0 1.896 2.448 1.896 1.728 0 2.928-1.128.768-.696.768-1.584zm5.205-10.872h1.944v6.504q1.368-1.92 3.84-1.92 2.616 0 4.032 1.92 1.248 1.68 1.248 4.44 0 3.192-1.656 4.968-1.44 1.536-3.72 1.536-2.568 0-3.912-1.944V824h-1.776zm5.424 6.408q-1.584 0-2.544 1.296-.936 1.272-.936 3.384 0 2.208 1.08 3.456.936 1.056 2.4 1.056 1.632 0 2.592-1.224.984-1.224.984-3.288 0-2.256-1.104-3.552-.96-1.128-2.472-1.128m12.886-1.56v1.584h-2.52v8.208q0 .432.288.744.312.288.792.288.456 0 1.392-.216l.216 1.728q-1.488.264-2.256.264-2.376 0-2.376-1.944v-9.072h-1.68v-1.584h1.68v-2.52l1.944-.888v3.408zm7.461 6.024v1.728h-5.928v-1.728zm13.495 4.656v1.584q-.816.288-1.272.288-1.92 0-2.088-1.752-1.32 1.8-4.2 1.8-1.992 0-3.096-1.104-.96-.96-.96-2.472 0-1.728 1.224-2.664.696-.528 2.904-1.032l4.032-.912.024-1.032q0-1.848-2.784-1.848-2.664 0-2.856 2.16h-1.992q.072-1.632.816-2.496 1.272-1.464 4.128-1.464 4.632 0 4.632 3.36v6.888q0 .912.792.912.096 0 .504-.144.144-.048.192-.072m-3.432-4.656-3.168.816q-1.704.432-2.352.888-.624.456-.624 1.272 0 1.896 2.448 1.896 1.728 0 2.928-1.128.768-.696.768-1.584zm14.349-2.64h-2.16q-.096-1.848-2.472-1.848-1.224 0-1.944.48-.696.456-.696 1.248 0 1.2 2.28 1.728l1.896.432q1.848.432 2.664 1.224t.816 2.16q0 1.752-1.368 2.784-1.368 1.008-3.696 1.008-2.544 0-3.864-1.2-1.104-.984-1.176-2.616h2.232q.192.84.528 1.224.648.768 2.424.768 1.32 0 2.088-.48.792-.504.792-1.32 0-1.224-1.896-1.68l-1.848-.432q-2.112-.504-2.952-1.2-.96-.792-.96-2.28 0-1.68 1.272-2.664 1.296-.984 3.456-.984 2.256 0 3.504 1.128 1.08.984 1.08 2.52m11.789 0h-2.16q-.096-1.848-2.472-1.848-1.224 0-1.944.48-.696.456-.696 1.248 0 1.2 2.28 1.728l1.896.432q1.848.432 2.664 1.224t.816 2.16q0 1.752-1.368 2.784-1.368 1.008-3.696 1.008-2.544 0-3.864-1.2-1.104-.984-1.176-2.616h2.232q.192.84.528 1.224.648.768 2.424.768 1.32 0 2.088-.48.792-.504.792-1.32 0-1.224-1.896-1.68l-1.848-.432q-2.112-.504-2.952-1.2-.96-.792-.96-2.28 0-1.68 1.272-2.664 1.296-.984 3.456-.984 2.256 0 3.504 1.128 1.08.984 1.08 2.52m13.445 3.36h-9.096q.024 1.584.672 2.52 1.032 1.512 2.976 1.512 2.4 0 3.24-2.28h1.968q-.384 1.944-1.776 3.024t-3.504 1.08q-2.808 0-4.296-1.92-1.32-1.68-1.32-4.44 0-3.192 1.728-4.968 1.512-1.536 3.912-1.536 1.752 0 3.072.84a4.67 4.67 0 0 1 1.92 2.304q.504 1.248.504 3.792zm-2.112-1.608q0-1.608-.96-2.592-.936-1.008-2.424-1.008-1.512 0-2.472.984-.936.96-1.056 2.616zm13.558-1.752h-2.16q-.096-1.848-2.472-1.848-1.224 0-1.944.48-.696.456-.696 1.248 0 1.2 2.28 1.728l1.896.432q1.848.432 2.664 1.224t.816 2.16q0 1.752-1.368 2.784-1.368 1.008-3.696 1.008-2.544 0-3.864-1.2-1.104-.984-1.176-2.616h2.232q.192.84.528 1.224.648.768 2.424.768 1.32 0 2.088-.48.792-.504.792-1.32 0-1.224-1.896-1.68l-1.848-.432q-2.112-.504-2.952-1.2-.96-.792-.96-2.28 0-1.68 1.272-2.664 1.296-.984 3.456-.984 2.256 0 3.504 1.128 1.08.984 1.08 2.52m11.789 0h-2.16q-.096-1.848-2.472-1.848-1.224 0-1.944.48-.696.456-.696 1.248 0 1.2 2.28 1.728l1.896.432q1.848.432 2.664 1.224t.816 2.16q0 1.752-1.368 2.784-1.368 1.008-3.696 1.008-2.544 0-3.864-1.2-1.104-.984-1.176-2.616h2.232q.192.84.528 1.224.648.768 2.424.768 1.32 0 2.088-.48.792-.504.792-1.32 0-1.224-1.896-1.68l-1.848-.432q-2.112-.504-2.952-1.2-.96-.792-.96-2.28 0-1.68 1.272-2.664 1.296-.984 3.456-.984 2.256 0 3.504 1.128 1.08.984 1.08 2.52m3.029-3.384h1.824v1.776q1.44-2.04 3.792-2.04 2.28 0 3.312 1.824.888-1.032 1.704-1.416.84-.408 2.064-.408 3.6 0 3.6 3.384V824h-1.968v-8.448q0-2.448-2.304-2.448-1.2 0-2.04.936t-.84 2.232V824h-1.968v-8.448q0-2.448-2.28-2.448-1.224 0-2.088.936-.84.912-.84 2.232V824h-1.968zm30.057 6.744h-9.096q.024 1.584.672 2.52 1.032 1.512 2.976 1.512 2.4 0 3.24-2.28h1.968q-.384 1.944-1.776 3.024t-3.504 1.08q-2.808 0-4.296-1.92-1.32-1.68-1.32-4.44 0-3.192 1.728-4.968 1.512-1.536 3.912-1.536 1.752 0 3.072.84a4.67 4.67 0 0 1 1.92 2.304q.504 1.248.504 3.792zm-2.112-1.608q0-1.608-.96-2.592-.936-1.008-2.424-1.008-1.512 0-2.472.984-.936.96-1.056 2.616zm4.797-5.136h1.824v2.088q1.488-2.352 4.08-2.352 1.8 0 2.856.912 1.056.888 1.056 2.4V824h-1.944v-8.496q0-1.104-.696-1.752-.672-.648-1.848-.648-1.536 0-2.448 1.128t-.912 3V824h-1.968zm17.926 0v1.584h-2.52v8.208q0 .432.288.744.312.288.792.288.456 0 1.392-.216l.216 1.728q-1.488.264-2.256.264-2.376 0-2.376-1.944v-9.072h-1.68v-1.584h1.68v-2.52l1.944-.888v3.408zm11.061 3.384h-2.16q-.096-1.848-2.472-1.848-1.224 0-1.944.48-.696.456-.696 1.248 0 1.2 2.28 1.728l1.896.432q1.848.432 2.664 1.224t.816 2.16q0 1.752-1.368 2.784-1.368 1.008-3.696 1.008-2.544 0-3.864-1.2-1.104-.984-1.176-2.616h2.232q.192.84.528 1.224.648.768 2.424.768 1.32 0 2.088-.48.792-.504.792-1.32 0-1.224-1.896-1.68l-1.848-.432q-2.112-.504-2.952-1.2-.96-.792-.96-2.28 0-1.68 1.272-2.664 1.296-.984 3.456-.984 2.256 0 3.504 1.128 1.08.984 1.08 2.52m3.773 6.72q.504 0 .84.336t.336.84q0 .48-.336.84a1.14 1.14 0 0 1-.84.336q-.48 0-.84-.336a1.2 1.2 0 0 1-.336-.84q0-.504.336-.84.36-.336.84-.336m13.469-5.976h-1.968q-.36-2.592-2.928-2.592-1.608 0-2.52 1.272t-.912 3.528q0 2.232 1.08 3.408.912 1.032 2.448 1.032 2.472 0 2.952-2.688h1.992q-.192 2.304-1.656 3.48-1.272 1.032-3.336 1.032-2.712 0-4.224-1.92-1.296-1.656-1.296-4.344 0-3.216 1.704-5.04 1.464-1.56 3.792-1.56 2.688 0 4.032 1.8.696.936.84 2.592m7.181-4.392q2.784 0 4.248 1.944 1.296 1.68 1.296 4.56 0 3.216-1.68 4.896-1.44 1.464-3.888 1.464-2.832 0-4.32-1.896-1.296-1.656-1.296-4.464 0-3.264 1.704-5.016 1.464-1.488 3.936-1.488m0 1.8q-1.68 0-2.64 1.272-.96 1.248-.96 3.432 0 2.28 1.08 3.48.936 1.056 2.496 1.056 1.656 0 2.568-1.2.936-1.2.936-3.336 0-2.352-1.056-3.6-.912-1.104-2.424-1.104m8.278-1.536h1.824v1.776q1.44-2.04 3.792-2.04 2.28 0 3.312 1.824.888-1.032 1.704-1.416.84-.408 2.064-.408 3.6 0 3.6 3.384V824h-1.968v-8.448q0-2.448-2.304-2.448-1.2 0-2.04.936t-.84 2.232V824h-1.968v-8.448q0-2.448-2.28-2.448-1.224 0-2.088.936-.84.912-.84 2.232V824h-1.968zM258.175 280.88q0 3.104 1.568 4.32 1.6 1.216 5.632 1.216 6.207 0 6.208-3.296 0-1.184-.768-1.856t-2.912-1.344q-3.072-.96-4.352-2.368-1.408-1.536-1.408-4.128 0-3.424 2.144-5.12 1.791-1.408 4.832-1.408 1.92 0 3.744.576v2.944q-1.761-.448-3.072-.448-1.825 0-2.848.928-1.024.928-1.024 2.56 0 1.313.736 2.016.736.672 3.039 1.504 2.945 1.056 4.193 2.304 1.536 1.504 1.536 3.808 0 3.616-3.232 5.312-2.304 1.248-5.664 1.248h-3.168q-3.744 0-6.112-1.824-2.976-2.24-2.976-6.592V278l1.984-1.568h1.92zm4.224 10.624q.864 0 1.472.608t.608 1.472-.608 1.472a2 2 0 0 1-1.472.608 2 2 0 0 1-1.472-.608 2 2 0 0 1-.608-1.472q0-.864.608-1.472a2 2 0 0 1 1.472-.608m4.864 0q.864 0 1.472.608t.608 1.472-.608 1.472a2 2 0 0 1-1.472.608 1.97 1.97 0 0 1-1.44-.608 2 2 0 0 1-.608-1.472q0-.864.608-1.472a1.97 1.97 0 0 1 1.44-.608m20.811-24.224v13.952q0 3.968-2.432 6.144-1.568 1.44-4.032 2.016-1.152.224-2.4.224-.415 0-1.12-.064l-1.568-1.952v-1.376q1.024.16 1.984.16 5.664 0 5.664-5.504v-13.6zm8.319-8.192v18.848q0 .32.192.512.192.288.608.288h.832V282h-2.08q-1.311 0-2.304-.928-1.152-1.056-1.152-2.592v-19.392zm11.049 8.192v11.456000000000001h1.632V282h-1.12l-1.184-1.312h-.064q-1.088 1.312-2.72 1.312h-6.176v-3.264h4.832q.448 0 .64-.256a.82.82 0 0 0 .288-.64v-10.56zm-6.944 17.056q.864 0 1.472.608.609.608.608 1.472 0 .864-.608 1.472a2 2 0 0 1-1.472.608 2 2 0 0 1-1.472-.608 2 2 0 0 1-.608-1.472q0-.864.608-1.472a2 2 0 0 1 1.472-.608m4.864 0q.864 0 1.472.608t.608 1.472-.608 1.472a2 2 0 0 1-1.472.608 1.97 1.97 0 0 1-1.44-.608 2 2 0 0 1-.608-1.472q0-.864.608-1.472a1.97 1.97 0 0 1 1.44-.608m7.928-11.424q1.088-3.136 3.968-4.768a9.24 9.24 0 0 1 4.64-1.216q2.496 0 4.576 1.344 2.592 1.568 3.712 4.64l-.384.896q-1.281.576-2.688 1.984-1.344 1.472-1.76 2.944h5.152V282h-7.04q-.897 0-1.632-.832h-.16q-.736.832-1.696.832h-11.137v-3.264h9.281q-.384-1.312-1.632-2.784-1.377-1.536-2.849-2.144zm12.8-.256q-.769-1.344-2.08-1.984-.993-.48-2.208-.48a5.6 5.6 0 0 0-2.432.544 4.54 4.54 0 0 0-1.985 1.92q1.089.48 2.305 1.92 1.344 1.505 1.984 3.264h.128q.607-1.792 2.08-3.424 1.183-1.312 2.208-1.76m9.885 6.08q-.768-1.856-.768-4.16 0-3.775 2.336-5.856 1.951-1.76 4.992-1.792 2.72 0 4.448 1.28 2.112 1.6 2.112 4.608v5.12q0 .288.16.544a.8.8 0 0 0 .576.256h.288V282h-1.408q-1.44 0-2.464-1.024-1.568 1.984-4.16 1.984-2.784 0-4.736-2.048h-.064l-.896 1.088h-6.112v-3.264zm9.216-5.92q0-1.183-.736-1.92-.672-.736-1.92-.736-1.568 0-2.528 1.216-.928 1.216-.928 3.264 0 2.24.96 3.648t2.464 1.408q1.375 0 2.688-1.312zm14.345-13.728v19.392q0 1.344-.864 2.304-.991 1.216-2.592 1.216h-6.176v-3.264h4.928a.83.83 0 0 0 .608-.256.74.74 0 0 0 .224-.544v-18.848zm8.326 0V281.2l-1.984 1.6h-1.92v-23.712zm14.188 17.344v4.448q0 3.04 1.504 4.256 1.536 1.248 5.248 1.248 3.231 0 4.672-.832 1.76-.992 2.016-3.552h-1.984l-1.664-2.048v-1.216h8.832V282h-1.216q-.257 4-3.2 6.016-2.304 1.632-5.856 1.632h-3.168q-4.032 0-6.432-2.08-2.656-2.177-2.656-6.336V278l1.984-1.568zm4.224 15.072q.864 0 1.472.608t.608 1.472-.608 1.472a2 2 0 0 1-1.472.608 2 2 0 0 1-1.472-.608 2 2 0 0 1-.608-1.472q0-.864.608-1.472a2 2 0 0 1 1.472-.608m4.864 0q.864 0 1.472.608t.608 1.472-.608 1.472a2 2 0 0 1-1.472.608 1.97 1.97 0 0 1-1.44-.608 2 2 0 0 1-.608-1.472q0-.864.608-1.472a1.97 1.97 0 0 1 1.44-.608m9.87-31.264q.864 0 1.472.608t.608 1.472q0 .833-.608 1.44a2 2 0 0 1-1.472.608 2 2 0 0 1-1.472-.608 1.97 1.97 0 0 1-.608-1.44q0-.864.608-1.472a2 2 0 0 1 1.472-.608m4.864 0q.864 0 1.472.608t.608 1.472q0 .833-.608 1.44a2 2 0 0 1-1.472.608 1.97 1.97 0 0 1-1.44-.608 1.97 1.97 0 0 1-.608-1.44q0-.864.608-1.472a1.97 1.97 0 0 1 1.44-.608m1.664 7.04v11.456000000000001h1.632V282h-1.12l-1.184-1.312h-.064Q405.712 282 404.08 282h-6.176v-3.264h4.832q.448 0 .64-.256a.82.82 0 0 0 .288-.64v-10.56zm11.031 0v11.2q0 1.248-.832 2.304Q416.68 282 415.111 282h-6.176v-3.264h4.928a.83.83 0 0 0 .608-.256.74.74 0 0 0 .224-.544V267.28zm-7.008 17.056q.864 0 1.472.608t.608 1.472-.608 1.472a2 2 0 0 1-1.472.608 1.97 1.97 0 0 1-1.44-.608 2 2 0 0 1-.608-1.472q0-.864.608-1.472a1.97 1.97 0 0 1 1.44-.608m4.896 0q.864 0 1.44.608.609.608.608 1.472 0 .864-.608 1.472a1.9 1.9 0 0 1-1.44.608 2 2 0 0 1-1.472-.608 2 2 0 0 1-.608-1.472q0-.864.608-1.472a2 2 0 0 1 1.472-.608M429.837 282q-3.52 0-5.536-2.4-1.696-2.048-1.696-5.056 0-3.584 2.016-5.6 2.111-2.048 5.408-2.048 2.4 0 4.16 1.184 2.304 1.664 2.304 4.736v5.92h1.024V282h-1.056q-.224 3.456-2.432 5.408-1.536 1.376-3.68 1.888a13 13 0 0 1-2.944.352q-.48 0-1.376-.064h-.096l-1.632-2.016v-1.408q1.312.224 2.464.224 5.248 0 5.728-4.384zm2.752-9.184q0-1.28-.832-2.016a2.55 2.55 0 0 0-1.728-.64q-1.632 0-2.592 1.152t-.96 3.168q0 1.952 1.056 3.104t2.88 1.152h2.176zm12.466-5.184q3.648-1.6 7.136-1.6 4.512 0 6.88 2.816 2.016 2.431 2.016 6.432v3.2q0 1.44-1.088 2.528-.992.992-2.368.992h-7.776q-1.664 0-2.368-.352h-.128q-.704.352-2.368.352h-7.744v-3.264h5.76a5.5 5.5 0 0 1-.8-1.632q-.32-.928-.32-2.08 0-1.92.96-3.392.8-1.184 2.208-1.792zm12.128 8.16q0-3.584-1.568-5.184-1.472-1.472-4.48-1.472-1.376 0-2.848.32 2.048.288 3.328 1.728 1.344 1.504 1.344 3.84a6.7 6.7 0 0 1-.288 1.984 5.9 5.9 0 0 1-.8 1.728h4.48a.85.85 0 0 0 .576-.192.83.83 0 0 0 .256-.608zm-9.792 2.56q1.12-.128 1.696-.992.576-.832.64-2.208 0-1.536-.704-2.336-.672-.768-1.632-.768-1.28 0-1.92 1.152-.448.832-.448 1.952.065 1.28.576 2.112.64.96 1.792 1.088m32.496-11.072v13.952q0 3.968-2.432 6.144-1.569 1.44-4.032 2.016-1.152.224-2.4.224-.417 0-1.12-.064l-1.568-1.952v-1.376q1.023.16 1.984.16 5.664 0 5.664-5.504v-13.6zm8.319-8.192v18.848q0 .32.192.512.191.288.608.288h.832V282h-2.08q-1.312 0-2.304-.928-1.152-1.056-1.152-2.592v-19.392zm11.049 8.192v11.456000000000001h1.632V282h-1.12l-1.184-1.312h-.064Q497.43 282 495.799 282h-6.176v-3.264h4.832q.447 0 .64-.256a.82.82 0 0 0 .288-.64v-10.56zm-2.048 17.056q.831 0 1.44.608.608.608.608 1.472t-.608 1.472a1.97 1.97 0 0 1-1.44.608 2 2 0 0 1-1.472-.608 2 2 0 0 1-.608-1.472q0-.864.608-1.472a2 2 0 0 1 1.472-.608m6.551-24.096q.864 0 1.472.608t.608 1.472q0 .833-.608 1.44a2 2 0 0 1-1.472.608 2 2 0 0 1-1.472-.608 1.97 1.97 0 0 1-.608-1.44q0-.864.608-1.472a2 2 0 0 1 1.472-.608m4.864 0q.864 0 1.472.608t.608 1.472q0 .833-.608 1.44a2 2 0 0 1-1.472.608 1.97 1.97 0 0 1-1.44-.608 1.97 1.97 0 0 1-.608-1.44q0-.864.608-1.472a1.97 1.97 0 0 1 1.44-.608m1.664 7.04v11.456000000000001h1.632V282h-1.12l-1.184-1.312h-.064Q508.462 282 506.83 282h-6.176v-3.264h4.832q.448 0 .64-.256a.82.82 0 0 0 .288-.64v-10.56zm11.511-7.04q.864 0 1.472.608t.608 1.472q0 .833-.608 1.44a2 2 0 0 1-1.472.608 1.97 1.97 0 0 1-1.44-.608 1.97 1.97 0 0 1-.608-1.44q0-.864.608-1.472a1.97 1.97 0 0 1 1.44-.608m-5.856 7.584q3.168-.928 5.536-.928 3.873 0 6.24 2.432 2.144 2.208 2.144 5.504v3.648q0 1.312-.896 2.368-1.056 1.152-2.56 1.152h-14.72v-3.264h13.472q.8 0 .8-.8v-2.88q0-2.24-1.472-3.52-1.44-1.28-4-1.28-1.472 0-4.544.672zm21.796-8.736V281.2l-1.984 1.6h-1.92v-23.712zM238.057 322.392h-8.576L227.945 327h-4.8l8.128-22.912h5.216L244.425 327h-4.864zm-1.28-3.936-2.976-8.96-3.008 8.96zm10.207-8.416h4.416v3.232q.832-3.584 4.736-3.584H257l.032 4.352a8.4 8.4 0 0 0-1.664-.16q-2.176 0-3.008.8-.96.896-.96 3.232V327h-4.416zm26.715 15.84V327h-4.8q-.48-.607-.512-1.728-1.76 2.08-5.12 2.08-2.465 0-3.968-1.504-1.216-1.216-1.216-3.36 0-3.2 2.56-4.544 1.088-.576 4.32-1.152l3.456-.64-.032-1.216q-.033-1.696-2.56-1.696-1.632 0-2.304.512-.64.48-.8 1.792h-4.224q.384-5.856 7.232-5.856 3.775 0 5.44 1.344 1.504 1.28 1.504 3.872v9.472q0 1.152 1.024 1.504m-5.28-7.072-3.232.736q-1.377.32-2.048.928a2 2 0 0 0-.64 1.504q0 1.824 2.368 1.824 3.423 0 3.52-3.744zm8.253-14.72h4.416v7.872q1.568-2.272 4.64-2.272 3.423 0 5.407 2.752 1.761 2.432 1.761 6.08 0 4.16-2.272 6.656-1.985 2.176-4.896 2.176-3.104 0-4.64-2.24V327h-4.416zm8.096 9.28q-1.697 0-2.72 1.408-.993 1.376-.992 3.776 0 2.368.992 3.744t2.72 1.376q1.695 0 2.688-1.376 1.024-1.409 1.024-3.744 0-2.368-1.024-3.776-.993-1.408-2.688-1.408m15.696-3.328V327h-4.416v-16.96zm-2.24-5.824q.864 0 1.44.608.608.608.608 1.472t-.608 1.472q-.576.576-1.44.576a2.06 2.06 0 0 1-1.472-.576 2 2 0 0 1-.608-1.472q0-.864.608-1.472a2 2 0 0 1 1.472-.608m20.846 12.032h-4.192q-.384-1.664-1.12-2.336-.704-.672-2.016-.672-1.984 0-2.752 1.408-.832 1.632-.832 4 0 2.4.928 3.808.96 1.376 2.624 1.376 1.312 0 2.016-.672.736-.704 1.152-2.304h4.192q-.32 3.2-2.56 4.96-1.952 1.568-4.832 1.568-4.032 0-6.112-2.592-1.824-2.24-1.824-6.048 0-4.608 2.4-6.976 2.08-2.08 5.632-2.08 3.392 0 5.376 1.952 1.697 1.728 1.92 4.608M328.431 327v-22.912h10.208q3.488 0 5.408 1.696 2.08 1.792 2.08 4.352 0 1.472-.736 2.56-.704 1.056-2.4 2.144 3.776 2.24 3.776 5.568 0 3.008-2.272 4.928-1.983 1.664-5.76 1.664zm4.704-18.976v5.184h5.152q3.296 0 3.296-2.592t-3.296-2.592zm0 9.12v5.92h5.632q3.488 0 3.488-2.944 0-2.976-3.488-2.976zm31.945 2.528h-11.392q.096 2.048.64 2.912.927 1.408 2.912 1.408 2.463 0 3.296-2.048h4.352q-.736 2.496-2.88 3.968-2.113 1.44-4.96 1.44-3.873 0-5.952-2.592-1.824-2.272-1.824-5.984 0-4.512 2.368-6.976 2.079-2.112 5.472-2.112 2.591 0 4.544 1.28t2.784 3.584q.672 1.793.672 4.32 0 .32-.032.8m-4.576-2.912q-.32-3.712-3.424-3.712-2.913 0-3.328 3.712zm7.699-6.72h4.416v2.4q1.792-2.752 5.056-2.752 2.911 0 4.416 1.728 1.28 1.536 1.28 4.16V327h-4.384v-10.528q0-3.04-2.848-3.04-1.6 0-2.56.928-.96.895-.96 2.4V327h-4.416zm33.555 6.208h-4.192q-.384-1.664-1.12-2.336-.705-.672-2.016-.672-1.984 0-2.752 1.408-.832 1.632-.832 4 0 2.4.928 3.808.96 1.376 2.624 1.376 1.311 0 2.016-.672.735-.704 1.152-2.304h4.192q-.32 3.2-2.56 4.96-1.952 1.568-4.832 1.568-4.032 0-6.112-2.592-1.824-2.24-1.824-6.048 0-4.608 2.4-6.976 2.08-2.08 5.632-2.08 3.392 0 5.376 1.952 1.695 1.728 1.92 4.608m3.07-12.16h4.416v8.352q1.792-2.752 4.96-2.752 2.24 0 3.776 1.312 1.76 1.44 1.76 4.576V327h-4.416v-10.528q0-3.04-2.688-3.04-1.504 0-2.464.928-.928.928-.928 2.4V327h-4.416zm18.937 5.952h4.384v2.048q1.952-2.4 4.64-2.4 3.297 0 4.608 2.496 1.92-2.496 4.96-2.496 2.56 0 3.968 1.408 1.44 1.375 1.44 3.84V327h-4.384v-11.36q0-2.208-2.4-2.208-1.407 0-2.208.896-.8.864-.8 2.432V327h-4.416v-11.36q0-2.208-2.368-2.208-1.407 0-2.208.896-.8.864-.8 2.432V327h-4.416zm42.559 15.84V327h-4.8q-.48-.607-.512-1.728-1.76 2.08-5.12 2.08-2.465 0-3.968-1.504-1.216-1.216-1.216-3.36 0-3.2 2.56-4.544 1.088-.576 4.32-1.152l3.456-.64-.032-1.216q-.033-1.696-2.56-1.696-1.632 0-2.304.512-.64.48-.8 1.792h-4.224q.383-5.856 7.232-5.856 3.775 0 5.44 1.344 1.504 1.28 1.504 3.872v9.472q0 1.152 1.024 1.504m-5.28-7.072-3.232.736q-1.377.32-2.048.928a2 2 0 0 0-.64 1.504q0 1.824 2.368 1.824 3.424 0 3.52-3.744zm8.253-8.768h4.416v3.232q.831-3.584 4.736-3.584h.864l.032 4.352a8.5 8.5 0 0 0-1.664-.16q-2.177 0-3.008.8-.96.896-.96 3.232V327h-4.416zm16.634 6.592 5.536-6.592h5.024l-5.792 6.4 6.176 10.56h-5.152l-4.064-7.488-1.728 1.92V327h-4.416v-22.912h4.416zm29.293-8.608V327h-4.704v-18.976h-6.976v-3.936h18.336v3.936zm23.825 11.648h-11.392q.096 2.048.64 2.912.927 1.408 2.912 1.408 2.463 0 3.296-2.048h4.352q-.736 2.496-2.88 3.968-2.112 1.44-4.96 1.44-3.873 0-5.952-2.592-1.824-2.272-1.824-5.984 0-4.512 2.368-6.976 2.079-2.112 5.472-2.112 2.591 0 4.544 1.28t2.784 3.584q.672 1.793.672 4.32 0 .32-.032.8m-4.576-2.912q-.32-3.712-3.424-3.712-2.913 0-3.328 3.712zm21.811-1.728h-4.48q-.033-1.024-.736-1.44-.704-.448-2.433-.448-2.527 0-2.527 1.472 0 .864 1.536 1.28l5.568 1.568q3.327.929 3.328 4.224 0 2.592-2.016 4.192-1.888 1.472-5.44 1.472-4.353 0-6.24-1.28-1.857-1.216-1.984-3.936h4.384q.192 1.056.896 1.408.735.352 2.688.352 3.296 0 3.296-1.568 0-.928-1.472-1.376l-5.248-1.6q-2.016-.608-2.752-1.408-.96-.992-.96-2.688 0-2.784 2.112-4.288 1.855-1.28 4.864-1.28 3.648 0 5.76 1.632 1.823 1.44 1.856 3.712m11.388-4.992v2.912h-2.976v9.44q0 .928.32 1.28.352.352 1.248.352.736 0 1.888-.576.097-.065.16-.096l.512 3.008a9.45 9.45 0 0 1-4.224.992q-4.32 0-4.32-3.968v-10.432h-2.176v-2.912h2.176v-2.816l4.416-2.528v5.344z"/><path fill="#fff" d="M180.762 561.512q5.344 0 8.512 3.776 2.72 3.295 2.72 8.256 0 5.728-3.52 9.088-3.072 2.944-7.712 2.944-5.44 0-8.64-3.776-2.752-3.264-2.752-8.256 0-5.728 3.392-8.96 3.264-3.072 8-3.072m-.032 4.928q-2.592 0-4.032 2.176-1.248 1.855-1.248 4.896 0 3.552 1.6 5.472 1.408 1.664 3.712 1.664 2.432 0 3.808-1.888 1.376-1.92 1.376-5.344 0-3.488-1.6-5.344-1.376-1.632-3.616-1.632m19.531 1.952v2.208q1.856-2.656 5.12-2.656 3.296 0 4.672 2.656 2.016-2.656 5.28-2.656 2.88 0 4.448 1.792 1.344 1.6 1.344 4.224V585h-5.44v-9.632q0-2.976-2.304-2.976-1.568 0-2.24 1.28-.352.672-.352 2.208V585h-5.44v-9.856q0-2.752-2.208-2.752-2.688 0-2.688 3.488V585h-5.44v-16.608zM240.732 585h-5.536a6 6 0 0 1-.288-1.568q-1.536 2.016-5.44 2.016-2.913 0-4.48-1.536-1.376-1.344-1.376-3.552 0-3.04 2.688-4.288 1.152-.512 4.736-1.184l3.776-.704v-.992q-.065-1.824-2.528-1.824-1.344 0-1.984.48-.608.448-.8 1.632h-5.152q.288-5.536 8-5.536 4.095 0 6.144 1.472.96.736 1.312 1.664.352.896.352 2.752 0 .32-.032 1.984v.352l-.032 2.752v1.504q0 .384-.032 1.216v.704q0 1.792.672 2.656m-5.856-7.584-2.496.544q-1.953.448-2.592.896-.64.448-.64 1.344 0 1.952 2.208 1.952 1.856 0 2.88-1.312.575-.704.608-2.24zm20.509-9.12-.032 4.48a7.9 7.9 0 0 0-2.24-.352q-4.16 0-4.16 5.344V585h-5.44v-16.608h5.248v2.848q.96-3.296 5.344-3.296.512 0 1.28.352m20.706-6.208L284.667 585h-6.209l-1.471-4.192h-7.936L267.579 585h-6.145l8.576-22.912zm-.48 14.432-1.088-3.104q-.96-2.816-1.472-5.152a71 71 0 0 1-1.568 5.216l-1.056 3.04zm16.248-14.432v8.224q1.953-2.432 4.864-2.432 3.425 0 5.376 2.688 1.696 2.304 1.696 5.92 0 4.351-2.304 6.816-2.016 2.144-5.152 2.144-2.88 0-4.672-2.4V585h-5.248v-22.912zm3.136 10.08q-1.503 0-2.4 1.184-.896 1.183-.896 3.168 0 2.08.864 3.296.897 1.184 2.464 1.184 1.504 0 2.368-1.184.897-1.216.896-3.296 0-1.985-.896-3.168-.895-1.184-2.4-1.184m28.123-10.08V585h-5.472v-1.952q-1.44 2.4-4.512 2.4-3.584 0-5.632-2.72-1.76-2.4-1.76-6.144 0-4.192 2.208-6.56 1.92-2.112 4.896-2.112 3.103 0 4.8 2.4v-8.224zm-8.576 10.08q-1.568 0-2.432 1.184-.832 1.152-.832 3.264 0 4.384 3.264 4.384 1.568 0 2.432-1.152.896-1.184.896-3.232 0-2.08-.896-3.264t-2.432-1.184m28.731 7.744q-.384 1.472-1.472 2.72-2.464 2.816-6.816 2.816-3.936 0-6.368-2.176-2.72-2.432-2.72-6.432 0-4.192 2.816-6.72 2.431-2.176 6.048-2.176 4.383 0 6.752 2.88 2.08 2.527 2.08 6.624v.512h-12.352q.063 1.792 1.056 2.816.991.992 2.688.992 2.079 0 3.168-1.856zm-5.024-5.056q-.417-3.232-3.424-3.232-3.04 0-3.52 3.232zm13.579-12.768V585h-5.44v-22.912zm30.839 0-8.512 8.992 9.568 13.92h-7.424l-6.176-9.6-2.464 2.528V585h-5.985v-22.912h5.985v8.992q1.248-1.728 2.112-2.72l5.504-6.272zM401.013 585h-5.536a6 6 0 0 1-.288-1.568q-1.536 2.016-5.44 2.016-2.912 0-4.48-1.536-1.376-1.344-1.376-3.552 0-3.04 2.688-4.288 1.152-.512 4.736-1.184l3.776-.704v-.992q-.064-1.824-2.528-1.824-1.344 0-1.984.48-.608.448-.8 1.632h-5.152q.288-5.536 8-5.536 4.096 0 6.144 1.472.96.736 1.312 1.664.352.896.352 2.752 0 .32-.032 1.984v.352l-.032 2.752v1.504q0 .384-.032 1.216v.704q0 1.792.672 2.656m-5.856-7.584-2.496.544q-1.952.448-2.592.896t-.64 1.344q0 1.952 2.208 1.952 1.856 0 2.88-1.312.576-.704.608-2.24zm20.509-9.12-.032 4.48a7.9 7.9 0 0 0-2.24-.352q-4.16 0-4.16 5.344V585h-5.44v-16.608h5.248v2.848q.96-3.296 5.344-3.296.512 0 1.28.352m7.631.096V585h-5.44v-16.608zm-2.72-6.912q1.023 0 1.76.736.736.704.736 1.76 0 1.024-.736 1.76a2.4 2.4 0 0 1-1.76.736 2.44 2.44 0 0 1-1.792-.736 2.45 2.45 0 0 1-.704-1.76q0-1.056.704-1.76a2.44 2.44 0 0 1 1.792-.736m11.715 6.912v2.208q1.857-2.656 5.12-2.656 3.297 0 4.672 2.656 2.016-2.656 5.28-2.656 2.88 0 4.448 1.792 1.344 1.6 1.344 4.224V585h-5.44v-9.632q0-2.976-2.304-2.976-1.568 0-2.24 1.28-.351.672-.352 2.208V585h-5.44v-9.856q0-2.752-2.208-2.752-2.688 0-2.688 3.488V585h-5.44v-16.608zm48.106.576h-5.696q-.128-2.816-3.68-2.816-3.104 0-3.104 2.016 0 .928.832 1.344.704.352 4.512 1.312 3.616.928 5.248 1.952 2.816 1.728 2.816 5.184 0 3.776-2.976 5.824-2.592 1.792-6.816 1.792-5.12 0-7.808-2.464-2.368-2.144-2.432-5.824h6.016q.192 3.648 4.448 3.648 3.488 0 3.488-2.336 0-1.088-.928-1.6-.896-.544-4.512-1.568-4.384-1.248-5.888-2.528-1.76-1.504-1.76-4.352 0-3.392 2.816-5.344 2.464-1.696 6.304-1.696 4.576 0 6.976 2.208 2.08 1.92 2.144 5.248m9.243-6.88v8.48q1.951-2.624 5.248-2.624 3.36 0 4.928 2.24.992 1.472.992 4.352V585h-5.44v-9.472q0-1.632-.512-2.272-.705-.864-2.112-.864-1.824 0-2.656 1.472-.448.768-.448 2.816V585h-5.44v-22.912zM520.419 585h-5.536a6 6 0 0 1-.288-1.568q-1.536 2.016-5.44 2.016-2.911 0-4.48-1.536-1.376-1.344-1.376-3.552 0-3.04 2.688-4.288 1.152-.512 4.736-1.184l3.776-.704v-.992q-.063-1.824-2.528-1.824-1.344 0-1.984.48-.608.448-.8 1.632h-5.152q.288-5.536 8-5.536 4.096 0 6.144 1.472.96.736 1.312 1.664.352.896.352 2.752 0 .32-.032 1.984v.352l-.032 2.752v1.504q0 .384-.032 1.216v.704q0 1.792.672 2.656m-5.856-7.584-2.496.544q-1.952.448-2.592.896t-.64 1.344q0 1.952 2.208 1.952 1.857 0 2.88-1.312.576-.704.608-2.24zm14.078-15.328v8.48q1.951-2.624 5.248-2.624 3.36 0 4.928 2.24.992 1.472.992 4.352V585h-5.44v-9.472q0-1.632-.512-2.272-.705-.864-2.112-.864-1.824 0-2.656 1.472-.448.768-.448 2.816V585h-5.44v-22.912zm31.194 17.824q-.383 1.472-1.472 2.72-2.463 2.816-6.816 2.816-3.936 0-6.368-2.176-2.72-2.432-2.72-6.432 0-4.192 2.816-6.72 2.433-2.176 6.048-2.176 4.385 0 6.752 2.88 2.08 2.527 2.08 6.624v.512h-12.352q.065 1.792 1.056 2.816.993.992 2.688.992 2.08 0 3.168-1.856zm-5.024-5.056q-.415-3.232-3.424-3.232-3.04 0-3.52 3.232zm24.556 5.056q-.384 1.472-1.472 2.72-2.465 2.816-6.816 2.816-3.936 0-6.368-2.176-2.72-2.432-2.72-6.432 0-4.192 2.816-6.72 2.431-2.176 6.048-2.176 4.383 0 6.752 2.88 2.08 2.527 2.08 6.624v.512h-12.352q.063 1.792 1.056 2.816.991.992 2.688.992 2.079 0 3.168-1.856zm-5.024-5.056q-.417-3.232-3.424-3.232-3.04 0-3.52 3.232zm13.387-6.464v2.208q1.983-2.656 5.44-2.656 3.327 0 4.864 2.208.992 1.472.992 4.544V585h-5.472v-9.408q0-1.312-.256-1.952-.513-1.248-2.272-1.248-1.92 0-2.688 1.472-.417.768-.416 2.272V585h-5.44v-16.608z"/><path fill="#0EA398" d="M101.434 133.316c.59-.142 1.529.247 2.005.695 2.581 2.459 5.038 5.046 7.602 7.525 1.123 1.087 2.388 2.039 3.927 3.33a46 46 0 0 0 2.78-1.642c2.112-1.344 4.472-2.473 5.907-4.716-.98-.017-1.772.618-2.801.636a8.38 8.38 0 0 1-6.206-2.476c-2.161-2.084-4.267-4.213-6.393-6.321"/><path fill="#22A4AF" d="M115.082 144.97c-3.277 1.16-6.401 2.612-9.688 3.334a57.3 57.3 0 0 1-11.37 1.358c-8.426.118-16.224-2.205-23.448-6.633-7.644-4.695-13.311-11.088-17.203-19.117-3.645-7.514-4.813-15.502-4.041-23.721.448-4.95 1.779-9.78 3.93-14.262 1.994-4.167 4.298-8.032 7.411-11.394 3.475-3.747 8.84-3.493 11.968.427 2.387 2.983 2.084 7.23-.466 10.07a28.7 28.7 0 0 0-7.38 17.617c-.58 8.54 2.16 15.954 7.835 22.187a28.47 28.47 0 0 0 12.798 8.011 29.8 29.8 0 0 0 16.005.469c.59-.142 1.528.247 2.005.695 2.581 2.458 5.038 5.045 7.602 7.525 1.154 1.121 2.447 2.094 4.042 3.434"/><path fill="#C5418D" d="M120.452 119.992c3.962-3.983 7.53-7.602 11.12-11.196 8.419-8.417 16.87-16.807 25.265-25.25 2.408-2.43 5.229-3.402 8.454-2.385 6.008 1.9 7.586 9.029 3.082 13.543a17871 17871 0 0 1-16.7 16.669c-8.231 8.22-16.564 16.342-24.646 24.704-4.021 4.167-9.49 3.546-12.874.017-6.686-6.966-13.594-13.723-20.422-20.551-3.36-3.358-3.506-8.334-.306-11.539s8.163-3.223 11.558.125c4.718 4.629 9.378 9.317 14.048 14.005q.766.887 1.421 1.858"/><path fill="#22A4AF" d="M93.24 59.447c9.1.07 16.595 2 23.506 6.018 5.025 2.924 5.56 9.435 1.133 13.126-2.492 2.084-5.855 2.431-8.989.667a29.66 29.66 0 0 0-17.43-3.743c-1.56.138-3.106.482-4.653.77-4.235.789-8.27-1.649-9.274-5.622-1.105-4.379 1.143-8.476 5.442-9.758a28 28 0 0 1 4.461-.948c2.29-.302 4.6-.423 5.803-.51M136.275 89.277a8.03 8.03 0 0 1-2.314 5.666 8.04 8.04 0 0 1-5.636 2.394c-4.58.035-8.426-3.903-8.409-8.612a8.1 8.1 0 0 1 2.387-5.718 8.1 8.1 0 0 1 5.734-2.356c4.437.014 8.249 4.004 8.238 8.626"/><path fill="#092524" d="M215.823 127.271h-7.714q-4.371 0-7.061-2.653a8.96 8.96 0 0 1-2.682-6.651v-3.101h5.56v3.101a3.46 3.46 0 0 0 1.15 2.761 4.5 4.5 0 0 0 3.04.99h2.172v-1.889q0-3.692 2.22-5.879 2.22-2.188 5.88-2.185h6.299v8.713c-.011.321.094.636.296.886a.97.97 0 0 0 .792.347h.775v5.556h-.775q-3.075 0-4.865-1.892-1.79-1.893-1.8-4.9v-3.313h-.587q-1.334 0-2.001.694a2.7 2.7 0 0 0-.667 1.938zm-9.917 7.184a2.86 2.86 0 0 1-2.825-2.823 2.784 2.784 0 0 1 .824-2.014 2.7 2.7 0 0 1 2.001-.837 2.861 2.861 0 0 1 2.856 2.851 2.7 2.7 0 0 1-.84 2 2.78 2.78 0 0 1-2.016.823m8.566-.836a2.87 2.87 0 0 1-2.018.836 2.86 2.86 0 0 1-2.017-.836 2.72 2.72 0 0 1-.837-1.987 2.86 2.86 0 0 1 1.245-2.4 2.85 2.85 0 0 1 2.691-.285 2.86 2.86 0 0 1 1.721 2.086 2.86 2.86 0 0 1-.792 2.586z"/><path fill="#092524" d="M238.333 127.27h-12.412v-5.556h12.412z"/><path fill="#092524" d="M250.129 127.27h-12.412v-5.556h12.412z"/><path fill="#092524" d="M252.114 127.271h-2.606v-5.557h2.606a1.26 1.26 0 0 0 .994-.416c.259-.307.392-.7.371-1.101v-8.432h5.588v8.453a6.9 6.9 0 0 1-1.988 5.056 6.69 6.69 0 0 1-4.965 1.997m3.04-17.398a2.801 2.801 0 0 1-4.538-3.092 2.8 2.8 0 0 1 3.144-1.649 2.8 2.8 0 0 1 2.235 2.758 2.736 2.736 0 0 1-.841 1.983m4.253.837a2.79 2.79 0 0 1-2.018-.82 2.7 2.7 0 0 1-.838-2 2.86 2.86 0 0 1 2.856-2.855 2.7 2.7 0 0 1 2.002.837 2.783 2.783 0 0 1 .823 2.018 2.86 2.86 0 0 1-.84 1.982 2.87 2.87 0 0 1-1.985.838M288.137 127.271h-7.724q-4.379 0-7.061-2.653a8.964 8.964 0 0 1-2.682-6.651v-3.101h5.559v3.101a3.48 3.48 0 0 0 1.15 2.761 4.5 4.5 0 0 0 3.041.99h2.172v-1.889q0-3.692 2.217-5.879 2.216-2.188 5.882-2.185h6.3v8.713c-.01.321.093.634.292.886a.98.98 0 0 0 .792.347h.775v5.556h-.775q-3.072 0-4.864-1.892-1.794-1.893-1.8-4.9v-3.313h-.602q-1.337 0-2.004.694a2.7 2.7 0 0 0-.668 1.938zm-9.927 7.184a2.858 2.858 0 0 1-2.825-2.823 2.77 2.77 0 0 1 .823-2.014 2.68 2.68 0 0 1 2.002-.837 2.86 2.86 0 0 1 2.853 2.851 2.7 2.7 0 0 1-.838 2 2.77 2.77 0 0 1-2.015.823m8.562-.836a2.806 2.806 0 0 1-3.537.313 2.798 2.798 0 0 1 2.14-5.055 2.804 2.804 0 0 1 2.238 2.755 2.73 2.73 0 0 1-.841 1.997z"/><path fill="#092524" d="M310.637 127.27h-12.412v-5.556h12.412z"/><path fill="#092524" d="M322.432 127.27h-12.415v-5.556h12.415z"/><path fill="#092524" d="M322.742 127.271h-.934v-5.557h.931a1.22 1.22 0 0 0 .976-.416c.245-.313.369-.704.348-1.101v-8.432h5.598v8.453a6.93 6.93 0 0 1-1.971 5.056 6.63 6.63 0 0 1-4.948 1.997m6.238 6.542a2.997 2.997 0 0 1-4.991-1.232 2.992 2.992 0 0 1 3.445-3.812c.681.134 1.293.5 1.733 1.036.441.535.681 1.207.681 1.9a2.88 2.88 0 0 1-.868 2.108M357.867 127.271h-7.728q-4.375 0-7.06-2.653a8.97 8.97 0 0 1-2.683-6.651v-3.101h5.56v3.101a3.475 3.475 0 0 0 1.146 2.761 4.5 4.5 0 0 0 3.041.99h2.172v-1.889q0-3.692 2.22-5.879 2.22-2.188 5.879-2.185h6.3v15.506h-5.587v-10.109h-.591q-1.335 0-2.002.694a2.7 2.7 0 0 0-.667 1.938zm-10.056 7.184a2.855 2.855 0 0 1-2.617-3.913c.141-.346.351-.661.616-.924a2.7 2.7 0 0 1 2.001-.837 2.859 2.859 0 0 1 2.857 2.851 2.7 2.7 0 0 1-.838 2 2.76 2.76 0 0 1-2.019.823m8.566-.836a2.74 2.74 0 0 1-2.016.836 2.68 2.68 0 0 1-2.001-.836 2.73 2.73 0 0 1-.824-1.987 2.784 2.784 0 0 1 .824-2.014 2.69 2.69 0 0 1 2.001-.837 2.86 2.86 0 0 1 2.643 3.937 2.7 2.7 0 0 1-.627.911zM375.275 127.271h-5.559V103.08h5.559z"/><path fill="#22A4AF" d="M234.195 70.212v21.53h-9.108V82.3h-17.985v9.442h-8.997v-21.53c0-11.967 7.252-18.485 18.045-18.485s18.045 6.529 18.045 18.485m-9.108 4.775v-5.608c0-6.685-3.596-9.887-8.993-9.887-5.451 0-8.992 3.202-8.992 9.887v5.618zM247.096 86.682c0-3.26 2.432-5.393 5.452-5.393S258 83.421 258 86.682a5.45 5.45 0 0 1-5.452 5.449 5.453 5.453 0 0 1-5.452-5.449M318.915 86.682c0-3.26 2.432-5.393 5.452-5.393s5.452 2.132 5.452 5.393a5.453 5.453 0 0 1-10.904 0M373.231 63.423a29.4 29.4 0 0 0-10.848-3.765v32.084h-9.094V59.658a30.4 30.4 0 0 0-10.903 3.765l-3.093-6.796c5.445-3.258 11.915-4.89 18.493-4.89 6.633 0 13.152 1.632 18.552 4.89zM306.993 81.008c0 6.796-5.396 10.73-15.737 10.73h-20.349V52.416h19.223c9.837 0 14.896 4.1 14.896 10.223a9.45 9.45 0 0 1-5.212 8.65c4.368 1.407 7.179 4.775 7.179 9.72m-27.037-21.742v9.268h9.051c4.441 0 6.856-1.573 6.856-4.66s-2.432-4.608-6.856-4.608zm17.874 20.787c0-3.316-2.53-4.89-7.252-4.89h-10.622v9.724h10.625c4.723-.004 7.249-1.48 7.249-4.834"/><path fill="#F47820" d="M292.617 149.28h.959v1.292q0 2.91 2.936 2.91h1.345v-1.952q0-3.542 3.558-3.542h1.356v6.463h-.98v-5.518h-.376c-.896 0-1.553.201-1.97.611q-.627.616-.629 1.986v2.921h-2.314q-1.893 0-2.891-1.014-.997-1.014-.994-2.865zm2.433 7.008a.635.635 0 0 1 .635-.636.64.64 0 0 1 .452.188.61.61 0 0 1 0 .899.644.644 0 0 1-.899-.005.64.64 0 0 1-.188-.446m2.303-.441a.6.6 0 0 1 .452-.195.64.64 0 0 1 .589.634.635.635 0 0 1-.589.634.61.61 0 0 1-.452-.188.6.6 0 0 1-.18-.444.6.6 0 0 1 .156-.441zM303.074 156.312c.177.067.366.097.556.09a1.23 1.23 0 0 0 1.08-.458 2.55 2.55 0 0 0 .317-1.428v-6.518h.955v6.543q0 2.83-2.328 2.83a2.7 2.7 0 0 1-.851-.142zM308.016 144.366h.955v7.64q0 1.47 1.14 1.472h.323v.969h-.323a1.9 1.9 0 0 1-1.546-.66 2.7 2.7 0 0 1-.549-1.781z"/><path fill="#F47820" d="M315.351 154.45h-5.177v-.969h5.177z"/><path fill="#F47820" d="M315.088 153.482h.764c.751 0 1.126-.494 1.126-1.473v-4.011h.97v4.022q0 1.47 1.125 1.472h.761v.969h-.761a1.68 1.68 0 0 1-1.605-.931 1.71 1.71 0 0 1-1.616.931h-.764zm.893 2.364a.58.58 0 0 1 .441-.194.64.64 0 0 1 .452.187.613.613 0 0 1 0 .9.64.64 0 0 1-.452.18.635.635 0 0 1-.586-.873.6.6 0 0 1 .145-.2m1.89.441a.65.65 0 0 1 .181-.456.64.64 0 0 1 .697-.145q.117.049.206.14a.58.58 0 0 1 .195.448.6.6 0 0 1-.195.451.63.63 0 0 1-.451.181.64.64 0 0 1-.633-.632z"/><path fill="#F47820" d="M319.578 153.482h3.336l-2.3-3.438v-2.046h4.76q2.648 0 2.651 1.834c-.002.283-.06.562-.17.823a3.8 3.8 0 0 1-.535.903q-.37.488-.66.816t-.806.885a4 4 0 0 0-.223.233h3.43v.969h-9.483zm2.148-4.515v1.007l2.342 3.518h.427c.094-.104.316-.347.671-.719q.531-.558.719-.788t.511-.639q.267-.318.444-.695c.08-.177.123-.368.126-.562a.89.89 0 0 0-.463-.886 3.4 3.4 0 0 0-1.428-.225z"/><path fill="#F47820" d="M328.801 154.451v-.969h2.175a2.5 2.5 0 0 1-.9-.952 2.7 2.7 0 0 1-.33-1.312 3.236 3.236 0 0 1 3.235-3.23 3.23 3.23 0 0 1 3.232 3.23v1.114c-.016.305.083.605.277.841a1 1 0 0 0 .772.309h.347v.969h-.347a1.72 1.72 0 0 1-1.14-.369 1.62 1.62 0 0 1-.542-1.041 3.13 3.13 0 0 1-2.599 1.389zm1.9-3.233a2.28 2.28 0 1 0 3.549-1.876 2.27 2.27 0 0 0-1.491-.375 2.27 2.27 0 0 0-1.39.657 2.18 2.18 0 0 0-.668 1.594"/><path fill="#F47820" d="M337.338 153.482h.347c.758 0 1.14-.494 1.14-1.473v-7.64h.97v7.64a2.7 2.7 0 0 1-.556 1.782 1.91 1.91 0 0 1-1.554.659h-.347zM343.045 154.451h-.959V144.38h.959zM347.171 156.312c.178.066.367.097.556.09a1.22 1.22 0 0 0 1.081-.458 2.54 2.54 0 0 0 .316-1.428v-6.518h.959v6.543q0 2.83-2.328 2.83a2.8 2.8 0 0 1-.855-.142zM352.109 144.366h.97v7.64q0 1.47 1.14 1.472h.323v.969h-.323a1.9 1.9 0 0 1-1.547-.66 2.68 2.68 0 0 1-.552-1.781z"/><path fill="#F47820" d="M354.271 154.45v-.968h.348c.757 0 1.136-.494 1.136-1.473v-4.011h.973v4.022q0 1.47 1.126 1.472h.347v.969h-.347a1.67 1.67 0 0 1-1.605-.931 1.71 1.71 0 0 1-1.63.931zm1.293 1.758a.66.66 0 0 1 .397-.61.6.6 0 0 1 .249-.047.657.657 0 0 1 .47 1.125.7.7 0 0 1-.719.133.64.64 0 0 1-.397-.601"/><path fill="#F47820" d="M357.92 154.45v-.968h.761c.75 0 1.126-.494 1.126-1.473v-4.011h.973v4.022q0 1.47 1.136 1.472h.75v.969h-.75a1.69 1.69 0 0 1-1.616-.931 1.71 1.71 0 0 1-1.619.931zm.719-7.872a.64.64 0 0 1 .636-.646.6.6 0 0 1 .445.188.62.62 0 0 1 .188.458.64.64 0 0 1-.879.587.6.6 0 0 1-.206-.142.63.63 0 0 1-.184-.445m2.085 0a.618.618 0 0 1 .188-.458.6.6 0 0 1 .444-.188.63.63 0 0 1 .456.188.6.6 0 0 1 .194.458.584.584 0 0 1-.194.441.6.6 0 0 1-.208.143.637.637 0 0 1-.88-.584"/><path fill="#F47820" d="M362.406 154.45v-.968h6.88v-1.042a3.46 3.46 0 0 0-.955-2.525 3.3 3.3 0 0 0-1.144-.733 3.3 3.3 0 0 0-1.341-.218h-2.547v-.966h2.586a4.25 4.25 0 0 1 3.127 1.223 4.3 4.3 0 0 1 1.24 3.174v2.066zm3.763-7.896a.626.626 0 0 1 .188-.455.62.62 0 0 1 .459-.195.65.65 0 0 1 .458.195.6.6 0 0 1 .202.455.62.62 0 0 1-.202.465.64.64 0 0 1-.458.191.61.61 0 0 1-.459-.191.65.65 0 0 1-.188-.465M371.512 154.45v-.968h3.822c.82 0 1.23-.494 1.23-1.473v-7.64h.97v7.64a2.57 2.57 0 0 1-.595 1.775 2.04 2.04 0 0 1-1.605.666zm.907-1.653v-7.782h.969v7.782zM380.79 154.451h-.956V144.38h.959zM199.101 146.366h1.72q2.78 0 2.78 2.254c.022.401-.076.8-.281 1.146a1.8 1.8 0 0 1-.932.653v.052a2.22 2.22 0 0 1 1.144.715c.244.371.366.81.347 1.254q0 2.396-3.051 2.396h-1.72a1.28 1.28 0 0 1-1.135-.349 1.28 1.28 0 0 1-.352-1.134v-5.501a1.26 1.26 0 0 1 .35-1.136 1.27 1.27 0 0 1 1.137-.35zm1.72 1.289h-1.327a.44.44 0 0 0-.377.122.4.4 0 0 0-.109.172.43.43 0 0 0-.021.202v1.761h1.838c.376.031.752-.068 1.063-.282a1.065 1.065 0 0 0 .348-.868 1.03 1.03 0 0 0-.327-.84 1.7 1.7 0 0 0-1.088-.271zm.171 3.441h-2.009v1.955a.45.45 0 0 0 .128.381.44.44 0 0 0 .383.123h1.251c.469.04.94-.053 1.359-.268a1.036 1.036 0 0 0 .378-.931 1.17 1.17 0 0 0-.347-.951 1.74 1.74 0 0 0-1.143-.309M210.745 150.929c0 .031 0 .226-.024.57 0 .175-.06.346-.17.482a.75.75 0 0 1-.497.118h-3.611v.289a1.16 1.16 0 0 0 .438 1.021c.435.241.932.348 1.428.309a7 7 0 0 0 1.696-.209c.209-.055.348-.045.42.018a.58.58 0 0 1 .115.437v.17a.7.7 0 0 1-.101.435.9.9 0 0 1-.434.204 6.3 6.3 0 0 1-1.696.209q-1.66-.001-2.432-.674c-.514-.448-.778-1.153-.778-2.115v-1.135q0-2.83 2.898-2.83a2.84 2.84 0 0 1 2.06.694 2.69 2.69 0 0 1 .688 2.007m-4.302-.25v.327h3.051v-.327q0-1.29-1.539-1.288c-1.025 0-1.512.427-1.512 1.288M213.366 150.776v3.473a.67.67 0 0 1-.118.469.7.7 0 0 1-.469.114h-.17a.7.7 0 0 1-.469-.114.67.67 0 0 1-.119-.469v-3.473q0-2.53 2.843-2.531 1.466 0 2.147.621.681.623.695 1.91v3.473a.67.67 0 0 1-.118.469.7.7 0 0 1-.469.114h-.17a.5.5 0 0 1-.251.008.48.48 0 0 1-.342-.341.47.47 0 0 1 .005-.25v-3.473a1.285 1.285 0 0 0-.323-.993 2.53 2.53 0 0 0-2.335 0 1.27 1.27 0 0 0-.337.993M218.974 152.245v-1.277a2.609 2.609 0 0 1 .775-2.028 3.2 3.2 0 0 1 2.238-.695c.344-.001.686.043 1.018.132a.8.8 0 0 1 .424.201.8.8 0 0 1 .097.452v.166q-.002.344-.118.431c-.076.059-.222.063-.431 0a2.9 2.9 0 0 0-.966-.128 2 2 0 0 0-1.317.347 1.52 1.52 0 0 0-.379 1.163v1.223a1.47 1.47 0 0 0 .4 1.18c.264.222.726.348 1.39.348a6 6 0 0 0 1.004-.119.524.524 0 0 1 .421.025.54.54 0 0 1 .114.416v.16a.67.67 0 0 1-.114.441.83.83 0 0 1-.435.209c-.34.086-.691.131-1.042.132q-3.08-.042-3.079-2.779M224.741 154.249v-7.952a.48.48 0 0 1 .119-.468.47.47 0 0 1 .468-.119h.171a.68.68 0 0 1 .469.118.7.7 0 0 1 .114.469v2.743q.615-.809 2.023-.809a2.4 2.4 0 0 1 1.709.569 2.222 2.222 0 0 1 .601 1.688v3.761a.46.46 0 0 1-.118.468.5.5 0 0 1-.218.123.5.5 0 0 1-.251-.008h-.17a.7.7 0 0 1-.469-.114.67.67 0 0 1-.118-.469v-3.556a1.18 1.18 0 0 0-.327-.927 1.6 1.6 0 0 0-1.042-.285 1.64 1.64 0 0 0-1.213.389c-.29.35-.431.801-.393 1.254v3.125a.47.47 0 0 1-.333.591.45.45 0 0 1-.25-.008h-.171a.7.7 0 0 1-.469-.114.68.68 0 0 1-.132-.469M233.165 150.776v3.473a.47.47 0 0 1-.115.469.46.46 0 0 1-.469.114h-.17a.7.7 0 0 1-.469-.114.68.68 0 0 1-.132-.469v-3.473q0-2.53 2.647-2.531 1.434.001 1.957.951.522-.95 1.956-.951 1.343.002 1.988.628c.431.417.646 1.042.646 1.903v3.473a.67.67 0 0 1-.118.469.7.7 0 0 1-.469.114h-.17a.46.46 0 0 1-.251.008.46.46 0 0 1-.341-.341.45.45 0 0 1 .008-.25v-3.473a1.07 1.07 0 0 0-.289-1 1.08 1.08 0 0 0-1.004-.278 1.44 1.44 0 0 0-1.018.292 1.33 1.33 0 0 0-.299.986v3.473a.46.46 0 0 1-.118.468.472.472 0 0 1-.469.115h-.132a.464.464 0 0 1-.584-.583v-3.473a1.45 1.45 0 0 0-2.311-.993 1.4 1.4 0 0 0-.274.993M247.541 150.366v2.529a1.85 1.85 0 0 1-.668 1.583q-.66.504-2.112.504-2.648 0-2.648-2.008a1.7 1.7 0 0 1 .141-.83c.115-.261.293-.489.519-.663q.657-.472 2.002-.476h1.435v-.639a.84.84 0 0 0-.348-.767 2.33 2.33 0 0 0-1.195-.212 7 7 0 0 0-1.369.118q-.287.054-.386-.034-.098-.088-.097-.382v-.185a.62.62 0 0 1 .097-.399.7.7 0 0 1 .365-.16q.648-.098 1.303-.104c.994 0 1.738.17 2.217.511a1.84 1.84 0 0 1 .744 1.614m-1.331 2.466v-.809h-1.435a1.8 1.8 0 0 0-.998.215.789.789 0 0 0-.319.695.76.76 0 0 0 .312.694c.296.16.631.232.966.209.391.03.783-.046 1.133-.223a.87.87 0 0 0 .341-.781M250.158 150.627v3.622a.67.67 0 0 1-.118.469.7.7 0 0 1-.469.114h-.167a.45.45 0 0 1-.245.001.472.472 0 0 1-.325-.584v-3.716q0-2.309 2.464-2.309.13-.01.261 0c.158.005.311.06.438.156a.7.7 0 0 1 .111.459v.201q0 .327-.105.417-.104.093-.444.042a1.1 1.1 0 0 0-.261 0 1.16 1.16 0 0 0-.872.26 1.26 1.26 0 0 0-.268.868M253.172 154.249v-7.952a.48.48 0 0 1 .119-.468.47.47 0 0 1 .468-.119h.156a.48.48 0 0 1 .469.119q.092.092.123.217a.5.5 0 0 1-.004.251v7.952a.67.67 0 0 1-.119.469.7.7 0 0 1-.469.114h-.156a.7.7 0 0 1-.469-.114.67.67 0 0 1-.118-.469m2.297-3.976 1.198-1.358c.146-.178.325-.326.529-.434.22-.087.458-.125.695-.111h.222q.44 0 .49.104.043.103-.243.441l-1.811 2.035a.69.69 0 0 0-.264.469c.021.179.11.344.25.458l2.085 2.41q.286.337.243.445c-.027.073-.194.1-.489.1h-.223a1.7 1.7 0 0 1-.695-.107 1.8 1.8 0 0 1-.528-.438l-1.459-1.708a1.82 1.82 0 0 1-.522-1.198c-.006-.186.03-.372.105-.542q.164-.314.417-.563zM262.707 147.068v-.111a.47.47 0 0 1 .587-.587h5.438a.7.7 0 0 1 .469.114c.101.136.15.304.136.473v.114a.7.7 0 0 1-.119.473.7.7 0 0 1-.469.114h-2.022v6.598a.7.7 0 0 1-.118.483.72.72 0 0 1-.483.114h-.181a.47.47 0 0 1-.483-.114.48.48 0 0 1-.118-.483v-6.605h-2.033a.465.465 0 0 1-.594-.335.47.47 0 0 1 .007-.252zM275.94 150.929c0 .031 0 .226-.028.57a.53.53 0 0 1-.664.6h-3.634v.289a1.15 1.15 0 0 0 .438 1.021c.435.24.932.348 1.428.309a7 7 0 0 0 1.695-.209c.209-.055.348-.045.424.018a.6.6 0 0 1 .112.437v.17a.7.7 0 0 1-.098.435.94.94 0 0 1-.438.204 6.3 6.3 0 0 1-1.695.209q-1.658 0-2.433-.674c-.517-.444-.775-1.153-.775-2.115v-1.135q0-2.83 2.895-2.83a2.84 2.84 0 0 1 2.061.694 2.7 2.7 0 0 1 .712 2.007m-4.319-.25v.327h3.054v-.327q0-1.29-1.539-1.288c-1.025 0-1.522.427-1.522 1.288zM277.026 154.121v-.171a.62.62 0 0 1 .104-.434q.105-.096.417-.02a7.3 7.3 0 0 0 1.905.246c.317.019.636-.023.938-.125a.43.43 0 0 0 .274-.434.53.53 0 0 0-.17-.406 2.6 2.6 0 0 0-.664-.375l-1.41-.629a2.5 2.5 0 0 1-.998-.694 1.76 1.76 0 0 1-.292-1.07 1.54 1.54 0 0 1 .602-1.344c.399-.285 1.042-.43 1.89-.43a5.6 5.6 0 0 1 1.511.197c.168.033.324.11.452.223.079.129.113.28.097.43v.153a.6.6 0 0 1-.111.438c-.073.066-.215.069-.424 0a5.5 5.5 0 0 0-1.553-.209 2.2 2.2 0 0 0-.886.125.43.43 0 0 0-.195.164.43.43 0 0 0-.066.246.52.52 0 0 0 .132.372q.214.188.48.291l1.515.653c.415.147.786.398 1.077.729.226.324.339.714.32 1.108a1.57 1.57 0 0 1-.636 1.389q-.629.445-2.002.445a7.3 7.3 0 0 1-1.786-.222.9.9 0 0 1-.424-.209.7.7 0 0 1-.097-.437M282.726 149.169v-.129a.6.6 0 0 1 .091-.378.65.65 0 0 1 .347-.157l.695-.128.156-1.226a.44.44 0 0 1 .141-.376.43.43 0 0 1 .391-.093h.17a.56.56 0 0 1 .379.091c.076.11.108.245.09.378v1.226h1.828a.67.67 0 0 1 .438.104.62.62 0 0 1 .111.441v.16a.62.62 0 0 1-.111.441.67.67 0 0 1-.438.104h-1.828v2.959q0 1.135 1.019 1.135.528.003 1.042-.118c.219-.045.348-.035.431.025a.6.6 0 0 1 .104.43v.156a.75.75 0 0 1-.104.459.72.72 0 0 1-.431.194 6 6 0 0 1-1.042.104q-2.346 0-2.346-2.399v-2.945h-.695a.35.35 0 0 1-.381-.074.35.35 0 0 1-.074-.381z"/></g><defs><clipPath id="a"><path fill="#fff" d="M0 0h792v1120H0z"/></clipPath></defs></svg>