<svg width="271" height="245" viewBox="0 0 271 245" fill="none" xmlns="http://www.w3.org/2000/svg">
<g clip-path="url(#clip0_558_9231)">
<path d="M107.854 29.2814C105.313 44.6992 109.771 60.2787 112.01 75.7457C114.249 91.2127 113.681 108.627 103.214 120.22C90.7747 133.993 69.7992 134.281 51.8774 139.027C30.6842 144.651 10.9653 159.028 3.10302 179.536C-4.75928 200.044 1.97281 226.38 20.9757 237.341C37.5778 246.909 58.7779 243.317 76.2435 235.442C93.709 227.568 109.3 215.834 127.117 208.804C144.933 201.774 166.8 200.29 181.872 212.115C198.72 225.326 203.283 251.908 222.931 260.358C233.518 264.9 246.16 262.58 255.925 256.485C265.69 250.389 272.976 240.968 278.852 231.048C286.118 218.759 291.67 204.832 290.786 190.581C289.901 176.33 281.379 161.876 267.817 157.468C253.938 152.954 237.701 159.303 224.701 152.659C211.061 145.692 207.41 127.307 210.661 112.311C213.911 97.3151 222.089 83.8377 226.104 69.0457C230.12 54.2536 228.695 36.0026 216.375 26.9052C204.23 17.9413 186.653 21.7026 173.925 29.8228C168.401 33.338 163.15 37.6758 156.776 39.1663C150.402 40.6567 142.385 38.0062 140.679 31.6788C139.668 27.9316 141.086 24.0016 142.575 20.4301C147.067 9.72273 144.112 -3.16409 130.198 0.702659C118.012 4.07728 109.792 17.4562 107.854 29.2814Z" fill="#93BFBD" fill-opacity="0.2"/>
<path d="M240.081 213.571C247.508 207.707 256.227 203.813 264.616 199.383C273.005 194.954 281.246 189.752 286.813 182.088C281.604 197.323 276.283 212.847 266.567 225.677C261.669 232.286 255.487 237.834 248.393 241.988C243.795 244.617 230.639 251.184 225.262 247.795C215.076 241.39 234.437 218.021 240.081 213.571Z" fill="#068241"/>
<path d="M274.682 199.805L223.816 246.572" stroke="#F8F8F8" stroke-miterlimit="10"/>
<path d="M246.673 209.008L240.039 231.66L266.567 225.691" stroke="#F8F8F8" stroke-miterlimit="10"/>
<path d="M216.298 208.101C220.692 204.586 219.148 197.675 217.224 192.388C215.301 187.101 213.841 180.127 218.305 176.717C223.416 172.815 232.345 177.167 236.494 172.26C239.056 169.237 237.954 164.716 238.06 160.751C238.2 155.583 241.078 150.304 245.859 148.349C250.639 146.395 257.027 148.736 258.558 153.671C260.804 160.891 252.689 168.28 254.795 175.536C255.932 179.466 259.709 181.913 262.819 184.542C265.929 187.171 268.898 191.158 267.578 195.031C265.17 202.097 253.033 199.355 248.744 205.458C245.234 210.442 249.39 216.98 251.117 222.83C258.733 248.554 227.824 253.061 210.773 245.552C203.465 242.339 199.773 236.947 198.685 229.045C197.983 223.927 198.313 218.872 201.935 214.857C206.007 210.365 211.917 211.616 216.298 208.101Z" fill="#068241"/>
<path d="M220.594 248.878C249.832 195.91 245.866 148.406 245.866 148.406" stroke="#F8F8F8" stroke-miterlimit="10"/>
<path d="M218.305 176.745L233.967 219.406" stroke="#F8F8F8" stroke-miterlimit="10"/>
<path d="M267.578 195.06L240.608 197.844" stroke="#F8F8F8" stroke-miterlimit="10"/>
<path d="M201.935 214.885L225.978 238.402L252.303 230.444" stroke="#F8F8F8" stroke-miterlimit="10"/>
<path d="M81.9928 88.71C103.111 88.71 120.23 71.5648 120.23 50.4151C120.23 29.2654 103.111 12.1202 81.9928 12.1202C60.8749 12.1202 43.7554 29.2654 43.7554 50.4151C43.7554 71.5648 60.8749 88.71 81.9928 88.71Z" fill="#068241"/>
<path d="M237.631 143.259C240.109 143.259 242.117 141.248 242.117 138.767C242.117 136.286 240.109 134.274 237.631 134.274C235.154 134.274 233.146 136.286 233.146 138.767C233.146 141.248 235.154 143.259 237.631 143.259Z" fill="#C4C8E5"/>
<path d="M18.2449 149.474C18.2449 150.364 17.9811 151.233 17.4869 151.973C16.9928 152.712 16.2905 153.288 15.4692 153.627C14.6479 153.966 13.7446 154.054 12.8737 153.878C12.0028 153.702 11.2035 153.272 10.5773 152.641C9.95113 152.01 9.52613 151.206 9.35624 150.333C9.18634 149.46 9.27918 148.556 9.62301 147.735C9.96683 146.915 10.5461 146.215 11.2875 145.725C12.0289 145.235 12.8989 144.976 13.7872 144.982C14.9721 144.989 16.1058 145.466 16.941 146.307C17.7762 147.149 18.2449 148.287 18.2449 149.474Z" fill="#C6C7E5"/>
<path d="M204.132 40.7201H231.285V104.507" stroke="black" stroke-width="0.89" stroke-miterlimit="10"/>
<path d="M78.3987 57.2487V40.7201H184.828" stroke="black" stroke-width="0.89" stroke-miterlimit="10"/>
<path d="M118.054 249.644H78.3987V78.3047" stroke="black" stroke-width="0.89" stroke-miterlimit="10"/>
<path d="M231.285 183.923V249.644H173.975" stroke="black" stroke-width="0.89" stroke-miterlimit="10"/>
<path d="M226.343 46.6326H83.3477V243.738H226.343V46.6326Z" fill="#EBEBEB"/>
<path d="M213.3 75.8723H96.3906V92.204H213.3V75.8723Z" fill="#DDC3D2"/>
<path d="M194.48 134.83C197.768 134.83 200.922 133.522 203.248 131.194C205.574 128.865 206.882 125.708 206.884 122.414C206.884 119.119 205.577 115.959 203.251 113.63C200.925 111.3 197.77 109.991 194.48 109.991C191.19 109.991 188.035 111.3 185.709 113.63C183.382 115.959 182.076 119.119 182.076 122.414C182.077 125.708 183.385 128.865 185.711 131.194C188.037 133.522 191.191 134.83 194.48 134.83Z" stroke="white" stroke-width="2" stroke-miterlimit="10"/>
<path d="M188.548 120.031L194.48 126.66L214.213 111.158" stroke="#068241" stroke-width="3" stroke-linecap="round" stroke-linejoin="round"/>
<path d="M95.478 122.414H176.151" stroke="white" stroke-width="2" stroke-linecap="round" stroke-linejoin="round"/>
<path d="M95.478 130.161H176.151" stroke="#068241" stroke-width="2" stroke-miterlimit="10"/>
<path d="M194.48 174.664C197.77 174.664 200.925 173.355 203.251 171.026C205.577 168.696 206.884 165.536 206.884 162.242C206.882 158.948 205.574 155.79 203.248 153.462C200.922 151.134 197.768 149.826 194.48 149.826C191.191 149.826 188.037 151.134 185.711 153.462C183.385 155.79 182.077 158.948 182.076 162.242C182.076 165.536 183.382 168.696 185.709 171.026C188.035 173.355 191.19 174.664 194.48 174.664Z" stroke="white" stroke-width="2" stroke-miterlimit="10"/>
<path d="M188.548 159.858L194.48 166.495L214.213 150.993" stroke="#068241" stroke-width="3" stroke-linecap="round" stroke-linejoin="round"/>
<path d="M95.478 160.533H176.151" stroke="#068241" stroke-width="2" stroke-miterlimit="10"/>
<path d="M95.478 168.288H176.151" stroke="#068241" stroke-width="2" stroke-miterlimit="10"/>
<path d="M194.48 214.492C196.108 214.493 197.721 214.172 199.226 213.549C200.731 212.925 202.098 212.011 203.25 210.858C204.402 209.705 205.316 208.336 205.94 206.829C206.563 205.322 206.884 203.707 206.884 202.076C206.884 198.781 205.577 195.621 203.251 193.292C200.925 190.962 197.77 189.653 194.48 189.653C191.19 189.653 188.035 190.962 185.709 193.292C183.382 195.621 182.076 198.781 182.076 202.076C182.076 203.707 182.396 205.322 183.02 206.829C183.643 208.336 184.557 209.705 185.709 210.858C186.861 212.011 188.228 212.925 189.733 213.549C191.238 214.172 192.851 214.493 194.48 214.492Z" stroke="white" stroke-width="2" stroke-miterlimit="10"/>
<path d="M188.548 199.693L194.48 206.329L214.213 190.82" stroke="#068241" stroke-width="3" stroke-linecap="round" stroke-linejoin="round"/>
<path d="M95.478 201.05H176.151" stroke="white" stroke-width="2" stroke-miterlimit="10"/>
<path d="M95.478 208.797H176.151" stroke="#068241" stroke-width="2" stroke-miterlimit="10"/>
<path d="M245.023 236.321H216.178V265.21H245.023V236.321Z" fill="#EBC22E"/>
<path d="M38.6449 200.445H19.7122V219.406H38.6449V200.445Z" fill="#EBC22E"/>
<path d="M255.834 117.9C262.487 117.9 267.88 112.499 267.88 105.836C267.88 99.1733 262.487 93.7719 255.834 93.7719C249.181 93.7719 243.788 99.1733 243.788 105.836C243.788 112.499 249.181 117.9 255.834 117.9Z" stroke="#EBC22E" stroke-width="2" stroke-miterlimit="10"/>
<path d="M38.9958 106.638L85.0535 97.8848L88.8863 159.008L47.6303 164.864L38.9958 106.638Z" fill="#068241"/>
<path d="M47.6304 164.864V193.407L63.9446 270.468H67.7775L62.5056 191.481L70.8382 161.566L47.6304 164.864Z" fill="black"/>
<path d="M70.8381 161.566L76.8963 200.262V270.468H80.7362L90.3254 197.78L88.8863 159.007L70.8381 161.566Z" fill="black"/>
<path d="M55.0293 103.593L28.9854 82.0379L21.3337 86.8678L41.165 121.275L55.0293 103.593Z" fill="#068241"/>
<path d="M76.5034 99.5088L94.8464 76.8848L102.632 81.3843L86.6683 123.672L76.5034 99.5088Z" fill="#068241"/>
<path d="M57.1353 90.3832C57.1367 90.7492 57.0296 91.1074 56.8276 91.4124C56.6256 91.7174 56.3377 91.9554 56.0005 92.0965C55.6633 92.2375 55.2918 92.2751 54.9332 92.2046C54.5746 92.134 54.245 91.9585 53.9861 91.7002C53.7272 91.4419 53.5507 91.1124 53.4789 90.7536C53.4071 90.3947 53.4432 90.0226 53.5827 89.6843C53.7223 89.346 53.9589 89.0568 54.2627 88.8533C54.5664 88.6499 54.9236 88.5412 55.2891 88.5412C55.7775 88.5412 56.2461 88.7351 56.5921 89.0803C56.9381 89.4255 57.1335 89.894 57.1353 90.3832Z" fill="#E073EB"/>
<path d="M69.5255 85.6446C69.5255 86.0106 69.417 86.3683 69.2138 86.6725C69.0107 86.9768 68.7219 87.2138 68.3841 87.3535C68.0464 87.4932 67.6748 87.5294 67.3165 87.4575C66.9581 87.3856 66.6292 87.2088 66.3713 86.9495C66.1134 86.6902 65.9381 86.3601 65.8676 86.001C65.7972 85.6418 65.8348 85.2698 65.9756 84.9321C66.1164 84.5944 66.3541 84.3061 66.6586 84.1037C66.9632 83.9014 67.3208 83.7942 67.6863 83.7956C67.9284 83.7956 68.1681 83.8434 68.3917 83.9364C68.6153 84.0294 68.8184 84.1658 68.9893 84.3375C69.1602 84.5093 69.2955 84.7132 69.3875 84.9375C69.4795 85.1618 69.5264 85.4021 69.5255 85.6446Z" fill="#E073EB"/>
<path d="M63.9446 110.511L67.6862 154.269" stroke="#12A9CC" stroke-width="1.26" stroke-miterlimit="10"/>
<path d="M28.9855 82.0381L14.4333 60.314L14.356 52.1657L0.835693 54.774L10.1792 59.625L21.3338 86.868L28.9855 82.0381Z" fill="#E8A39A"/>
<path d="M94.8462 76.8846L115.948 40.5091L113.66 32.8459L123.024 31.1937L120.876 40.0943L102.631 81.3841L94.8462 76.8846Z" fill="#E8A39A"/>
<path d="M66.3876 90.3832L69.5255 100.837L59.5151 102.736L60.3365 92.2322L66.3876 90.3832Z" fill="#E8A39A"/>
<path d="M51.7229 81.3842L57.6828 96.8934L68.9427 92.9142L66.7315 75.4576L51.7229 81.3842Z" fill="#E8A39A"/>
<path d="M55.4085 90.9596L48.4026 82.0379L50.4243 79.9921L49.617 75.4574L70.1994 65.9382L66.7316 75.4574L68.9428 76.8846L68.0162 85.5742L66.8228 77.4541L53.6394 83.8799L55.4085 90.9596Z" fill="#1D1D1D"/>
<path d="M67.3213 93.4905L59.7117 100.275L60.0346 96.0636L67.3213 93.4905Z" fill="#351C56"/>
<path d="M61.0312 83.7955L64.5201 89.0332L62.007 90.3831L61.0312 83.7955Z" fill="#E073EB"/>
<path d="M-8.27829 56.5452L123.02 31.1993L121.129 21.3758L-10.1689 46.7217L-8.27829 56.5452Z" fill="#EBC22E"/>
<path d="M113.66 27.7137L-0.884277 49.7753" stroke="white" stroke-width="1.26" stroke-miterlimit="10"/>
<path d="M123.024 31.1937L137.134 23.5938L121.136 21.3722L123.024 31.1937Z" fill="black"/>
<path d="M59.515 102.736L55.0293 103.593L63.5164 107.875L59.515 102.736Z" fill="white"/>
<path d="M69.5255 100.837L66.6614 107.123L74.1727 99.9515L69.5255 100.837Z" fill="white"/>
<path d="M47.6304 113.028L25.8125 94.6296L41.165 121.275L47.6304 113.028Z" fill="#351C56"/>
<path d="M49.5889 110.511L41.165 121.275" stroke="white" stroke-width="1.26" stroke-miterlimit="10"/>
<path d="M98.3913 92.6048L82.3789 113.471L86.6681 123.672L98.3913 92.6048Z" fill="#351C56"/>
<path d="M79.7043 107.123L86.6681 123.672" stroke="white" stroke-width="1.26" stroke-miterlimit="10"/>
<path d="M47.6304 184.781L67.3493 174.095L70.8382 161.566L47.6304 164.864V184.781Z" fill="#351C56"/>
<path d="M72.4246 171.669L88.8863 164.864V159.007L70.8381 161.566L72.4246 171.669Z" fill="#351C56"/>
<path d="M70.8381 161.566L76.8963 200.262L82.3789 203.025" stroke="white" stroke-width="1.26" stroke-miterlimit="10"/>
<path d="M68.3811 170.397L62.5055 191.481L58.6445 192.81" stroke="white" stroke-width="1.26" stroke-miterlimit="10"/>
</g>
<defs>
<clipPath id="clip0_558_9231">
<rect width="271" height="245" fill="white"/>
</clipPath>
</defs>
</svg>
