<svg width="352" height="227" viewBox="0 0 352 227" fill="none" xmlns="http://www.w3.org/2000/svg">
<path d="M320.146 216.088C310.867 219.086 33.17 217.538 33.17 217.538C7.5091 204.106 -9.83881 175.222 6.73359 142.327C18.8818 118.212 44.0526 124.004 42.914 80.1811C40.9364 4.21293 113.902 41.2908 140.271 22.9936C223.534 -34.7803 216.126 38.2041 281.743 42.4098C347.622 46.6381 298.142 107.948 328.217 128.264C356.073 147.082 366.454 201.126 320.146 216.088Z" fill="#FFE1CB"/>
<path d="M342.908 212.488C342.908 220.275 269.27 226.698 176.858 226.698C85.6488 226.698 10.8088 220.375 10.8088 212.488C10.8088 204.722 84.2715 198.277 176.858 198.277C269.378 198.28 342.908 204.714 342.908 212.488Z" fill="#F2BD97"/>
<path d="M206.78 191.77C206.749 191.763 206.719 191.753 206.69 191.74C206.633 191.717 206.581 191.683 206.538 191.64C206.494 191.597 206.46 191.545 206.436 191.488C206.413 191.432 206.401 191.371 206.401 191.31C206.402 191.248 206.414 191.188 206.439 191.131C233.499 130.075 256.613 87.4537 271.523 71.1213C271.855 70.7577 272.088 70.4969 272.189 70.3602C272.263 70.2591 272.373 70.1906 272.497 70.169C272.62 70.1475 272.747 70.1746 272.851 70.2446C272.903 70.278 272.947 70.3214 272.981 70.3721C273.015 70.4228 273.039 70.4799 273.051 70.5399C273.063 70.6 273.062 70.6618 273.05 70.7217C273.037 70.7816 273.013 70.8384 272.978 70.8887C272.747 71.1832 272.5 71.4655 272.239 71.7344C257.395 87.9978 234.337 130.532 207.314 191.501C207.27 191.6 207.193 191.681 207.095 191.73C206.998 191.779 206.887 191.793 206.78 191.77Z" fill="#E37425"/>
<path d="M280.848 68.9465C279.095 70.7703 271.019 73.5286 270.477 73.0339C269.934 72.5392 272.22 64.5252 273.973 62.7014C275.726 60.8776 278.686 60.7972 280.584 62.521C281.034 62.9192 281.399 63.4041 281.657 63.9465C281.915 64.4889 282.061 65.0777 282.086 65.6777C282.111 66.2776 282.014 66.8764 281.801 67.4381C281.588 67.9998 281.264 68.5128 280.848 68.9465Z" fill="#E37425"/>
<path d="M265.373 73.2622C265.843 75.7992 263.27 83.926 262.527 84.0472C261.784 84.1684 256.424 77.3439 255.952 74.8126C255.481 72.2813 257.208 69.8796 259.809 69.4568C262.409 69.0339 264.901 70.7309 265.373 73.2622Z" fill="#E37425"/>
<path d="M272.792 88.928C270.152 88.7758 262.542 84.4178 262.577 83.6835C262.613 82.9492 270.609 79.4947 273.249 79.6483C275.89 79.802 277.928 82.0021 277.802 84.5644C277.676 87.1268 275.432 89.0816 272.792 88.928Z" fill="#E37425"/>
<path d="M238.01 112.588C239.267 116.735 236.491 130.77 235.276 131.109C234.062 131.449 223.857 120.98 222.6 116.833C221.343 112.687 223.772 108.377 228.029 107.203C232.285 106.029 236.753 108.442 238.01 112.588Z" fill="#E37425"/>
<path d="M253.294 137.46C248.864 137.669 235.37 131.72 235.293 130.492C235.217 129.264 247.899 122.083 252.329 121.875C256.759 121.666 260.565 124.985 260.831 129.29C261.098 133.594 257.724 137.252 253.294 137.46Z" fill="#E37425"/>
<path d="M224.703 127.063C227.349 131.697 227.939 149.229 226.586 149.946C225.233 150.664 210.181 140.809 207.533 136.175C204.886 131.541 206.584 125.745 211.325 123.229C216.065 120.713 222.052 122.426 224.703 127.063Z" fill="#E37425"/>
<path d="M246.881 159.88C241.455 159.598 225.781 150.71 225.847 149.208C225.914 147.705 242.3 140.526 247.725 140.813C253.151 141.101 257.359 145.605 257.126 150.87C256.893 156.134 252.301 160.169 246.881 159.88Z" fill="#E37425"/>
<path d="M215.194 146.891C217.841 151.525 218.43 169.055 217.077 169.774C215.724 170.493 200.671 160.637 198.024 156.003C195.377 151.368 197.075 145.573 201.815 143.056C206.556 140.538 212.547 142.257 215.194 146.891Z" fill="#E37425"/>
<path d="M237.371 179.708C231.947 179.426 216.272 170.538 216.338 169.034C216.404 167.53 232.79 160.352 238.216 160.641C243.642 160.93 247.85 165.433 247.617 170.696C247.384 175.959 242.797 179.997 237.371 179.708Z" fill="#E37425"/>
<path d="M196.61 171.002C200.863 174.328 208.283 190.398 207.32 191.565C206.357 192.732 188.64 189.145 184.387 185.819C180.134 182.493 179.422 176.479 182.796 172.387C186.171 168.296 192.355 167.676 196.61 171.002Z" fill="#E37425"/>
<path d="M228.712 199.409C223.301 199.781 206.628 192.859 206.501 191.358C206.374 189.857 221.682 180.734 227.093 180.365C232.505 179.995 237.254 183.954 237.702 189.214C238.15 194.474 234.124 199.037 228.712 199.409Z" fill="#E37425"/>
<path d="M256.919 85.5144C257.398 88.0866 254.781 96.3486 254.027 96.4727C253.273 96.5967 247.827 89.6609 247.348 87.0887C246.87 84.5165 248.62 82.0796 251.267 81.6455C253.914 81.2114 256.44 82.9422 256.919 85.5144Z" fill="#E37425"/>
<path d="M264.093 101.547C261.409 101.392 253.68 96.9617 253.715 96.219C253.75 95.4762 261.875 91.9625 264.559 92.1189C267.243 92.2754 269.313 94.515 269.184 97.114C269.056 99.7129 266.776 101.707 264.093 101.547Z" fill="#E37425"/>
<path d="M247.594 96.7151C248.583 100.305 245.871 112.312 244.818 112.573C243.766 112.833 235.231 103.62 234.245 100.029C233.259 96.4375 235.447 92.7842 239.134 91.8695C242.821 90.9548 246.608 93.1239 247.594 96.7151Z" fill="#E37425"/>
<path d="M259.501 119.716C255.687 119.494 244.705 113.201 244.758 112.144C244.81 111.087 256.351 106.099 260.155 106.32C263.959 106.542 266.908 109.718 266.726 113.417C266.544 117.115 263.312 119.935 259.501 119.716Z" fill="#E37425"/>
<path d="M86.7888 143.443C86.8071 143.445 86.8256 143.445 86.8439 143.443C86.8793 143.439 86.9135 143.428 86.9445 143.411C86.9756 143.393 87.0027 143.37 87.0245 143.342C87.0462 143.314 87.0621 143.281 87.0711 143.247C87.0801 143.213 87.0821 143.177 87.077 143.142C81.3489 104.808 74.9909 77.3961 69.1781 65.9459C69.0496 65.6922 68.9564 65.5076 68.9239 65.4173C68.8981 65.3497 68.8471 65.2945 68.7816 65.2633C68.7162 65.232 68.6411 65.2271 68.5722 65.2496C68.5382 65.2601 68.5067 65.2773 68.4796 65.3003C68.4525 65.3233 68.4304 65.3515 68.4145 65.3832C68.3987 65.415 68.3894 65.4496 68.3874 65.4851C68.3854 65.5205 68.3905 65.5559 68.4026 65.5893C68.4864 65.7909 68.5807 65.9881 68.6852 66.1798C74.4767 77.5807 80.8164 104.939 86.5359 143.212C86.5468 143.273 86.5775 143.329 86.6232 143.37C86.6689 143.412 86.7271 143.438 86.7888 143.443Z" fill="#E37425"/>
<path d="M64.302 63.2722C64.9998 64.5646 69.0878 67.3666 69.465 67.1763C69.8421 66.986 69.7997 62.1503 69.1019 60.8593C68.755 60.2336 68.1785 59.7665 67.4935 59.5562C66.8086 59.346 66.0686 59.4089 65.4292 59.7317C65.1178 59.8856 64.8406 60.1005 64.6143 60.3636C64.388 60.6267 64.2171 60.9326 64.1119 61.2631C64.0067 61.5935 63.9693 61.9417 64.0019 62.2869C64.0346 62.6321 64.1366 62.9672 64.302 63.2722Z" fill="#E37425"/>
<path d="M72.2858 68.0981C71.6332 69.4384 71.8211 74.3841 72.218 74.5673C72.6149 74.7506 76.6578 71.7753 77.3033 70.4349C77.457 70.1125 77.5446 69.7626 77.5608 69.4059C77.577 69.0492 77.5215 68.6928 77.3977 68.3578C77.2738 68.0228 77.0841 67.7159 76.8396 67.4552C76.5951 67.1944 76.3008 66.9851 75.9741 66.8395C74.5883 66.1897 72.9342 66.7535 72.2858 68.0981Z" fill="#E37425"/>
<path d="M65.7286 75.6921C67.2273 76.0176 72.1488 74.7703 72.2406 74.3559C72.3324 73.9416 68.3984 70.7633 66.8996 70.4363C65.4009 70.1093 63.9247 71.0212 63.6012 72.4715C63.2778 73.9218 64.2341 75.3651 65.7286 75.6921Z" fill="#E37425"/>
<path d="M81.5198 94.336C80.1793 96.4501 79.5719 104.732 80.1991 105.11C80.8262 105.487 88.1349 101.234 89.4755 99.1139C90.816 96.9942 90.1196 94.2049 87.9216 92.8871C85.7237 91.5693 82.8589 92.2162 81.5198 94.336Z" fill="#E37425"/>
<path d="M69.1583 105.844C71.6006 106.652 80.0521 105.435 80.2837 104.762C80.5154 104.088 74.536 98.0963 72.0908 97.2916C69.6456 96.4868 67.0125 97.744 66.2017 100.11C65.3909 102.477 66.7159 105.036 69.1583 105.844Z" fill="#E37425"/>
<path d="M86.7294 104.499C84.5385 106.676 81.5141 116.375 82.1597 116.988C82.8052 117.601 92.7286 114.451 94.9195 112.27C95.439 111.755 95.8489 111.14 96.1247 110.463C96.4004 109.786 96.5364 109.061 96.5244 108.33C96.5124 107.6 96.3527 106.879 96.0548 106.212C95.7569 105.544 95.3271 104.944 94.791 104.446C92.5294 102.301 88.9203 102.325 86.7294 104.499Z" fill="#E37425"/>
<path d="M69.2954 119.369C72.3706 120.055 82.4917 117.537 82.6852 116.691C82.8787 115.845 74.8299 109.273 71.7561 108.587C68.6823 107.9 65.6382 109.759 64.9587 112.736C64.2793 115.713 66.2216 118.684 69.2954 119.369Z" fill="#E37425"/>
<path d="M88.991 117.059C86.7987 119.235 83.7744 128.935 84.4199 129.548C85.0655 130.161 94.9889 127.011 97.1798 124.829C97.6993 124.314 98.1093 123.7 98.3852 123.023C98.6611 122.346 98.7972 121.621 98.7853 120.89C98.7735 120.16 98.6139 119.439 98.3161 118.771C98.0184 118.104 97.5887 117.503 97.0526 117.005C94.7911 114.86 91.182 114.884 88.991 117.059Z" fill="#E37425"/>
<path d="M71.557 131.928C74.6308 132.615 84.7519 130.096 84.9469 129.25C85.1418 128.405 77.0887 121.833 74.0163 121.146C70.944 120.46 67.8984 122.317 67.219 125.295C66.5395 128.274 68.4818 131.242 71.557 131.928Z" fill="#E37425"/>
<path d="M95.6627 133.428C92.7768 134.622 86.1602 142.44 86.519 143.243C86.8778 144.046 97.3267 144.806 100.221 143.612C103.115 142.419 104.429 139.17 103.173 136.358C101.918 133.546 98.55 132.234 95.6627 133.428Z" fill="#E37425"/>
<path d="M73.3651 144.285C76.3315 145.338 86.7069 144.073 87.0092 143.254C87.3115 142.436 80.1624 134.95 77.1974 133.897C74.2324 132.844 70.9693 134.32 69.9113 137.185C68.8533 140.051 70.3986 143.232 73.3651 144.285Z" fill="#E37425"/>
<path d="M75.1208 76.2629C74.4569 77.6244 74.6476 82.6476 75.0502 82.835C75.4528 83.0225 79.5606 80.0021 80.2245 78.6364C80.3802 78.3086 80.4687 77.9531 80.4848 77.5907C80.5009 77.2283 80.4444 76.8664 80.3185 76.5261C80.1926 76.1858 79.9998 75.8741 79.7515 75.6091C79.5033 75.3442 79.2045 75.1313 78.8726 74.9831C77.4629 74.3277 75.7833 74.9 75.1208 76.2629Z" fill="#E37425"/>
<path d="M68.6471 84.0979C70.1698 84.4305 75.1704 83.162 75.2636 82.742C75.3568 82.322 71.3592 79.0902 69.8379 78.759C68.3165 78.4278 66.815 79.3524 66.4858 80.8266C66.1567 82.3009 67.1257 83.7667 68.6471 84.0979Z" fill="#E37425"/>
<path d="M78.6072 83.9739C77.5039 85.8259 77.1706 92.9547 77.7186 93.2648C78.2667 93.5749 84.451 89.761 85.5542 87.909C86.6575 86.057 85.9964 83.6807 84.0767 82.5884C82.157 81.4961 79.7104 82.1162 78.6072 83.9739Z" fill="#E37425"/>
<path d="M68.4196 94.9632C70.5822 95.4353 77.6861 93.6341 77.8189 93.0365C77.9517 92.4389 72.2731 87.8498 70.1104 87.3776C67.9478 86.9055 65.8148 88.2233 65.3486 90.3163C64.8825 92.4093 66.2569 94.491 68.4196 94.9632Z" fill="#E37425"/>
<path d="M67.7204 193.867C67.7451 193.866 67.7697 193.863 67.7939 193.859C67.8863 193.839 67.9671 193.783 68.0185 193.704C68.0698 193.624 68.0876 193.528 68.0679 193.436C55.9677 143.312 44.3168 107.735 35.2579 93.2507C35.0573 92.928 34.9118 92.6968 34.8581 92.5798C34.8157 92.4935 34.7413 92.427 34.6506 92.3944C34.5599 92.3618 34.4601 92.3656 34.3722 92.4051C34.3286 92.4233 34.2891 92.4501 34.2561 92.4838C34.2231 92.5175 34.1972 92.5575 34.1799 92.6014C34.1626 92.6453 34.1544 92.6922 34.1556 92.7393C34.1569 92.7865 34.1676 92.8329 34.1872 92.8758C34.3217 93.1326 34.4693 93.3824 34.6293 93.6242C43.6472 108.044 55.2685 143.548 67.3517 193.594C67.3731 193.674 67.4212 193.745 67.4882 193.795C67.5551 193.844 67.637 193.87 67.7204 193.867Z" fill="#BA6128"/>
<path d="M28.4845 90.2909C29.5637 91.9202 35.3101 95.145 35.789 94.8476C36.2679 94.5502 35.6407 88.1472 34.5629 86.5179C34.0303 85.7307 33.2127 85.1801 32.2818 84.9817C31.351 84.7833 30.3793 84.9525 29.5708 85.4538C29.1744 85.6941 28.8306 86.0117 28.5601 86.3877C28.2896 86.7637 28.0979 87.1902 27.9965 87.6418C27.8951 88.0934 27.886 88.5608 27.9699 89.016C28.0538 89.4712 28.2288 89.9048 28.4845 90.2909Z" fill="#BA6128"/>
<path d="M39.6298 95.7356C38.9235 97.5904 39.7541 104.12 40.2994 104.318C40.8446 104.515 45.8565 100.089 46.5628 98.2317C47.2691 96.374 46.2915 94.3149 44.3775 93.6256C42.4635 92.9364 40.3375 93.8808 39.6298 95.7356Z" fill="#BA6128"/>
<path d="M31.8379 106.581C33.8621 106.836 40.2385 104.594 40.3133 104.034C40.3882 103.475 34.8043 99.7313 32.773 99.4762C30.7417 99.2211 28.8983 100.604 28.6398 102.568C28.3813 104.533 29.8136 106.327 31.8379 106.581Z" fill="#BA6128"/>
<path d="M54.9605 129.408C53.4335 132.378 53.6016 143.421 54.4774 143.844C55.3532 144.266 64.5406 137.759 66.0605 134.789C67.5805 131.82 66.3431 128.207 63.2721 126.722C60.2012 125.236 56.4875 126.439 54.9605 129.408Z" fill="#BA6128"/>
<path d="M39.9292 146.137C43.2614 146.916 54.322 144.295 54.5494 143.373C54.7768 142.451 46.1459 135.226 42.8151 134.447C39.4842 133.667 36.1364 135.653 35.3397 138.881C34.543 142.109 36.5983 145.359 39.9292 146.137Z" fill="#BA6128"/>
<path d="M63.0617 142.257C60.4202 145.4 57.5456 158.62 58.4722 159.353C59.3989 160.086 72.1743 154.72 74.8299 151.574C77.4856 148.428 76.9912 143.794 73.7408 141.221C70.4905 138.647 65.7089 139.112 63.0617 142.257Z" fill="#BA6128"/>
<path d="M41.7035 164.048C45.8593 164.589 58.9779 160.048 59.1347 158.898C59.2915 157.748 47.851 150.004 43.6952 149.463C39.5394 148.922 35.724 151.746 35.1745 155.774C34.625 159.803 37.5477 163.505 41.7035 164.048Z" fill="#BA6128"/>
<path d="M67.5353 158.633C64.8867 161.779 62.0262 174.996 62.9458 175.73C63.8654 176.465 76.6563 171.098 79.3035 167.953C81.9506 164.809 81.4647 160.173 78.2144 157.6C74.964 155.026 70.1838 155.488 67.5353 158.633Z" fill="#BA6128"/>
<path d="M46.1772 180.424C50.333 180.965 63.4516 176.422 63.6098 175.274C63.768 174.125 52.3247 166.38 48.1689 165.831C44.0131 165.281 40.1991 168.115 39.6482 172.142C39.0973 176.169 42.0213 179.881 46.1772 180.424Z" fill="#BA6128"/>
<path d="M78.3049 179.532C74.6194 181.46 66.7711 192.611 67.3404 193.626C67.9097 194.641 81.8476 194.408 85.5345 192.48C89.2213 190.552 90.5901 186.09 88.5941 182.513C86.5981 178.935 81.9917 177.604 78.3049 179.532Z" fill="#BA6128"/>
<path d="M50.0264 196.584C54.0819 197.626 67.6836 194.711 67.9916 193.589C68.2995 192.467 57.9396 183.401 53.8855 182.359C49.8314 181.317 45.6798 183.658 44.6148 187.587C43.5497 191.515 45.9723 195.544 50.0264 196.584Z" fill="#BA6128"/>
<path d="M44.352 106.217C43.6344 108.102 44.4777 114.737 45.0329 114.938C45.588 115.138 50.6832 110.639 51.3966 108.754C52.1099 106.87 51.114 104.776 49.1746 104.075C47.2351 103.375 45.071 104.333 44.352 106.217Z" fill="#BA6128"/>
<path d="M36.6959 117.376C38.7526 117.634 45.2293 115.356 45.3055 114.787C45.3818 114.217 39.7018 110.418 37.6451 110.157C35.5884 109.896 33.7068 111.305 33.4399 113.298C33.1729 115.291 34.6377 117.117 36.6959 117.376Z" fill="#BA6128"/>
<path d="M49.8809 116.021C48.6364 118.608 49.0333 128.097 49.7961 128.443C50.5589 128.788 58.3069 122.994 59.5514 120.409C60.7959 117.824 59.639 114.745 56.9678 113.534C54.2966 112.323 51.1254 113.435 49.8809 116.021Z" fill="#BA6128"/>
<path d="M37.6775 131.804C40.6001 132.171 49.8031 128.935 49.909 128.127C50.015 127.319 41.9477 121.914 39.0322 121.548C36.1166 121.181 33.4383 123.179 33.0668 126.011C32.6953 128.844 34.7492 131.436 37.6775 131.804Z" fill="#BA6128"/>
<path d="M176.434 198.28C176.434 198.28 160.921 168.862 214.998 150.685C214.996 150.685 211.525 209.741 176.434 198.28Z" fill="#DA6317"/>
<path d="M215.068 150.595L175.143 194.287C173.047 185.685 172.993 164.738 215.068 150.595Z" fill="#BA6128"/>
<path d="M176.825 192.538C176.802 192.536 176.781 192.528 176.763 192.513C176.754 192.503 176.746 192.492 176.741 192.48C176.736 192.468 176.734 192.455 176.734 192.442C176.734 192.429 176.736 192.416 176.741 192.404C176.746 192.392 176.754 192.381 176.763 192.372L215.003 150.526C215.012 150.516 215.023 150.508 215.035 150.503C215.047 150.498 215.061 150.495 215.074 150.495C215.087 150.495 215.1 150.498 215.112 150.503C215.125 150.508 215.135 150.516 215.144 150.526C215.154 150.535 215.162 150.546 215.167 150.558C215.172 150.57 215.175 150.583 215.175 150.596C215.175 150.609 215.172 150.622 215.167 150.634C215.162 150.647 215.154 150.658 215.144 150.667L176.906 192.513C176.895 192.522 176.882 192.53 176.868 192.534C176.855 192.539 176.84 192.54 176.825 192.538Z" fill="#080435"/>
<path d="M195.101 172.538C195.078 172.537 195.056 172.527 195.039 172.511C195.022 172.494 195.012 172.473 195.009 172.449C195.008 172.437 195.01 172.424 195.013 172.412C195.017 172.4 195.023 172.389 195.031 172.379C195.04 172.369 195.05 172.361 195.061 172.355C195.072 172.35 195.084 172.346 195.097 172.345L210.719 170.898C210.743 170.897 210.767 170.906 210.785 170.923C210.803 170.939 210.814 170.962 210.816 170.986C210.818 171.011 210.811 171.035 210.796 171.054C210.781 171.073 210.76 171.086 210.736 171.091L195.12 172.537L195.101 172.538Z" fill="#080435"/>
<path d="M181.207 198.394C181.207 198.394 187.109 158.915 252.05 180.304C252.05 180.308 206.874 234.671 181.207 198.394Z" fill="#BA6128"/>
<path d="M252.05 180.308L181.207 198.394C181.207 198.394 200.377 236.731 252.05 180.308Z" fill="#DA6317"/>
<path d="M233.549 192.295H233.519L217.01 188.831C216.95 188.819 216.896 188.783 216.862 188.731C216.828 188.68 216.816 188.617 216.828 188.556C216.841 188.496 216.877 188.443 216.928 188.408C216.98 188.374 217.043 188.362 217.104 188.374L233.614 191.839C233.67 191.853 233.719 191.887 233.752 191.935C233.784 191.983 233.798 192.041 233.79 192.098C233.782 192.156 233.752 192.208 233.708 192.245C233.664 192.282 233.607 192.302 233.549 192.3V192.295Z" fill="#BA6128"/>
<path d="M148.322 46.0744C148.832 46.0341 149.344 46.1091 149.821 46.2937C150.298 46.4782 150.726 46.7676 151.075 47.1403C151.425 47.513 151.685 47.9595 151.837 48.4465C151.99 48.9334 152.03 49.4484 151.955 49.9531C151.623 52.1955 150.365 54.3505 148.565 55.5612C145.535 57.5908 141.502 57.2441 138.358 55.4203C136.691 54.452 135.168 53.0863 133.316 52.6648C128.775 51.6303 123.195 57.6204 118.959 54.1461C115.286 51.1342 117.025 48.3971 119.83 46.0631C127.352 39.7968 139.261 46.7523 148.322 46.0744Z" fill="white"/>
<path d="M241.5 56.0418C242.886 58.5238 241.767 62.0502 239.49 63.5766C237.213 65.103 234.177 64.8451 231.816 63.4709C230.563 62.7437 229.414 61.7162 228.026 61.3991C224.611 60.6211 220.418 65.1256 217.232 62.5139C214.471 60.249 215.779 58.1912 217.888 56.4365C224.181 51.1976 234.533 58.2363 241.5 56.0418Z" fill="white"/>
<path d="M156.305 40.6791C153.861 40.0378 150.95 38.4536 151.154 35.7996C151.338 33.4247 154.013 32.1915 156.265 32.2295C158.517 32.2676 160.798 33.047 162.985 32.4776C165.842 31.7348 167.723 28.954 169.471 26.4467C171.326 23.7913 173.376 21.1853 176.079 19.5405C178.783 17.8957 182.276 17.3558 185.018 18.9316C187.116 20.1366 188.575 22.4256 190.794 23.36C193.796 24.6285 197.104 23.0584 200.239 22.2325C203.373 21.4065 207.584 21.9379 208.542 25.1923C209.347 27.9209 207.401 31.4093 209.233 33.5079C218.619 44.259 200.28 40.6227 193.612 41.1343C181.208 42.0885 168.563 43.8996 156.305 40.6791Z" fill="white"/>
<path d="M208.741 212.798H144.14C144.14 204.811 146.73 197.461 151.074 191.643C153.961 187.75 157.675 184.543 161.951 182.25C162.793 181.803 163.655 181.394 164.539 181.023C171.894 177.94 180.163 177.833 187.596 180.725C187.86 180.826 188.12 180.934 188.382 181.044C193.879 183.358 198.631 187.223 202.158 192.129C206.293 197.867 208.741 205.031 208.741 212.798Z" fill="black"/>
<path d="M125.831 78.5236L143.859 123.484C155.437 118.444 168.023 116.13 180.642 116.721C193.26 117.311 205.574 120.79 216.629 126.89L238.501 81.6793C221.165 72.8232 202.066 67.9388 182.597 67.3824C163.128 66.826 143.78 70.6115 125.964 78.463C125.922 78.4813 125.875 78.5025 125.831 78.5236Z" fill="#1863F7"/>
<path d="M263.344 208.185C263.344 209.769 263.307 211.342 263.233 212.906H316.479C316.479 184.294 308.678 157.616 295.202 135.115L251.542 162.011C259.046 175.561 263.344 191.347 263.344 208.185Z" fill="#81AA33"/>
<path d="M216.629 126.885C231.17 134.871 243.296 147.097 251.545 162.011L295.202 135.111C281.454 112.153 261.802 93.5453 238.501 81.6751L216.629 126.885Z" fill="#F7A518"/>
<path d="M90.3287 212.911C90.2543 211.347 90.2166 209.773 90.2157 208.191C90.2157 190.806 94.7981 174.552 102.754 160.707L62.1491 135.686C48.8821 158.067 41.209 184.539 41.209 212.911H90.3287Z" fill="#EB3E13"/>
<path d="M62.1492 135.686L102.754 160.702C112.294 144.094 126.691 130.953 143.86 123.48L125.833 78.5194C99.4258 90.1894 77.1917 110.305 62.1492 135.686Z" fill="#F71845"/>
<path d="M179.335 124.248C179.335 124.248 180.937 123.676 181.153 123.659C181.37 123.642 181.635 123.78 180.566 124.575C179.496 125.37 176.752 126.093 175.208 126.199L173.709 123.859C173.709 123.859 175.098 122.412 175.627 121.675C176.157 120.938 176.571 119.542 177.056 119.701C177.54 119.861 176.67 122.062 176.67 122.062C176.67 122.062 177.623 121.553 178.082 121.217C178.542 120.88 180.502 119.562 180.831 120.058C181.066 120.409 178.712 122.105 178.712 122.105C178.712 122.105 181.679 120.186 181.858 120.728C182.038 121.269 178.924 123.293 178.924 123.293C178.924 123.293 181.687 121.711 181.846 121.917C182.074 122.217 181.461 122.711 180.821 123.186L179.335 124.248Z" fill="#FFA089"/>
<path d="M139.15 157.652H149.839L152.991 124.058L139.899 134.537L139.15 157.652Z" fill="#0D0747"/>
<path d="M134.545 199.918C134.545 199.918 133.557 207.581 133.605 207.67C133.653 207.758 133.223 208.538 133.223 208.538L131.425 208.972L129.73 208.25C129.73 208.25 130.754 201.004 130.542 200.121C130.33 199.237 134.545 199.918 134.545 199.918Z" fill="#FFA089"/>
<path d="M129.734 208.246C129.734 208.246 131.853 208.915 133.589 207.541C133.589 207.541 140.672 209.954 140.552 212.063C140.552 212.063 140.877 212.673 137.855 212.688C134.834 212.704 130.141 212.796 130.012 212.728C129.884 212.66 129.307 213.031 129.734 208.246Z" fill="#080435"/>
<path d="M113.512 200.596C113.512 200.596 107.758 205.369 107.739 205.465C107.719 205.561 106.891 205.809 106.891 205.809L105.315 204.796L104.576 203.032C104.576 203.032 110.085 198.584 110.509 197.794C110.933 197.003 113.512 200.596 113.512 200.596Z" fill="#FFA089"/>
<path d="M104.577 203.032C104.577 203.032 105.662 205.078 107.805 205.368C107.805 205.368 111.301 212.315 109.828 213.741C109.828 213.741 109.66 214.418 107.48 212.204C105.301 209.989 101.872 206.601 101.83 206.457C101.787 206.314 101.121 206.154 104.577 203.032Z" fill="#080435"/>
<path d="M139.666 152.435C139.666 152.435 146.696 171.347 145.627 181.522C144.483 192.434 134.581 206.569 134.581 206.569L128.879 205.159C128.879 205.159 134.842 187.823 133.896 180.005C132.949 172.187 129.799 166.879 128.747 162.81C128.747 162.81 129.714 177.553 125.262 187.403C123.267 191.813 109.375 205.392 109.375 205.392L104.786 201.727C104.786 201.727 115.614 185.465 115.877 179.715C117.123 152.3 120.525 146.366 120.525 146.366L139.666 152.435Z" fill="black"/>
<path d="M144.884 116.587C144.884 116.587 148.245 116.568 150.534 117.32C152.075 117.827 160.391 122.045 160.391 122.045C160.391 122.045 160.276 127.806 158.176 130.175C158.176 130.175 154.504 128.698 154.221 128.73C153.939 128.763 148.759 138.858 144.85 144.875C143.438 147.057 140.121 153.681 140.121 153.681C140.121 153.681 130.919 153.213 127.69 151.426C124.461 149.639 127.286 147.791 121.408 147.113C121.403 147.119 130.524 117.389 144.884 116.587Z" fill="white"/>
<path d="M151.931 118.942L148.009 159.292C148.009 159.292 153.509 159.359 154.83 157.652L155.696 130.832C155.696 130.832 165.827 135.404 175.208 126.199L174.557 122.945C174.557 122.945 164.376 124.503 160.381 122.045C157.935 120.546 155.355 119.277 152.674 118.253L151.931 118.942Z" fill="#160D6A"/>
<path d="M171.575 197.096C172.642 197.995 173.962 198.545 175.353 198.67C175.574 198.69 175.795 198.697 176.016 198.693C176.234 198.69 176.453 198.676 176.67 198.651C179.687 198.301 182.152 195.846 182.697 192.577C182.708 192.522 182.712 192.465 182.711 192.408L182.733 189.286L182.817 177.005L182.915 163.099L183.069 140.843L183.123 133.07V133.061L183.421 90.3177C183.43 90.0886 183.352 89.8644 183.204 89.6892C183.056 89.5139 182.848 89.4003 182.62 89.3706L181.139 89.2423C180.915 89.2292 180.695 89.3052 180.527 89.4537C180.36 89.6022 180.258 89.811 180.244 90.0344L174.504 140.608L171.938 163.192L170.281 177.801L168.98 189.251L168.796 190.863L168.758 191.205C168.753 191.264 168.753 191.324 168.758 191.384C168.811 192.477 169.088 193.549 169.573 194.531C170.057 195.514 170.738 196.387 171.575 197.096Z" fill="#7B7B7B"/>
<path d="M157.849 111.128C157.849 111.128 158.535 110.619 158.772 111.042C159.374 112.117 158.164 112.674 157.51 112.637L157.849 111.128Z" fill="#EF806F"/>
<path d="M158.987 108.67C159.017 108.598 159.045 108.529 159.073 108.454C160.274 105.229 158.667 101.569 155.495 100.497C152.845 99.5988 149.923 100.9 148.675 103.531C148.236 104.46 148.029 105.482 148.072 106.509C148.072 108.027 148.089 109.328 148.199 110.456C148.376 112.308 147.974 114.17 147.05 115.786L146.626 116.518C146.536 116.675 146.499 116.856 146.518 117.036C146.537 117.216 146.612 117.385 146.733 117.52C149.122 120.126 151.023 119.15 151.023 119.15L152.012 116.699C152.068 116.549 152.18 116.426 152.326 116.356C152.471 116.287 152.638 116.276 152.79 116.327C156.938 117.732 158.27 110.597 158.987 108.67Z" fill="#FFA089"/>
<path d="M152.424 109.338C152.477 109.201 152.475 109.05 152.42 108.914C152.364 108.779 152.259 108.67 152.125 108.609C152.059 108.583 151.989 108.57 151.918 108.572C151.847 108.574 151.777 108.59 151.712 108.62C151.648 108.65 151.59 108.692 151.543 108.745C151.496 108.797 151.46 108.859 151.437 108.926C151.384 109.063 151.386 109.214 151.442 109.349C151.497 109.485 151.603 109.594 151.736 109.654C151.802 109.68 151.873 109.693 151.944 109.691C152.014 109.689 152.084 109.673 152.149 109.644C152.213 109.614 152.271 109.572 152.318 109.519C152.365 109.467 152.402 109.405 152.424 109.338Z" fill="#060423"/>
<path d="M157.159 110.237C157.212 110.101 157.21 109.949 157.155 109.814C157.099 109.679 156.993 109.57 156.86 109.51C156.794 109.484 156.724 109.471 156.653 109.473C156.582 109.474 156.512 109.49 156.448 109.52C156.383 109.55 156.326 109.592 156.278 109.644C156.231 109.697 156.195 109.759 156.172 109.826C156.119 109.962 156.12 110.114 156.176 110.25C156.232 110.385 156.337 110.494 156.471 110.554C156.537 110.581 156.608 110.593 156.679 110.591C156.75 110.59 156.819 110.573 156.884 110.544C156.948 110.514 157.006 110.471 157.053 110.419C157.101 110.366 157.137 110.304 157.159 110.237Z" fill="#060423"/>
<path d="M150.967 107.786C150.913 107.764 150.867 107.727 150.834 107.68C150.783 107.611 150.761 107.524 150.772 107.439C150.783 107.353 150.825 107.275 150.892 107.22C151.301 106.886 152.313 106.53 153.2 107.576C153.255 107.642 153.283 107.726 153.279 107.812C153.275 107.898 153.239 107.98 153.177 108.04C153.148 108.069 153.112 108.091 153.074 108.105C153.035 108.12 152.994 108.126 152.952 108.124C152.911 108.122 152.871 108.111 152.834 108.092C152.797 108.074 152.764 108.048 152.738 108.016C152.009 107.156 151.3 107.717 151.27 107.734C151.229 107.77 151.179 107.793 151.126 107.803C151.072 107.812 151.017 107.806 150.967 107.786Z" fill="#060423"/>
<path d="M155.892 108.895C155.84 108.873 155.794 108.836 155.761 108.79C155.711 108.72 155.688 108.634 155.699 108.548C155.709 108.463 155.752 108.384 155.817 108.329C156.228 107.995 157.238 107.64 158.127 108.684C158.182 108.75 158.21 108.835 158.205 108.921C158.201 109.007 158.164 109.089 158.103 109.149C158.073 109.178 158.038 109.2 157.999 109.214C157.96 109.229 157.919 109.235 157.878 109.232C157.836 109.23 157.796 109.219 157.759 109.2C157.722 109.182 157.69 109.156 157.664 109.124C156.935 108.265 156.227 108.825 156.196 108.85C156.154 108.885 156.104 108.907 156.05 108.915C155.997 108.923 155.942 108.916 155.892 108.895Z" fill="#060423"/>
<path d="M147.839 104.222L147.865 108.618L148.906 108.815L151.307 104.16L147.839 104.222Z" fill="#060423"/>
<path d="M149.099 108.754C149.08 108.541 148.986 108.342 148.834 108.191C148.526 107.882 147.944 107.441 147.325 107.726C146.415 108.148 147.042 110.516 148.68 110.148C148.68 110.147 149.197 109.91 149.099 108.754Z" fill="#FFA089"/>
<path d="M154.258 112.286C154.088 112.297 153.918 112.266 153.762 112.196C153.607 112.126 153.472 112.018 153.368 111.883C153.352 111.862 153.345 111.835 153.348 111.809C153.352 111.783 153.365 111.759 153.386 111.742C153.396 111.735 153.407 111.729 153.419 111.726C153.431 111.723 153.443 111.723 153.455 111.724C153.467 111.726 153.478 111.731 153.489 111.737C153.499 111.744 153.508 111.752 153.515 111.762C153.631 111.912 153.794 112.019 153.978 112.065C154.163 112.111 154.357 112.094 154.53 112.017C154.634 111.975 154.696 111.933 154.714 111.889C154.732 111.845 154.7 111.717 154.644 111.566C154.515 111.215 154.299 110.63 154.542 109.613C154.544 109.601 154.549 109.589 154.556 109.579C154.563 109.569 154.572 109.56 154.583 109.554C154.593 109.547 154.605 109.543 154.617 109.541C154.629 109.539 154.641 109.539 154.653 109.542C154.678 109.55 154.698 109.566 154.711 109.588C154.724 109.61 154.727 109.636 154.721 109.661C154.492 110.618 154.687 111.145 154.816 111.493C154.885 111.682 154.94 111.831 154.884 111.967C154.854 112.022 154.814 112.071 154.766 112.111C154.717 112.151 154.661 112.181 154.601 112.199C154.492 112.246 154.376 112.275 154.258 112.286Z" fill="#EF806F"/>
<path d="M158.946 106.136C158.946 106.136 159.497 107.021 158.415 110.505C158.415 110.505 160.089 106.818 159.845 106.233C159.6 105.648 158.946 106.136 158.946 106.136Z" fill="#060423"/>
<path d="M152.648 98.677C152.868 98.5967 153.197 98.6136 153.235 98.856C153.24 98.9561 153.213 99.0551 153.156 99.1379C153.018 99.3844 152.84 99.6067 152.629 99.7961C153.99 99.1915 155.573 99.6213 156.881 100.344C158.189 101.067 159.353 102.068 160.704 102.7C161.238 102.95 161.883 103.245 161.975 103.855C161.996 104.067 161.954 104.281 161.853 104.469C161.753 104.657 161.598 104.811 161.41 104.911C161.037 105.09 160.611 105.126 160.213 105.011C160.382 105.029 160.542 105.099 160.67 105.211C160.798 105.322 160.889 105.471 160.93 105.635C160.97 105.804 160.96 105.98 160.901 106.143C160.842 106.306 160.737 106.448 160.599 106.553C160.175 106.847 159.61 106.663 159.148 106.463C157.654 105.822 156.196 105.1 154.781 104.299L155.154 105.166C155.203 105.262 155.229 105.369 155.23 105.478C155.218 105.55 155.19 105.618 155.148 105.678C155.106 105.738 155.051 105.787 154.987 105.823C154.673 106.017 154.269 105.979 153.934 105.823C153.607 105.65 153.299 105.44 153.019 105.197C152.591 104.868 152.132 104.58 151.649 104.337C151.553 104.281 151.447 104.247 151.337 104.236C151.187 104.25 151.042 104.298 150.913 104.377C150.102 104.752 149.171 104.598 148.3 104.439C148.028 104.389 147.695 104.272 147.668 103.984C147.667 103.871 147.694 103.759 147.747 103.659C148.275 102.445 149.118 101.393 150.19 100.612C149.92 100.807 149.538 100.687 149.53 100.288C149.52 99.782 150.153 99.7045 150.499 99.6819C150.815 99.6622 151.064 99.7538 151.365 99.5988C151.844 99.3578 152.112 98.8715 152.648 98.677Z" fill="#060423"/>
<path d="M153.253 112.622C153.016 112.481 152.715 112.416 152.477 112.551C152.275 112.693 152.136 112.907 152.088 113.149C152.057 113.237 152.047 113.33 152.058 113.422C152.075 113.491 152.108 113.554 152.153 113.607C152.199 113.661 152.256 113.702 152.321 113.73C152.448 113.78 152.581 113.813 152.717 113.828C153.282 113.927 153.807 114.151 154.343 114.353C154.516 114.419 154.716 114.481 154.881 114.394C155.077 114.289 155.136 113.999 155.052 113.785C154.955 113.578 154.786 113.413 154.577 113.321C154.353 113.207 154.11 113.167 153.885 113.069C153.66 112.97 153.474 112.753 153.253 112.622Z" fill="white"/>
<path d="M176.111 120.83C176.111 120.83 176.534 119.53 177.056 119.703C177.577 119.876 176.718 121.124 176.563 122.489C176.407 123.855 176.111 120.83 176.111 120.83Z" fill="#FFA089"/>
<path d="M153.824 120.988L152.665 127.708L154.521 128.733L149.9 145.157L150.43 118.026L153.824 120.988Z" fill="#080435"/>
<path d="M99.0118 146.207L100.621 146.771L101.627 143.862L107.157 145.801L106.151 148.712L107.76 149.275L108.822 146.199C109.105 145.397 108.736 144.537 108.011 144.283L101.894 142.135C101.167 141.882 100.352 142.327 100.076 143.129L99.0118 146.207Z" fill="#080435"/>
<path d="M91.8952 142.894L115.379 151.136C115.424 151.152 115.461 151.185 115.482 151.228C115.503 151.271 115.505 151.321 115.49 151.366L110.154 166.8C110.147 166.823 110.135 166.843 110.119 166.861C110.103 166.879 110.084 166.893 110.063 166.903C110.042 166.914 110.019 166.92 109.995 166.921C109.971 166.923 109.948 166.919 109.925 166.912L86.4412 158.671C86.3963 158.654 86.3596 158.621 86.339 158.578C86.3184 158.534 86.3155 158.485 86.331 158.44L91.6664 143.004C91.6741 142.981 91.6862 142.961 91.7019 142.943C91.7176 142.926 91.7367 142.911 91.7579 142.901C91.7792 142.891 91.8022 142.885 91.8258 142.884C91.8494 142.882 91.8729 142.886 91.8952 142.894Z" fill="#160D6A"/>
<path d="M99.9907 155.326C100.005 155.328 100.019 155.328 100.033 155.326L113.936 155.738C113.973 155.739 114.01 155.725 114.037 155.699C114.064 155.674 114.08 155.638 114.081 155.601C114.082 155.564 114.069 155.527 114.043 155.5C114.017 155.473 113.982 155.457 113.944 155.456L100.088 155.046L90.3696 147.153C90.3552 147.141 90.3384 147.132 90.3205 147.127C90.3025 147.121 90.2836 147.119 90.2649 147.121C90.2462 147.123 90.2281 147.129 90.2117 147.138C90.1952 147.147 90.1807 147.159 90.1691 147.174C90.157 147.189 90.1479 147.205 90.1425 147.224C90.1371 147.242 90.1354 147.261 90.1375 147.28C90.1396 147.298 90.1455 147.317 90.1548 147.333C90.1641 147.35 90.1766 147.364 90.1917 147.376L99.9484 155.304C99.9611 155.313 99.9754 155.321 99.9907 155.326Z" fill="#080435"/>
<path d="M100.487 153.814L101.913 154.314L101.013 156.917L99.5881 156.417L100.487 153.814Z" fill="white"/>
<path d="M124.56 127.972C124.56 127.972 116.672 130.286 115.851 131.487C115.03 132.688 108.165 141.082 108.165 141.082L106.046 139.955C106.046 139.955 108.589 128.68 113.64 124.782C118.692 120.885 125.604 119.783 125.604 119.783C125.604 119.783 125.808 126.372 124.56 127.972Z" fill="#FFA089"/>
<path d="M104.011 142.839C104.011 142.839 103.11 144.189 102.937 144.321C102.765 144.454 102.336 144.495 102.796 143.256C103.257 142.017 105.157 139.906 106.397 138.966L108.985 140.04C108.985 140.04 108.633 141.986 108.603 142.88C108.574 143.773 109.014 145.135 108.514 145.276C108.014 145.416 107.482 143.183 107.482 143.183C107.226 143.645 106.994 144.12 106.787 144.606C106.587 145.128 106.109 146.12 105.551 145.899C105.154 145.742 105.753 144.233 105.753 144.233C105.753 144.233 105.073 145.696 104.623 145.36C104.172 145.025 104.905 143.387 104.905 143.387C104.905 143.387 104.281 144.713 104.074 144.875C103.84 145.06 103.238 144.901 103.509 144.158L104.011 142.839Z" fill="#FFA089"/>
<path d="M145.405 116.587C145.405 116.587 133.592 115.871 124.396 118.62C115.2 121.37 106.771 127.593 106.39 138.968L108.978 140.042C108.978 140.042 117.661 130.909 121.723 130.176C125.786 129.443 130.277 130.176 130.277 130.176L145.405 116.587Z" fill="#160D6A"/>
<path d="M145.405 116.587L138.948 143.35L136.425 159.294L116.858 155.366C116.858 155.366 119.788 139.862 128.032 128.271C136.276 116.68 145.405 116.587 145.405 116.587Z" fill="#160D6A"/>
<path d="M147.119 120.451L145.369 116.602L145.441 116.57L147.15 120.329L149.417 118.667L151.742 120.189L152.64 118.236L152.714 118.269L151.776 120.308L149.42 118.766L147.119 120.451Z" fill="#160D6A"/>
<path d="M141.247 117.532L141.549 125.876L139.471 126.288L138.948 143.35L145.405 116.56L141.247 117.532Z" fill="#080435"/>
<path d="M146.312 129.955C146.312 129.899 146.329 129.845 146.36 129.798C146.391 129.752 146.435 129.716 146.487 129.695C146.538 129.673 146.595 129.668 146.65 129.679C146.705 129.689 146.755 129.716 146.794 129.756C146.834 129.795 146.861 129.845 146.872 129.9C146.883 129.955 146.877 130.011 146.856 130.063C146.834 130.114 146.798 130.158 146.752 130.189C146.705 130.22 146.651 130.237 146.595 130.237C146.52 130.237 146.448 130.207 146.395 130.154C146.342 130.102 146.312 130.03 146.312 129.955Z" fill="#160D6A"/>
<path d="M144.14 138.223C144.295 138.223 144.421 138.096 144.421 137.939C144.421 137.783 144.295 137.656 144.14 137.656C143.984 137.656 143.859 137.783 143.859 137.939C143.859 138.096 143.984 138.223 144.14 138.223Z" fill="#160D6A"/>
<path d="M140.612 145.495C140.612 145.44 140.629 145.385 140.66 145.339C140.691 145.292 140.735 145.256 140.787 145.235C140.838 145.214 140.895 145.208 140.95 145.219C141.005 145.23 141.055 145.257 141.095 145.296C141.134 145.335 141.161 145.386 141.172 145.44C141.183 145.495 141.177 145.552 141.156 145.603C141.134 145.655 141.098 145.699 141.052 145.73C141.005 145.761 140.951 145.777 140.895 145.777C140.82 145.777 140.748 145.748 140.695 145.695C140.642 145.642 140.612 145.57 140.612 145.495Z" fill="#160D6A"/>
<path d="M147.849 119.452L149.007 121.441L146.593 149.567L150.318 155.629L153.085 149.416L150.406 121.27L151.251 119.281L148.978 118.43L147.849 119.452Z" fill="#FF6760"/>
<path d="M145.405 116.587L147.24 115.422L149.474 118.2L151.903 116.959L152.677 118.253L151.759 120.248L149.418 118.716L147.134 120.391L145.405 116.587Z" fill="white"/>
<path d="M68.4845 184.897C70.7446 181.133 74.0063 173.763 76.3512 169.883C76.8329 169.085 76.2099 168.06 75.3186 168.191L70.2093 168.958L73.4836 156.707C73.6249 156.183 72.937 155.887 72.6898 156.364L63.2452 174.611C62.9627 175.144 63.4331 175.766 63.9868 175.608L69.6711 173.987L67.5692 184.503C67.4547 185.082 68.1893 185.398 68.4845 184.897Z" fill="#FF6760"/>
<path d="M89.5983 195.555H42.274C38.9771 195.555 36.3044 198.222 36.3044 201.512V207.913C36.3044 211.203 38.9771 213.87 42.274 213.87H89.5983C92.8952 213.87 95.5679 211.203 95.5679 207.913V201.512C95.5679 198.222 92.8952 195.555 89.5983 195.555Z" fill="#BA3312"/>
<path d="M50.5672 202.272L48.7032 208H46.9832L45.1672 202.272H46.7352L47.2552 203.936C47.5486 204.869 47.7512 205.733 47.8632 206.528C47.9859 205.728 48.1912 204.867 48.4792 203.944L48.9992 202.272H50.5672ZM55.1112 206.728C55.0472 206.973 54.9245 207.2 54.7432 207.408C54.3325 207.877 53.7645 208.112 53.0392 208.112C52.3832 208.112 51.8525 207.931 51.4472 207.568C50.9938 207.163 50.7672 206.627 50.7672 205.96C50.7672 205.261 51.0018 204.701 51.4712 204.28C51.8765 203.917 52.3805 203.736 52.9832 203.736C53.7138 203.736 54.2765 203.976 54.6712 204.456C55.0178 204.877 55.1912 205.429 55.1912 206.112C55.1912 206.16 55.1912 206.203 55.1912 206.24H52.1032C52.1138 206.539 52.2018 206.773 52.3672 206.944C52.5325 207.109 52.7565 207.192 53.0392 207.192C53.3858 207.192 53.6498 207.037 53.8312 206.728H55.1112ZM53.8552 205.464C53.7858 204.925 53.5005 204.656 52.9992 204.656C52.4925 204.656 52.1992 204.925 52.1192 205.464H53.8552ZM58.858 203.824L58.85 204.944C58.6526 204.885 58.466 204.856 58.29 204.856C57.5966 204.856 57.25 205.301 57.25 206.192V208H55.89V203.848H57.202V204.56C57.362 204.011 57.8073 203.736 58.538 203.736C58.6233 203.736 58.73 203.765 58.858 203.824ZM63.3016 203.848L61.7976 208.04C61.5896 208.616 61.3656 208.995 61.1256 209.176C60.8856 209.357 60.4909 209.448 59.9416 209.448C59.6483 209.448 59.3149 209.416 58.9416 209.352L59.1576 208.272C59.2749 208.315 59.4269 208.336 59.6136 208.336C59.9069 208.336 60.0936 208.275 60.1736 208.152C60.2589 208.029 60.3016 207.893 60.3016 207.744C60.3016 207.712 60.2936 207.677 60.2776 207.64L58.8616 203.848H60.3096L60.8856 205.688C60.9549 205.917 61.0296 206.24 61.1096 206.656C61.2163 206.181 61.3016 205.843 61.3656 205.64L61.9096 203.848H63.3016ZM72.4508 202.272L70.8748 208H69.3788L68.9308 206.072C68.8508 205.747 68.7708 205.325 68.6908 204.808C68.6375 204.483 68.5922 204.224 68.5548 204.032C68.5282 204.197 68.4882 204.451 68.4348 204.792C68.3762 205.197 68.2988 205.616 68.2028 206.048L67.7708 208H66.2508L64.6908 202.272H66.1948L66.6268 204.12C66.7975 204.872 66.9308 205.651 67.0268 206.456C67.1335 205.629 67.2668 204.859 67.4268 204.144L67.8588 202.272H69.2828L69.6828 204.032C69.8695 204.864 70.0108 205.672 70.1068 206.456C70.2188 205.555 70.3682 204.717 70.5548 203.944L70.9468 202.272H72.4508ZM77.0018 206.728C76.9378 206.973 76.8151 207.2 76.6338 207.408C76.2231 207.877 75.6551 208.112 74.9298 208.112C74.2738 208.112 73.7431 207.931 73.3378 207.568C72.8844 207.163 72.6578 206.627 72.6578 205.96C72.6578 205.261 72.8924 204.701 73.3618 204.28C73.7671 203.917 74.2711 203.736 74.8738 203.736C75.6044 203.736 76.1671 203.976 76.5618 204.456C76.9084 204.877 77.0818 205.429 77.0818 206.112C77.0818 206.16 77.0818 206.203 77.0818 206.24H73.9938C74.0044 206.539 74.0924 206.773 74.2578 206.944C74.4231 207.109 74.6471 207.192 74.9298 207.192C75.2764 207.192 75.5404 207.037 75.7218 206.728H77.0018ZM75.7458 205.464C75.6764 204.925 75.3911 204.656 74.8898 204.656C74.3831 204.656 74.0898 204.925 74.0098 205.464H75.7458ZM81.7806 208H80.3966C80.3539 207.867 80.3299 207.736 80.3246 207.608C80.0686 207.944 79.6153 208.112 78.9646 208.112C78.4793 208.112 78.1059 207.984 77.8446 207.728C77.6153 207.504 77.5006 207.208 77.5006 206.84C77.5006 206.333 77.7246 205.976 78.1726 205.768C78.3646 205.683 78.7593 205.584 79.3566 205.472L80.3006 205.296V205.048C80.2899 204.744 80.0793 204.592 79.6686 204.592C79.4446 204.592 79.2793 204.632 79.1726 204.712C79.0713 204.787 79.0046 204.923 78.9726 205.12H77.6846C77.7326 204.197 78.3993 203.736 79.6846 203.736C80.3673 203.736 80.8793 203.859 81.2206 204.104C81.3806 204.227 81.4899 204.365 81.5486 204.52C81.6073 204.669 81.6366 204.899 81.6366 205.208C81.6366 205.261 81.6339 205.427 81.6286 205.704V205.792L81.6206 206.48C81.6206 206.667 81.6206 206.792 81.6206 206.856C81.6206 206.92 81.6179 207.021 81.6126 207.16C81.6126 207.235 81.6126 207.293 81.6126 207.336C81.6126 207.635 81.6686 207.856 81.7806 208ZM80.3166 206.104L79.6926 206.24C79.3673 206.315 79.1513 206.389 79.0446 206.464C78.9379 206.539 78.8846 206.651 78.8846 206.8C78.8846 207.125 79.0686 207.288 79.4366 207.288C79.7459 207.288 79.9859 207.179 80.1566 206.96C80.2526 206.843 80.3033 206.656 80.3086 206.4L80.3166 206.104ZM86.6759 203.848L85.1479 205.4L86.8839 208H85.2519L84.2199 206.32L83.8359 206.672V208H82.4759V202.272H83.8359V205.264C83.9426 205.104 84.0412 204.976 84.1319 204.88L85.0999 203.848H86.6759Z" fill="white"/>
<path d="M312.663 195.555H265.339C262.042 195.555 259.37 198.222 259.37 201.512V207.913C259.37 211.203 262.042 213.87 265.339 213.87H312.663C315.96 213.87 318.633 211.203 318.633 207.913V201.512C318.633 198.222 315.96 195.555 312.663 195.555Z" fill="#719926"/>
<path d="M268.261 202.128C269.151 202.128 269.861 202.443 270.389 203.072C270.842 203.621 271.069 204.309 271.069 205.136C271.069 206.091 270.775 206.848 270.189 207.408C269.677 207.899 269.034 208.144 268.261 208.144C267.354 208.144 266.634 207.829 266.101 207.2C265.642 206.656 265.413 205.968 265.413 205.136C265.413 204.181 265.695 203.435 266.261 202.896C266.805 202.384 267.471 202.128 268.261 202.128ZM268.253 203.36C267.821 203.36 267.485 203.541 267.245 203.904C267.037 204.213 266.933 204.621 266.933 205.128C266.933 205.72 267.066 206.176 267.333 206.496C267.567 206.773 267.877 206.912 268.261 206.912C268.666 206.912 268.983 206.755 269.213 206.44C269.442 206.12 269.557 205.675 269.557 205.104C269.557 204.523 269.423 204.077 269.157 203.768C268.927 203.496 268.626 203.36 268.253 203.36ZM275.928 203.848V208H274.56V207.44C274.298 207.888 273.866 208.112 273.264 208.112C272.736 208.112 272.338 207.939 272.072 207.592C271.885 207.352 271.792 206.971 271.792 206.448V203.848H273.152V206.064C273.152 206.421 273.186 206.651 273.256 206.752C273.362 206.917 273.544 207 273.8 207C274.114 207 274.338 206.869 274.472 206.608C274.53 206.485 274.56 206.261 274.56 205.936V203.848H275.928ZM279.367 203.848V204.744H278.383V206.456C278.383 206.84 278.556 207.032 278.903 207.032C279.105 207.032 279.265 206.992 279.383 206.912L279.623 207.888C279.361 208 278.98 208.056 278.479 208.056C277.86 208.056 277.447 207.923 277.239 207.656C277.148 207.539 277.089 207.411 277.063 207.272C277.036 207.133 277.023 206.904 277.023 206.584V204.744H276.327V203.848H277.023V202.968L278.383 202.256V203.848H279.367ZM283.43 205.016H282.174C282.153 204.856 282.089 204.744 281.982 204.68C281.881 204.611 281.713 204.576 281.478 204.576C281.116 204.576 280.934 204.688 280.934 204.912C280.934 205.029 280.99 205.115 281.102 205.168C281.22 205.221 281.486 205.288 281.902 205.368C282.505 205.485 282.926 205.643 283.166 205.84C283.412 206.032 283.534 206.312 283.534 206.68C283.534 207.16 283.334 207.528 282.934 207.784C282.582 208.003 282.116 208.112 281.534 208.112C280.798 208.112 280.254 207.939 279.902 207.592C279.732 207.421 279.62 207.288 279.566 207.192C279.518 207.091 279.486 206.928 279.47 206.704H280.806C280.828 206.896 280.892 207.032 280.998 207.112C281.11 207.187 281.294 207.224 281.55 207.224C281.977 207.224 282.19 207.083 282.19 206.8C282.19 206.677 282.14 206.589 282.038 206.536C281.937 206.477 281.697 206.405 281.318 206.32C280.726 206.192 280.324 206.069 280.11 205.952C279.769 205.76 279.598 205.451 279.598 205.024C279.598 204.608 279.764 204.291 280.094 204.072C280.425 203.848 280.894 203.736 281.502 203.736C282.254 203.736 282.79 203.915 283.11 204.272C283.302 204.48 283.409 204.728 283.43 205.016ZM286.734 203.848V204.744H285.75V206.456C285.75 206.84 285.923 207.032 286.27 207.032C286.472 207.032 286.632 206.992 286.75 206.912L286.99 207.888C286.728 208 286.347 208.056 285.846 208.056C285.227 208.056 284.814 207.923 284.606 207.656C284.515 207.539 284.456 207.411 284.43 207.272C284.403 207.133 284.39 206.904 284.39 206.584V204.744H283.694V203.848H284.39V202.968L285.75 202.256V203.848H286.734ZM291.238 208H289.854C289.811 207.867 289.787 207.736 289.782 207.608C289.526 207.944 289.072 208.112 288.422 208.112C287.936 208.112 287.563 207.984 287.302 207.728C287.072 207.504 286.958 207.208 286.958 206.84C286.958 206.333 287.182 205.976 287.63 205.768C287.822 205.683 288.216 205.584 288.814 205.472L289.758 205.296V205.048C289.747 204.744 289.536 204.592 289.126 204.592C288.902 204.592 288.736 204.632 288.63 204.712C288.528 204.787 288.462 204.923 288.43 205.12H287.142C287.19 204.197 287.856 203.736 289.142 203.736C289.824 203.736 290.336 203.859 290.678 204.104C290.838 204.227 290.947 204.365 291.006 204.52C291.064 204.669 291.094 204.899 291.094 205.208C291.094 205.261 291.091 205.427 291.086 205.704V205.792L291.078 206.48C291.078 206.667 291.078 206.792 291.078 206.856C291.078 206.92 291.075 207.021 291.07 207.16C291.07 207.235 291.07 207.293 291.07 207.336C291.07 207.635 291.126 207.856 291.238 208ZM289.774 206.104L289.15 206.24C288.824 206.315 288.608 206.389 288.502 206.464C288.395 206.539 288.342 206.651 288.342 206.8C288.342 207.125 288.526 207.288 288.894 207.288C289.203 207.288 289.443 207.179 289.614 206.96C289.71 206.843 289.76 206.656 289.766 206.4L289.774 206.104ZM293.245 203.848V204.4C293.576 203.957 294.029 203.736 294.605 203.736C295.16 203.736 295.565 203.92 295.821 204.288C295.986 204.533 296.069 204.912 296.069 205.424V208H294.701V205.648C294.701 205.429 294.68 205.267 294.637 205.16C294.552 204.952 294.362 204.848 294.069 204.848C293.749 204.848 293.525 204.971 293.397 205.216C293.328 205.344 293.293 205.533 293.293 205.784V208H291.933V203.848H293.245ZM301.092 202.272V208H299.724V207.512C299.484 207.912 299.108 208.112 298.596 208.112C297.999 208.112 297.529 207.885 297.188 207.432C296.895 207.032 296.748 206.52 296.748 205.896C296.748 205.197 296.932 204.651 297.3 204.256C297.62 203.904 298.028 203.728 298.524 203.728C299.041 203.728 299.441 203.928 299.724 204.328V202.272H301.092ZM298.948 204.792C298.687 204.792 298.484 204.891 298.34 205.088C298.201 205.28 298.132 205.552 298.132 205.904C298.132 206.635 298.404 207 298.948 207C299.209 207 299.412 206.904 299.556 206.712C299.705 206.515 299.78 206.245 299.78 205.904C299.78 205.557 299.705 205.285 299.556 205.088C299.407 204.891 299.204 204.792 298.948 204.792ZM303.387 203.848V208H302.027V203.848H303.387ZM302.707 202.12C302.877 202.12 303.024 202.181 303.147 202.304C303.269 202.421 303.331 202.568 303.331 202.744C303.331 202.915 303.269 203.061 303.147 203.184C303.024 203.307 302.877 203.368 302.707 203.368C302.531 203.368 302.381 203.307 302.259 203.184C302.141 203.061 302.083 202.915 302.083 202.744C302.083 202.568 302.141 202.421 302.259 202.304C302.381 202.181 302.531 202.12 302.707 202.12ZM305.636 203.848V204.4C305.966 203.957 306.42 203.736 306.996 203.736C307.55 203.736 307.956 203.92 308.212 204.288C308.377 204.533 308.46 204.912 308.46 205.424V208H307.092V205.648C307.092 205.429 307.07 205.267 307.028 205.16C306.942 204.952 306.753 204.848 306.46 204.848C306.14 204.848 305.916 204.971 305.788 205.216C305.718 205.344 305.684 205.533 305.684 205.784V208H304.324V203.848H305.636ZM313.403 203.848V207.448C313.403 208.008 313.309 208.429 313.123 208.712C312.781 209.219 312.176 209.472 311.307 209.472C310.064 209.472 309.387 209.027 309.275 208.136H310.635C310.72 208.44 310.949 208.592 311.323 208.592C311.605 208.592 311.803 208.523 311.915 208.384C312.032 208.245 312.091 208.005 312.091 207.664V207.208C311.803 207.597 311.403 207.792 310.891 207.792C310.315 207.792 309.869 207.587 309.555 207.176C309.277 206.819 309.139 206.355 309.139 205.784C309.139 205.123 309.323 204.603 309.691 204.224C310.011 203.899 310.421 203.736 310.923 203.736C311.419 203.736 311.808 203.949 312.091 204.376V203.848H313.403ZM311.291 204.768C311.04 204.768 310.84 204.859 310.691 205.04C310.547 205.216 310.475 205.459 310.475 205.768C310.475 206.083 310.547 206.333 310.691 206.52C310.84 206.701 311.043 206.792 311.299 206.792C311.549 206.792 311.747 206.701 311.891 206.52C312.04 206.339 312.115 206.091 312.115 205.776C312.115 205.461 312.04 205.216 311.891 205.04C311.747 204.859 311.547 204.768 311.291 204.768Z" fill="white"/>
</svg>
